<svg xmlns="http://www.w3.org/2000/svg" xmlns:xlink="http://www.w3.org/1999/xlink" width="22" height="22" viewBox="0 0 22 22"><defs><clipPath id="a"><rect width="10" height="7" fill="#64b64b"/></clipPath></defs><g transform="translate(-734 -967)"><g transform="translate(740 975)" clip-path="url(#a)"><path d="M10,.7a.69.69,0,0,1-.209.495l-5.714,5.6a.724.724,0,0,1-1.01,0L.209,3.995A.689.689,0,0,1,0,3.5a.707.707,0,0,1,.714-.7.719.719,0,0,1,.5.205L3.571,5.311,8.781.206A.714.714,0,0,1,9.286,0,.707.707,0,0,1,10,.7" fill="#64b64b"/></g><circle cx="11" cy="11" r="11" transform="translate(734 967)" fill="rgba(100,182,75,0.2)"/></g></svg>