<svg xmlns="http://www.w3.org/2000/svg" xmlns:xlink="http://www.w3.org/1999/xlink" width="20.007" height="20.003" viewBox="0 0 20.007 20.003"><defs><clipPath id="a"><rect width="20.007" height="20.003" transform="translate(0 0)" fill="#f04137"/></clipPath></defs><g transform="translate(0 0)" clip-path="url(#a)"><path d="M5.661,20A5.465,5.465,0,0,1,0,14.734C0,14.6,0,14.469,0,14.336v-8.4C0,2.542,2.167.149,5.432.041H9.339a.736.736,0,0,1,.1,1.466l-.1.006H5.661A4,4,0,0,0,1.484,5.327c-.006.124-.006.249,0,.373v8.4c0,2.608,1.528,4.324,3.959,4.423h8.9a4,4,0,0,0,4.181-3.8c.006-.131.006-.263,0-.394V10.146a.737.737,0,0,1,1.468-.1l.007.1V14.1c0,3.4-2.156,5.789-5.429,5.9H5.661ZM6,14.659a.737.737,0,0,1-.74-.736V13.9l.093-3.712A2.854,2.854,0,0,1,6.2,8.233L13.546.9A3.088,3.088,0,0,1,17.9.9l1.2,1.2a3.072,3.072,0,0,1,.006,4.346l-.006.006-7.385,7.372a2.857,2.857,0,0,1-2.031.841Zm1.238-5.38a1.386,1.386,0,0,0-.409.95l-.075,2.956H9.685a1.4,1.4,0,0,0,.886-.316l.1-.093L16.41,7.05,12.942,3.587ZM17.453,6.008l.6-.6a1.6,1.6,0,0,0,.005-2.263l-.005,0-1.2-1.194a1.608,1.608,0,0,0-2.273,0l-.6.6Z" fill="#f04137"/></g></svg>