<svg id="up" xmlns="http://www.w3.org/2000/svg" xmlns:xlink="http://www.w3.org/1999/xlink" width="48" height="48" viewBox="0 0 48 48">
  <defs>
    <clipPath id="clip-path">
      <rect id="Rectangle_192" data-name="Rectangle 192" width="14.13" height="15.262" transform="translate(0 0)" fill="#00b6cb"/>
    </clipPath>
    <clipPath id="clip-path-2">
      <rect id="Rectangle_193" data-name="Rectangle 193" width="4.54" height="2.158" fill="none" stroke="#00b6cb" stroke-width="1"/>
    </clipPath>
  </defs>
  <path id="Path_416" data-name="Path 416" d="M4.24,24.656c-.661-.421-1.333-.828-1.982-1.27a6.857,6.857,0,0,1-1.723-1.4c-1.07-1.4-.349-3.3.553-4.265a5.1,5.1,0,0,1,3.351-1.542,11.5,11.5,0,0,1,5.942,1.245,15.757,15.757,0,0,1,3.88,2.775,28.294,28.294,0,0,1,5.21,6.118,15.718,15.718,0,0,1,2.368,6.371,7.806,7.806,0,0,1-.022,2.695,3.225,3.225,0,0,1-3.133,2.6,11.609,11.609,0,0,1-6.292-1.171,20.951,20.951,0,0,1-4.211-2.47A3,3,0,0,1,6.9,31.091c.11-.327.053-.4-.3-.455A9.4,9.4,0,0,1,3.892,30a2.935,2.935,0,0,1-1.757-2.4,2.437,2.437,0,0,1,1.7-2.691c.134-.061.313-.05.409-.253" transform="translate(0.999 6.482)" fill="#d9f4f7"/>
  <path id="Path_417" data-name="Path 417" d="M17.706,24.656c.661-.421,1.333-.828,1.982-1.27a6.857,6.857,0,0,0,1.723-1.4c1.07-1.4.349-3.3-.552-4.265a5.1,5.1,0,0,0-3.351-1.542,11.5,11.5,0,0,0-5.942,1.245A15.756,15.756,0,0,0,7.684,20.2a28.294,28.294,0,0,0-5.209,6.118A15.718,15.718,0,0,0,.107,32.688a7.806,7.806,0,0,0,.022,2.695,3.225,3.225,0,0,0,3.133,2.6,11.608,11.608,0,0,0,6.292-1.171,20.951,20.951,0,0,0,4.211-2.47,3,3,0,0,0,1.284-3.25c-.11-.327-.053-.4.3-.455a9.4,9.4,0,0,0,2.7-.634,2.935,2.935,0,0,0,1.757-2.4,2.437,2.437,0,0,0-1.7-2.691c-.134-.061-.313-.05-.409-.253" transform="translate(26.055 6.482)" fill="#d9f4f7"/>
  <rect id="Rectangle_191" data-name="Rectangle 191" width="48" height="48" rx="12" fill="#e9fdff"/>
  <g id="up-2" data-name="up" transform="translate(17 16)">
    <g id="Group_408" data-name="Group 408" clip-path="url(#clip-path)">
      <path id="Path_413" data-name="Path 413" d="M7.068,15.262a.75.75,0,0,1-.75-.75V.75a.75.75,0,0,1,1.5,0V14.512a.75.75,0,0,1-.75.75" fill="#00b6cb"/>
      <path id="Path_414" data-name="Path 414" d="M13.381,7.838a.743.743,0,0,1-.531-.221l-5.781-5.8-5.788,5.8A.75.75,0,0,1,.219,6.559L6.537.221A.75.75,0,0,1,7.6.221l6.312,6.338a.75.75,0,0,1-.531,1.279" fill="#00b6cb"/>
    </g>
  </g>
  <g id="Group_409" data-name="Group 409" transform="translate(21.73 31.421)" opacity="0">
    <g id="Group_409-2" data-name="Group 409" clip-path="url(#clip-path-2)">
      <path id="Контур_415" data-name="Контур 415" d="M1.891,1.51a2.4,2.4,0,0,1-.279-.016,2.358,2.358,0,0,1-.874-.28,2.357,2.357,0,0,1-.7-.591A.166.166,0,0,1,.3.414a2.025,2.025,0,0,0,1.355.75,2.042,2.042,0,0,0,1.5-.417l0,0A1.911,1.911,0,0,0,3.5.413a.166.166,0,1,1,.258.21,2.244,2.244,0,0,1-.405.387,2.373,2.373,0,0,1-.821.412A2.376,2.376,0,0,1,1.891,1.51Z" transform="translate(0.373 0.275)" fill="#00b6cb"/>
    </g>
  </g>
</svg>
