<svg id="up" xmlns="http://www.w3.org/2000/svg" xmlns:xlink="http://www.w3.org/1999/xlink" width="95" height="48" viewBox="0 0 95 48">
  <defs>
    <clipPath id="clip-path">
      <rect id="Rectangle_192" data-name="Rectangle 192" width="14.13" height="15.262" transform="translate(0 0)" fill="#00b6cb"/>
    </clipPath>
    <clipPath id="clip-path-2">
      <rect id="Rectangle_193" data-name="Rectangle 193" width="26.038" height="12.376" fill="none" stroke="#00b6cb" stroke-width="1"/>
    </clipPath>
  </defs>
  <path id="Path_416" data-name="Path 416" d="M4.24,24.656c-.661-.421-1.333-.828-1.982-1.27a6.857,6.857,0,0,1-1.723-1.4c-1.07-1.4-.349-3.3.553-4.265a5.1,5.1,0,0,1,3.351-1.542,11.5,11.5,0,0,1,5.942,1.245,15.757,15.757,0,0,1,3.88,2.775,28.294,28.294,0,0,1,5.21,6.118,15.718,15.718,0,0,1,2.368,6.371,7.806,7.806,0,0,1-.022,2.695,3.225,3.225,0,0,1-3.133,2.6,11.609,11.609,0,0,1-6.292-1.171,20.951,20.951,0,0,1-4.211-2.47A3,3,0,0,1,6.9,31.091c.11-.327.053-.4-.3-.455A9.4,9.4,0,0,1,3.892,30a2.935,2.935,0,0,1-1.757-2.4,2.437,2.437,0,0,1,1.7-2.691c.134-.061.313-.05.409-.253" transform="translate(-0.001 -6.797)" fill="#d9f4f7"/>
  <path id="Path_417" data-name="Path 417" d="M17.706,24.656c.661-.421,1.333-.828,1.982-1.27a6.857,6.857,0,0,0,1.723-1.4c1.07-1.4.349-3.3-.552-4.265a5.1,5.1,0,0,0-3.351-1.542,11.5,11.5,0,0,0-5.942,1.245A15.756,15.756,0,0,0,7.684,20.2a28.294,28.294,0,0,0-5.209,6.118A15.718,15.718,0,0,0,.107,32.688a7.806,7.806,0,0,0,.022,2.695,3.225,3.225,0,0,0,3.133,2.6,11.608,11.608,0,0,0,6.292-1.171,20.951,20.951,0,0,0,4.211-2.47,3,3,0,0,0,1.284-3.25c-.11-.327-.053-.4.3-.455a9.4,9.4,0,0,0,2.7-.634,2.935,2.935,0,0,0,1.757-2.4,2.437,2.437,0,0,0-1.7-2.691c-.134-.061-.313-.05-.409-.253" transform="translate(73.055 -6.797)" fill="#d9f4f7"/>
  <rect id="Rectangle_191" data-name="Rectangle 191" width="48" height="48" rx="20" transform="translate(24)" fill="#d9f4f7"/>
  <g id="up-2" data-name="up" transform="translate(41 6)">
    <g id="Group_408" data-name="Group 408" transform="translate(0 2)" clip-path="url(#clip-path)">
      <path id="Path_413" data-name="Path 413" d="M7.068,15.262a.75.75,0,0,1-.75-.75V.75a.75.75,0,0,1,1.5,0V14.512a.75.75,0,0,1-.75.75" fill="#00b6cb"/>
      <path id="Path_414" data-name="Path 414" d="M13.381,7.838a.743.743,0,0,1-.531-.221l-5.781-5.8-5.788,5.8A.75.75,0,0,1,.219,6.559L6.537.221A.75.75,0,0,1,7.6.221l6.312,6.338a.75.75,0,0,1-.531,1.279" fill="#00b6cb"/>
    </g>
  </g>
  <g id="Group_409" data-name="Group 409" transform="translate(34.982 26.312)">
    <g id="Group_409-2" data-name="Group 409" clip-path="url(#clip-path-2)">
      <path id="Контур_415" data-name="Контур 415" d="M10.844,6.992a13.747,13.747,0,0,1-1.6-.094A13.524,13.524,0,0,1,4.233,5.291,13.517,13.517,0,0,1,.209,1.9.952.952,0,0,1,1.7.709a11.612,11.612,0,0,0,7.77,4.3,11.711,11.711,0,0,0,8.592-2.393l.018-.014A10.962,10.962,0,0,0,20.064.7a.952.952,0,1,1,1.477,1.2,12.868,12.868,0,0,1-2.325,2.221A13.611,13.611,0,0,1,14.507,6.49,13.628,13.628,0,0,1,10.844,6.992Z" transform="translate(2.142 3.242)" fill="#00b6cb"/>
    </g>
  </g>
</svg>
