<svg xmlns="http://www.w3.org/2000/svg" xmlns:xlink="http://www.w3.org/1999/xlink" width="54.641" height="50.879" viewBox="0 0 54.641 50.879">
  <defs>
    <clipPath id="clip-path">
      <rect id="Прямоугольник_139" data-name="Прямоугольник 139" width="20.962" height="20.985" transform="translate(0 0)" fill="#fac607"/>
    </clipPath>
    <clipPath id="clip-path-2">
      <rect id="Прямоугольник_140" data-name="Прямоугольник 140" width="13.282" height="10.744" fill="#fac607"/>
    </clipPath>
    <clipPath id="clip-path-3">
      <rect id="Прямоугольник_141" data-name="Прямоугольник 141" width="9.67" height="9" fill="none"/>
    </clipPath>
    <clipPath id="clip-path-4">
      <rect id="Прямоугольник_142" data-name="Прямоугольник 142" width="14.115" height="8.893" fill="#fff"/>
    </clipPath>
  </defs>
  <g id="Сгруппировать_272" data-name="Сгруппировать 272" transform="translate(50.637 33.372) rotate(-169)">
    <g id="Сгруппировать_271" data-name="Сгруппировать 271" transform="translate(0 0)" clip-path="url(#clip-path)">
      <path id="Контур_146" data-name="Контур 146" d="M2.9.055A10.821,10.821,0,0,1,4.851.565,28.207,28.207,0,0,0,15.268,2.2c.937-.049,1.873-.133,2.809-.136.874,0,2.068-.52,2.4.7.287,1.049-.831,1.474-1.526,2.034a1.7,1.7,0,0,1-.4.224A22,22,0,0,1,5.56,6.156,10.368,10.368,0,0,1,.978,4.013a2.031,2.031,0,0,1-.75-2.651A2.252,2.252,0,0,1,2.9.055" transform="translate(0.437 14.353)" fill="#fac607"/>
      <path id="Контур_147" data-name="Контур 147" d="M2.519,0A26.815,26.815,0,0,1,13.41,4.356a1.052,1.052,0,0,1,.469,1.309c-.2.583-.725.687-1.266.652A24.632,24.632,0,0,1,1.505,3.191C.588,2.653-.239,1.818.064.786.359-.213,1.595.257,2.519,0" transform="translate(0 6.756)" fill="#fac607"/>
      <path id="Контур_148" data-name="Контур 148" d="M.237,1.647C-.287.565.057.021,1.272,0,3.22-.034,7.21,2.523,7.9,4.226c.375.923-.3,1.027-.935,1.1C4.858,5.552,1.131,3.5.237,1.647" transform="translate(0.601 0)" fill="#fac607"/>
    </g>
  </g>
  <g id="Сгруппировать_274" data-name="Сгруппировать 274" transform="translate(12.359 0)">
    <g id="Сгруппировать_273" data-name="Сгруппировать 273" transform="translate(0 0)" clip-path="url(#clip-path-2)">
      <path id="Контур_149" data-name="Контур 149" d="M3.2,9.971a1.717,1.717,0,0,1-2,.649A1.72,1.72,0,0,1,.088,9.052,13.031,13.031,0,0,1,1.341,1.87C1.86.765,2.778-.249,4.154.054,5.471.345,5.7,1.586,5.7,2.764c0,.279,0,.557,0,.678A7.965,7.965,0,0,1,3.2,9.971" transform="translate(7.548 -0.001)" fill="#fac607"/>
      <path id="Контур_150" data-name="Контур 150" d="M8.553,10.511c-.875.031-1.279-.655-1.638-1.315a9.56,9.56,0,0,1-.807-7.448A1.948,1.948,0,0,1,7.575.234a2.044,2.044,0,0,1,2.071.961,5.162,5.162,0,0,1,.84,3.278,8.532,8.532,0,0,1-.526,4.508c-.293.641-.47,1.5-1.406,1.53" transform="translate(-5.701 0.091)" fill="#fac607"/>
    </g>
  </g>
  <g id="Эллипс_18" data-name="Эллипс 18" transform="translate(0 12.879)" fill="#fac607" stroke="#fac607" stroke-width="2">
    <circle cx="19" cy="19" r="19" stroke="none"/>
    <circle cx="19" cy="19" r="18" fill="none"/>
  </g>
  <g id="Сгруппировать_277" data-name="Сгруппировать 277" transform="translate(2 37.458)">
    <g id="Сгруппировать_276" data-name="Сгруппировать 276" transform="translate(0 0)" clip-path="url(#clip-path-4)">
      <path id="Контур_152" data-name="Контур 152" d="M0,2.51A7.681,7.681,0,0,0,2.247,7.318,7.776,7.776,0,0,0,4.514,8.893c-.063-.85.472-1.26,1.638-1.365A13.448,13.448,0,0,0,11.685,5.8c1.68-.945,2.814-3.37,2.31-4.8C13.816.5,13.606-.02,13.007,0s-.6.577-.693,1.05c-.5,2.394-2.257,3.853-5.06,4.241-.735.094-1.48.157-2.226.178A5.142,5.142,0,0,1,0,2.51" transform="translate(0 0)" fill="#fff"/>
    </g>
  </g>
</svg>
