<svg xmlns="http://www.w3.org/2000/svg" xmlns:xlink="http://www.w3.org/1999/xlink" width="52.939" height="50.879" viewBox="0 0 52.939 50.879">
  <g transform="translate(0 12.772) rotate(-11)">
    <g transform="translate(0 0)" clip-path="url(#clip-path)">
      <path d="M3.232,6.578a10.821,10.821,0,0,0,1.951-.511A28.207,28.207,0,0,1,15.6,4.435c.937.049,1.873.133,2.809.136.874,0,2.068.52,2.4-.7C21.1,2.821,19.98,2.4,19.285,1.836a1.7,1.7,0,0,0-.4-.224A22,22,0,0,0,5.891.477,10.368,10.368,0,0,0,1.31,2.62,2.031,2.031,0,0,0,.56,5.271,2.252,2.252,0,0,0,3.232,6.578" transform="translate(0.105 -0.001)" fill="#fac607"/>
      <path d="M2.518,12.329A26.815,26.815,0,0,0,13.409,7.973a1.052,1.052,0,0,0,.469-1.309c-.2-.583-.725-.687-1.266-.652A24.633,24.633,0,0,0,1.5,9.138C.587,9.676-.239,10.511.063,11.543c.295,1,1.531.529,2.455.786" transform="translate(0 1.9)" fill="#fac607"/>
      <path d="M.694,15.577C.17,16.66.514,17.2,1.729,17.224,3.677,17.259,7.667,14.7,8.358,13c.375-.923-.3-1.027-.935-1.1-2.109-.23-5.836,1.822-6.73,3.674" transform="translate(0.145 3.76)" fill="#fac607"/>
    </g>
  </g>
  <g transform="translate(27.299 0)">
    <g transform="translate(0 0)" clip-path="url(#clip-path-2)">
      <path d="M2.538,9.971a1.7,1.7,0,0,0,3.108-.919A13.031,13.031,0,0,0,4.393,1.87C3.874.765,2.956-.249,1.58.054.263.345.038,1.586.034,2.764c0,.279,0,.557,0,.678a7.965,7.965,0,0,0,2.5,6.529" transform="translate(0 -0.001)" fill="#fac607"/>
      <path d="M7.7,10.511c.875.031,1.279-.655,1.638-1.315a9.56,9.56,0,0,0,.807-7.448A1.948,1.948,0,0,0,8.683.234a2.044,2.044,0,0,0-2.071.961,5.162,5.162,0,0,0-.84,3.278A8.533,8.533,0,0,0,6.3,8.981c.293.641.47,1.5,1.406,1.53" transform="translate(2.725 0.091)" fill="#fac607"/>
    </g>
  </g>
  <g transform="translate(14.939 12.879)" fill="#fac607" stroke="#fac607" stroke-width="2">
    <circle cx="19" cy="19" r="19" stroke="none"/>
    <circle cx="19" cy="19" r="18" fill="none"/>
  </g>
  <g transform="translate(36.939 37.458)">
    <g transform="translate(0 0)" clip-path="url(#clip-path-4)">
      <path d="M14.115,2.51a7.681,7.681,0,0,1-2.247,4.808A7.776,7.776,0,0,1,9.6,8.893c.063-.85-.472-1.26-1.638-1.365A13.448,13.448,0,0,1,2.43,5.8C.751,4.851-.383,2.426.121,1,.3.5.509-.02,1.108,0s.6.577.693,1.05C2.3,3.444,4.058,4.9,6.861,5.292c.735.094,1.48.157,2.226.178a5.142,5.142,0,0,0,5.029-2.96" transform="translate(0 0)" fill="#fff"/>
    </g>
  </g>
</svg>
