<svg id="Компонент_84_17" data-name="Компонент 84 – 17" xmlns="http://www.w3.org/2000/svg" xmlns:xlink="http://www.w3.org/1999/xlink" width="16" height="15.679" viewBox="0 0 16 15.679">
  <defs>
    <clipPath id="clip-path">
      <rect id="Прямоугольник_352" data-name="Прямоугольник 352" width="16" height="15.679" fill="#00b6cb"/>
    </clipPath>
  </defs>
  <g id="Bought_a_product" data-name="Bought a product" clip-path="url(#clip-path)">
    <path id="Контур_700" data-name="Контур 700" d="M12.127,14.468a1.212,1.212,0,1,1,1.213,1.211h0a1.213,1.213,0,0,1-1.212-1.211m-9,0a1.211,1.211,0,1,1,1.211,1.211,1.211,1.211,0,0,1-1.211-1.211m1.345-2.48a2.054,2.054,0,0,1-2.02-1.741l-.015-.131L1.705,1.4.5,1.192A.6.6,0,0,1,0,.579L.008.5A.6.6,0,0,1,.6,0H.621L.7.008,2.365.3a.6.6,0,0,1,.48.453L2.86.838l.188,2.24H14.327a1.656,1.656,0,0,1,1.225.533A1.681,1.681,0,0,1,16,4.869l-.013.121-.759,5.25a2.051,2.051,0,0,1-1.89,1.746l-.131,0Zm-.839-1.972a.844.844,0,0,0,.746.767l.093,0H13.2a.843.843,0,0,0,.815-.63l.018-.094.76-5.246a.473.473,0,0,0-.4-.535l-.07-.006H3.15ZM9.7,7.236a.6.6,0,0,1-.08-1.194l.08-.006h2.219a.6.6,0,0,1,.08,1.2l-.08,0Z" transform="translate(0 0)" fill="#00b6cb"/>
  </g>
</svg>
