<svg xmlns="http://www.w3.org/2000/svg" xmlns:xlink="http://www.w3.org/1999/xlink" width="20" height="20" viewBox="0 0 20 20">
    <path d="M13.986,20a2.989,2.989,0,0,1-2.975-3V13.941a2.989,2.989,0,0,1,2.975-3h3.039a2.989,2.989,0,0,1,2.974,3V17a2.989,2.989,0,0,1-2.974,3Zm-1.58-6.059V17a1.593,1.593,0,0,0,1.58,1.6h3.039A1.592,1.592,0,0,0,18.6,17V13.941a1.592,1.592,0,0,0-1.58-1.6H13.986a1.593,1.593,0,0,0-1.58,1.6M2.975,20A2.989,2.989,0,0,1,0,17V13.941a2.989,2.989,0,0,1,2.975-3H6.014a2.989,2.989,0,0,1,2.975,3V17a2.989,2.989,0,0,1-2.975,3Zm-1.58-6.059V17a1.593,1.593,0,0,0,1.58,1.6H6.014A1.593,1.593,0,0,0,7.594,17V13.941a1.593,1.593,0,0,0-1.58-1.6H2.975a1.593,1.593,0,0,0-1.58,1.6M13.986,9.055a2.989,2.989,0,0,1-2.975-3V3a2.989,2.989,0,0,1,2.975-3h3.039A2.987,2.987,0,0,1,20,3V6.06a2.989,2.989,0,0,1-2.974,3ZM12.406,3V6.06a1.593,1.593,0,0,0,1.58,1.6h3.039a1.592,1.592,0,0,0,1.58-1.6V3a1.592,1.592,0,0,0-1.58-1.6H13.986A1.593,1.593,0,0,0,12.406,3M2.976,9.06A2.989,2.989,0,0,1,0,6.06V3A2.989,2.989,0,0,1,2.975,0H6.014A2.989,2.989,0,0,1,8.989,3V6.06a2.989,2.989,0,0,1-2.975,3ZM1.395,3V6.06a1.593,1.593,0,0,0,1.58,1.6H6.014a1.593,1.593,0,0,0,1.58-1.6V3a1.593,1.593,0,0,0-1.58-1.6H2.975A1.593,1.593,0,0,0,1.395,3" fill="#f04137"/>
</svg>
