<svg id="comments" xmlns="http://www.w3.org/2000/svg" xmlns:xlink="http://www.w3.org/1999/xlink" width="12.529" height="12" viewBox="0 0 12.529 12">
  <g clip-path="url(#clip-path)">
    <path d="M6.265,0c.6,0,1.2,0,1.8,0a4.224,4.224,0,0,1,3.892,2.37,4.649,4.649,0,0,1,.562,2.623,4.684,4.684,0,0,1-1.889,3.573,3.994,3.994,0,0,1-2.465.815c-.38,0-.759,0-1.139,0a.193.193,0,0,0-.155.066q-1.127,1.181-2.257,2.36a.523.523,0,0,1-.487.185.5.5,0,0,1-.428-.526c0-.656,0-1.311,0-1.967,0-.165,0-.164-.163-.2A4.167,4.167,0,0,1,1.164,7.9,4.722,4.722,0,0,1,.007,4.977,4.769,4.769,0,0,1,1.413,1.229,4.068,4.068,0,0,1,3.913.023,4.49,4.49,0,0,1,4.392,0c.624,0,1.249,0,1.873,0M4.718,10.177l.028.011c.023-.025.045-.051.069-.075.5-.519,1-1.036,1.489-1.557a.611.611,0,0,1,.476-.2c.458,0,.916,0,1.374,0a3.292,3.292,0,0,0,.441-.026,3.145,3.145,0,0,0,2.075-1.211,3.929,3.929,0,0,0,.264-4.472,3.182,3.182,0,0,0-2.872-1.62c-1.23.008-2.459,0-3.689,0a3.08,3.08,0,0,0-2.3.99A3.7,3.7,0,0,0,1.038,4.349a3.822,3.822,0,0,0,.683,2.6,3.153,3.153,0,0,0,2.451,1.4.517.517,0,0,1,.546.578q0,.574,0,1.148v.1" transform="translate(0 0)" fill="#4b4da8"/>
  </g>
</svg>
