<svg xmlns="http://www.w3.org/2000/svg" xmlns:xlink="http://www.w3.org/1999/xlink" width="152.847" height="156.458" viewBox="0 0 152.847 156.458">
  <g clip-path="url(#clip-path)">
    <path d="M82.758,76.39c.352-.137.617-.22.865-.34A13.71,13.71,0,0,1,89.508,74.4a10.651,10.651,0,0,1,3.158.252,6.646,6.646,0,0,0,3.537-.174,14.806,14.806,0,0,1,6.8-.146,14.59,14.59,0,0,1,4.953,2.071,13.115,13.115,0,0,1,4.622,5.3,29.817,29.817,0,0,1,1.469,3.249,31.788,31.788,0,0,1,.99,4.458,23.757,23.757,0,0,1,.318,3.962,17.618,17.618,0,0,1-.88,6.258c-.046.119.031.285.056.467a1.6,1.6,0,0,0,.28-.11c1.1-.732,2.153-1.556,3.312-2.181a17.613,17.613,0,0,1,6.028-1.9,11.788,11.788,0,0,1,5.123.29c.746.231,1.438.635,2.181.879a2.766,2.766,0,0,0,1.359.146,15.65,15.65,0,0,1,5.072-.419,12.346,12.346,0,0,1,4.653,1.473,16.506,16.506,0,0,1,4.4,3.485,21.5,21.5,0,0,1,4.4,7.9,34.935,34.935,0,0,1,1.39,13.172c-.157,2.1-.194,4.2-.417,6.288-.3,2.845-.7,5.681-1.126,8.511-.259,1.744-.578,3.483-.972,5.2a45.563,45.563,0,0,1-3.237,8.714c-.823,1.8-1.715,3.568-2.67,5.3a53.468,53.468,0,0,1-7.6,10.154,39.183,39.183,0,0,1-6.842,6.093c-1.405.953-2.846,1.866-4.331,2.686-1.6.882-3.245,1.687-4.912,2.433a39.405,39.405,0,0,1-9,2.875c-2.38.436-4.775.8-7.17,1.146-.907.131-1.835.11-2.753.168-.237.015-.473.065-.708.1h-4.6c-.7-.069-1.392-.127-2.086-.21-1.884-.226-3.775-.4-5.646-.713-1.373-.227-2.724-.6-4.073-.957-1.646-.432-3.306-.836-4.915-1.385-2.1-.718-4.192-1.5-6.238-2.371a86.3,86.3,0,0,1-12.1-6.25c-3.569-2.238-7.056-4.619-10.469-7.091-2.7-1.958-5.279-4.1-7.836-6.25a63.162,63.162,0,0,1-8.145-8.055c-2.212-2.676-4.423-5.355-6.534-8.11a54.082,54.082,0,0,1-6.024-9.586,12.252,12.252,0,0,1-1.468-4.981,2.511,2.511,0,0,1,2.175-2.614,24.655,24.655,0,0,0,6.254-2.491,30.088,30.088,0,0,0,6.061-4.569,11.274,11.274,0,0,0,2.541-3.787,1.131,1.131,0,0,0,.125-.371,5.323,5.323,0,0,0-.071-.661c-.226.047-.512.023-.668.154-.669.563-1.311,1.159-1.941,1.765a16.271,16.271,0,0,1-5.545,3.4,50.3,50.3,0,0,1-5.409,1.728,20.16,20.16,0,0,1-3.756.525,30.069,30.069,0,0,1-4.066,0c-3.314-.237-6.575-.751-9.313-2.848a16.657,16.657,0,0,1-5.425-6.8A22.481,22.481,0,0,1,.3,105.112a18.021,18.021,0,0,1,4.685-15.9,14.713,14.713,0,0,1,6.9-3.981,28.418,28.418,0,0,1,6.289-.805,25.012,25.012,0,0,1,7.493,1,53.058,53.058,0,0,1,8.211,2.659c2.213.94,4.415,1.908,6.594,2.922,4.1,1.91,8.188,3.863,12.278,5.8q4.739,2.242,9.477,4.487c.35.166.708.312,1.13.5a18.625,18.625,0,0,1,.7-2.026c.821-1.712,1.657-3.42,2.569-5.085.95-1.735,1.923-3.467,3.019-5.11a60.48,60.48,0,0,1,3.63-4.845c1.146-1.392,2.417-2.683,3.663-3.99a4.551,4.551,0,0,1,1.412-1.147" transform="translate(0 -26.031)" fill="#fac607"/>
    <path d="M81.623,73.733c2.266.165,4.084.655,5.468,2.269,1.2,1.4.78,3.364-.968,3.679-.961.173-1.941.231-2.907.379a45.472,45.472,0,0,0-15.675,5.831c-1.322.756-2.5,1.755-3.8,2.558a4.8,4.8,0,0,1-1.872.665,1.548,1.548,0,0,1-1.573-1.982,7.108,7.108,0,0,1,1.08-2.35,29.827,29.827,0,0,1,8.652-7.331,23.473,23.473,0,0,1,8.053-3.16c1.264-.242,2.544-.4,3.545-.558" transform="translate(-21.191 -25.939)" fill="#fac607"/>
    <path d="M45.993,72.409c1.582-.057,2.472.885,2.177,2.144a8.366,8.366,0,0,1-1.039,2.589,12.492,12.492,0,0,1-5.045,4.633,9.114,9.114,0,0,1-1.908.668,2.08,2.08,0,0,1-2.463-2.352A7.36,7.36,0,0,1,40.079,75.6a11.588,11.588,0,0,1,4.37-2.812,12.327,12.327,0,0,1,1.545-.376" transform="translate(-13.264 -25.472)" fill="#fac607"/>
    <path d="M32.091,69.978c1.421.026,2.111.793,1.9,2.19a8.6,8.6,0,0,1-3,5.083,8.835,8.835,0,0,1-4.32,2.341c-.043.008-.084.025-.127.033-1.767.316-2.772-.685-2.4-2.444a8.615,8.615,0,0,1,2.423-4.13,9.645,9.645,0,0,1,4.556-2.936,8.713,8.713,0,0,1,.968-.137" transform="translate(-8.467 -24.618)" fill="#fac607"/>
    <path d="M81.472,92.027a9.418,9.418,0,0,1,1.32.216c.988.323,1.171,1.11.552,1.949a4.693,4.693,0,0,1-2.868,1.522c-1.467.4-2.9.924-4.335,1.441a1.052,1.052,0,0,1-1.3-.2.958.958,0,0,1-.05-1.313,7.9,7.9,0,0,1,4.468-3.126c.771-.218,1.568-.347,2.218-.488" transform="translate(-26.226 -32.374)" fill="#fac607"/>
    <path d="M173.067,114.4c.976,4.311-.23,8.465-2.483,12.088a12.5,12.5,0,0,1-3,3.255l-.244-.087q.614-1.944,1.289-3.865c.644-1.926,2.019-5.774,2.74-7.671q.691-1.916,1.451-3.808Z" transform="translate(-58.87 -40.215)" fill="#f6a232"/>
    <path d="M190.764,109.851c-8.48,3.585-13,12.214-15.659,20.554a69.054,69.054,0,0,1-7.576-2.274,67.987,67.987,0,0,1,7.124.281l-1.051.72c1.37-8.8,7.476-18.71,17.161-19.281" transform="translate(-58.936 -38.645)" fill="#f6a232"/>
    <rect width="53.988" height="1.297" transform="translate(84.497 53.131) rotate(-79.78)" fill="#b6c3d4"/>
    <path d="M97.67,102.185c3.168.321,6.293.847,9.423,1.388l-1.083.735a42.807,42.807,0,0,1,2.19-9.535c3.115-9.1,10.1-18.215,20.2-19.549-11.888,4.854-17.792,17.533-20.642,29.329l-.214,1.017c-3.314-1.064-6.634-2.1-9.875-3.386" transform="translate(-34.36 -26.464)" fill="#f6a232"/>
  </g>
</svg>
