<svg xmlns="http://www.w3.org/2000/svg" xmlns:xlink="http://www.w3.org/1999/xlink" width="24" height="24" viewBox="0 0 24 24">
  <defs>
    <clipPath id="clip-path">
      <rect id="Rectangle_335" data-name="Rectangle 335" width="17.998" height="17" fill="#f04137"/>
    </clipPath>
  </defs>
  <g id="report_a_bug" transform="translate(-176 -2740)">
    <g id="Rectangle_337" data-name="Rectangle 337" transform="translate(176 2740)" fill="#fff" stroke="#707070" stroke-width="1" opacity="0">
      <rect width="24" height="24" stroke="none"/>
      <rect x="0.5" y="0.5" width="23" height="23" fill="none"/>
    </g>
    <g id="Group_829" data-name="Group 829" transform="translate(179 2743.5)">
      <g id="Group_828" data-name="Group 828" clip-path="url(#clip-path)">
        <path id="Path_671" data-name="Path 671" d="M10.471,17a.645.645,0,0,1-.089-1.285l.089-.006h6.871a.645.645,0,0,1,.09,1.285l-.09.006ZM.659,17a.658.658,0,0,1-.476-.2A.63.63,0,0,1,0,16.339L.1,12.4a2.865,2.865,0,0,1,.868-1.982L10.66.916a3.24,3.24,0,0,1,4.515,0l1.294,1.269a3.087,3.087,0,0,1,.062,4.365l-.062.062L6.741,16.149a2.98,2.98,0,0,1-2.1.851ZM1.9,11.328a1.6,1.6,0,0,0-.482,1.1l-.084,3.278H4.643A1.668,1.668,0,0,0,5.7,15.332l.107-.1,8.046-7.887L9.907,3.48ZM14.786,6.436l.752-.737a1.814,1.814,0,0,0,.035-2.565c-.012-.012-.023-.024-.035-.035l-1.3-1.269a1.9,1.9,0,0,0-2.653,0l-.752.737Z" fill="#f04137"/>
      </g>
    </g>
  </g>
</svg>
