<svg xmlns="http://www.w3.org/2000/svg" width="22" height="22" viewBox="0 0 22 22">
  <g id="Group_787" data-name="Group 787" transform="translate(-747 -1062)">
    <circle id="Ellipse_8" data-name="Ellipse 8" cx="11" cy="11" r="11" transform="translate(747 1062)" fill="rgba(232,39,39,0.2)"/>
    <path id="Объединение_1" data-name="Объединение 1" d="M-4821-.75a.748.748,0,0,1,.53.22l2.234,2.234L-4816-.53a.75.75,0,0,1,1.061,0,.748.748,0,0,1,.22.53.748.748,0,0,1-.22.53l-2.234,2.234L-4814.942,5a.748.748,0,0,1,.22.53.748.748,0,0,1-.22.53.75.75,0,0,1-1.061,0l-2.234-2.234-2.234,2.234a.75.75,0,0,1-1.061,0,.748.748,0,0,1-.22-.53.748.748,0,0,1,.22-.53l2.234-2.234L-4821.531.53a.748.748,0,0,1-.22-.53.748.748,0,0,1,.22-.53A.748.748,0,0,1-4821-.75Z" transform="translate(5576.5 1070.5)" fill="#e82727"/>
  </g>
</svg>
