<svg id="show" xmlns="http://www.w3.org/2000/svg" xmlns:xlink="http://www.w3.org/1999/xlink" width="19.997" height="16" viewBox="0 0 19.997 16">
  <defs>
    <clipPath id="clip-path">
      <rect id="Прямоугольник_294" data-name="Прямоугольник 294" width="19.997" height="16" fill="#f04137"/>
    </clipPath>
  </defs>
  <g id="Сгруппировать_739" data-name="Сгруппировать 739" clip-path="url(#clip-path)">
    <path id="Контур_649" data-name="Контур 649" d="M9.712,15.995c-3.9-.13-7.459-2.888-9.512-7.378L.061,8.294a.744.744,0,0,1,0-.589A14.274,14.274,0,0,1,4.254,2.059,9.334,9.334,0,0,1,10,0h.286c3.9.131,7.459,2.89,9.509,7.381l.139.313a.746.746,0,0,1,0,.6,14.273,14.273,0,0,1-4.194,5.647A9.342,9.342,0,0,1,10,16ZM5.331,3.118a12.319,12.319,0,0,0-3.6,4.548L1.57,8l.169.361a12.5,12.5,0,0,0,3.379,4.361,7.982,7.982,0,0,0,4.362,1.77l.266.014h.512a7.938,7.938,0,0,0,4.634-1.795,12.658,12.658,0,0,0,3.526-4.687L18.429,8A12.789,12.789,0,0,0,15,3.379a8.024,8.024,0,0,0-4.49-1.87L10.244,1.5l-.239,0A7.828,7.828,0,0,0,5.331,3.118M6.089,8a3.911,3.911,0,1,1,3.936,3.886H10A3.9,3.9,0,0,1,6.089,8m1.5,0a2.412,2.412,0,1,0,2.424-2.4H10A2.406,2.406,0,0,0,7.589,8" fill="#f04137"/>
  </g>
</svg>
