<svg id="facebook" xmlns="http://www.w3.org/2000/svg" xmlns:xlink="http://www.w3.org/1999/xlink" width="9.871" height="19.812" viewBox="0 0 9.871 19.812">
  <path d="M18.746,15.491h1.207a.229.229,0,0,1,.213.213v7.6a.712.712,0,0,0,.71.71h2.769a.712.712,0,0,0,.71-.71V15.7a.229.229,0,0,1,.213-.213h1.988a.7.7,0,0,0,.71-.6l.462-2.769a.749.749,0,0,0-.71-.852H24.675a.318.318,0,0,1-.32-.32V9.171a.637.637,0,0,1,.71-.71H27.16a.712.712,0,0,0,.71-.71V4.91a.712.712,0,0,0-.71-.71H24.64c-4.616,0-4.509,3.728-4.509,4.261v2.592a.229.229,0,0,1-.213.213H18.71a.712.712,0,0,0-.71.71v2.769A.774.774,0,0,0,18.746,15.491Z" transform="translate(-18 -4.2)" fill=""/>
</svg>
