<svg id="favorite" xmlns="http://www.w3.org/2000/svg" xmlns:xlink="http://www.w3.org/1999/xlink" width="20.007" height="19.001" viewBox="0 0 20.007 19.001">
  <g transform="translate(0 0)" clip-path="url(#clip-path)">
    <path d="M9.634,18.9l-.245-.148a34.748,34.748,0,0,1-6-4.673,12.343,12.343,0,0,1-2.98-4.75,7.754,7.754,0,0,1,.2-5.5A6.3,6.3,0,0,1,4.487.315a6.564,6.564,0,0,1,5.25.541L10,1.014l.268-.159A6.574,6.574,0,0,1,15.25.236l.266.079A6.305,6.305,0,0,1,19.4,3.835a7.784,7.784,0,0,1,.2,5.511,12.494,12.494,0,0,1-2.976,4.737,34.78,34.78,0,0,1-6,4.665l-.229.143a.735.735,0,0,1-.762.006ZM4.934,1.71A4.865,4.865,0,0,0,1.926,4.471a6.279,6.279,0,0,0-.13,4.4A11.015,11.015,0,0,0,4.41,13.039,33.268,33.268,0,0,0,10.148,17.5L10,17.41l.467-.294a33.207,33.207,0,0,0,4.594-3.573l.528-.5a10.96,10.96,0,0,0,2.615-4.158,6.287,6.287,0,0,0-.13-4.407A4.872,4.872,0,0,0,15.066,1.71a5.109,5.109,0,0,0-4.628.78.732.732,0,0,1-.865.009l-.2-.141A5.1,5.1,0,0,0,4.93,1.71ZM14.792,7.1a1.981,1.981,0,0,0-1.363-1.725.731.731,0,0,1,.4-1.4l.04.013a3.442,3.442,0,0,1,2.376,3,.732.732,0,0,1-.668.789h-.063a.731.731,0,0,1-.727-.672" fill="#e82727"/>
  </g>
</svg>
