<svg id="favorite-active" xmlns="http://www.w3.org/2000/svg" xmlns:xlink="http://www.w3.org/1999/xlink" width="20.007" height="19.001" viewBox="0 0 20.007 19.001">
  <g transform="translate(0 0)" clip-path="url(#clip-path)">
    <path d="M9.634,18.9l-.245-.148a34.748,34.748,0,0,1-6-4.673,12.343,12.343,0,0,1-2.98-4.75,7.754,7.754,0,0,1,.2-5.5A6.3,6.3,0,0,1,4.487.315a6.564,6.564,0,0,1,5.25.541L10,1.014l.268-.159A6.574,6.574,0,0,1,15.25.236l.266.079A6.305,6.305,0,0,1,19.4,3.835a7.784,7.784,0,0,1,.2,5.511,12.494,12.494,0,0,1-2.976,4.737,34.78,34.78,0,0,1-6,4.665l-.229.143a.735.735,0,0,1-.762.006Z" fill="#e82727"/>
  </g>
</svg>
