<svg id="filter" xmlns="http://www.w3.org/2000/svg" xmlns:xlink="http://www.w3.org/1999/xlink" width="20.019" height="19" viewBox="0 0 20.019 19">
  <g clip-path="url(#clip-path)">
    <path d="M12.475,15.286A3.763,3.763,0,1,1,16.287,19h-.05a3.741,3.741,0,0,1-3.762-3.714m1.765,0a2,2,0,1,0,2.028-1.972H16.24a1.986,1.986,0,0,0-2,1.972M.883,16.157a.871.871,0,1,1,0-1.742H8.117a.871.871,0,1,1,0,1.742H.883ZM0,3.713A3.742,3.742,0,0,1,3.762,0,3.743,3.743,0,0,1,7.525,3.713,3.743,3.743,0,0,1,3.762,7.428,3.742,3.742,0,0,1,0,3.713m1.765,0A2,2,0,1,0,3.793,1.741H3.765a1.986,1.986,0,0,0-2,1.972m10.118.871a.871.871,0,1,1-.059-1.741h7.294a.871.871,0,0,1,.059,1.741H11.883Z" transform="translate(0 0)" fill="#969ba4"/>
  </g>
</svg>
