<svg id="hairdresser" xmlns="http://www.w3.org/2000/svg" xmlns:xlink="http://www.w3.org/1999/xlink" width="32" height="32" viewBox="0 0 32 32">
  <g clip-path="url(#clip-path)">
    <path d="M20.822,16V3.726a1.021,1.021,0,0,1,.79-1.085,1.374,1.374,0,0,1,.287-.024q2.454,0,4.909,0a1.007,1.007,0,0,1,1.074,1.069c0,.268-.008.537,0,.8.007.163-.044.213-.21.212-1.058-.007-2.117,0-3.176,0-.476,0-.627.151-.627.631q0,10.739,0,21.479c0,.476.148.622.633.622,1.052,0,2.1,0,3.156,0,.167,0,.234.043.224.219-.014.24,0,.481,0,.722a1,1,0,0,1-1.026,1.013q-2.475,0-4.951,0A1.011,1.011,0,0,1,20.822,28.3V16" fill="#fff"/>
    <path d="M17.175,11.375a9.982,9.982,0,0,1-1.982,6.173,7,7,0,0,1-3.852,2.647.539.539,0,0,0-.418.476,5.2,5.2,0,0,0,.443,3.035c.262.62.56,1.224.85,1.831a2.659,2.659,0,0,1-1.772,3.768,2.671,2.671,0,0,1-3.061-3.684c.3-.707.661-1.39.959-2.1a5.091,5.091,0,0,0,.389-2.762.642.642,0,0,0-.525-.594,7.091,7.091,0,0,1-3.942-2.86A9.633,9.633,0,0,1,2.53,12.645,10.072,10.072,0,0,1,3.689,6.607a7.365,7.365,0,0,1,3.98-3.6,6.118,6.118,0,0,1,6.245,1.123,8.7,8.7,0,0,1,2.951,4.843,11.623,11.623,0,0,1,.239,1.337c.051.395.055.8.071,1.063m-1.435-.114c-.036-.313-.066-.879-.17-1.43a7.43,7.43,0,0,0-2.391-4.364,4.925,4.925,0,0,0-5.605-.752A6.306,6.306,0,0,0,4.732,7.769a8.636,8.636,0,0,0-.639,5.554,7.28,7.28,0,0,0,2.374,4.215,4.9,4.9,0,0,0,4.227,1.217,5.316,5.316,0,0,0,3.127-1.862,8.4,8.4,0,0,0,1.919-5.632" fill="#fff"/>
    <path d="M29.632,27.562c0-.606-.248-.853-.858-.854H25.738a2.232,2.232,0,0,1-.277-.01,2.645,2.645,0,0,1-.008-.291c0-.053,0-.111-.006-.17a1.316,1.316,0,0,1,0-.226.391.391,0,0,1,.074,0c.048,0,.1,0,.151.007s.119.008.173.008h3.014a.793.793,0,0,0,.6-.244.726.726,0,0,0-.622-1.191H25.471v-.63h3.4a.773.773,0,0,0,.57-.221.7.7,0,0,0,.191-.521.718.718,0,0,0-.8-.693h-.073l-1.515,0q-.9,0-1.79,0c.012-.22.007-.44,0-.633l.46,0h1.983c.329,0,.657,0,.986,0a.767.767,0,0,0,.569-.232.726.726,0,0,0-.611-1.2H25.471v-.628h3.4a.719.719,0,1,0,.008-1.436c-.054,0-.109,0-.163,0H27.289q-.918,0-1.835,0c0-.181,0-.362,0-.549v-.078h3.4a.8.8,0,0,0,.6-.235.706.706,0,0,0,.176-.548.718.718,0,0,0-.785-.654H25.47v-.626h1.919l1.455,0a.8.8,0,0,0,.6-.231.7.7,0,0,0,.18-.538.714.714,0,0,0-.774-.668H25.466v-.626h3.366a.833.833,0,0,0,.6-.222.69.69,0,0,0,.193-.506.712.712,0,0,0-.765-.709h-3.4v-.628h3.372a.718.718,0,0,0,.788-.71.694.694,0,0,0-.194-.507.793.793,0,0,0-.581-.219h-.093l-1.547,0q-.88,0-1.76.005h-.005a6.275,6.275,0,0,0,0-.63h3.381a.729.729,0,0,0,.787-.582.717.717,0,0,0-.146-.594.774.774,0,0,0-.607-.26q-.813,0-1.627,0H25.463V7.421H28.84a.725.725,0,0,0,.619-1.191.79.79,0,0,0-.6-.244q-.828,0-1.656,0-.872,0-1.744.005h-.007a2.974,2.974,0,0,0,0-.518l0-.034h.041c.488,0,1.013.006,1.658.006h1.685a.72.72,0,0,0,.8-.8V4.417c0-.437,0-.889,0-1.335A2.241,2.241,0,0,0,27.365.825q-1.173,0-2.346,0c-1.021,0-1.964,0-2.883.009a2.575,2.575,0,0,0-.846.16,2.3,2.3,0,0,0-1.447,2.275c.009,5.607.008,11.307.007,16.82q0,2.843,0,5.685c0,.3,0,.6,0,.9,0,.727,0,1.48,0,2.22a2.256,2.256,0,0,0,2.218,2.284c.865.008,1.755.012,2.643.012s1.788,0,2.7-.012a2.243,2.243,0,0,0,2.219-2.209c.008-.332.006-.669,0-.994,0-.137,0-.273,0-.41M28.21,28.585c0,.1,0,.205,0,.307a.83.83,0,0,1-.858.848q-1.224,0-2.449,0H22.192a.842.842,0,0,1-.917-.915V16q0-6.4,0-12.8a.855.855,0,0,1,.658-.924,1.243,1.243,0,0,1,.252-.02H27.3a.842.842,0,0,1,.907.9c0,.094,0,.188,0,.282,0,.184,0,.374.005.563q-.854,0-1.7,0H24.9c-.614,0-.865.252-.865.871V27.271c0,.611.253.861.873.861h1.645q.823,0,1.647,0h.019v0c-.009.153-.007.306-.005.453" fill=""/>
    <path d="M14.525,2.6A7.776,7.776,0,0,0,9.678.814a8.206,8.206,0,0,0-2.737.5A8.575,8.575,0,0,0,2.707,4.694,11.626,11.626,0,0,0,.805,12.8,11.115,11.115,0,0,0,2.99,18.312,8.616,8.616,0,0,0,7.184,21.4c.1.034.109.049.112.153A3.905,3.905,0,0,1,7,23.183c-.179.428-.379.858-.571,1.274-.154.33-.312.672-.461,1.013A3.874,3.874,0,0,0,6.505,29.7a3.749,3.749,0,0,0,2.987,1.476,4.57,4.57,0,0,0,1.044-.126A3.921,3.921,0,0,0,13.2,28.914a4.081,4.081,0,0,0-.037-3.557l-.068-.139c-.246-.5-.5-1.024-.726-1.543A4.734,4.734,0,0,1,11.89,21.5a.189.189,0,0,1,.011-.068.193.193,0,0,1,.043-.018,8.466,8.466,0,0,0,3.98-2.768,11.323,11.323,0,0,0,2.555-7.158,12.7,12.7,0,0,0-.312-2.916A10.239,10.239,0,0,0,14.525,2.6M10.533,20.833a5.562,5.562,0,0,0,.475,3.286c.232.549.494,1.093.747,1.62l.144.3a2.6,2.6,0,0,1,.011,2.254,2.537,2.537,0,0,1-1.716,1.375,3.02,3.02,0,0,1-.679.083,2.4,2.4,0,0,1-1.891-.933,2.438,2.438,0,0,1-.376-2.7c.15-.352.317-.7.479-1.047.176-.372.358-.755.52-1.142a5.48,5.48,0,0,0,.42-2.994.881.881,0,0,0-.7-.793,7.134,7.134,0,0,1-3.992-2.9A9.874,9.874,0,0,1,2.2,12.482a10.329,10.329,0,0,1,1.183-6.17A7.4,7.4,0,0,1,7.422,2.658a6.6,6.6,0,0,1,2.249-.415,6.389,6.389,0,0,1,4.056,1.551,8.79,8.79,0,0,1,3,4.935,11.81,11.81,0,0,1,.246,1.37c.036.287.049.586.059.827,0,.094.008.182.013.259a10.209,10.209,0,0,1-2.024,6.3,7.116,7.116,0,0,1-3.9,2.682.777.777,0,0,0-.59.664" fill=""/>
    <path d="M15.977,11.051l0-.014c-.01-.088-.019-.195-.03-.316-.029-.322-.069-.763-.149-1.191a8,8,0,0,0-2.561-4.67A5.453,5.453,0,0,0,9.609,3.445a5.375,5.375,0,0,0-2.455.6A6.815,6.815,0,0,0,4.095,7.329a9.239,9.239,0,0,0-.682,5.924,7.829,7.829,0,0,0,2.545,4.514A5.414,5.414,0,0,0,9.54,19.176a5.657,5.657,0,0,0,1-.092,5.763,5.763,0,0,0,3.383-2.013,8.952,8.952,0,0,0,2.053-6.006ZM13.4,15.389a4.788,4.788,0,0,1-2.325,2.05,4.235,4.235,0,0,1-1.547.312A4.093,4.093,0,0,1,6.793,16.6a6.357,6.357,0,0,1-2-3.732c-.072-.38-.109-.774-.136-1.062-.009-.1-.018-.194-.026-.268A7.539,7.539,0,0,1,6.223,6.61a4.431,4.431,0,0,1,2.7-1.671,4.082,4.082,0,0,1,.707-.063,3.975,3.975,0,0,1,2.521.94A6.228,6.228,0,0,1,14.3,9.361a7.761,7.761,0,0,1-.893,6.028" fill=""/>
    <path d="M10.782,6.621a.759.759,0,0,0-.3-.063.737.737,0,0,0-.526.235L8.523,8.229Q7.287,9.465,6.052,10.7a.716.716,0,0,0,.467,1.249.771.771,0,0,0,.54-.237C8.583,10.2,9.825,8.954,10.966,7.8a1.041,1.041,0,0,0,.188-.291.429.429,0,0,1,.025-.052l.031-.053,0-.06a.723.723,0,0,0-.426-.727" fill=""/>
    <path d="M6.258,9.248a.731.731,0,0,0,.3.068.718.718,0,0,0,.509-.225c.524-.52,1.038-1.03,1.551-1.552A.71.71,0,0,0,8.641,6.51a.7.7,0,0,0-.5-.212.76.76,0,0,0-.532.23c-.462.456-1.008,1-1.551,1.556a.968.968,0,0,0-.177.289c-.016.034-.031.068-.049.1l-.033.06L5.81,8.6a.761.761,0,0,0,.448.647" fill=""/>
  </g>
</svg>
