<svg xmlns="http://www.w3.org/2000/svg" xmlns:xlink="http://www.w3.org/1999/xlink" width="20" height="17" viewBox="0 0 20 17">
  <defs>
    <clipPath id="clip-path">
      <rect id="Прямоугольник_295" data-name="Прямоугольник 295" width="20" height="17" transform="translate(-0.419 0)" fill="#f04137"/>
    </clipPath>
  </defs>
  <g id="hide_icon" transform="translate(0.419 0)">
    <g id="Сгруппировать_741" data-name="Сгруппировать 741" clip-path="url(#clip-path)">
      <path id="Контур_650" data-name="Контур 650" d="M1.583,16.784a.73.73,0,0,1-.073-.961l.073-.083L3.555,13.8A14.428,14.428,0,0,1,.061,8.792a.724.724,0,0,1,0-.584A14.116,14.116,0,0,1,4.218,2.642,9.368,9.368,0,0,1,10,.575a9.257,9.257,0,0,1,5.269,1.7L17.357.216a.758.758,0,0,1,1.06,0,.73.73,0,0,1,.073.961l-.073.083L2.643,16.784a.758.758,0,0,1-1.06,0M5.148,3.8A12.44,12.44,0,0,0,1.617,8.4l-.047.1.045.1a12.689,12.689,0,0,0,3,4.154l2.138-2.1A3.767,3.767,0,0,1,6.086,8.5a3.878,3.878,0,0,1,3.9-3.852H10a3.938,3.938,0,0,1,2.187.657l2-1.971A7.687,7.687,0,0,0,10,2.052,7.857,7.857,0,0,0,5.148,3.8M7.586,8.5a2.308,2.308,0,0,0,.261,1.074l3.247-3.2A2.439,2.439,0,0,0,10,6.124,2.39,2.39,0,0,0,7.586,8.49V8.5m-.355,7.48a.736.736,0,0,1-.477-.925l0-.009a.753.753,0,0,1,.95-.466A7.351,7.351,0,0,0,10,14.948c3.3,0,6.381-2.262,8.273-6.118l.156-.328-.053-.117a14.412,14.412,0,0,0-1.285-2.21l-.241-.326a.732.732,0,0,1,.136-1.025L17,4.814a.757.757,0,0,1,1.049.146,15.758,15.758,0,0,1,1.892,3.247.729.729,0,0,1,0,.586c-2.077,4.736-5.8,7.631-9.939,7.631a8.873,8.873,0,0,1-2.771-.444m2.6-4.294a.738.738,0,0,1,.595-.857h.005a2.387,2.387,0,0,0,1.932-1.906.748.748,0,0,1,.769-.607l.1.011a.74.74,0,0,1,.607.853v0a3.877,3.877,0,0,1-3.142,3.1.77.77,0,0,1-.135.012.746.746,0,0,1-.73-.608Z" transform="translate(0 0)" fill="#f04137"/>
    </g>
  </g>
</svg>
