<svg id="icon-video" xmlns="http://www.w3.org/2000/svg" xmlns:xlink="http://www.w3.org/1999/xlink" width="32" height="32" viewBox="0 0 32 32">
  <g transform="translate(0 0)">
    <g transform="translate(0 0)" clip-path="url(#clip-path)">
      <path d="M9.585,30.655a1.16,1.16,0,0,1,.862-2.154.669.669,0,0,1,.071.03,13.717,13.717,0,1,0-5.525-4.413A1.16,1.16,0,0,1,3.127,25.5a16,16,0,1,1,6.456,5.156Zm4.541-8.323a1.943,1.943,0,0,1-1.71-1.043,7.2,7.2,0,0,1-.367-1.391v-.022a26.279,26.279,0,0,1-.239-3.9,24.974,24.974,0,0,1,.261-4.049,8.936,8.936,0,0,1,.282-1.133,1.924,1.924,0,0,1,.859-.947,2.029,2.029,0,0,1,.962-.232H14.2a5.1,5.1,0,0,1,1.282.357,23.542,23.542,0,0,1,6.3,4.255l.127.136c.144.152.337.359.381.415a1.952,1.952,0,0,1,.412,1.2,1.927,1.927,0,0,1-.369,1.135c-.058.079-.306.351-.455.51L21.8,17.7a24.1,24.1,0,0,1-6.172,4.214,5.957,5.957,0,0,1-1.443.42Zm.226-10a23.751,23.751,0,0,0-.223,3.634,24.472,24.472,0,0,0,.207,3.526c.018.106.048.258.08.4l.188-.072h.01l.122-.048A22.065,22.065,0,0,0,20.1,16.118a.739.739,0,0,0,.093-.095l.008-.008a.534.534,0,0,1,.04-.045l-.011-.011-.011-.011-.135-.138a22.063,22.063,0,0,0-5.459-3.686l-.21-.08c-.032.138-.05.231-.063.293" transform="translate(0 0)" fill="#f04137"/>
    </g>
  </g>
</svg>
