<svg xmlns="http://www.w3.org/2000/svg" width="16" height="16" viewBox="0 0 16 16">
  <g id="Group_232" data-name="Group 232" opacity="0.37">
    <path id="Path_96" data-name="Path 96" d="M11.8,10a.756.756,0,0,0-.8.8v4a.8.8,0,1,0,1.6,0v-4A.756.756,0,0,0,11.8,10Z" transform="translate(-3.8 -3.6)" fill="#00b6cb"/>
    <circle id="Ellipse_17" data-name="Ellipse 17" cx="0.8" cy="0.8" r="0.8" transform="translate(7.2 4)" fill="#00b6cb"/>
    <path id="Path_97" data-name="Path 97" d="M10,2a8,8,0,1,0,8,8A8.024,8.024,0,0,0,10,2Zm0,14.4A6.4,6.4,0,1,1,16.4,10,6.419,6.419,0,0,1,10,16.4Z" transform="translate(-2 -2)" fill="#00b6cb"/>
  </g>
</svg>
