<svg id="Group_3694" data-name="Group 3694" xmlns="http://www.w3.org/2000/svg" xmlns:xlink="http://www.w3.org/1999/xlink" width="16" height="16" viewBox="0 0 16 16">
  <defs>
    <clipPath id="clip-path">
      <rect id="Rectangle_1043" data-name="Rectangle 1043" width="16" height="16" fill="#00b6cb"/>
    </clipPath>
  </defs>
  <g id="Group_3693" data-name="Group 3693" clip-path="url(#clip-path)">
    <path id="Path_1044" data-name="Path 1044" d="M0,8a8,8,0,1,1,8,8A8,8,0,0,1,0,8M1.2,8A6.8,6.8,0,1,0,8,1.2,6.8,6.8,0,0,0,1.2,8m6.2,3.04a.6.6,0,0,1,.519-.594L8,10.44a.6.6,0,0,1,.08,1.2l-.085,0a.6.6,0,0,1-.6-.6ZM7.4,8.583,7.4,8.5V4.96A.6.6,0,0,1,8.59,4.88l.006.08V8.5a.6.6,0,0,1-1.194.08Z" fill="#00b6cb"/>
  </g>
</svg>
