<svg id="insta" xmlns="http://www.w3.org/2000/svg" xmlns:xlink="http://www.w3.org/1999/xlink" width="22" height="22" viewBox="0 0 22 22">
  <g transform="translate(-1168 -4514)">
    <g transform="translate(1168 4514)" fill="" stroke="#707070" stroke-width="1" opacity="0">
      <rect width="22" height="22" stroke="none"/>
      <rect x="0.5" y="0.5" width="21" height="21" fill="none"/>
    </g>
    <path d="M13,9.7A3.3,3.3,0,1,0,16.3,13,3.3,3.3,0,0,0,13,9.7Zm0-2.2A5.5,5.5,0,1,1,7.5,13,5.5,5.5,0,0,1,13,7.5Zm7.15-.275A1.375,1.375,0,1,1,18.775,5.85,1.375,1.375,0,0,1,20.15,7.225ZM13,4.2c-2.721,0-3.166.008-4.432.064a5.976,5.976,0,0,0-1.978.365A3.175,3.175,0,0,0,5.4,5.4,3.179,3.179,0,0,0,4.628,6.59a5.968,5.968,0,0,0-.364,1.978C4.207,9.783,4.2,10.207,4.2,13c0,2.721.008,3.166.064,4.432a6,6,0,0,0,.364,1.977,3.42,3.42,0,0,0,1.96,1.961,5.988,5.988,0,0,0,1.98.366c1.214.057,1.639.064,4.432.064,2.721,0,3.166-.008,4.432-.064a6.012,6.012,0,0,0,1.977-.364A3.213,3.213,0,0,0,20.6,20.6a3.18,3.18,0,0,0,.774-1.188,6.014,6.014,0,0,0,.365-1.98c.057-1.214.064-1.639.064-4.432,0-2.721-.008-3.166-.064-4.432a5.987,5.987,0,0,0-.365-1.978A3.2,3.2,0,0,0,20.6,5.4a3.172,3.172,0,0,0-1.188-.774,5.973,5.973,0,0,0-1.978-.364C16.218,4.207,15.793,4.2,13,4.2ZM13,2c2.989,0,3.362.011,4.534.066a8.1,8.1,0,0,1,2.671.511,5.363,5.363,0,0,1,1.949,1.268A5.4,5.4,0,0,1,23.423,5.8a8.126,8.126,0,0,1,.511,2.671C23.986,9.638,24,10.011,24,13s-.011,3.362-.066,4.534a8.132,8.132,0,0,1-.511,2.671,5.616,5.616,0,0,1-3.217,3.217,8.126,8.126,0,0,1-2.671.511C16.362,23.986,15.989,24,13,24s-3.362-.011-4.534-.066A8.132,8.132,0,0,1,5.8,23.423a5.616,5.616,0,0,1-3.218-3.217,8.1,8.1,0,0,1-.512-2.671C2.014,16.362,2,15.989,2,13s.011-3.362.066-4.534A8.1,8.1,0,0,1,2.577,5.8,5.368,5.368,0,0,1,3.846,3.846,5.387,5.387,0,0,1,5.8,2.578a8.1,8.1,0,0,1,2.671-.511C9.638,2.014,10.011,2,13,2Z" transform="translate(1166 4512)" fill=""/>
  </g>
</svg>
