<svg id="Group_3503" data-name="Group 3503" xmlns="http://www.w3.org/2000/svg" xmlns:xlink="http://www.w3.org/1999/xlink" width="22.002" height="22" viewBox="0 0 22.002 22">
  <defs>
    <clipPath id="clip-path">
      <rect id="Rectangle_976" data-name="Rectangle 976" width="22.002" height="22" fill="none"/>
    </clipPath>
  </defs>
  <g id="Group_3502" data-name="Group 3502" clip-path="url(#clip-path)">
    <path id="Path_972" data-name="Path 972" d="M2.7,1.3l-1-1A1,1,0,0,0,.292,1.71l1,1a1,1,0,0,0,1.41,0,.978.978,0,0,0,0-1.41M11,0a8,8,0,0,0-6.08,13.2,8.926,8.926,0,0,1,1.93,3.09,3.3,3.3,0,0,1,.15.99V18a4,4,0,0,0,8,0v-.72a3.3,3.3,0,0,1,.15-.99,8.779,8.779,0,0,1,1.93-3.09A8,8,0,0,0,11,0m2,18a2,2,0,0,1-4,0v-.72a2.528,2.528,0,0,0-.01-.28H13Zm2.56-6.1a12.639,12.639,0,0,0-2.08,3.1H8.512a12.612,12.612,0,0,0-2.07-3.1,6,6,0,1,1,9.12,0M21.7.3a1,1,0,0,0-1.41,0l-1,1A1,1,0,0,0,20.7,2.71l1-1A.978.978,0,0,0,21.7.3m-19,13a1,1,0,0,0-1.41,0l-1,1A1,1,0,0,0,1.7,15.71l1-1a.978.978,0,0,0,0-1.41m19,1-1-1a1,1,0,1,0-1.41,1.41l1,1a1,1,0,0,0,1.41,0,.978.978,0,0,0,0-1.41" fill="#68727d" fill-rule="evenodd"/>
    <path id="Path_973" data-name="Path 973" d="M17,8a5.971,5.971,0,0,1-1.44,3.9,12.639,12.639,0,0,0-2.08,3.1H8.513a12.612,12.612,0,0,0-2.07-3.1A6,6,0,1,1,17,8" fill="#fac607" fill-rule="evenodd"/>
    <path id="Path_974" data-name="Path 974" d="M10.945,12.178a3.89,3.89,0,0,1-2.76-1.141A.75.75,0,0,1,9.246,9.976a2.406,2.406,0,0,0,3.4,0,.75.75,0,0,1,1.06,1.061,3.89,3.89,0,0,1-2.76,1.141" fill="#68727d"/>
  </g>
</svg>
