<svg id="Компонент_85_37" data-name="Компонент 85 – 37" xmlns="http://www.w3.org/2000/svg" xmlns:xlink="http://www.w3.org/1999/xlink" width="32" height="32" viewBox="0 0 32 32">
  <defs>
    <clipPath id="clip-path">
      <rect id="Прямоугольник_356" data-name="Прямоугольник 356" width="16.01" height="16" fill="#fff"/>
    </clipPath>
  </defs>
  <circle id="Эллипс_62" data-name="Эллипс 62" cx="16" cy="16" r="16" fill="#64b64b"/>
  <g id="like" transform="translate(8 8)">
    <g id="Сгруппировать_2058" data-name="Сгруппировать 2058" transform="translate(0 0)" clip-path="url(#clip-path)">
      <path id="Контур_703" data-name="Контур 703" d="M11.319,5.35h.166c.69,0,1.379-.006,2.069,0A2.4,2.4,0,0,1,15.674,6.5a2.18,2.18,0,0,1,.307,1.533c-.2,1.3-.417,2.594-.638,3.888-.114.663-.249,1.321-.376,1.981a2.422,2.422,0,0,1-2.11,2.029,5.163,5.163,0,0,1-.8.06C9.9,16,7.751,16,5.6,16a2.9,2.9,0,0,1-1.113-.183.135.135,0,0,0-.112.017.908.908,0,0,1-.54.166c-.791,0-1.583,0-2.374,0A1.405,1.405,0,0,1,.023,14.821a1.963,1.963,0,0,1-.017-.293c0-2.43.01-4.86-.006-7.29A1.445,1.445,0,0,1,1.489,5.753c.777.01,1.558.015,2.334,0A2.651,2.651,0,0,0,5.29,5.29a1.624,1.624,0,0,0,.692-1.2,10.23,10.23,0,0,0,.052-1.211,3.088,3.088,0,0,1,.206-1.286A2.693,2.693,0,0,1,10.685.877,2.6,2.6,0,0,1,11.3,2.5c.027.636.017,1.275.021,1.913,0,.307,0,.613,0,.941M8.906,14.3c1.038,0,2.077,0,3.115,0a4.338,4.338,0,0,0,.434-.021.8.8,0,0,0,.849-.735c.185-.991.386-1.977.559-2.97.16-.93.293-1.865.434-2.8a.555.555,0,0,0-.32-.613.975.975,0,0,0-.426-.1c-.762-.01-1.524,0-2.285-.006A2.575,2.575,0,0,1,10.76,7,1.306,1.306,0,0,1,9.616,5.579q0-1.336,0-2.669a2.871,2.871,0,0,0-.029-.444.8.8,0,0,0-.322-.6,1,1,0,0,0-1.045-.042.872.872,0,0,0-.482.847c0,.492,0,.989-.044,1.479A3.442,3.442,0,0,1,6.636,6.382a3.836,3.836,0,0,1-1.792.928c-.089.021-.133.05-.131.156q0,3.081,0,6.166a.581.581,0,0,0,.343.565,1.072,1.072,0,0,0,.44.1c1.136.008,2.272,0,3.408,0m-5.9-6.831H1.715v6.825h1.29Z" transform="translate(0 -0.001)" fill="#fff"/>
    </g>
  </g>
</svg>
