<svg id="mailing" xmlns="http://www.w3.org/2000/svg" xmlns:xlink="http://www.w3.org/1999/xlink" width="32" height="17" viewBox="0 0 32 17">
  <g clip-path="url(#clip-path)">
    <path d="M29.292,17H11.674a.775.775,0,0,1,0-1.545H28.668L30.293,2.85,22.513,9.8a.678.678,0,0,1-.956-.038l-8.074-8.43a.816.816,0,0,1-.166-.845A.718.718,0,0,1,13.981,0h17.3a.692.692,0,0,1,.54.265.814.814,0,0,1,.17.614L30,16.333a.735.735,0,0,1-.709.667M15.751,1.545l6.342,6.623L29.5,1.545Z" fill="#f04137"/>
    <path d="M8.791,3.653H3.024a.747.747,0,0,1-.717-.773.746.746,0,0,1,.717-.772H8.791a.745.745,0,0,1,.716.772.746.746,0,0,1-.716.773" fill="#f04137"/>
    <path d="M3.023,7.868H.716a.775.775,0,0,1,0-1.545H3.023a.775.775,0,0,1,0,1.545" fill="#f04137"/>
    <path d="M11.1,7.868H5.33a.775.775,0,0,1,0-1.545H11.1a.775.775,0,0,1,0,1.545" fill="#f04137"/>
    <path d="M14.558,12.083H8.79a.775.775,0,0,1,0-1.545h5.768a.775.775,0,0,1,0,1.545" fill="#f04137"/>
    <path d="M3.023,12.083H.716a.775.775,0,0,1,0-1.545H3.023a.775.775,0,0,1,0,1.545" fill="#f04137"/>
    <path d="M6.484,12.083H5.331a.775.775,0,0,1,0-1.545H6.484a.775.775,0,0,1,0,1.545" fill="#f04137"/>
  </g>
</svg>
