<svg xmlns="http://www.w3.org/2000/svg" xmlns:xlink="http://www.w3.org/1999/xlink" width="24" height="24" viewBox="0 0 24 24">
  <defs>
    <clipPath id="clip-path">
      <rect id="Rectangle_10" data-name="Rectangle 10" width="17" height="19.998" transform="translate(0 0)" fill="#e82727"/>
    </clipPath>
  </defs>
  <g id="mapstick" transform="translate(-739 -54)">
    <g id="Rectangle_15" data-name="Rectangle 15" transform="translate(739 54)" fill="#e82727" stroke="#707070" stroke-width="1" opacity="0">
      <rect width="24" height="24" stroke="none"/>
      <rect x="0.5" y="0.5" width="23" height="23" fill="none"/>
    </g>
    <g id="Group_12" data-name="Group 12" transform="translate(743 56)">
      <g id="Group_11" data-name="Group 11" clip-path="url(#clip-path)">
        <path id="Path_19" data-name="Path 19" d="M7.514,19.683l-.06-.048-.413-.278A20.733,20.733,0,0,1,2.507,15.1l-.316-.413A10.7,10.7,0,0,1,0,8.527V8.242A8.512,8.512,0,0,1,8.5,0h.285A8.516,8.516,0,0,1,17,8.553v.1c-.05,2.64-1.337,5.369-3.72,7.892a21.124,21.124,0,0,1-3.745,3.094l-.05.041a1.688,1.688,0,0,1-1.972,0Zm.77-18.162A7,7,0,0,0,1.513,8.5l.019.357A9.193,9.193,0,0,0,3.4,13.772a19.184,19.184,0,0,0,4.9,4.6l.082.062a.182.182,0,0,0,.238,0L8.7,18.37a19.647,19.647,0,0,0,3.482-2.87c2.116-2.24,3.257-4.612,3.3-6.858V8.31a7,7,0,0,0-6.96-6.791ZM5.261,8.649A3.238,3.238,0,1,1,8.5,11.9,3.238,3.238,0,0,1,5.261,8.649m1.513,0A1.725,1.725,0,1,0,8.5,6.918,1.725,1.725,0,0,0,6.774,8.649" fill="#e82727"/>
      </g>
    </g>
  </g>
</svg>
