<svg xmlns="http://www.w3.org/2000/svg" xmlns:xlink="http://www.w3.org/1999/xlink" width="22" height="22" viewBox="0 0 22 22">
  <g transform="translate(-5107 1323)">
    <g transform="translate(5107 -1323)" fill="#969ba4" stroke="#707070" stroke-width="1" opacity="0">
      <rect width="22" height="22" stroke="none"/>
      <rect x="0.5" y="0.5" width="21" height="21" fill="none"/>
    </g>
    <g transform="translate(5108.229 -1321.735)">
      <path d="M60.645,22.192c.059-.018.137.018.214.121l3.512,3.422a.435.435,0,0,1,0,.665L60.86,29.874c-.078.1-.155.127-.214.1s-.1-.121-.1-.251V22.414C60.549,22.288,60.586,22.21,60.645,22.192Z" transform="translate(-44.525 -16.257)" fill="#969ba4"/>
      <path d="M26.128,0h.249l.239.1L30.23,3.676c.155.2.1.359-.155.359h-1.5a.459.459,0,0,0-.463.461V7.15a.477.477,0,0,1-.519.461H24.963A.462.462,0,0,1,24.5,7.15V4.5a.46.46,0,0,0-.466-.461h-1.6c-.258,0-.311-.155-.155-.359L25.892.1Z" transform="translate(-16.252)" fill="#969ba4"/>
      <path d="M3.976,21.868c.065.031.106.12.106.25v7.457c0,.13-.04.207-.106.232a.289.289,0,0,1-.258-.077L.154,26.153a.435.435,0,0,1,0-.665l3.564-3.524C3.824,21.861,3.914,21.837,3.976,21.868Z" transform="translate(0 -16.01)" fill="#969ba4"/>
      <path d="M25.2,44.759H27.83a.477.477,0,0,1,.519.461v2.809a.473.473,0,0,0,.463.511h1.4c.258,0,.36.152.155.306L26.851,52.37a.521.521,0,0,1-.364.155.515.515,0,0,1-.361-.155l-3.512-3.524c-.208-.155-.106-.306.152-.306h1.5a.473.473,0,0,0,.466-.511V45.22A.462.462,0,0,1,25.2,44.759Z" transform="translate(-16.488 -32.797)" fill="#969ba4"/>
    </g>
  </g>
</svg>
