<svg id="phone" xmlns="http://www.w3.org/2000/svg" xmlns:xlink="http://www.w3.org/1999/xlink" width="20.008" height="20.009" viewBox="0 0 20.008 20.009">
    <path d="M13.074,19.43a25.513,25.513,0,0,1-7.19-5.339,24.647,24.647,0,0,1-5.3-7.207l-.1-.238C-.2,5.027-.157,3.689.588,2.669,1.241,1.581,3.04,0,4.375,0h.1A2.249,2.249,0,0,1,5.865.713l.126.13A15.978,15.978,0,0,1,8.438,4.257l.024.088A2.439,2.439,0,0,1,8,6.258l-.109.193c-.2.369-.239.528-.175.714a8.915,8.915,0,0,0,5.027,5.068.528.528,0,0,0,.188.036,1.48,1.48,0,0,0,.68-.274l.248-.141a2.492,2.492,0,0,1,1.255-.4,2.218,2.218,0,0,1,.459.051,13.537,13.537,0,0,1,3.24,2.261l.274.254.1.1a2.254,2.254,0,0,1,.708,1.429c.046,1.317-1.548,3.239-2.6,3.843a3.27,3.27,0,0,1-1.95.617,5.424,5.424,0,0,1-2.274-.579M4.368,1.464H4.282A5.336,5.336,0,0,0,1.8,3.479L1.72,3.6a2.883,2.883,0,0,0,.2,2.709l.1.244A24.461,24.461,0,0,0,7.052,13.2a23.9,23.9,0,0,0,6.607,4.9l.212.094a3.7,3.7,0,0,0,1.444.344,1.987,1.987,0,0,0,1.193-.377l.05-.032A7.6,7.6,0,0,0,17.631,17.1a2.866,2.866,0,0,0,.815-1.468.9.9,0,0,0-.287-.483l-.081-.08a19.785,19.785,0,0,0-2.8-2.131.574.574,0,0,0-.124-.013,1.639,1.639,0,0,0-.755.31l-.244.139a2.489,2.489,0,0,1-1.2.374,2.137,2.137,0,0,1-.733-.143A10.379,10.379,0,0,1,6.363,7.69a2.241,2.241,0,0,1,.345-2.1l.112-.2c.21-.381.26-.549.218-.748a20.11,20.11,0,0,0-2.017-2.7L4.847,1.76l-.092-.085a.927.927,0,0,0-.333-.2Zm10.755,6.52A3.564,3.564,0,0,0,12.3,5.15a.732.732,0,0,1,.085-1.45h.1l.1.013A5.016,5.016,0,0,1,16.552,7.7a.728.728,0,1,1-1.428.285v0Zm3.429-.067a7.088,7.088,0,0,0-2.011-4.2A7.009,7.009,0,0,0,12.364,1.7.732.732,0,0,1,12.329.25l.1-.009h.1A8.48,8.48,0,0,1,20,7.753a.731.731,0,0,1-.642.809h-.082a.728.728,0,0,1-.727-.645" fill=""/>
</svg>
