<svg xmlns="http://www.w3.org/2000/svg" width="20" height="20" viewBox="0 0 20 20">
  <g id="Group_3633" data-name="Group 3633" transform="translate(-308 -2319)">
    <g id="Rectangle_1010" data-name="Rectangle 1010" transform="translate(308 2319)" fill="#fff" stroke="#707070" stroke-width="1" opacity="0">
      <rect width="20" height="20" stroke="none"/>
      <rect x="0.5" y="0.5" width="19" height="19" fill="none"/>
    </g>
    <g id="Group_3632" data-name="Group 3632" transform="translate(-0.25 -0.25)">
      <g id="Group_3631" data-name="Group 3631" transform="translate(312.25 2323.25)">
        <path id="Линия_348" data-name="Линия 348" d="M0,11.25a.682.682,0,0,1-.75-.581V-.169A.682.682,0,0,1,0-.75a.682.682,0,0,1,.75.581V10.669A.682.682,0,0,1,0,11.25Z" transform="translate(6 0.75)" fill="#4b4da8"/>
        <path id="Линия_349" data-name="Линия 349" d="M.75,12A.682.682,0,0,1,0,11.419V.581A.682.682,0,0,1,.75,0,.682.682,0,0,1,1.5.581V11.419A.682.682,0,0,1,.75,12Z" transform="translate(12 5.25) rotate(90)" fill="#4b4da8"/>
      </g>
    </g>
  </g>
</svg>
