<svg id="style" xmlns="http://www.w3.org/2000/svg" width="71.978" height="33.331" viewBox="0 0 71.978 33.331">
  <path d="M10.306,13.545c-.29,5.788-7.427,6.618-9.148,5.124C.2,17.777-.626,16.594.639,12.57c0,0,3.195-.892,3.049.809s-2.24,4.315-1.7,4.688a3.921,3.921,0,0,0,4.979-3.651c0-3.278-4.834-2.9-4.605-7.074C2.569,2.758,7.34,1.43,9.643,1.492c1.639.083,2.593.975,1.784,3.049-.892,2.386-.6,2.821-.6,2.821S8.813,8.4,7.858,7.218c-1.037-1.265,1.784-4.024.6-4.688-1.058-.519-3.278.892-3.278,3.8C5.245,9.458,10.535,8.566,10.306,13.545Z" transform="translate(0.005 -1.184)" fill="#969ba4"/>
  <path d="M60.119,10.811A7.24,7.24,0,0,0,62.65,9.255a1.229,1.229,0,0,1,.975,1.556c-.29,1.12-1.639,1.784-4.087,2.012-.809,2.9-1.556,6.389-1.867,8.173a7.9,7.9,0,0,0,0,2.593,4.083,4.083,0,0,1-2.386.228c-.975-.456-.664-2.531-.083-5.269.373-1.784.809-3.568,1.182-5.643A3.542,3.542,0,0,1,54.6,12.45a1.074,1.074,0,0,1,.145-1.494,11.209,11.209,0,0,0,1.929.373c.145-1.037.29-2.157.456-3.423V7.824C60.119,7.305,60.783,8.426,60.119,10.811Z" transform="translate(-42.346 -6.105)" fill="#969ba4"/>
  <path d="M69.759,43.576a9.465,9.465,0,0,1,3.8,1.182c2.012,1.265,3.278,3.34,3.132,4.979a4,4,0,0,1-2.759,3.278,7.384,7.384,0,0,0-1.556-5.124,6.353,6.353,0,0,0-3.485-1.867c-2.593,6.7-5.643,11.368-9.211,10.1-3.34-1.182-2.676-6.846,1.182-10.1a11.974,11.974,0,0,1,6.472-2.448c.456-1.494.809-3.132,1.182-4.833-1.411,2.531-3.049,3.859-4.751,3.8-1.867-.145-2.157-1.784-.892-6.016,1.12-3.651.456-4.834.456-4.834s1.639-.892,2.821-.228c1.265.747.747,2.966,0,5.062-.892,2.531-1.784,4.688-.975,4.688,1.037,0,2.9-2.386,4.087-5.808l.228-1.037a6.236,6.236,0,0,0,0-2.593.42.42,0,0,1,.29-.083c2.157-.809,3.485.145,2.157,5.124C71.252,39.116,70.589,41.419,69.759,43.576Zm-3.112,2.365a8.44,8.44,0,0,0-4.917,1.929C59.2,50.028,58.6,54.26,60.61,55.38,62.332,56.21,64.552,52.414,66.647,45.941Z" transform="translate(-44.676 -23.003)" fill="#969ba4"/>
  <path d="M131.586,15.8a7.9,7.9,0,0,0,0,2.593,4.083,4.083,0,0,1-2.386.228c-.975-.456-.664-2.531-.083-5.269A96.913,96.913,0,0,0,131.5,1.233V1.15c3.34-.145,3.941.892,2.9,3.941C133.308,8.576,131.96,13.7,131.586,15.8Z" transform="translate(-100.28 -0.904)" fill="#969ba4"/>
  <path d="M158.694,34.222c-.456,1.7-2.9,3.941-6.472,5.58,0,1.037.29,1.784.809,1.929.975.228,2.074-.6,3.195-1.867,0-.083.975-.228.456.373-1.265,1.411-2.821,2.821-4.917,2.531-1.784-.29-3.195-2.531-2.24-6.182,1.182-4.543,5.871-5.954,7.593-4.751A2.866,2.866,0,0,1,158.694,34.222Zm-6.472,4.833a17.83,17.83,0,0,0,3.651-4.605c.664-1.265.747-1.929.519-2.012-.975-.456-2.821,1.411-3.568,4.17A16.717,16.717,0,0,0,152.221,39.056Z" transform="translate(-116.28 -24.35)" fill="#969ba4"/>
  <path d="M193.422,1.673a6.837,6.837,0,0,0-2.676,3.34,1.424,1.424,0,0,1-1.182-2.074c.456-1.182,2.9-2.593,6.846-2.9,4.688-.29,6.991,3.132,6.016,6.472-.975,3.195-4.315,5.954-8.775,6.7-.145.747-.29,1.411-.373,1.929a7.683,7.683,0,0,0,0,2.593s-.29.083-.664.228c-1.867.456-2.676-.892-2.3-2.966C190.373,14.306,192.3,6.34,193.422,1.673Zm.373,10.7A8.941,8.941,0,0,0,198.92,6.8c.809-2.966.373-5.871-3.941-5.58a6.6,6.6,0,0,0-1.348.373l.747.083c1.348.29,1.929.975,1.348,3.195C195.061,7.087,194.314,9.991,193.8,12.377Z" transform="translate(-147.442 -0.017)" fill="#969ba4"/>
  <path d="M245.427,26.319c.456-1.7,1.411-4.979,1.411-4.979,2.3-.228,3.195.892,2.3,3.049a21.729,21.729,0,0,0-1.265,4.377,5.705,5.705,0,0,0,0,2.531,2.646,2.646,0,0,1-2.386.228C244.307,31.007,244.6,29.078,245.427,26.319Zm3.195-5.5a1.754,1.754,0,0,1-1.265-2.157,1.774,1.774,0,0,1,2.3-1.037,1.825,1.825,0,0,1,1.348,2.157A1.97,1.97,0,0,1,248.622,20.822Z" transform="translate(-190.854 -13.896)" fill="#969ba4"/>
  <path d="M272.776,27.137c2.759-2.24,3.713-4.46,3.423-6.1a1.142,1.142,0,0,1-.083-.29.786.786,0,0,1,.228-.145c1.182-.747,3.278-.456,2.593,1.867-.6,2.157-2.531,4.377-5.5,6.244a18.1,18.1,0,0,0,2.9,4.979l-.145.145c-1.12.975-2.9.456-4.087-1.556-.373-.6-.747-1.265-1.12-2.012a5.81,5.81,0,0,0-2.012,4.024.339.339,0,0,1-.228.083c-1.929.747-2.9.145-2.676-.892a5.722,5.722,0,0,1,3.132-3.8c.373-.228.809-.456,1.182-.664A33.962,33.962,0,0,0,268,23.9a3.338,3.338,0,0,0-.954-.747.339.339,0,0,1,.228-.083c1.867-.809,3.34-.747,4.377,1.556A15.553,15.553,0,0,1,272.776,27.137Z" transform="translate(-207.093 -16.042)" fill="#969ba4"/>
  <g transform="translate(36.391 22.036)">
    <path d="M161.636,113.737H158.98L158.835,115H157.3l.29-2.469h.539a4.824,4.824,0,0,0,.415-1.2c.124-.581.27-1.431.415-2.531h4.19l-.456,3.734h.622l-.29,2.469H161.49Zm-.726-1.182.311-2.531h-.768a19.637,19.637,0,0,1-.5,2.531Z" transform="translate(-157.3 -106.528)" fill="#969ba4"/>
    <path d="M187.894,108.49a1.915,1.915,0,0,1,1-.29.9.9,0,0,1,.726.249,1.009,1.009,0,0,1,.124.768l-.166,1.39h.041l1.784-2.282h1.556l-.456,3.713a2.371,2.371,0,0,0,.041,1.058,1.915,1.915,0,0,1-1,.29.932.932,0,0,1-.726-.249.989.989,0,0,1-.1-.788l.166-1.473h-.041l-1.826,2.386H187.5l.456-3.713A3,3,0,0,0,187.894,108.49Z" transform="translate(-181.235 -106.053)" fill="#969ba4"/>
    <path d="M215.952,110.4h.809a.934.934,0,0,0,.477-.083.418.418,0,0,0,.207-.353.475.475,0,0,0-.062-.353c-.083-.1-.27-.145-.539-.166a1.532,1.532,0,0,0-.581.1.389.389,0,0,0-.207.415.887.887,0,0,1-.581.187.541.541,0,0,1-.456-.166.575.575,0,0,1-.124-.477,1.307,1.307,0,0,1,.954-1.1,3.97,3.97,0,0,1,1.411-.207,3.181,3.181,0,0,1,1.411.249.858.858,0,0,1,.56.934,1.494,1.494,0,0,1-.228.664.9.9,0,0,1-.539.415v.021a.77.77,0,0,1,.539.394,1.421,1.421,0,0,1,.124.747,1.68,1.68,0,0,1-.788,1.286,3.292,3.292,0,0,1-1.846.456,3.23,3.23,0,0,1-1.556-.311.773.773,0,0,1-.436-.622,1.25,1.25,0,0,1,.124-.5.746.746,0,0,1,.332-.373,2.681,2.681,0,0,0,.6.394,2.446,2.446,0,0,0,.954.187c.5.021.747-.145.809-.456a.356.356,0,0,0-.041-.27.529.529,0,0,0-.394-.1h-1.037Z" transform="translate(-202.634 -106.053)" fill="#969ba4"/>
    <path d="M243.924,108.476h.685l-.6,4.937h-.954c-.062,0-.124-.021-.207-.021a.331.331,0,0,1-.207-.1.452.452,0,0,1-.145-.187,1.849,1.849,0,0,1-.539.27,2.328,2.328,0,0,1-.975.145,1.618,1.618,0,0,1-1.431-.768,2.866,2.866,0,0,1-.228-1.888,3.307,3.307,0,0,1,.664-1.7,2.157,2.157,0,0,1,1.618-.768,1.887,1.887,0,0,1,1.411.477A1.086,1.086,0,0,1,243.924,108.476Zm-2.718,2.116c-.021.187-.062.436-.1.788a1.227,1.227,0,0,0,.062.726.558.558,0,0,0,.519.207.942.942,0,0,0,.539-.124.63.63,0,0,0,.228-.5c.021-.166.042-.394.083-.705s.062-.539.083-.705c.021-.249,0-.394-.1-.5a.8.8,0,0,0-.5-.124.711.711,0,0,0-.581.207A1.25,1.25,0,0,0,241.207,110.592Z" transform="translate(-222.267 -106.205)" fill="#969ba4"/>
    <path d="M266.136,100.287a1.915,1.915,0,0,1,1-.29.9.9,0,0,1,.726.249.936.936,0,0,1,.1.768l-.166,1.39h.042l1.784-2.282h1.556l-.456,3.713a2.8,2.8,0,0,0,.021,1.058,1.915,1.915,0,0,1-1,.29.932.932,0,0,1-.726-.249,1.067,1.067,0,0,1-.124-.788l.187-1.473h-.041l-1.826,2.386H265.7l.456-3.713A2.154,2.154,0,0,0,266.136,100.287Zm2.22-2.427a.773.773,0,0,0,.954.664,1.139,1.139,0,0,0,.85-.581l.664.29a2.387,2.387,0,0,1-.685,1,2.053,2.053,0,0,1-1.058.477,1.917,1.917,0,0,1-1.182-.166.846.846,0,0,1-.477-.747.884.884,0,0,1,.249-.685A.74.74,0,0,1,268.355,97.86Z" transform="translate(-243.213 -97.85)" fill="#969ba4"/>
    <path d="M294.256,109.648a2.776,2.776,0,0,0-.021-1.058,1.915,1.915,0,0,1,1-.29.883.883,0,0,1,.705.249,1.067,1.067,0,0,1,.124.788c-.042.249-.083.6-.145,1.1h1.328l.249-2.012h1.763l-.477,3.713a2.323,2.323,0,0,0,.041,1.058,1.808,1.808,0,0,1-1,.29.8.8,0,0,1-.705-.27,1.009,1.009,0,0,1-.124-.768c.021-.124.041-.249.062-.415a3.663,3.663,0,0,0,.041-.394h-1.328l-.207,1.722H293.8Z" transform="translate(-265.483 -106.132)" fill="#969ba4"/>
  </g>
</svg>
