<svg id="tiktok" xmlns="http://www.w3.org/2000/svg" xmlns:xlink="http://www.w3.org/1999/xlink" width="17.335" height="19.812" viewBox="0 0 17.335 19.812">
  <g clip-path="url(#clip-path)">
    <path d="M16.313,8.062A8.131,8.131,0,0,1,13.6,7.226a.7.7,0,0,0-1.017.621v5.675A6.3,6.3,0,0,1,4.97,19.677,6.758,6.758,0,0,1,.134,14.838a6.3,6.3,0,0,1,6.16-7.609h.083a.788.788,0,0,1,.778.787V9.848a.787.787,0,0,1-.812.786,2.889,2.889,0,1,0,2.834,2.888V.851A.851.851,0,0,1,10.029,0h1.763a.854.854,0,0,1,.843.732q.009.063.021.126a4.729,4.729,0,0,0,2.087,3.1,4.7,4.7,0,0,0,1.83.717.908.908,0,0,1,.763.895V7.163a.908.908,0,0,1-1.022.9" transform="translate(0)" fill=""/>
  </g>
</svg>
