<svg id="youtube" xmlns="http://www.w3.org/2000/svg" xmlns:xlink="http://www.w3.org/1999/xlink" width="22" height="18.818" viewBox="0 0 22 18.818">
  <path d="M7.536,26.346A56.359,56.359,0,0,0,15,26.818a56.359,56.359,0,0,0,7.464-.471A4.069,4.069,0,0,0,26,22.3V12.518a4.1,4.1,0,0,0-3.536-4.046A56.793,56.793,0,0,0,15,8a50.635,50.635,0,0,0-7.464.511A4.064,4.064,0,0,0,4,12.518V22.3A4.073,4.073,0,0,0,7.536,26.346Zm4.95-10.725a1.363,1.363,0,0,1,2.082-1.139l3.064,1.964a1.138,1.138,0,0,1,0,1.925l-3.064,1.964A1.351,1.351,0,0,1,12.486,19.2V15.621Z" transform="translate(-4 -8)" fill=""/>
</svg>
