<svg xmlns="http://www.w3.org/2000/svg" xmlns:xlink="http://www.w3.org/1999/xlink" width="48" height="48" viewBox="0 0 48 48">
  <defs>
    <style>
      .cls-1 {
        fill: #0090ff;
      }

      .cls-2 {
        fill: #fff;
      }

      .cls-3 {
        clip-path: url(#clip-path);
      }
    </style>
    <clipPath id="clip-path">
      <rect id="Прямоугольник_3186" data-name="Прямоугольник 3186" class="cls-1" width="26.889" height="27.8"/>
    </clipPath>
  </defs>
  <g id="Сгруппировать_5476" data-name="Сгруппировать 5476" transform="translate(-688 -1455)">
    <circle id="Эллипс_21" data-name="Эллипс 21" class="cls-2" cx="24" cy="24" r="24" transform="translate(688 1455)"/>
    <g id="Сгруппировать_5475" data-name="Сгруппировать 5475" transform="translate(698.556 1465.405)">
      <g id="Сгруппировать_5474" data-name="Сгруппировать 5474" class="cls-3">
        <path id="Контур_27363" data-name="Контур 27363" class="cls-1" d="M26.393,15.86a13.684,13.684,0,0,0,.133-1.869,13.005,13.005,0,0,0-3.754-9.356A12.39,12.39,0,0,0,13.582.729q-.625,0-1.2.057A8.539,8.539,0,0,0,8.761,0,8.507,8.507,0,0,0,2.526,2.637,8.805,8.805,0,0,0,0,8.9a8.893,8.893,0,0,0,.7,3.507,12.176,12.176,0,0,0-.1,1.586,12.972,12.972,0,0,0,3.782,9.362,12.461,12.461,0,0,0,9.208,3.9,11.893,11.893,0,0,0,1.338-.09,8.393,8.393,0,0,0,3.206.636,8.5,8.5,0,0,0,6.21-2.655,8.831,8.831,0,0,0,2.553-6.29,9.348,9.348,0,0,0-.5-3M18.673,18.9a4.694,4.694,0,0,1-2,1.591,8.423,8.423,0,0,1-3.137.545,7.556,7.556,0,0,1-3.591-.775,4.584,4.584,0,0,1-1.637-1.5A3.528,3.528,0,0,1,7.668,16.9a1.311,1.311,0,0,1,.409-.955,1.411,1.411,0,0,1,1.046-.409,1.59,1.59,0,0,1,.91.318,2.286,2.286,0,0,1,.544.91q.047.045.592,1.046a2.42,2.42,0,0,0,.817.635,3.279,3.279,0,0,0,1.456.273,3.617,3.617,0,0,0,2.047-.544,1.5,1.5,0,0,0,.726-1.274,1.135,1.135,0,0,0-.409-.955,2.773,2.773,0,0,0-1.044-.638c-.121-.031-.281-.07-.477-.112s-.426-.106-.683-.184a5.577,5.577,0,0,0-.659-.158,12.272,12.272,0,0,1-2.638-.819,4.258,4.258,0,0,1-1.727-1.271,3.369,3.369,0,0,1-.636-2.047,3.386,3.386,0,0,1,.683-2.091,4.06,4.06,0,0,1,1.954-1.364,7.9,7.9,0,0,1,2.911-.5,8.18,8.18,0,0,1,2.318.318,5.744,5.744,0,0,1,1.684.865,6.166,6.166,0,0,1,.955,1.089,3.145,3.145,0,0,1,.32,1.182,1.351,1.351,0,0,1-.411,1,1.428,1.428,0,0,1-1.044.457,1.387,1.387,0,0,1-.863-.275,4.761,4.761,0,0,1-.592-.817,3.1,3.1,0,0,0-.862-1.138,2.814,2.814,0,0,0-1.684-.408,2.794,2.794,0,0,0-1.727.456,1.156,1.156,0,0,0-.636.955.8.8,0,0,0,.227.592,1.561,1.561,0,0,0,.592.5,4.279,4.279,0,0,0,.774.317c.091.031.294.085.612.158a7.924,7.924,0,0,0,.8.16q.634.137,2.182.592a8.745,8.745,0,0,1,1.727.819A3.593,3.593,0,0,1,19,14.808a4.434,4.434,0,0,1,.362,1.818,4.117,4.117,0,0,1-.684,2.275" transform="translate(0)"/>
      </g>
    </g>
  </g>
</svg>
