<?xml version="1.0" encoding="utf-8"?><svg viewBox="0 0 272 156.458" xmlns="http://www.w3.org/2000/svg" xmlns:xlink="http://www.w3.org/1999/xlink"><style>:root>svg{display:none}:root>svg:target{display:block}</style><svg viewBox="0 0 30 36" id="Go" xmlns="http://www.w3.org/2000/svg"><g fill="#fff" stroke="#f04137"><rect width="30" height="36" rx="6" stroke="none"/><rect x=".5" y=".5" width="29" height="35" rx="5.5" fill="none"/></g><g fill="none" stroke="#e82727" stroke-linecap="round" stroke-linejoin="round" stroke-width="1.5"><path d="M19.172 18.261H11M15.408 14.509l3.764 3.752-3.764 3.748"/></g></svg><svg viewBox="0 0 30 36" id="Go-active" xmlns="http://www.w3.org/2000/svg"><g fill="#f04137" stroke="#f04137" stroke-width="2"><rect width="30" height="36" rx="6" stroke="none"/><rect x="1" y="1" width="28" height="34" rx="5" fill="none"/></g><g fill="none" stroke="#fff" stroke-linecap="round" stroke-linejoin="round" stroke-width="1.5"><path d="M19.172 18.261H11M15.408 14.509l3.764 3.752-3.764 3.748"/></g></svg><svg viewBox="0 0 30 36" id="Go-hover" xmlns="http://www.w3.org/2000/svg"><g fill="#fff" stroke="#f04137" stroke-width="2"><rect width="30" height="36" rx="6" stroke="none"/><rect x="1" y="1" width="28" height="34" rx="5" fill="none"/></g><g fill="none" stroke="#e82727" stroke-linecap="round" stroke-linejoin="round" stroke-width="1.5"><path d="M22.172 18.261H14M18.408 14.509l3.764 3.752-3.764 3.748"/></g></svg><svg viewBox="0 0 9.74 5.87" id="accordion" xmlns="http://www.w3.org/2000/svg"><path d="M8.74 5.87a1 1 0 01-.707-.293L4.87 2.414 1.707 5.577A1 1 0 11.293 4.163L4.16.295a1 1 0 011.414 0l3.873 3.868A1 1 0 018.74 5.87z"/></svg><svg viewBox="0 0 16 15.679" id="added-cart" xmlns="http://www.w3.org/2000/svg"><g clip-path="url(#clip-path)"><path d="M12.127 14.468a1.212 1.212 0 111.213 1.211 1.213 1.213 0 01-1.212-1.211m-9 0a1.211 1.211 0 111.211 1.211 1.211 1.211 0 01-1.211-1.211m1.345-2.48a2.054 2.054 0 01-2.02-1.741l-.015-.131L1.705 1.4.5 1.192A.6.6 0 010 .579L.008.5A.6.6 0 01.6 0h.021L.7.008 2.365.3a.6.6 0 01.48.453l.015.085.188 2.24h11.279a1.656 1.656 0 011.225.533A1.681 1.681 0 0116 4.869l-.013.121-.759 5.25a2.051 2.051 0 01-1.89 1.746h-.131zm-.839-1.972a.844.844 0 00.746.767h8.82a.843.843 0 00.815-.63l.018-.094.76-5.246a.473.473 0 00-.4-.535l-.07-.006H3.15zM9.7 7.236a.6.6 0 01-.08-1.194l.08-.006h2.219a.601.601 0 01.08 1.2h-.08z" fill="#00b6cb"/></g></svg><svg viewBox="0 0 32 32" id="age--01" xmlns="http://www.w3.org/2000/svg"><path fill="none" d="M0 0h32v32H0z"/><path d="M16 12a1 1 0 01-1-1V9a1 1 0 011-1 1 1 0 011 1v2a1 1 0 01-1 1z"/><path d="M15.796 9.475a1 1 0 01-.316-.051C13.607 8.8 12.528 7.8 12.274 6.453c-.492-2.61 2.535-5.22 2.882-5.509a1 1 0 011.295.012 11.672 11.672 0 011.517 1.656 4.982 4.982 0 011.25 3.87c-.256 1.33-1.3 2.319-3.095 2.942a1 1 0 01-.327.051zm-.013-6.373c-.8.841-1.712 2.1-1.544 2.982.119.625.851 1.054 1.55 1.327.873-.353 1.365-.793 1.464-1.31.173-.897-.7-2.155-1.47-3zM15.796 21.068a5.112 5.112 0 01-5.106-5.106 1 1 0 012 0 3.106 3.106 0 106.212 0 1 1 0 012 0 5.112 5.112 0 01-5.106 5.106z"/><path d="M7.578 21.073a5.016 5.016 0 01-3.53-1.455 5.262 5.262 0 01-1.57-3.745v-1.6a3.886 3.886 0 013.9-3.9h18.837a3.886 3.886 0 013.9 3.9v1.6a5.261 5.261 0 01-1.574 3.736 5.016 5.016 0 01-3.638 1.454 5.106 5.106 0 01-5-5.106 1 1 0 011-1 1 1 0 011 1 3.123 3.123 0 003.041 3.116 3.032 3.032 0 002.2-.884 3.25 3.25 0 00.973-2.307v-1.609a1.886 1.886 0 00-1.897-1.9H6.378a1.886 1.886 0 00-1.9 1.894v1.606a3.25 3.25 0 00.973 2.307 3.032 3.032 0 002.2.884 3.123 3.123 0 003.043-3.106 1 1 0 012 0 5.106 5.106 0 01-5 5.106z"/><path d="M25.456 27.831H6.134a1.968 1.968 0 01-1.966-1.966v-6.606a1 1 0 012 0v6.572h19.255v-6.572a1 1 0 012 0v6.606a1.968 1.968 0 01-1.967 1.966z"/></svg><svg viewBox="0 0 18 18" id="all" xmlns="http://www.w3.org/2000/svg"><g transform="translate(.421 .421)" clip-path="url(#clip-path)" fill="none" stroke="#f04137" stroke-linecap="round" stroke-linejoin="round" stroke-width="2"><circle cx="7.935" cy="7.935" r="7.935" transform="translate(.643 .643)"/><path d="M7.342 11.556l2.991-2.978-2.991-2.977"/></g></svg><svg viewBox="0 0 19.984 20" id="ans" xmlns="http://www.w3.org/2000/svg"><defs><clipPath id="aha"><path data-name="Прямоугольник 355" fill="#969ba4" d="M0 0h19.984v20H0z"/></clipPath></defs><g data-name="Сгруппировать 2055"><g data-name="Сгруппировать 2054" clip-path="url(#aha)"><path data-name="Контур 702" d="M5.324 18.848l-.046-.016a.017.017 0 01-.01-.012l-.682-.387a.761.761 0 00-.275-.054.423.423 0 00-.112.012 17.822 17.822 0 01-2.171.627l-.135.016h-.041a1.118 1.118 0 01-.883-.355 1.374 1.374 0 01-.3-.92l.02-.164a18.567 18.567 0 01.677-2.2.53.53 0 00-.043-.4l-.184-.358A10.005 10.005 0 0110.026 0h.039a10 10 0 11-4.74 18.848zm-.171-1.688c.092.044.209.107.37.2l.422.243h.006l.287.146a8.631 8.631 0 009.226-1.1l.22-.187A8.606 8.606 0 0010.054 1.4h-.281a8.6 8.6 0 00-7.39 12.59l.181.353a1.943 1.943 0 01.126 1.5 17.777 17.777 0 00-.64 2.08l.094-.368.4-.1c.285-.079.553-.16.82-.248l.418-.144a2.057 2.057 0 01.541-.073 2.174 2.174 0 01.83.171zm8.2-7.16a1.141 1.141 0 111.141 1.141A1.141 1.141 0 0113.353 10zm-4.435 0a1.141 1.141 0 111.141 1.141A1.141 1.141 0 018.918 10m-4.437 0a1.141 1.141 0 111.141 1.141A1.141 1.141 0 014.481 10" fill="#969ba4"/></g></g></svg><svg viewBox="0 0 14 23" id="answer" xmlns="http://www.w3.org/2000/svg"><g fill="none" stroke="#e1e1e3" stroke-linecap="round"><path d="M.5.5v22M13.5 22.5H.5"/></g></svg><svg viewBox="0 0 9.74 5.87" id="arrow" xmlns="http://www.w3.org/2000/svg"><path d="M1 0a1 1 0 01.707.293L4.87 3.456 8.033.293a1 1 0 011.414 0A1 1 0 019.74 1a1 1 0 01-.293.707L5.58 5.574a1 1 0 01-1.414 0l-3.87-3.87A1 1 0 010 1 1 1 0 01.293.293 1 1 0 011 0z"/></svg><svg viewBox="0 0 42 42" id="bad-comment" xmlns="http://www.w3.org/2000/svg"><defs><clipPath id="aka"><path data-name="Прямоугольник 351" fill="none" d="M0 0h42v42H0z"/></clipPath><clipPath id="akb"><path data-name="Прямоугольник 349" fill="none" d="M0 0h9.101v2.636H0z"/></clipPath></defs><g data-name="Сгруппировать 858"><g data-name="Сгруппировать 857" clip-path="url(#aka)"><g data-name="Сгруппировать 856" clip-path="url(#aka)"><path data-name="Контур 694" d="M42 21A21 21 0 1121 0a21 21 0 0121 21" fill="#eaf4ff"/><path data-name="Контур 695" d="M21.034 20.146a19.493 19.493 0 018.967 2.049 14.115 14.115 0 011.579 1.03 1.849 1.849 0 01.521.549.5.5 0 01-.023.474.439.439 0 01-.43.151c-.737-.284-1.453-.622-2.188-.913a22.181 22.181 0 00-17.891.408 9.479 9.479 0 01-1.149.476.415.415 0 01-.127.015.443.443 0 01-.408-.582.293.293 0 01.07-.117 8.566 8.566 0 011.333-1.086 14.794 14.794 0 015.351-2.008 42.518 42.518 0 014.394-.446" fill="#6c83ad"/><path data-name="Контур 696" d="M30.93 18.58a3.9 3.9 0 01-4.1-3.115c0-.013 0-.026-.006-.04-.019-.333-.1-.712.31-.861.392-.142.617.136.811.43a10.4 10.4 0 00.609.9 2.626 2.626 0 004.177 0c.219-.268.384-.579.588-.861a1.557 1.557 0 01.373-.41.461.461 0 01.759.36 2.519 2.519 0 01-.357 1.58 3.769 3.769 0 01-3.168 2.02" fill="#6c83ad"/><path data-name="Контур 697" d="M11.633 18.578a3.9 3.9 0 01-4.108-3.117 1.141 1.141 0 01-.016-.119c-.01-.3-.05-.625.288-.766.365-.151.609.066.8.356s.367.593.579.868a2.64 2.64 0 004.305.026c.2-.251.348-.54.535-.8a1.526 1.526 0 01.375-.408.461.461 0 01.756.366 2.562 2.562 0 01-.38 1.614 3.771 3.771 0 01-3.134 1.979" fill="#6c83ad"/><path data-name="Контур 698" d="M41.966 22.169A21 21 0 018.641 37.976a29.419 29.419 0 0033.325-15.807" fill="#d5e5f7"/><g data-name="Сгруппировать 855"><g data-name="Сгруппировать 854" opacity=".5"><g data-name="Сгруппировать 853" clip-path="url(#akb)" transform="translate(16.192 23.553)"><path data-name="Контур 699" d="M.725 2.639A.724.724 0 01.34 1.301a7.478 7.478 0 018.424 0 .724.724 0 11-.772 1.225 6.039 6.039 0 00-6.882 0 .72.72 0 01-.384.111" fill="#6c83ad"/></g></g></g></g></g></g></svg><svg viewBox="0 0 24 24" id="burger" xmlns="http://www.w3.org/2000/svg"><g fill="none" stroke="#353535" stroke-linecap="round" stroke-width="1.5"><path d="M3 12h17.063M3 19h17.063M3 5h17.063"/></g></svg><svg viewBox="0 0 272 48" id="button-cart" xmlns="http://www.w3.org/2000/svg"><g transform="translate(-1066 -1074)" clip-path="url(#clip-path)"><g transform="translate(1261.627 1081.568)" clip-path="url(#clip-path-2)" fill="#fff"><path d="M49.844 40.876c-.035 1.4-.063 2.806-.107 4.209-.039 1.257-.069 2.515-.15 3.77q-.12 1.851-.06 3.7a49.83 49.83 0 00.625 6.613 27.867 27.867 0 001.707 5.675 35.593 35.593 0 011.688 5.06 8.163 8.163 0 01.2 3.622 4.734 4.734 0 01-1.565 2.644 6.624 6.624 0 01-1.868 1.2 5.556 5.556 0 01-1.767.391 11.228 11.228 0 01-3.2-.252 4.5 4.5 0 01-1.85-.987 3.277 3.277 0 01-.535-.5c-.117-.153-.171-.1-.223.048a7.1 7.1 0 01-.588 1.348 5.694 5.694 0 01-2.453 2.193 12.4 12.4 0 01-3.438 1.148 10.611 10.611 0 01-3.457-.077 11.123 11.123 0 01-4.74-1.906 9.516 9.516 0 01-.633-.5.242.242 0 00-.306-.048 8.342 8.342 0 01-4.442.707 12.83 12.83 0 01-3.54-.777 7.979 7.979 0 01-1.677-.9.7.7 0 00-.686-.09 18.651 18.651 0 01-2.5.632 11.582 11.582 0 01-6.535-.576A10.086 10.086 0 015 75.551a12.99 12.99 0 01-3.28-4.018 16.353 16.353 0 01-1.67-5.614 12.41 12.41 0 01.291-3.814 14.9 14.9 0 011.438-3.8 35.482 35.482 0 014.534-6.555c.531-.644 1.108-1.25 1.674-1.866 1.039-1.129 2.084-2.252 3.181-3.325 1.547-1.513 3.127-2.992 4.629-4.55 1.326-1.375 2.689-2.715 3.933-4.166 1.157-1.35 2.4-2.636 3.441-4.079a15.787 15.787 0 002.343-4.259 9.386 9.386 0 00.493-2.615 3.47 3.47 0 00-.628-2.15c-.29-.416-.633-.789-.958-1.178a1.742 1.742 0 01-.184-.264.358.358 0 010-.393.364.364 0 01.363-.145 7.774 7.774 0 003.911-.589 10.2 10.2 0 003.831-3.088 7.544 7.544 0 001.088-2.145 2.822 2.822 0 00.14-.674c.011-.129.01-.276-.121-.349a.365.365 0 00-.372.043.823.823 0 00-.2.157 11.833 11.833 0 01-3.72 2.851 9.33 9.33 0 01-4.84.963 5.542 5.542 0 01-2.972-1 2.552 2.552 0 01-.857-1.119A4.766 4.766 0 0120 15.593a6.737 6.737 0 01.764-2.565 12.212 12.212 0 012.2-2.991 10.824 10.824 0 015.085-2.777 15.88 15.88 0 012.8-.36c.566-.042 1.13-.08 1.7-.1a11.449 11.449 0 017.464 2.494 15.617 15.617 0 013.31 3.583 21.764 21.764 0 011.607 2.763 49.469 49.469 0 012.783 6.488 33.112 33.112 0 01.933 3.583 50.118 50.118 0 01.788 5.694q.269 2.761.322 5.533c.024 1.311.061 2.623.092 3.934M33.387 3.213a7.366 7.366 0 01.313-1.9A2.149 2.149 0 0134.481.23a1.2 1.2 0 011.541.114 3.277 3.277 0 011 2.138 5.049 5.049 0 01-.141 2.118A2.139 2.139 0 0135.775 6a1.432 1.432 0 01-1.848-.537 4.479 4.479 0 01-.541-2.25M32.294 3.009a6.765 6.765 0 01-.194 1.78 2.982 2.982 0 01-.33.806 1.133 1.133 0 01-1.7.193 3.439 3.439 0 01-.807-1.82 5.12 5.12 0 01-.019-2.1 2.764 2.764 0 01.729-1.436 1.076 1.076 0 011.8.279 4.118 4.118 0 01.52 2.3"/></g></g></svg><svg viewBox="0 0 20.001 19.6" id="cart" xmlns="http://www.w3.org/2000/svg"><g clip-path="url(#clip-path)"><path d="M15.16 18.086a1.515 1.515 0 111.516 1.514 1.516 1.516 0 01-1.515-1.514m-11.251 0A1.514 1.514 0 115.423 19.6a1.514 1.514 0 01-1.514-1.514m1.681-3.1a2.568 2.568 0 01-2.525-2.176l-.019-.164-.914-10.9-1.51-.256A.752.752 0 010 .724l.01-.1A.749.749 0 01.75 0h.027l.1.01 2.08.36a.75.75 0 01.6.566l.018.111.235 2.8h14.1a2.07 2.07 0 011.531.666A2.1 2.1 0 0120 6.086l-.016.151-.954 6.563a2.564 2.564 0 01-2.363 2.182l-.164.005zm-1.049-2.465a1.055 1.055 0 00.933.959l.116.006H16.5a1.054 1.054 0 001.019-.787l.023-.117.95-6.558a.592.592 0 00-.5-.669l-.092-.007H3.938zm7.585-3.476a.75.75 0 01-.1-1.493l.1-.007H14.9a.751.751 0 01.1 1.494l-.1.006z"/></g></svg><svg viewBox="0 0 20.001 19.6" id="cart-product" xmlns="http://www.w3.org/2000/svg"><path d="M15.16 18.086a1.515 1.515 0 111.516 1.514 1.516 1.516 0 01-1.515-1.514m-11.251 0A1.514 1.514 0 115.423 19.6a1.514 1.514 0 01-1.514-1.514m1.681-3.1a2.568 2.568 0 01-2.525-2.176l-.019-.164-.914-10.9-1.51-.256A.752.752 0 010 .724l.01-.1A.749.749 0 01.75 0h.027l.1.01 2.08.36a.75.75 0 01.6.566l.018.111.235 2.8h14.1a2.07 2.07 0 011.531.666A2.1 2.1 0 0120 6.086l-.016.151-.954 6.563a2.564 2.564 0 01-2.363 2.182l-.164.005zm-1.049-2.465a1.055 1.055 0 00.933.959l.116.006H16.5a1.054 1.054 0 001.019-.787l.023-.117.95-6.558a.592.592 0 00-.5-.669l-.092-.007H3.938zm7.585-3.476a.75.75 0 01-.1-1.493l.1-.007H14.9a.751.751 0 01.1 1.494l-.1.006z" fill="#f04137"/></svg><svg viewBox="0 0 20 20" id="catalog" xmlns="http://www.w3.org/2000/svg"><path d="M13.986 20a2.989 2.989 0 01-2.975-3v-3.059a2.989 2.989 0 012.975-3h3.039a2.989 2.989 0 012.974 3V17a2.989 2.989 0 01-2.974 3zm-1.58-6.059V17a1.593 1.593 0 001.58 1.6h3.039A1.592 1.592 0 0018.6 17v-3.059a1.592 1.592 0 00-1.58-1.6h-3.034a1.593 1.593 0 00-1.58 1.6M2.975 20A2.989 2.989 0 010 17v-3.059a2.989 2.989 0 012.975-3h3.039a2.989 2.989 0 012.975 3V17a2.989 2.989 0 01-2.975 3zm-1.58-6.059V17a1.593 1.593 0 001.58 1.6h3.039a1.593 1.593 0 001.58-1.6v-3.059a1.593 1.593 0 00-1.58-1.6H2.975a1.593 1.593 0 00-1.58 1.6m12.591-4.886a2.989 2.989 0 01-2.975-3V3a2.989 2.989 0 012.975-3h3.039A2.987 2.987 0 0120 3v3.06a2.989 2.989 0 01-2.974 3zM12.406 3v3.06a1.593 1.593 0 001.58 1.6h3.039a1.592 1.592 0 001.58-1.6V3a1.592 1.592 0 00-1.58-1.6h-3.039a1.593 1.593 0 00-1.58 1.6m-9.43 6.06A2.989 2.989 0 010 6.06V3a2.989 2.989 0 012.975-3h3.039a2.989 2.989 0 012.975 3v3.06a2.989 2.989 0 01-2.975 3zM1.395 3v3.06a1.593 1.593 0 001.58 1.6h3.039a1.593 1.593 0 001.58-1.6V3a1.593 1.593 0 00-1.58-1.6H2.975A1.593 1.593 0 001.395 3" fill="#f04137"/></svg><svg viewBox="0 0 10 7" id="check" xmlns="http://www.w3.org/2000/svg"><g clip-path="url(#clip-path)"><path d="M10 .7a.69.69 0 01-.209.495l-5.714 5.6a.724.724 0 01-1.01 0l-2.858-2.8A.689.689 0 010 3.5a.707.707 0 01.714-.7.719.719 0 01.5.205l2.357 2.306L8.781.206A.714.714 0 019.286 0 .707.707 0 0110 .7" fill="#353535"/></g></svg><svg viewBox="0 0 10 7" id="check-white" xmlns="http://www.w3.org/2000/svg"><g clip-path="url(#clip-path)"><path d="M10 .7a.69.69 0 01-.209.495l-5.714 5.6a.724.724 0 01-1.01 0l-2.858-2.8A.689.689 0 010 3.5a.707.707 0 01.714-.7.719.719 0 01.5.205l2.357 2.306L8.781.206A.714.714 0 019.286 0 .707.707 0 0110 .7" fill="#fff"/></g></svg><svg viewBox="0 0 18.828 18.828" id="close" xmlns="http://www.w3.org/2000/svg"><g fill="none"><path d="M1.414 1.414l16 16M17.414 1.414l-16 16"/></g></svg><svg viewBox="0 0 10.828 10.828" id="close-mobile" xmlns="http://www.w3.org/2000/svg"><g fill="none" stroke="#969ba4" stroke-linecap="round" stroke-width="2"><path d="M1.414 1.414l8 8M9.414 1.414l-8 8"/></g></svg><svg viewBox="0 0 12.828 12.828" id="close-small" xmlns="http://www.w3.org/2000/svg"><g fill="none"><path d="M1.414 1.414l10 10M11.414 1.414l-10 10"/></g></svg><svg viewBox="0 0 15.657 15.657" id="close-small-active" xmlns="http://www.w3.org/2000/svg"><g fill="none"><path d="M2.828 2.828l10 10M12.828 2.828l-10 10"/></g></svg><svg viewBox="0 0 15.657 15.657" id="close-small-hover" xmlns="http://www.w3.org/2000/svg"><g fill="none" stroke="#4b4da8" stroke-linecap="round" stroke-width="4"><path d="M2.828 2.828l10 10M12.828 2.828l-10 10"/></g></svg><svg viewBox="0 0 12.529 12" id="comments" xmlns="http://www.w3.org/2000/svg"><g clip-path="url(#clip-path)"><path d="M6.265 0h1.8a4.224 4.224 0 013.892 2.37 4.649 4.649 0 01.562 2.623 4.684 4.684 0 01-1.889 3.573 3.994 3.994 0 01-2.465.815H7.026a.193.193 0 00-.155.066q-1.127 1.181-2.257 2.36a.523.523 0 01-.487.185.5.5 0 01-.428-.526V9.499c0-.165 0-.164-.163-.2A4.167 4.167 0 011.164 7.9 4.722 4.722 0 01.007 4.977a4.769 4.769 0 011.406-3.748 4.068 4.068 0 012.5-1.206A4.49 4.49 0 014.392 0h1.873M4.718 10.177l.028.011c.023-.025.045-.051.069-.075.5-.519 1-1.036 1.489-1.557a.611.611 0 01.476-.2h1.374a3.292 3.292 0 00.441-.026 3.145 3.145 0 002.075-1.211 3.929 3.929 0 00.264-4.472 3.182 3.182 0 00-2.872-1.62c-1.23.008-2.459 0-3.689 0a3.08 3.08 0 00-2.3.99 3.7 3.7 0 00-1.035 2.332 3.822 3.822 0 00.683 2.6 3.153 3.153 0 002.451 1.4.517.517 0 01.546.578v1.248" fill="#4b4da8"/></g></svg><svg viewBox="0 0 32 32" id="copy" xmlns="http://www.w3.org/2000/svg"><rect width="32" height="32" rx="4" fill="#fff"/><g fill="#4b4da8" fill-rule="evenodd"><path d="M6 13a7 7 0 017-7h8a1 1 0 010 2h-8a5 5 0 00-5 5v8a1 1 0 01-2 0z"/><path d="M10 15a5 5 0 015-5h6a5 5 0 015 5v6a5 5 0 01-5 5h-6a5 5 0 01-5-5zm5-3a3 3 0 00-3 3v6a3 3 0 003 3h6a3 3 0 003-3v-6a3 3 0 00-3-3z"/></g></svg><svg viewBox="0 0 32 32" id="copy-hover" xmlns="http://www.w3.org/2000/svg"><rect width="32" height="32" rx="4" fill="#fff"/><g fill="#e82727" fill-rule="evenodd"><path d="M6 13a7 7 0 017-7h8a1 1 0 010 2h-8a5 5 0 00-5 5v8a1 1 0 01-2 0z"/><path d="M10 15a5 5 0 015-5h6a5 5 0 015 5v6a5 5 0 01-5 5h-6a5 5 0 01-5-5zm5-3a3 3 0 00-3 3v6a3 3 0 003 3h6a3 3 0 003-3v-6a3 3 0 00-3-3z"/></g></svg><svg viewBox="0 0 22.001 22" id="courier" xmlns="http://www.w3.org/2000/svg"><g transform="translate(.001 2)" clip-path="url(#clip-path)" fill="#969ba4"><path d="M2.261 8.335h7.9a.79.79 0 110 1.579h-7.9a.79.79 0 110-1.579M.682 4.388h6.316a.79.79 0 010 1.579H.682a.79.79 0 110-1.579"/><path d="M21.935 8.815l-2.37-5.528a.789.789 0 00-.726-.478h-2.367V1.23a.79.79 0 00-.79-.79H3.84a.79.79 0 000 1.579h11.053v9.913a3.154 3.154 0 00-1.467 1.93H8.465a3.158 3.158 0 100 1.578h4.961a3.143 3.143 0 006.092 0h1.691a.79.79 0 00.79-.79V9.125a.773.773 0 00-.064-.309M5.419 16.231a1.579 1.579 0 111.579-1.579 1.579 1.579 0 01-1.579 1.579M16.472 4.388h1.848l1.692 3.952h-3.54zm0 11.843a1.579 1.579 0 111.579-1.579 1.579 1.579 0 01-1.579 1.579m3.948-2.369h-.9a3.154 3.154 0 00-3.046-2.369V9.914h3.948z"/></g></svg><svg viewBox="0 0 152.847 156.458" id="decor-1" xmlns="http://www.w3.org/2000/svg"><g clip-path="url(#clip-path)"><path d="M82.758 50.359c.352-.137.617-.22.865-.34a13.71 13.71 0 015.885-1.65 10.651 10.651 0 013.158.252 6.646 6.646 0 003.537-.174 14.806 14.806 0 016.8-.146 14.59 14.59 0 014.953 2.071 13.115 13.115 0 014.622 5.3 29.817 29.817 0 011.469 3.249 31.788 31.788 0 01.99 4.458 23.757 23.757 0 01.318 3.962 17.618 17.618 0 01-.88 6.258c-.046.119.031.285.056.467a1.6 1.6 0 00.28-.11c1.1-.732 2.153-1.556 3.312-2.181a17.613 17.613 0 016.028-1.9 11.788 11.788 0 015.123.29c.746.231 1.438.635 2.181.879a2.766 2.766 0 001.359.146 15.65 15.65 0 015.072-.419 12.346 12.346 0 014.653 1.473 16.506 16.506 0 014.4 3.485 21.5 21.5 0 014.4 7.9 34.935 34.935 0 011.39 13.172c-.157 2.1-.194 4.2-.417 6.288-.3 2.845-.7 5.681-1.126 8.511a67.788 67.788 0 01-.972 5.2 45.563 45.563 0 01-3.237 8.714 79.093 79.093 0 01-2.67 5.3 53.468 53.468 0 01-7.6 10.154 39.183 39.183 0 01-6.842 6.093 55.814 55.814 0 01-4.331 2.686 66.092 66.092 0 01-4.912 2.433 39.405 39.405 0 01-9 2.875c-2.38.436-4.775.8-7.17 1.146-.907.131-1.835.11-2.753.168-.237.015-.473.065-.708.1h-4.6c-.7-.069-1.392-.127-2.086-.21-1.884-.226-3.775-.4-5.646-.713-1.373-.227-2.724-.6-4.073-.957-1.646-.432-3.306-.836-4.915-1.385a91.55 91.55 0 01-6.238-2.371 86.3 86.3 0 01-12.1-6.25 189.56 189.56 0 01-10.469-7.091c-2.7-1.958-5.279-4.1-7.836-6.25a63.162 63.162 0 01-8.145-8.055c-2.212-2.676-4.423-5.355-6.534-8.11a54.082 54.082 0 01-6.024-9.586 12.252 12.252 0 01-1.468-4.981 2.511 2.511 0 012.175-2.614 24.655 24.655 0 006.254-2.491 30.088 30.088 0 006.061-4.569 11.274 11.274 0 002.541-3.787 1.131 1.131 0 00.125-.371 5.323 5.323 0 00-.071-.661c-.226.047-.512.023-.668.154a39.531 39.531 0 00-1.941 1.765 16.271 16.271 0 01-5.545 3.4 50.3 50.3 0 01-5.409 1.728 20.16 20.16 0 01-3.756.525 30.069 30.069 0 01-4.066 0c-3.314-.237-6.575-.751-9.313-2.848a16.657 16.657 0 01-5.425-6.8A22.481 22.481 0 01.3 79.081a18.021 18.021 0 014.685-15.9 14.713 14.713 0 016.9-3.981 28.418 28.418 0 016.289-.805 25.012 25.012 0 017.493 1 53.058 53.058 0 018.211 2.659c2.213.94 4.415 1.908 6.594 2.922 4.1 1.91 8.188 3.863 12.278 5.8q4.739 2.242 9.477 4.487c.35.166.708.312 1.13.5a18.625 18.625 0 01.7-2.026c.821-1.712 1.657-3.42 2.569-5.085.95-1.735 1.923-3.467 3.019-5.11a60.48 60.48 0 013.63-4.845c1.146-1.392 2.417-2.683 3.663-3.99a4.551 4.551 0 011.412-1.147" fill="#fac607"/><path d="M60.432 47.794c2.266.165 4.084.655 5.468 2.269 1.2 1.4.78 3.364-.968 3.679-.961.173-1.941.231-2.907.379a45.472 45.472 0 00-15.675 5.831c-1.322.756-2.5 1.755-3.8 2.558a4.8 4.8 0 01-1.872.665 1.548 1.548 0 01-1.573-1.982 7.108 7.108 0 011.08-2.35 29.827 29.827 0 018.652-7.331 23.473 23.473 0 018.053-3.16c1.264-.242 2.544-.4 3.545-.558M32.729 46.937c1.582-.057 2.472.885 2.177 2.144a8.366 8.366 0 01-1.039 2.589 12.492 12.492 0 01-5.045 4.633 9.114 9.114 0 01-1.908.668 2.08 2.08 0 01-2.463-2.352 7.36 7.36 0 012.364-4.491 11.588 11.588 0 014.37-2.812 12.327 12.327 0 011.545-.376M23.624 45.36c1.421.026 2.111.793 1.9 2.19a8.6 8.6 0 01-3 5.083 8.835 8.835 0 01-4.32 2.341c-.043.008-.084.025-.127.033-1.767.316-2.772-.685-2.4-2.444a8.615 8.615 0 012.423-4.13 9.645 9.645 0 014.556-2.936 8.713 8.713 0 01.968-.137M55.246 59.653a9.418 9.418 0 011.32.216c.988.323 1.171 1.11.552 1.949a4.693 4.693 0 01-2.868 1.522c-1.467.4-2.9.924-4.335 1.441a1.052 1.052 0 01-1.3-.2.958.958 0 01-.05-1.313 7.9 7.9 0 014.468-3.126c.771-.218 1.568-.347 2.218-.488" fill="#fac607"/><path d="M114.197 74.185c.976 4.311-.23 8.465-2.483 12.088a12.5 12.5 0 01-3 3.255l-.244-.087q.614-1.944 1.289-3.865a268.86 268.86 0 012.74-7.671q.691-1.916 1.451-3.808z" fill="#f6a232"/><path d="M131.828 71.206c-8.48 3.585-13 12.214-15.659 20.554a69.054 69.054 0 01-7.576-2.274 67.987 67.987 0 017.124.281l-1.051.72c1.37-8.8 7.476-18.71 17.161-19.281" fill="#f6a232"/><path fill="#b6c3d4" d="M84.497 53.131L94.076 0l1.276.23-9.579 53.131z"/><path d="M63.31 75.721c3.168.321 6.293.847 9.423 1.388l-1.083.735a42.807 42.807 0 012.19-9.535c3.115-9.1 10.1-18.215 20.2-19.549-11.888 4.854-17.792 17.533-20.642 29.329l-.214 1.017c-3.314-1.064-6.634-2.1-9.875-3.386" fill="#f6a232"/></g></svg><svg viewBox="0 0 16.01 16" id="dislike" xmlns="http://www.w3.org/2000/svg"><g transform="rotate(180 8.005 8)" clip-path="url(#clip-path)"><path d="M11.319 5.349h.166c.69 0 1.379-.006 2.069 0a2.4 2.4 0 012.12 1.15 2.18 2.18 0 01.307 1.533c-.2 1.3-.417 2.594-.638 3.888-.114.663-.249 1.321-.376 1.981a2.422 2.422 0 01-2.11 2.029 5.163 5.163 0 01-.8.06c-2.157.009-4.306.009-6.457.009a2.9 2.9 0 01-1.113-.183.135.135 0 00-.112.017.908.908 0 01-.54.166H1.461A1.405 1.405 0 01.023 14.82a1.963 1.963 0 01-.017-.293c0-2.43.01-4.86-.006-7.29a1.445 1.445 0 011.489-1.485c.777.01 1.558.015 2.334 0a2.651 2.651 0 001.467-.463 1.624 1.624 0 00.692-1.2 10.23 10.23 0 00.052-1.211 3.088 3.088 0 01.206-1.286 2.693 2.693 0 014.445-.716 2.6 2.6 0 01.615 1.623c.027.636.017 1.275.021 1.913v.941m-2.415 8.946h3.115a4.338 4.338 0 00.434-.021.8.8 0 00.849-.735c.185-.991.386-1.977.559-2.97.16-.93.293-1.865.434-2.8a.555.555 0 00-.32-.613.975.975 0 00-.426-.1c-.762-.01-1.524 0-2.285-.006a2.575 2.575 0 01-.506-.055 1.306 1.306 0 01-1.144-1.421V2.909a2.871 2.871 0 00-.029-.444.8.8 0 00-.322-.6 1 1 0 00-1.045-.042.872.872 0 00-.482.847c0 .492 0 .989-.044 1.479a3.442 3.442 0 01-1.058 2.232 3.836 3.836 0 01-1.792.928c-.089.021-.133.05-.131.156v6.166a.581.581 0 00.343.565 1.072 1.072 0 00.44.1c1.136.008 2.272 0 3.408 0m-5.9-6.831H1.715v6.825h1.29z"/></g></svg><svg viewBox="0 0 9.871 19.812" id="facebook" xmlns="http://www.w3.org/2000/svg"><path d="M.746 11.291h1.207a.229.229 0 01.213.213v7.6a.712.712 0 00.71.71h2.769a.712.712 0 00.71-.71V11.5a.229.229 0 01.213-.213h1.988a.7.7 0 00.71-.6l.462-2.769a.749.749 0 00-.71-.852H6.675a.318.318 0 01-.32-.32V4.971a.637.637 0 01.71-.71H9.16a.712.712 0 00.71-.71V.71A.712.712 0 009.16 0H6.64C2.024 0 2.131 3.728 2.131 4.261v2.592a.229.229 0 01-.213.213H.71a.712.712 0 00-.71.71v2.769a.774.774 0 00.746.746z"/></svg><svg viewBox="0 0 20.007 19.001" id="favorite" xmlns="http://www.w3.org/2000/svg"><g clip-path="url(#clip-path)"><path d="M9.634 18.9l-.245-.148a34.748 34.748 0 01-6-4.673 12.343 12.343 0 01-2.98-4.75 7.754 7.754 0 01.2-5.5A6.3 6.3 0 014.487.315a6.564 6.564 0 015.25.541l.263.158.268-.159A6.574 6.574 0 0115.25.236l.266.079a6.305 6.305 0 013.884 3.52 7.784 7.784 0 01.2 5.511 12.494 12.494 0 01-2.976 4.737 34.78 34.78 0 01-6 4.665l-.229.143a.735.735 0 01-.762.006zm-4.7-17.19a4.865 4.865 0 00-3.008 2.761 6.279 6.279 0 00-.13 4.4 11.015 11.015 0 002.614 4.168 33.268 33.268 0 005.738 4.461L10 17.41l.467-.294a33.207 33.207 0 004.594-3.573l.528-.5a10.96 10.96 0 002.615-4.158 6.287 6.287 0 00-.13-4.407 4.872 4.872 0 00-3.008-2.768 5.109 5.109 0 00-4.628.78.732.732 0 01-.865.009l-.2-.141A5.1 5.1 0 004.93 1.71zm9.858 5.39a1.981 1.981 0 00-1.363-1.725.731.731 0 01.4-1.4l.04.013a3.442 3.442 0 012.376 3 .732.732 0 01-.668.789h-.063a.731.731 0 01-.727-.672"/></g></svg><svg viewBox="0 0 20.007 19.001" id="favorite-active" xmlns="http://www.w3.org/2000/svg"><g clip-path="url(#clip-path)"><path d="M9.634 18.9l-.245-.148a34.748 34.748 0 01-6-4.673 12.343 12.343 0 01-2.98-4.75 7.754 7.754 0 01.2-5.5A6.3 6.3 0 014.487.315a6.564 6.564 0 015.25.541l.263.158.268-.159A6.574 6.574 0 0115.25.236l.266.079a6.305 6.305 0 013.884 3.52 7.784 7.784 0 01.2 5.511 12.494 12.494 0 01-2.976 4.737 34.78 34.78 0 01-6 4.665l-.229.143a.735.735 0 01-.762.006z" fill="#e82727"/></g></svg><svg viewBox="0 0 20.007 19.001" id="favoriteun" xmlns="http://www.w3.org/2000/svg"><g clip-path="url(#clip-path)"><path d="M9.634 18.9l-.245-.148a34.748 34.748 0 01-6-4.673 12.343 12.343 0 01-2.98-4.75 7.754 7.754 0 01.2-5.5A6.3 6.3 0 014.487.315a6.564 6.564 0 015.25.541l.263.158.268-.159A6.574 6.574 0 0115.25.236l.266.079a6.305 6.305 0 013.884 3.52 7.784 7.784 0 01.2 5.511 12.494 12.494 0 01-2.976 4.737 34.78 34.78 0 01-6 4.665l-.229.143a.735.735 0 01-.762.006zm-4.7-17.19a4.865 4.865 0 00-3.008 2.761 6.279 6.279 0 00-.13 4.4 11.015 11.015 0 002.614 4.168 33.268 33.268 0 005.738 4.461L10 17.41l.467-.294a33.207 33.207 0 004.594-3.573l.528-.5a10.96 10.96 0 002.615-4.158 6.287 6.287 0 00-.13-4.407 4.872 4.872 0 00-3.008-2.768 5.109 5.109 0 00-4.628.78.732.732 0 01-.865.009l-.2-.141A5.1 5.1 0 004.93 1.71zm9.858 5.39a1.981 1.981 0 00-1.363-1.725.731.731 0 01.4-1.4l.04.013a3.442 3.442 0 012.376 3 .732.732 0 01-.668.789h-.063a.731.731 0 01-.727-.672"/></g></svg><svg viewBox="0 0 20.019 19" id="filter" xmlns="http://www.w3.org/2000/svg"><g clip-path="url(#clip-path)"><path d="M12.475 15.286A3.763 3.763 0 1116.287 19h-.05a3.741 3.741 0 01-3.762-3.714m1.765 0a2 2 0 102.028-1.972h-.028a1.986 1.986 0 00-2 1.972m-13.357.871a.871.871 0 110-1.742h7.234a.871.871 0 110 1.742H.883zM0 3.713A3.742 3.742 0 013.762 0a3.743 3.743 0 013.763 3.713 3.743 3.743 0 01-3.763 3.715A3.742 3.742 0 010 3.713m1.765 0a2 2 0 102.028-1.972h-.028a1.986 1.986 0 00-2 1.972m10.118.871a.871.871 0 11-.059-1.741h7.294a.871.871 0 01.059 1.741h-7.294z" fill="#969ba4"/></g></svg><svg viewBox="0 0 32 17" id="form-mail" xmlns="http://www.w3.org/2000/svg"><g clip-path="url(#clip-path)" fill="#f04137"><path d="M29.292 17H11.674a.775.775 0 010-1.545h16.994L30.293 2.85l-7.78 6.95a.678.678 0 01-.956-.038l-8.074-8.43a.816.816 0 01-.166-.845.718.718 0 01.664-.487h17.3a.692.692 0 01.54.265.814.814 0 01.17.614L30 16.333a.735.735 0 01-.709.667M15.751 1.545l6.342 6.623L29.5 1.545zM8.791 3.653H3.024a.747.747 0 01-.717-.773.746.746 0 01.717-.772h5.767a.745.745 0 01.716.772.746.746 0 01-.716.773M3.023 7.868H.716a.775.775 0 010-1.545h2.307a.775.775 0 010 1.545M11.1 7.868H5.33a.775.775 0 010-1.545h5.77a.775.775 0 010 1.545"/><path d="M14.558 12.083H8.79a.775.775 0 010-1.545h5.768a.775.775 0 010 1.545M3.023 12.083H.716a.775.775 0 010-1.545h2.307a.775.775 0 010 1.545M6.484 12.083H5.331a.775.775 0 010-1.545h1.153a.775.775 0 010 1.545"/></g></svg><svg viewBox="0 0 32 32" id="gift" xmlns="http://www.w3.org/2000/svg"><g clip-path="url(#clip-path)"><path d="M13.17 23.576c0-.074-.008-.147-.012-.232a.573.573 0 01-.573-.478c-.09-.28-.207-.551-.3-.83-.044-.137-.107-.16-.24-.12-.386.116-.775.22-1.164.327a.48.48 0 01-.55-.169.473.473 0 01-.014-.558c.067-.119.137-.237.2-.355l1.1-1.891c-.341.106-.634.218-.937.288a3.41 3.41 0 01-3.4-.824.368.368 0 00-.241-.072c-1.217-.005-2.435 0-3.652-.008-.193 0-.255.048-.255.25q.01 4.515 0 9.029a.624.624 0 00.713.717q4.545 0 9.089.005c.188 0 .226-.063.226-.236-.006-1.614 0-3.229 0-4.843M28.435 18.655c-1.217.009-2.435 0-3.652.008a.446.446 0 00-.279.083 3.371 3.371 0 01-3.171.777c-.4-.085-.792-.24-1.207-.369.032.058.06.112.09.164l1.258 2.163a.491.491 0 01.008.592.5.5 0 01-.589.16c-.341-.1-.684-.192-1.026-.289-.278-.078-.278-.079-.374.187s-.188.542-.3.808a.613.613 0 01-.2.3.312.312 0 00-.152.323v4.823c0 .269 0 .271.265.271h8.516c.157 0 .315.005.471 0a.593.593 0 00.567-.589c.007-.172 0-.342 0-.514v-8.64c0-.18-.036-.249-.234-.248M3.356 12.988q1.6-.008 3.2 0c.147 0 .2-.052.228-.191.113-.5.222-1 .367-1.491A2.235 2.235 0 018.9 9.589a3.116 3.116 0 013.078 1.068c.363.4.69.831 1.034 1.247.037.045.078.086.145.16.009-.1.018-.157.018-.215V3.355c0-.174-.038-.234-.225-.234q-4.565.009-9.128 0a.608.608 0 00-.675.671q0 4.492-.005 8.986c0 .17.061.206.214.2M19.724 10.806a3.2 3.2 0 011.786-1.235 2.445 2.445 0 013.263 1.811c.12.462.234.927.33 1.4.033.161.09.213.252.212 1.026-.006 2.052-.008 3.078 0 .2 0 .236-.066.236-.247q-.008-4.453 0-8.909c0-.487-.226-.709-.72-.709h-8.868c-.073 0-.145.009-.224.013v8.751l.047.016c.274-.367.553-.728.82-1.1M14.122 12.651v.249a3.248 3.248 0 013.755-.014c.007-.09.017-.149.017-.207V2.746c0-.188-.053-.244-.243-.243q-1.641.014-3.283 0c-.2 0-.254.053-.254.251q.009 4.947 0 9.892" fill="#fff"/><path d="M10.179 10.587a1.517 1.517 0 00-2.158 1.16c-.182.82-.367 1.64-.5 2.469a8.436 8.436 0 00-.056 2.635 2.039 2.039 0 001.7 1.848 3.064 3.064 0 001.88-.269c.76-.371 1.486-.812 2.225-1.224.009 0 .011-.024.013-.029l-.357-.779-.218.167c-.413.327-.824.655-1.239.979a.484.484 0 11-.587-.758c.423-.336.848-.67 1.271-1 .116-.092.229-.188.358-.294-.077-.064-.133-.112-.191-.158-.493-.39-.989-.778-1.48-1.171a.479.479 0 11.589-.755c.083.061.162.127.242.19l1.254.989c.106-.23.186-.433.292-.622a.237.237 0 00-.027-.32q-.953-1.142-1.891-2.3a2.3 2.3 0 00-1.123-.757M17.783 22.217c-.57-1-1.149-1.988-1.726-2.981-.044-.075-.091-.147-.145-.235a1.4 1.4 0 00-.086.118q-.82 1.41-1.635 2.821a.564.564 0 00-.067.271c0 2.23 0 4.459-.007 6.689 0 .2.069.237.25.236q1.641-.01 3.282 0c.2 0 .249-.068.249-.259-.006-2.093 0-4.186-.009-6.279a.811.811 0 00-.106-.383M21.208 17.567a.465.465 0 01-.621.008c-.429-.329-.849-.668-1.273-1-.073-.057-.148-.113-.229-.174l-.378.827c.743.4 1.473.814 2.227 1.18a3.056 3.056 0 001.521.259 2 2 0 001.882-1.552A6.434 6.434 0 0024.473 16a10.782 10.782 0 00-.235-2.609 22.61 22.61 0 00-.474-1.992 1.293 1.293 0 00-1.288-.988 2.184 2.184 0 00-1.847.814c-.639.8-1.238 1.635-1.851 2.457a.2.2 0 00-.04.16c.107.242.226.477.351.733.062-.045.122-.086.179-.131.43-.339.854-.685 1.293-1.012a.681.681 0 01.393-.124.414.414 0 01.394.334.461.461 0 01-.167.513c-.416.334-.836.662-1.254.993-.137.109-.273.22-.422.34.063.057.105.1.152.136.482.382.967.761 1.447 1.146a.854.854 0 01.217.24.466.466 0 01-.113.561M16.022 17.717a2.227 2.227 0 10-2.239-2.22 2.227 2.227 0 002.239 2.22M29.314 14.244c0-.269-.04-.308-.308-.309h-3.464c-.071 0-.142.011-.23.018a8.8 8.8 0 01-.15 3.735.942.942 0 00.112.019h3.792c.2 0 .251-.1.251-.287v-3.178M6.7 17.694a9.244 9.244 0 01-.123-3.74c-.067-.008-.107-.018-.147-.018H2.966c-.193 0-.263.084-.262.275.005 1.053 0 2.105 0 3.158 0 .312.026.341.337.341h3.42c.072 0 .144-.009.234-.015M14.013 17.977c-.026-.016-.074-.031-.093-.018-.248.169-.563.232-.73.53-.432.767-.884 1.523-1.328 2.283-.036.062-.067.126-.124.232.218-.059.386-.108.555-.151a.52.52 0 01.718.377l.19.494 1.826-3.143c-.35-.209-.681-.408-1.014-.6M19.55 20.862l.534.141-.522-.9-1.072-1.84c-.106-.182-.385-.343-.491-.284-.385.214-.767.432-1.175.662l1.79 3.082c.072-.188.127-.326.178-.466a.533.533 0 01.758-.4" fill="#fff"/><path d="M30.865 14.064a1.293 1.293 0 00-.591-1.115c-.063-.042-.078-.063-.078-.173q.006-4.6 0-9.2a2.452 2.452 0 00-.084-.685 1.814 1.814 0 00-1.823-1.3h-9.238c-.087 0-.09 0-.114-.045a1.2 1.2 0 00-1.078-.587Q16 .951 14.153.958a1.2 1.2 0 00-1.046.551c-.043.067-.062.081-.165.081q-4.132-.006-8.265 0H3.6a1.85 1.85 0 00-1.988 2v9.346a.218.218 0 01-.071.19 1.315 1.315 0 00-.393.979v3.454a1.456 1.456 0 00.377.968.35.35 0 01.075.173q.009 1.922 0 3.841v5.756a1.834 1.834 0 00.5 1.3 1.878 1.878 0 001.427.586h9.491c.109 0 .131.016.167.06a1.207 1.207 0 00.973.44h3.681a1.088 1.088 0 00.9-.369c.091-.114.184-.142.393-.132 2.742 0 5.931.007 9.092 0a2.229 2.229 0 00.915-.182 1.768 1.768 0 001.06-1.723v-.9-8.513c0-.12.016-.135.075-.173a1.29 1.29 0 00.594-1.115c.008-1.126.008-2.276 0-3.518m-5.066.048H29.43v3.35a.465.465 0 010 .068h-3.744a9.294 9.294 0 00.113-3.42M28.764 28v.36a.383.383 0 01-.373.389c-.114.008-.229.006-.343.005H19.14v-.981-4.019c0-.111 0-.114.046-.138a.821.821 0 00.3-.411c.084-.2.158-.414.229-.617l.079-.222.027-.074.085.024.382.107c.223.062.445.124.667.189a.726.726 0 00.852-1.1q-.5-.852-.992-1.706l-.1-.171a6.531 6.531 0 00.709.2 3.689 3.689 0 003.448-.849.308.308 0 01.136-.028c1.249-.005 2.5 0 3.746-.008h.014v.03q-.006 3.5 0 7zm-9.5-11.232l.414.327c.3.236.594.472.894.7a.71.71 0 001.086-.867 1.058 1.058 0 00-.278-.314c-.334-.268-.671-.533-1.007-.8l-.425-.335.223-.179.432-.342c.286-.225.572-.45.856-.678a.693.693 0 00.246-.76.648.648 0 00-.614-.506.887.887 0 00-.543.171c-.324.241-.645.5-.954.743l-.339.269c-.075-.153-.147-.3-.214-.452l.476-.643a63.69 63.69 0 011.41-1.862 2.016 2.016 0 011.713-.75 1.106 1.106 0 011.112.853c.214.727.37 1.463.481 2.023a10.915 10.915 0 01.238 2.621 6.219 6.219 0 01-.135 1.1 1.837 1.837 0 01-1.723 1.418 2.892 2.892 0 01-1.451-.243c-.539-.262-1.077-.555-1.6-.839l-.492-.268.184-.4.008.007m9.508-4.074h-.015c-.483 0-.988-.006-1.539-.006-.5 0-1.033 0-1.621.005a.246.246 0 00-.028 0c0-.009-.006-.022-.01-.038-.086-.42-.192-.865-.341-1.442a2.819 2.819 0 00-1.275-1.8 3.051 3.051 0 00-2.347-.213 3.5 3.5 0 00-1.954 1.352c-.158.219-.32.436-.483.651V3.026h9.1c.383 0 .513.127.513.5v9.167m-11.485 6.031c.285-.162.561-.318.838-.473a.525.525 0 01.237.189q.4.691.806 1.384l.556.956-.024-.007a.762.762 0 00-1.045.548l-.014.037-1.486-2.558zM16 13.421a2.06 2.06 0 01.014 4.12 2.073 2.073 0 01-1.466-.6A2.061 2.061 0 0116 13.421m1.718-3.431v2.447a3.477 3.477 0 00-3.42 0V10.8 2.431a.322.322 0 010-.033h.034c1.1.009 2.238.009 3.369 0h.023v7.598M3.038 18.982a.282.282 0 010-.031h.035c1.248.008 2.5 0 3.746.008a.725.725 0 01.089.009 3.7 3.7 0 003.7.9c.142-.033.28-.074.421-.118l-.862 1.478-.185.32a.721.721 0 00.834 1.071l.241-.066c.312-.085.625-.171.935-.264.045.134.094.266.144.4s.106.281.151.423a.844.844 0 00.589.622v5.022h-.007q-3.018-.006-6.034 0H3.55c-.374 0-.507-.134-.507-.511V26.1v-7.123m-.454-4.814a.307.307 0 010-.055.176.176 0 01.041 0H6.083a9.689 9.689 0 00.088 3.42H2.589v-.964-2.4m9.844 3.255c-.521.3-1.059.606-1.6.871a2.9 2.9 0 01-1.792.257 1.862 1.862 0 01-1.564-1.708 8.466 8.466 0 01.057-2.633c.13-.8.309-1.6.482-2.381l.03-.138a1.4 1.4 0 01.621-.972 1.29 1.29 0 01.65-.161 2.222 2.222 0 01.656.109 2.147 2.147 0 011.045.7c.531.651 1.231 1.507 1.941 2.357a.394.394 0 01.025.032.241.241 0 01-.02.043 4.49 4.49 0 00-.192.394l-1.135-.9c-.059-.048-.118-.1-.18-.14a.715.715 0 10-.876 1.13q.512.409 1.026.813l.476.375-.154.125-.569.45-.735.582a.717.717 0 00-.181 1.045.693.693 0 00.46.27.816.816 0 00.6-.186q.429-.334.853-.673l.418-.33.171.373-.508.289m.448-8.013v1.97l-.1-.13c-.234-.291-.476-.592-.733-.876A3.409 3.409 0 008.67 9.21a2.5 2.5 0 00-1.959 1.918c-.137.463-.244.939-.348 1.4l-.032.143v.021H3.044V3.49c0-.316.149-.464.469-.464h2.52q3.42 0 6.84-.005h.007v.016q-.006 3.186 0 6.373m-.437 11.313a1.154 1.154 0 00-.3.041l-.058.014.272-.464c.316-.538.643-1.094.955-1.648a.853.853 0 01.4-.312c.061-.031.123-.062.184-.1l.767.457.029.017-1.522 2.628-.026-.068a.731.731 0 00-.7-.565M14.3 25.2v-2.829a.371.371 0 01.039-.167q.711-1.236 1.43-2.468l.131-.236.317.546c.473.812.946 1.625 1.412 2.441a.6.6 0 01.08.282v6.479h-.028c-.537 0-1.089-.007-1.68-.007-.527 0-1.085 0-1.689.006h-.031v-.016q.006-2.016.005-4.031"/></g></svg><svg viewBox="0 0 42 42" id="good-comment" xmlns="http://www.w3.org/2000/svg"><defs><clipPath id="bka"><path data-name="Прямоугольник 348" fill="none" d="M0 0h42v42H0z"/></clipPath><clipPath id="bkb"><path data-name="Прямоугольник 345" fill="none" d="M0 0h6.616v3.364H0z"/></clipPath><clipPath id="bkc"><path data-name="Прямоугольник 346" fill="none" d="M0 0h6.013v4.425H0z"/></clipPath></defs><g data-name="Сгруппировать 852"><g data-name="Сгруппировать 851" clip-path="url(#bka)"><g data-name="Сгруппировать 850" clip-path="url(#bka)"><path data-name="Контур 687" d="M42 21A21 21 0 1121 0a21 21 0 0121 21" fill="#eaf4ff"/><path data-name="Контур 688" d="M41.966 22.169A21 21 0 018.641 37.976a29.419 29.419 0 0033.325-15.807" fill="#d5e5f7"/><path data-name="Контур 689" d="M29.772 14.772a3.227 3.227 0 11-3.247 3.2 3.22 3.22 0 013.247-3.2" fill="#6c83ad"/><path data-name="Контур 690" d="M12.204 14.772a3.227 3.227 0 11-3.247 3.2 3.22 3.22 0 013.247-3.2" fill="#6c83ad"/><path data-name="Контур 691" d="M20.901 29.283a7.128 7.128 0 01-4.818-1.57 3.685 3.685 0 01-1.158-1.66c-.08-.251-.191-.543.1-.73s.54-.025.764.163c.461.387.887.824 1.381 1.161a6.5 6.5 0 003.875.971 6.212 6.212 0 003.282-.788 15.831 15.831 0 001.512-1.184c.279-.225.559-.582.938-.315s.145.669 0 .983a4.79 4.79 0 01-2.691 2.4 8.11 8.11 0 01-3.184.567" fill="#6c83ad"/><g data-name="Сгруппировать 846"><g data-name="Сгруппировать 845" opacity=".5"><g data-name="Сгруппировать 844" clip-path="url(#bkb)" transform="translate(7.638 11.484)"><path data-name="Контур 692" d="M6.599 1.271a.63.63 0 01-.675.778 2.068 2.068 0 01-.383-.118 3.694 3.694 0 00-4.273 1.033c-.21.226-.4.477-.777.377-.355-.094-.57-.324-.463-.67a3.646 3.646 0 01.553-1.179A4.449 4.449 0 015.451.286a1.939 1.939 0 011.147.985" fill="#6c83ad"/></g></g></g><g data-name="Сгруппировать 849"><g data-name="Сгруппировать 848" opacity=".5"><g data-name="Сгруппировать 847" clip-path="url(#bkc)" transform="translate(28.669 11.38)"><path data-name="Контур 693" d="M5.904 4.121a.63.63 0 01-1.027.072 2.06 2.06 0 01-.187-.354A3.694 3.694 0 00.937 1.551c-.308.011-.621.054-.816-.282-.185-.318-.174-.632.147-.8A3.647 3.647 0 011.492.027a4.449 4.449 0 014.3 2.591 1.939 1.939 0 01.115 1.508" fill="#6c83ad"/></g></g></g></g></g></g></svg><svg viewBox="0 0 32 32" id="hairdresser" xmlns="http://www.w3.org/2000/svg"><g clip-path="url(#clip-path)"><path d="M20.822 16V3.726a1.021 1.021 0 01.79-1.085 1.374 1.374 0 01.287-.024h4.909a1.007 1.007 0 011.074 1.069c0 .268-.008.537 0 .8.007.163-.044.213-.21.212-1.058-.007-2.117 0-3.176 0-.476 0-.627.151-.627.631v21.479c0 .476.148.622.633.622h3.156c.167 0 .234.043.224.219-.014.24 0 .481 0 .722a1 1 0 01-1.026 1.013h-4.951a1.011 1.011 0 01-1.083-1.084V16M17.175 11.375a9.982 9.982 0 01-1.982 6.173 7 7 0 01-3.852 2.647.539.539 0 00-.418.476 5.2 5.2 0 00.443 3.035c.262.62.56 1.224.85 1.831a2.659 2.659 0 01-1.772 3.768 2.671 2.671 0 01-3.061-3.684c.3-.707.661-1.39.959-2.1a5.091 5.091 0 00.389-2.762.642.642 0 00-.525-.594 7.091 7.091 0 01-3.942-2.86 9.633 9.633 0 01-1.734-4.66 10.072 10.072 0 011.159-6.038 7.365 7.365 0 013.98-3.6 6.118 6.118 0 016.245 1.123 8.7 8.7 0 012.951 4.843 11.623 11.623 0 01.239 1.337c.051.395.055.8.071 1.063m-1.435-.114c-.036-.313-.066-.879-.17-1.43a7.43 7.43 0 00-2.391-4.364 4.925 4.925 0 00-5.605-.752 6.306 6.306 0 00-2.842 3.056 8.636 8.636 0 00-.639 5.554 7.28 7.28 0 002.374 4.215 4.9 4.9 0 004.227 1.217 5.316 5.316 0 003.127-1.862 8.4 8.4 0 001.919-5.632" fill="#fff"/><path d="M29.632 27.562c0-.606-.248-.853-.858-.854h-3.036a2.232 2.232 0 01-.277-.01 2.645 2.645 0 01-.008-.291c0-.053 0-.111-.006-.17a1.316 1.316 0 010-.226.391.391 0 01.074 0c.048 0 .1 0 .151.007s.119.008.173.008h3.014a.793.793 0 00.6-.244.726.726 0 00-.622-1.191h-3.366v-.63h3.4a.773.773 0 00.57-.221.7.7 0 00.191-.521.718.718 0 00-.8-.693h-3.378c.012-.22.007-.44 0-.633H28.883a.767.767 0 00.569-.232.726.726 0 00-.611-1.2h-3.37v-.628h3.4a.719.719 0 10.008-1.436h-3.425v-.627h3.4a.8.8 0 00.6-.235.706.706 0 00.176-.548.718.718 0 00-.785-.654H25.47v-.626h3.374a.8.8 0 00.6-.231.7.7 0 00.18-.538.714.714 0 00-.774-.668h-3.384v-.626h3.366a.833.833 0 00.6-.222.69.69 0 00.193-.506.712.712 0 00-.765-.709h-3.4v-.628h3.372a.718.718 0 00.788-.71.694.694 0 00-.194-.507.793.793 0 00-.581-.219h-1.64q-.88 0-1.76.005h-.005a6.275 6.275 0 000-.63h3.381a.729.729 0 00.787-.582.717.717 0 00-.146-.594.774.774 0 00-.607-.26h-3.392v-.661h3.377a.725.725 0 00.619-1.191.79.79 0 00-.6-.244h-1.656q-.872 0-1.744.005h-.007a2.974 2.974 0 000-.518v-.034h.041c.488 0 1.013.006 1.658.006h1.685a.72.72 0 00.8-.8v-.228-1.335A2.241 2.241 0 0027.365.825h-2.346c-1.021 0-1.964 0-2.883.009a2.575 2.575 0 00-.846.16 2.3 2.3 0 00-1.447 2.275c.009 5.607.008 11.307.007 16.82v8.805a2.256 2.256 0 002.218 2.284c.865.008 1.755.012 2.643.012s1.788 0 2.7-.012a2.243 2.243 0 002.219-2.209c.008-.332.006-.669 0-.994v-.41m-1.42 1.02v.307a.83.83 0 01-.858.848h-5.16a.842.842 0 01-.917-.915V16 3.2a.855.855 0 01.658-.924 1.243 1.243 0 01.252-.02H27.3a.842.842 0 01.907.9v.282c0 .184 0 .374.005.563H24.9c-.614 0-.865.252-.865.871v22.399c0 .611.253.861.873.861h3.311a6.259 6.259 0 00-.005.453M14.525 2.6A7.776 7.776 0 009.678.814a8.206 8.206 0 00-2.737.5 8.575 8.575 0 00-4.234 3.38A11.626 11.626 0 00.805 12.8a11.115 11.115 0 002.185 5.512A8.616 8.616 0 007.184 21.4c.1.034.109.049.112.153A3.905 3.905 0 017 23.183c-.179.428-.379.858-.571 1.274-.154.33-.312.672-.461 1.013a3.874 3.874 0 00.537 4.23 3.749 3.749 0 002.987 1.476 4.57 4.57 0 001.044-.126 3.921 3.921 0 002.664-2.136 4.081 4.081 0 00-.037-3.557l-.068-.139c-.246-.5-.5-1.024-.726-1.543a4.734 4.734 0 01-.479-2.175.189.189 0 01.011-.068.193.193 0 01.043-.018 8.466 8.466 0 003.98-2.768 11.323 11.323 0 002.555-7.158 12.7 12.7 0 00-.312-2.916A10.239 10.239 0 0014.525 2.6m-3.992 18.233a5.562 5.562 0 00.475 3.286c.232.549.494 1.093.747 1.62l.144.3a2.6 2.6 0 01.011 2.254 2.537 2.537 0 01-1.716 1.375 3.02 3.02 0 01-.679.083 2.4 2.4 0 01-1.891-.933 2.438 2.438 0 01-.376-2.7c.15-.352.317-.7.479-1.047.176-.372.358-.755.52-1.142a5.48 5.48 0 00.42-2.994.881.881 0 00-.7-.793 7.134 7.134 0 01-3.992-2.9 9.874 9.874 0 01-1.775-4.76 10.329 10.329 0 011.183-6.17 7.4 7.4 0 014.039-3.654 6.6 6.6 0 012.249-.415 6.389 6.389 0 014.056 1.551 8.79 8.79 0 013 4.935 11.81 11.81 0 01.246 1.37c.036.287.049.586.059.827 0 .094.008.182.013.259a10.209 10.209 0 01-2.024 6.3 7.116 7.116 0 01-3.9 2.682.777.777 0 00-.59.664"/><path d="M15.977 11.051v-.014c-.01-.088-.019-.195-.03-.316a12.769 12.769 0 00-.149-1.191 8 8 0 00-2.561-4.67 5.453 5.453 0 00-3.628-1.415 5.375 5.375 0 00-2.455.6 6.815 6.815 0 00-3.059 3.284 9.239 9.239 0 00-.682 5.924 7.829 7.829 0 002.545 4.514 5.414 5.414 0 003.582 1.409 5.657 5.657 0 001-.092 5.763 5.763 0 003.383-2.013 8.952 8.952 0 002.053-6.006zM13.4 15.389a4.788 4.788 0 01-2.325 2.05 4.235 4.235 0 01-1.547.312A4.093 4.093 0 016.793 16.6a6.357 6.357 0 01-2-3.732 11.55 11.55 0 01-.136-1.062l-.026-.268A7.539 7.539 0 016.223 6.61a4.431 4.431 0 012.7-1.671 4.082 4.082 0 01.707-.063 3.975 3.975 0 012.521.94A6.228 6.228 0 0114.3 9.361a7.761 7.761 0 01-.893 6.028"/><path d="M10.782 6.621a.759.759 0 00-.3-.063.737.737 0 00-.526.235L8.523 8.229 6.052 10.7a.716.716 0 00.467 1.249.771.771 0 00.54-.237A562.827 562.827 0 0010.966 7.8a1.041 1.041 0 00.188-.291.429.429 0 01.025-.052l.031-.053v-.06a.723.723 0 00-.426-.727M6.258 9.248a.731.731 0 00.3.068.718.718 0 00.509-.225c.524-.52 1.038-1.03 1.551-1.552a.71.71 0 00.023-1.029.7.7 0 00-.5-.212.76.76 0 00-.532.23c-.462.456-1.008 1-1.551 1.556a.968.968 0 00-.177.289c-.016.034-.031.068-.049.1l-.033.06.011.067a.761.761 0 00.448.647"/></g></svg><svg viewBox="0 0 32 32" id="icon-video" xmlns="http://www.w3.org/2000/svg"><g clip-path="url(#clip-path)"><path d="M9.585 30.655a1.16 1.16 0 01.862-2.154.669.669 0 01.071.03 13.717 13.717 0 10-5.525-4.413A1.161 1.161 0 013.127 25.5a16 16 0 116.456 5.156zm4.541-8.323a1.943 1.943 0 01-1.71-1.043 7.2 7.2 0 01-.367-1.391v-.022a26.279 26.279 0 01-.239-3.9 24.974 24.974 0 01.261-4.049 8.936 8.936 0 01.282-1.133 1.924 1.924 0 01.859-.947 2.029 2.029 0 01.962-.232h.026a5.1 5.1 0 011.282.357 23.542 23.542 0 016.3 4.255l.127.136c.144.152.337.359.381.415a1.952 1.952 0 01.412 1.2 1.927 1.927 0 01-.369 1.135 10.45 10.45 0 01-.455.51l-.078.077a24.1 24.1 0 01-6.172 4.214 5.957 5.957 0 01-1.443.42zm.226-10a23.751 23.751 0 00-.223 3.634 24.472 24.472 0 00.207 3.526c.018.106.048.258.08.4l.188-.072h.01l.122-.048a22.065 22.065 0 005.364-3.654.739.739 0 00.093-.095l.008-.008a.534.534 0 01.04-.045l-.011-.011-.011-.011-.135-.138a22.063 22.063 0 00-5.459-3.686l-.21-.08c-.032.138-.05.231-.063.293" fill="#f04137"/></g></svg><svg viewBox="0 0 22 22" id="insta" xmlns="http://www.w3.org/2000/svg"><path d="M11 7.7a3.3 3.3 0 103.3 3.3A3.3 3.3 0 0011 7.7zm0-2.2A5.5 5.5 0 115.5 11 5.5 5.5 0 0111 5.5zm7.15-.275a1.375 1.375 0 11-1.375-1.375 1.375 1.375 0 011.375 1.375zM11 2.2c-2.721 0-3.166.008-4.432.064a5.976 5.976 0 00-1.978.365A3.175 3.175 0 003.4 3.4a3.179 3.179 0 00-.772 1.19 5.968 5.968 0 00-.364 1.978C2.207 7.783 2.2 8.207 2.2 11c0 2.721.008 3.166.064 4.432a6 6 0 00.364 1.977 3.42 3.42 0 001.96 1.961 5.988 5.988 0 001.98.366c1.214.057 1.639.064 4.432.064 2.721 0 3.166-.008 4.432-.064a6.012 6.012 0 001.977-.364A3.213 3.213 0 0018.6 18.6a3.18 3.18 0 00.774-1.188 6.014 6.014 0 00.365-1.98c.057-1.214.064-1.639.064-4.432 0-2.721-.008-3.166-.064-4.432a5.987 5.987 0 00-.365-1.978A3.2 3.2 0 0018.6 3.4a3.172 3.172 0 00-1.188-.774 5.973 5.973 0 00-1.978-.364C14.218 2.207 13.793 2.2 11 2.2zM11 0c2.989 0 3.362.011 4.534.066a8.1 8.1 0 012.671.511 5.363 5.363 0 011.949 1.268A5.4 5.4 0 0121.423 3.8a8.126 8.126 0 01.511 2.671C21.986 7.638 22 8.011 22 11s-.011 3.362-.066 4.534a8.132 8.132 0 01-.511 2.671 5.616 5.616 0 01-3.217 3.217 8.126 8.126 0 01-2.671.511C14.362 21.986 13.989 22 11 22s-3.362-.011-4.534-.066a8.132 8.132 0 01-2.666-.511 5.616 5.616 0 01-3.218-3.217 8.1 8.1 0 01-.512-2.671C.014 14.362 0 13.989 0 11s.011-3.362.066-4.534A8.1 8.1 0 01.577 3.8a5.368 5.368 0 011.269-1.954A5.387 5.387 0 013.8.578 8.1 8.1 0 016.471.067C7.638.014 8.011 0 11 0z"/></svg><svg viewBox="0 0 24 24" id="instruction" xmlns="http://www.w3.org/2000/svg"><g clip-path="url(#clip-path)" transform="translate(2.996 2)"><path d="M5.142 20a6.959 6.959 0 01-1.17-.094l-.218-.041A4.454 4.454 0 01.99 18.179 5.549 5.549 0 010 14.791V5.209a7 7 0 01.06-.96C.415 1.549 2.267 0 5.142 0h7.726C16.055 0 17.975 1.919 18 5.132v9.659C18 18.052 16.083 20 12.868 20zm-3.7-14.791v9.581c0 2.489 1.245 3.752 3.7 3.752h7.717c2.449 0 3.691-1.263 3.691-3.752V5.209c0-2.489-1.242-3.752-3.691-3.752H5.142c-2.455 0-3.7 1.263-3.7 3.752m3.944 9.749a.724.724 0 110-1.448H12.6a.724.724 0 110 1.448zm7.214-4.229H5.386a.735.735 0 010-1.458H12.6a.722.722 0 01.691.339.739.739 0 010 .779.721.721 0 01-.691.339zM5.4 6.5a.734.734 0 010-1.457h2.739a.734.734 0 010 1.457z" fill="#f04137"/></g></svg><svg viewBox="0 0 16.01 16" id="like" xmlns="http://www.w3.org/2000/svg"><g clip-path="url(#clip-path)"><path d="M11.319 5.349h.166c.69 0 1.379-.006 2.069 0a2.4 2.4 0 012.12 1.15 2.18 2.18 0 01.307 1.533c-.2 1.3-.417 2.594-.638 3.888-.114.663-.249 1.321-.376 1.981a2.422 2.422 0 01-2.11 2.029 5.163 5.163 0 01-.8.06c-2.157.009-4.306.009-6.457.009a2.9 2.9 0 01-1.113-.183.135.135 0 00-.112.017.908.908 0 01-.54.166H1.461A1.405 1.405 0 01.023 14.82a1.963 1.963 0 01-.017-.293c0-2.43.01-4.86-.006-7.29a1.445 1.445 0 011.489-1.485c.777.01 1.558.015 2.334 0a2.651 2.651 0 001.467-.463 1.624 1.624 0 00.692-1.2 10.23 10.23 0 00.052-1.211 3.088 3.088 0 01.206-1.286 2.693 2.693 0 014.445-.716 2.6 2.6 0 01.615 1.623c.027.636.017 1.275.021 1.913v.941m-2.415 8.946h3.115a4.338 4.338 0 00.434-.021.8.8 0 00.849-.735c.185-.991.386-1.977.559-2.97.16-.93.293-1.865.434-2.8a.555.555 0 00-.32-.613.975.975 0 00-.426-.1c-.762-.01-1.524 0-2.285-.006a2.575 2.575 0 01-.506-.055 1.306 1.306 0 01-1.144-1.421V2.909a2.871 2.871 0 00-.029-.444.8.8 0 00-.322-.6 1 1 0 00-1.045-.042.872.872 0 00-.482.847c0 .492 0 .989-.044 1.479a3.442 3.442 0 01-1.058 2.232 3.836 3.836 0 01-1.792.928c-.089.021-.133.05-.131.156v6.166a.581.581 0 00.343.565 1.072 1.072 0 00.44.1c1.136.008 2.272 0 3.408 0m-5.9-6.831H1.715v6.825h1.29z"/></g></svg><svg viewBox="0 0 17 19.998" id="location" xmlns="http://www.w3.org/2000/svg"><g clip-path="url(#clip-path)"><path d="M7.514 19.683l-.06-.048-.413-.278A20.733 20.733 0 012.507 15.1l-.316-.413A10.7 10.7 0 010 8.527v-.285A8.512 8.512 0 018.5 0h.285A8.516 8.516 0 0117 8.553v.1c-.05 2.64-1.337 5.369-3.72 7.892a21.124 21.124 0 01-3.745 3.094l-.05.041a1.688 1.688 0 01-1.972 0zm.77-18.162A7 7 0 001.513 8.5l.019.357A9.193 9.193 0 003.4 13.772a19.184 19.184 0 004.9 4.6l.082.062a.182.182 0 00.238 0l.08-.064a19.647 19.647 0 003.482-2.87c2.116-2.24 3.257-4.612 3.3-6.858V8.31a7 7 0 00-6.96-6.791zM5.261 8.649A3.238 3.238 0 118.5 11.9a3.238 3.238 0 01-3.239-3.251m1.513 0A1.725 1.725 0 108.5 6.918a1.725 1.725 0 00-1.726 1.731" fill="#e82727"/></g></svg><svg viewBox="0 0 20.001 18.001" id="mail" xmlns="http://www.w3.org/2000/svg"><path d="M5.457 18a5.249 5.249 0 01-3.916-1.693A6.11 6.11 0 010 12.141V5.859a6.11 6.11 0 011.54-4.166A5.249 5.249 0 015.457 0h9.069A5.556 5.556 0 0120 5.637c0 .074 0 .148-.008.222V12.1a5.621 5.621 0 01-1.476 4.131 5.557 5.557 0 01-4 1.773zM1.518 5.859v6.282A4.013 4.013 0 005.2 16.46q.129.01.258.012h9.052a4.026 4.026 0 002.89-1.287 4.091 4.091 0 001.071-3.044V5.814a4.08 4.08 0 00-1.072-3 4.021 4.021 0 00-2.894-1.287H5.457A4.011 4.011 0 001.506 5.6c0 .087 0 .173.012.26m6.865 4.279l-.161-.118L4.087 6.72a.769.769 0 01-.122-1.074.755.755 0 01.973-.187l.094.063 4.129 3.3a1.378 1.378 0 001.58.088l.118-.082 4.1-3.3a.753.753 0 011.06.112l.006.007a.769.769 0 01-.035 1l-.083.076-4.106 3.3a2.891 2.891 0 01-3.416.114z"/></svg><svg viewBox="0 0 32 17" id="mailing" xmlns="http://www.w3.org/2000/svg"><g clip-path="url(#clip-path)" fill="#f04137"><path d="M29.292 17H11.674a.775.775 0 010-1.545h16.994L30.293 2.85l-7.78 6.95a.678.678 0 01-.956-.038l-8.074-8.43a.816.816 0 01-.166-.845.718.718 0 01.664-.487h17.3a.692.692 0 01.54.265.814.814 0 01.17.614L30 16.333a.735.735 0 01-.709.667M15.751 1.545l6.342 6.623L29.5 1.545zM8.791 3.653H3.024a.747.747 0 01-.717-.773.746.746 0 01.717-.772h5.767a.745.745 0 01.716.772.746.746 0 01-.716.773M3.023 7.868H.716a.775.775 0 010-1.545h2.307a.775.775 0 010 1.545M11.1 7.868H5.33a.775.775 0 010-1.545h5.77a.775.775 0 010 1.545"/><path d="M14.558 12.083H8.79a.775.775 0 010-1.545h5.768a.775.775 0 010 1.545M3.023 12.083H.716a.775.775 0 010-1.545h2.307a.775.775 0 010 1.545M6.484 12.083H5.331a.775.775 0 010-1.545h1.153a.775.775 0 010 1.545"/></g></svg><svg viewBox="0 0 19.984 20" id="messenger" xmlns="http://www.w3.org/2000/svg"><g clip-path="url(#clip-path)"><path d="M5.324 18.848l-.046-.016a.017.017 0 01-.01-.012l-.682-.387a.761.761 0 00-.275-.054.423.423 0 00-.112.012 17.822 17.822 0 01-2.171.627l-.135.016h-.041a1.118 1.118 0 01-.883-.355 1.374 1.374 0 01-.3-.92l.02-.164a18.567 18.567 0 01.677-2.2.53.53 0 00-.043-.4l-.184-.358A10.005 10.005 0 0110.026 0h.039a10 10 0 11-4.74 18.848zm-.171-1.688c.092.044.209.107.37.2l.422.243h.006l.287.146a8.631 8.631 0 009.226-1.1l.22-.187A8.606 8.606 0 0010.054 1.4h-.281a8.6 8.6 0 00-7.39 12.59l.181.353a1.943 1.943 0 01.126 1.5 17.777 17.777 0 00-.64 2.08l.094-.368.4-.1c.285-.079.553-.16.82-.248l.418-.144a2.057 2.057 0 01.541-.073 2.174 2.174 0 01.83.171z"/><path d="M5.815 12.82a.75.75 0 01-.574-1.232L7.935 8.38a.746.746 0 011-.135l2.571 1.773 2.081-2.559a.75.75 0 111.165.945l-2.519 3.1a.747.747 0 01-1.008.144l-2.58-1.781-2.255 2.685a.747.747 0 01-.575.268"/></g></svg><svg viewBox="0 0 24 24" id="mistakes" xmlns="http://www.w3.org/2000/svg"><g clip-path="url(#clip-path)" transform="translate(3 3.5)"><path d="M10.471 17a.645.645 0 01-.089-1.285l.089-.006h6.871a.645.645 0 01.09 1.285l-.09.006zM.659 17a.658.658 0 01-.476-.2.63.63 0 01-.183-.461L.1 12.4a2.865 2.865 0 01.868-1.982L10.66.916a3.24 3.24 0 014.515 0l1.294 1.269a3.087 3.087 0 01.062 4.365l-.062.062-9.728 9.537a2.98 2.98 0 01-2.1.851zM1.9 11.328a1.6 1.6 0 00-.482 1.1l-.084 3.278h3.309a1.668 1.668 0 001.057-.374l.107-.1 8.046-7.887L9.907 3.48zm12.886-4.892l.752-.737a1.814 1.814 0 00.035-2.565l-.035-.035-1.3-1.269a1.9 1.9 0 00-2.653 0l-.752.737z" fill="#f04137"/></g></svg><svg viewBox="0 0 77.199 142.543" id="more-hover" xmlns="http://www.w3.org/2000/svg"><g clip-path="url(#clip-path)" fill="#f3534a"><path d="M.011 135.235a13.622 13.622 0 01.177-2.327A31.51 31.51 0 014.4 121.357a38.6 38.6 0 017.141-9.031 43.349 43.349 0 019.221-6.714c1.8-.974 3.46-2.183 5.212-3.236a42.81 42.81 0 008.567-7A32.157 32.157 0 0037.4 91.75a28.319 28.319 0 003.388-5.724 57.887 57.887 0 001.924-5.664 72 72 0 001.869-8.039c.483-2.747.876-5.51 1.129-8.29.13-1.433.327-2.859.464-4.291.16-1.671.3-3.344.429-5.017.159-2.051.353-4.1.43-6.155.076-2.005.17-4.01.218-6.017.059-2.489-.052-4.974-.024-7.461.029-2.549-.033-5.1 0-7.649a23.411 23.411 0 012.04-9.6 14.126 14.126 0 016.03-6.886 15.613 15.613 0 015.051-1.649 10.68 10.68 0 016.124.663 15.578 15.578 0 013.582 2.248 24.426 24.426 0 014.129 4.463 21.317 21.317 0 012.517 4.389 6.4 6.4 0 01.464 3.042 3.6 3.6 0 01-1.1 2.076 7.831 7.831 0 01-4.787 2.465 9.88 9.88 0 01-6.366-.99 8.748 8.748 0 01-4.211-4.821c-.022-.059-.037-.121-.061-.179-.032-.079-.046-.193-.16-.181-.135.015-.129.142-.129.238a4.046 4.046 0 00.025.643 9.006 9.006 0 003.069 5.546 11.488 11.488 0 003.5 2.069c.628.24.723.654.227 1.064a11.143 11.143 0 00-3.624 5.906 36.258 36.258 0 00-1.319 9.574c.019 4.612.294 9.208.751 13.8.373 3.744.73 7.489 1.38 11.2.782 4.465 1.71 8.9 2.75 13.314 1.187 5.04 2.617 10.015 3.96 15.013.665 2.475 1.51 4.9 2.207 7.366a128.133 128.133 0 013.143 14.27c.2 1.208.473 2.408.583 3.624a24.251 24.251 0 01-.308 8.136 14.385 14.385 0 01-2.7 5.608 5.8 5.8 0 01-2.468 1.832 4.744 4.744 0 01-5.282-1.435A10.216 10.216 0 0065 138.926a4.123 4.123 0 00-4.559-.673 11.1 11.1 0 00-3.5 2.346 6.283 6.283 0 01-3.248 1.838 5.243 5.243 0 01-4.751-1.508 5.746 5.746 0 01-1.306-1.706 2.127 2.127 0 00-3.346-.6 12.054 12.054 0 00-1.23 1.336 6.394 6.394 0 01-1.919 1.52 4.514 4.514 0 01-5.094-.637 13.769 13.769 0 01-1.157-1.2 4.98 4.98 0 00-3.038-1.777 4.333 4.333 0 00-2.247.393 10.875 10.875 0 00-3.589 2.413 5.7 5.7 0 01-4.292 1.852 5.925 5.925 0 01-3.8-1.6 16.416 16.416 0 01-1.389-1.5 6.269 6.269 0 00-1.7-1.317 2.28 2.28 0 00-1.907-.1 10.334 10.334 0 00-4.127 2.531 6.365 6.365 0 01-3.6 1.947 3.552 3.552 0 01-3.83-1.684 9.71 9.71 0 01-1.288-4.121 7.888 7.888 0 01-.072-1.446M43.911 10.414a15.478 15.478 0 013.044.293 1.916 1.916 0 01.894.468.746.746 0 01.251.825c-.1.3-.377.35-.653.351a11.02 11.02 0 00-4.4.975 10.631 10.631 0 00-4.773 4.053 23.148 23.148 0 00-1.52 2.918 2.831 2.831 0 01-.744.938 1.452 1.452 0 01-2.125-.405 3.668 3.668 0 01-.254-2.754A9.953 9.953 0 0136 13.815a10.082 10.082 0 015.99-3.277 8.533 8.533 0 011.924-.124"/><path d="M45.187 8.534a17.477 17.477 0 00-4.1.4 12.576 12.576 0 00-4.805 2.566c-.86.686-1.65 1.449-2.441 2.211a3.906 3.906 0 01-1.28.862 1.094 1.094 0 01-1.616-1.219 4.415 4.415 0 01.6-1.9 10.81 10.81 0 018.605-5.517 15.048 15.048 0 016.2.715 3.874 3.874 0 011.207.62.653.653 0 01.335.635.686.686 0 01-.589.525 7.342 7.342 0 01-1.016.1c-.365.016-.732 0-1.1 0M39.246 21.762a8.129 8.129 0 011.96-5.178 6.674 6.674 0 013.432-2.036c.29-.072.638-.182.877.133a.817.817 0 01-.044.958 1.574 1.574 0 01-.215.308 10.335 10.335 0 00-2.332 4.2 7.949 7.949 0 00-.341 3.876 2.433 2.433 0 01-.034.979 1.123 1.123 0 01-1.318.847 1.807 1.807 0 01-1.253-.951 7.154 7.154 0 01-.732-3.133M61.049 4.128a5.906 5.906 0 01-1.088 3.587 2.67 2.67 0 01-.442.466 1.112 1.112 0 01-1.4.118 2.545 2.545 0 01-1.067-1.2 6.953 6.953 0 01-.411-5.3 3.543 3.543 0 011-1.491 1.242 1.242 0 011.28-.229 2.5 2.5 0 011.451 1.311 5.828 5.828 0 01.677 2.738M65.8 4.44a7.439 7.439 0 01-.47 2.8 2.6 2.6 0 01-.316.6.886.886 0 01-1.519.1 2.21 2.21 0 01-.484-.933 8.706 8.706 0 01-.058-5 3.448 3.448 0 01.134-.394 1.02 1.02 0 01.855-.758 1.189 1.189 0 011.188.58 3.926 3.926 0 01.59 1.7c.056.513.064 1.032.08 1.3"/></g></svg><svg viewBox="0 0 149.96 77.476" id="more-link" xmlns="http://www.w3.org/2000/svg"><g clip-path="url(#clip-path)" fill="#f3534a"><path d="M130.229-.001a.174.174 0 00.166.109 4.94 4.94 0 011.072.177 6.833 6.833 0 011.869.883 8.7 8.7 0 012.212 1.862 17.258 17.258 0 011.23 1.569 23.292 23.292 0 011.552 2.591 13.038 13.038 0 01.611 1.607 11.645 11.645 0 01.672 4.092c-.011.409.017.82.035 1.23a4.717 4.717 0 01-.7 2.787.8.8 0 01-1.373-.186 5.925 5.925 0 01-.3-1.117c-.262-1.068-.494-2.143-.825-3.2-.172-.549-.381-1.086-.58-1.62a11.578 11.578 0 00-.908-1.626 9.734 9.734 0 00-2.23-2.514 20.152 20.152 0 00-3.119-2.138 7.049 7.049 0 01-2.485-2.142 1.316 1.316 0 01.652-1.952 4.552 4.552 0 011.889-.359.657.657 0 00.347-.053zM55.5 15.114a45.329 45.329 0 014.6-.2 42.059 42.059 0 014.349.008c1.735.163 3.47.329 5.207.474 1.69.141 3.369.365 5.051.57.666.082 1.335.118 2 .237 1.088.195 2.194.256 3.289.431 1.079.172 2.177.255 3.264.4.654.086 1.3.2 1.957.3 1.222.177 2.452.309 3.665.535.929.173 1.866.276 2.8.413 1.211.177 2.414.421 3.639.512.407.03.8.222 1.207.268 1.229.137 2.432.43 3.658.591 1.074.141 2.147.317 3.218.472 1.215.176 2.4.462 3.611.67 1.764.3 3.536.549 5.3.8a26.339 26.339 0 003.183.4c.694.014 1.4.217 2.1.265.793.055 1.555.283 2.34.339 1.058.075 2.095.329 3.159.333a26.591 26.591 0 013.333.347c1.333.173 2.679.195 4 .4a19.127 19.127 0 012.3.384 10.123 10.123 0 012.179.575c.828.445 1.679.84 2.465 1.368a10.555 10.555 0 011.532 1.217 11.243 11.243 0 011.548 1.81c.391.591.672 1.232 1.025 1.837a10.983 10.983 0 01.6 1.845 9.464 9.464 0 01.311 2.868 11.284 11.284 0 01-.256 3.193 9.352 9.352 0 01-.528 1.788c-.236.52-.4 1.079-.627 1.609a5.036 5.036 0 01-.53.908c-.437.614-.757 1.3-1.232 1.894-.256.322-.5.684-.777.98s-.562.622-.836.925c-.4.444-.833.855-1.265 1.265a11.525 11.525 0 01-2.715 1.941c-.618.314-1.252.6-1.877.9a4.057 4.057 0 01-2.715.285 4.591 4.591 0 01-1.711-.873 9.911 9.911 0 01-1.731-1.531 7.7 7.7 0 01-1.418-2.469 15.981 15.981 0 01-.9-3.6 14.743 14.743 0 01.084-2.7 6.492 6.492 0 01.548-1.984 7.712 7.712 0 011.237-1.994 8.852 8.852 0 012.409-1.8c.057-.032.177-.05.141-.164a.141.141 0 00-.108-.074 4.462 4.462 0 00-1.609.006 6.426 6.426 0 00-2.936 1.828 10.389 10.389 0 00-1.255 1.718 7.736 7.736 0 00-.624 1.4 20.759 20.759 0 00-.617 2.275 1.438 1.438 0 00-.072.451c.017.166-.027.341-.182.38a.487.487 0 01-.547-.113 3.991 3.991 0 00-1.271-.833c-.73-.36-1.458-.73-2.166-1.131-.5-.283-1.05-.452-1.552-.719-.558-.3-1.155-.5-1.711-.806-.449-.244-.947-.4-1.419-.6-.983-.421-1.984-.8-2.971-1.209a13.966 13.966 0 00-1.707-.651 7.883 7.883 0 01-1.017-.393c-.577-.245-1.179-.4-1.767-.606-1.07-.37-2.131-.773-3.215-1.1-1.125-.332-2.245-.68-3.384-.98-.85-.229-1.7-.449-2.549-.7-.575-.169-1.181-.131-1.764-.268a13.2 13.2 0 00-2.339-.242c-1.007-.054-2.01-.148-3.023-.116-1.035.034-2.064.134-3.1.182a21.59 21.59 0 00-3.859.578 16.939 16.939 0 00-8.242 4.152 13.225 13.225 0 00-1.8 2.055 16.7 16.7 0 00-1.2 1.94 13.265 13.265 0 00-1.177 2.706q-.408 1.371-.766 2.752a15.966 15.966 0 00-.447 3.326 20.878 20.878 0 00.045 3.135c.129 1.22.335 2.424.538 3.632a45.142 45.142 0 001.037 4.468c.283 1.033.582 2.064.845 3.1.227.888.609 1.7.887 2.564a9.743 9.743 0 00.814 1.6q.788 1.437 1.448 2.937a6.073 6.073 0 01.581 2.02 3.241 3.241 0 01-.212 1.611 3.974 3.974 0 01-1.778 1.758 4.467 4.467 0 01-1.965.613 4.616 4.616 0 01-1.795-.255 8.666 8.666 0 01-1.145-.4 6.541 6.541 0 01-2.3-1.987 3.52 3.52 0 00-3.126-1.432 4.137 4.137 0 00-1.649.686 6.883 6.883 0 00-1.43 1.192 4.012 4.012 0 01-1.976 1.034 3.36 3.36 0 01-1.886-.044 10.364 10.364 0 01-1.363-.461 6.289 6.289 0 01-1.522-1.178c-.382-.377-.8-.71-1.191-1.07a4.358 4.358 0 00-1.384-.814 2.46 2.46 0 00-2.436.1 2.243 2.243 0 00-.548.592 22.893 22.893 0 01-2.869 2.9 4.736 4.736 0 01-2.077 1.094 5.438 5.438 0 01-3.28-.278A14.337 14.337 0 0135.087 75a4.756 4.756 0 00-2.614-.906 5.429 5.429 0 00-1.688.457 4.783 4.783 0 00-1.9 1.235 3.1 3.1 0 01-1.132.638 8.227 8.227 0 01-3.284.5 5.036 5.036 0 01-1.689-.556c-.065-.024-.119-.079-.184-.1a4 4 0 01-1.549-1.386c-.615-.759-1.218-1.529-1.866-2.259a2.116 2.116 0 00-2.152-.291 10.4 10.4 0 00-2.177 1.665 15.805 15.805 0 01-3.2 2.05c-.889.425-1.822.705-2.73 1.058a8.929 8.929 0 01-2.652.371 4.94 4.94 0 01-2.477-.425 5.793 5.793 0 01-2.648-1.99 6.373 6.373 0 01-1.133-3.882 22.83 22.83 0 01.372-2.763c.18-.93.573-1.786.837-2.685.479-1.632 1.334-3.114 1.879-4.72.257-.76.661-1.464.9-2.227.282-.913.72-1.761 1.044-2.657.2-.545.455-1.085.675-1.626a17.473 17.473 0 00.69-1.66 8.48 8.48 0 01.474-1.216c.506-1.076.917-2.193 1.4-3.277a73.116 73.116 0 011.756-3.7c.433-.837.936-1.63 1.378-2.457.312-.584.7-1.109 1.043-1.665.761-1.226 1.607-2.388 2.422-3.575a25.38 25.38 0 011.129-1.531c.556-.688 1.17-1.341 1.731-2.024.44-.536.946-1.005 1.389-1.536a21.227 21.227 0 011.726-1.761c.74-.7 1.467-1.428 2.267-2.058.783-.617 1.536-1.272 2.345-1.861.615-.448 1.228-.905 1.849-1.348a29.51 29.51 0 011.641-1.1c.811-.5 1.626-1 2.461-1.456.7-.385 1.423-.736 2.123-1.118.621-.338 1.3-.562 1.89-.952.27-.177.635-.2.911-.375a10.567 10.567 0 012.277-.922 27.765 27.765 0 013.608-1.227c.284-.054.539-.243.821-.321.76-.21 1.54-.353 2.289-.6 1.273-.414 2.6-.586 3.9-.872a30.387 30.387 0 015.213-.727 3.87 3.87 0 011.05-.054"/><path d="M135.953 15.494a18.822 18.822 0 01.033 2.461 1.226 1.226 0 01-.487.9.853.853 0 01-1.3-.5 31.151 31.151 0 00-1.414-3.127 11.436 11.436 0 00-1.124-1.78 7.267 7.267 0 00-1.917-1.69c-.459-.279-.907-.583-1.389-.814a15.011 15.011 0 00-1.5-.573c-.739-.263-1.471-.55-2.225-.761a9.312 9.312 0 01-2.167-1.108 2.167 2.167 0 01-.813-2.566 2.791 2.791 0 011.218-1.038 3.291 3.291 0 012.075-.3 14.392 14.392 0 013.392.959c.477.2.966.379 1.42.616a6.961 6.961 0 011.56 1.129c.3.281.641.5.922.806.538.592 1.04 1.207 1.54 1.831a8.163 8.163 0 011.082 1.863 6.837 6.837 0 01.926 2.989c-.009.238.282.4.169.691"/><path d="M123.392 11.199a9.367 9.367 0 012.092.279 6.8 6.8 0 012.492.988 7.768 7.768 0 012.3 1.983 6.868 6.868 0 01.591.859 1.021 1.021 0 01.007 1.118c-.28.413-.734.374-1.157.33a4.884 4.884 0 01-1.376-.512 11.965 11.965 0 00-2.005-.5 23.865 23.865 0 00-3.558-.3 26.589 26.589 0 00-1.92-.118 1.942 1.942 0 01-1.816-1.5 1.827 1.827 0 011.413-2.18 12.154 12.154 0 012.941-.457M142.389 29.666a1.46 1.46 0 01-1.243-1.478 4.87 4.87 0 01.836-2.562 13.861 13.861 0 011.245-1.872 6.427 6.427 0 011.792-1.445 8.117 8.117 0 011.45-.531 1.5 1.5 0 011.914.913 2.746 2.746 0 01-.136 2.259 7.572 7.572 0 01-1.11 1.485 11.5 11.5 0 01-1.691 1.624 13.939 13.939 0 01-1.948 1.379 2.32 2.32 0 01-1.109.228M143.468 33.099a1.064 1.064 0 01.184-.641 18.651 18.651 0 011.146-1.947 6.9 6.9 0 011.611-1.632 4.6 4.6 0 012.362-.958c.8-.035 1.212.464 1.187 1.261a4.225 4.225 0 01-1.459 2.69 7.229 7.229 0 01-1.748 1.392 12.052 12.052 0 01-2.019.963c-.649.236-1.265-.31-1.264-1.128"/></g></svg><svg viewBox="0 0 22 22" id="new-mail" xmlns="http://www.w3.org/2000/svg"><g fill="#969ba4"><path d="M17.349 7.2c.059-.018.137.018.214.121l3.512 3.422a.435.435 0 010 .665l-3.511 3.474c-.078.1-.155.127-.214.1s-.1-.121-.1-.251V7.422c.003-.126.04-.204.099-.222zM11.105 1.265h.249l.239.1 3.614 3.576c.155.2.1.359-.155.359h-1.5a.459.459 0 00-.463.461v2.654a.477.477 0 01-.519.461H9.94a.462.462 0 01-.463-.461v-2.65a.46.46 0 00-.466-.461h-1.6c-.258 0-.311-.155-.155-.359l3.613-3.58zM5.205 7.123c.065.031.106.12.106.25v7.457c0 .13-.04.207-.106.232a.289.289 0 01-.258-.077l-3.564-3.577a.435.435 0 010-.665l3.564-3.524c.106-.103.196-.127.258-.096zM9.941 13.227h2.63a.477.477 0 01.519.461v2.809a.473.473 0 00.463.511h1.4c.258 0 .36.152.155.306l-3.516 3.524a.521.521 0 01-.364.155.515.515 0 01-.361-.155l-3.512-3.524c-.208-.155-.106-.306.152-.306h1.5a.473.473 0 00.466-.511v-2.809a.462.462 0 01.468-.461z"/></g></svg><svg viewBox="0 0 20.008 20.009" id="phone" xmlns="http://www.w3.org/2000/svg"><path d="M13.074 19.43a25.513 25.513 0 01-7.19-5.339 24.647 24.647 0 01-5.3-7.207l-.1-.238C-.2 5.027-.157 3.689.588 2.669 1.241 1.581 3.04 0 4.375 0h.1a2.249 2.249 0 011.39.713l.126.13a15.978 15.978 0 012.447 3.414l.024.088A2.439 2.439 0 018 6.258l-.109.193c-.2.369-.239.528-.175.714a8.915 8.915 0 005.027 5.068.528.528 0 00.188.036 1.48 1.48 0 00.68-.274l.248-.141a2.492 2.492 0 011.255-.4 2.218 2.218 0 01.459.051 13.537 13.537 0 013.24 2.261l.274.254.1.1a2.254 2.254 0 01.708 1.429c.046 1.317-1.548 3.239-2.6 3.843a3.27 3.27 0 01-1.95.617 5.424 5.424 0 01-2.274-.579M4.368 1.464h-.086A5.336 5.336 0 001.8 3.479l-.08.121a2.883 2.883 0 00.2 2.709l.1.244A24.461 24.461 0 007.052 13.2a23.9 23.9 0 006.607 4.9l.212.094a3.7 3.7 0 001.444.344 1.987 1.987 0 001.193-.377l.05-.032a7.6 7.6 0 001.073-1.029 2.866 2.866 0 00.815-1.468.9.9 0 00-.287-.483l-.081-.08a19.785 19.785 0 00-2.8-2.131.574.574 0 00-.124-.013 1.639 1.639 0 00-.755.31l-.244.139a2.489 2.489 0 01-1.2.374 2.137 2.137 0 01-.733-.143A10.379 10.379 0 016.363 7.69a2.241 2.241 0 01.345-2.1l.112-.2c.21-.381.26-.549.218-.748a20.11 20.11 0 00-2.017-2.7l-.174-.182-.092-.085a.927.927 0 00-.333-.2zm10.755 6.52A3.564 3.564 0 0012.3 5.15a.732.732 0 01.085-1.45h.1l.1.013A5.016 5.016 0 0116.552 7.7a.728.728 0 11-1.428.285zm3.429-.067a7.088 7.088 0 00-2.011-4.2A7.009 7.009 0 0012.364 1.7a.732.732 0 01-.035-1.45l.1-.009h.1A8.48 8.48 0 0120 7.753a.731.731 0 01-.642.809h-.082a.728.728 0 01-.727-.645"/></svg><svg viewBox="0 0 22 22" id="pickup" xmlns="http://www.w3.org/2000/svg"><g fill="#969ba4"><path d="M15.977 5.981a1.565 1.565 0 01-.739-.186 9.112 9.112 0 00-4.28-1.068 8.99 8.99 0 00-4.207 1.029 1.574 1.574 0 11-1.458-2.79 12.258 12.258 0 0111.427.052 1.572 1.572 0 01-.742 2.959M17.726 13.689a6.727 6.727 0 10-6.724 6.727 2.026 2.026 0 000-4.051 2.672 2.672 0 112.67-2.676v4.7a2.026 2.026 0 004.051 0z"/></g></svg><svg viewBox="0 0 124.5 150.35" id="rainbow" xmlns="http://www.w3.org/2000/svg"><defs><linearGradient id="caa" y1=".5" x2="1" y2=".5" gradientUnits="objectBoundingBox"><stop offset="0" stop-color="#fff"/><stop offset="1" stop-color="#f04137"/></linearGradient><linearGradient id="cab" y1=".5" x2="1" y2=".5" gradientUnits="objectBoundingBox"><stop offset="0" stop-color="#fff"/><stop offset="1" stop-color="#f6a232"/></linearGradient><linearGradient id="cac" y1=".5" x2="1" y2=".5" gradientUnits="objectBoundingBox"><stop offset="0" stop-color="#fff"/><stop offset="1" stop-color="#fac607"/></linearGradient><linearGradient id="cad" y1=".5" x2="1" y2=".5" gradientUnits="objectBoundingBox"><stop offset="0" stop-color="#fff"/><stop offset="1" stop-color="#64b64b"/></linearGradient><linearGradient id="cae" y1=".5" x2="1" y2=".5" gradientUnits="objectBoundingBox"><stop offset="0" stop-color="#fff"/><stop offset=".71" stop-color="#29bbce"/></linearGradient><linearGradient id="caf" y1=".5" x2="1" y2=".5" gradientUnits="objectBoundingBox"><stop offset="0" stop-color="#fff"/><stop offset="1" stop-color="#4b5aa0"/></linearGradient></defs><path d="M124.5 0v9.73A142.387 142.387 0 004.29 150.35H0A153.054 153.054 0 01124.5 0z" fill="url(#caa)"/><path d="M124.5 9.73v9.9A131.721 131.721 0 008.59 150.35h-4.3A142.387 142.387 0 01124.5 9.73z" fill="url(#cab)"/><path d="M124.5 19.63v10.09A121.076 121.076 0 0012.88 150.35H8.59A131.721 131.721 0 01124.5 19.63z" fill="url(#cac)"/><path d="M124.5 29.72v10.36A110.4 110.4 0 0017.18 150.35h-4.3A121.076 121.076 0 01124.5 29.72z" fill="url(#cad)"/><path d="M124.5 40.08v10.68a88.21 88.21 0 00-3.26-.06 99.766 99.766 0 00-99.77 99.65h-4.29A110.4 110.4 0 01124.5 40.08z" opacity=".81" fill="url(#cae)"/><path d="M124.5 50.76v11.13a87.375 87.375 0 00-9.62-.52 89.113 89.113 0 00-89.11 88.98h-4.3a99.766 99.766 0 0199.77-99.65c1.09 0 2.18.02 3.26.06z" opacity=".81" fill="url(#caf)"/></svg><svg viewBox="0 0 9.672 9.621" id="range-send" xmlns="http://www.w3.org/2000/svg"><g fill="none" stroke="#e82727" stroke-linecap="round" stroke-linejoin="round" stroke-width="1.5"><path d="M8.922 4.813H.75M5.158 1.061l3.764 3.752-3.764 3.748"/></g></svg><svg viewBox="0 0 20.001 18.001" id="report-send" xmlns="http://www.w3.org/2000/svg"><g clip-path="url(#clip-path)"><path d="M5.457 18a5.249 5.249 0 01-3.916-1.693A6.11 6.11 0 010 12.141V5.859a6.11 6.11 0 011.54-4.166A5.249 5.249 0 015.457 0h9.069A5.556 5.556 0 0120 5.637c0 .074 0 .148-.008.222V12.1a5.621 5.621 0 01-1.476 4.131 5.557 5.557 0 01-4 1.773zM1.518 5.859v6.282A4.013 4.013 0 005.2 16.46q.129.01.258.012h9.052a4.026 4.026 0 002.89-1.287 4.091 4.091 0 001.071-3.044V5.814a4.08 4.08 0 00-1.072-3 4.021 4.021 0 00-2.894-1.287H5.457A4.011 4.011 0 001.506 5.6c0 .087 0 .173.012.26m6.865 4.279l-.161-.118L4.087 6.72a.769.769 0 01-.122-1.074.755.755 0 01.973-.187l.094.063 4.129 3.3a1.378 1.378 0 001.58.088l.118-.082 4.1-3.3a.753.753 0 011.06.112l.006.007a.769.769 0 01-.035 1l-.083.076-4.106 3.3a2.891 2.891 0 01-3.416.114z" fill="#4b4da8"/></g></svg><svg viewBox="0 0 20.008 20.006" id="report-sending" xmlns="http://www.w3.org/2000/svg"><g clip-path="url(#clip-path)"><path d="M5.669 20a5.5 5.5 0 01-4.109-1.648A6.045 6.045 0 010 14.087V5.919a6.042 6.042 0 011.562-4.265A5.5 5.5 0 015.669 0h8.67a5.5 5.5 0 014.109 1.651A6.045 6.045 0 0120 5.919v8.168a6.042 6.042 0 01-1.557 4.265A5.5 5.5 0 0114.337 20zM1.5 5.919v8.168c0 2.683 1.638 4.413 4.168 4.413h8.669c2.532 0 4.167-1.733 4.167-4.416V5.919A4.58 4.58 0 0017.378 2.7a4.039 4.039 0 00-3.039-1.2h-8.67C3.139 1.5 1.5 3.237 1.5 5.919m6.871 7.061l-.083-.08-2.375-2.37A.75.75 0 016.89 9.4l.084.073 1.843 1.842L13.033 7.1a.75.75 0 011.133.976l-.073.085L9.348 12.9a.75.75 0 01-.977.073z" fill="#64b64b"/></g></svg><svg viewBox="0 0 32 32" id="school-mom" xmlns="http://www.w3.org/2000/svg"><g clip-path="url(#clip-path)"><path d="M30.843 20.254a4.4 4.4 0 01-2.432 4.128 7.056 7.056 0 01-1.155.472 1.583 1.583 0 00-.87.74 11.57 11.57 0 01-20.579.029 1.5 1.5 0 00-.96-.746l-.168-.043a4.732 4.732 0 01-3.522-4.427 3.121 3.121 0 012.466-3.3c.175-.049.341-.13.55-.213a12.322 12.322 0 015.738-9.43 6.491 6.491 0 012.274-5.9A5.964 5.964 0 0116.221.115a6.252 6.252 0 014.819 2.292 7.2 7.2 0 011.483 5.08A12.338 12.338 0 0128.207 17a3.2 3.2 0 012.636 3.259" fill="#fff"/><path d="M28.312 16.907a12.48 12.48 0 00-5.675-9.479 7.208 7.208 0 00-1.511-5.093A6.348 6.348 0 0016.224 0a6.032 6.032 0 00-4.11 1.482 6.584 6.584 0 00-2.321 5.929 12.5 12.5 0 00-5.724 9.408l-.122.051a3.067 3.067 0 01-.355.13 3.224 3.224 0 00-2.547 3.4 4.822 4.822 0 003.608 4.535l.168.043a1.4 1.4 0 01.887.69A11.718 11.718 0 0016.087 32h.028a11.7 11.7 0 0010.371-6.353 1.458 1.458 0 01.807-.687 7.307 7.307 0 001.173-.479 4.525 4.525 0 002.489-4.229 3.311 3.311 0 00-2.643-3.345M19.544 6.1c-1.152-.2-2.241-.382-3.354-.475a11.832 11.832 0 00-4.682.886l-.088.029a4.557 4.557 0 012.288-4.248 4.868 4.868 0 012.492-.736 4.767 4.767 0 012.674.871 4.581 4.581 0 012.113 3.908c-.49-.077-.971-.158-1.445-.239m6.97 10.85a9.432 9.432 0 01-4.569-1.118 31.974 31.974 0 01-2.811-1.879q-.441-.32-.886-.635a.688.688 0 00-1.077.479 2.971 2.971 0 000 .525v.032a4.279 4.279 0 01-.591 2.517 1.521 1.521 0 01-.163.208c0-.053.005-.105.006-.157a4.849 4.849 0 00-.643-3.3.563.563 0 00-.383-.231.576.576 0 00-.435.116 3.731 3.731 0 00-.546.484c-.344.389-.7.839-1.119 1.417-1.238 1.7-3.005 2.419-5.553 2.251a7.477 7.477 0 01-1.31-.249c-.176-.044-.35-.087-.52-.125-.505-2.484 1.408-6.2 4.212-8.167a10.548 10.548 0 0111.728-.286c3 1.846 5.034 5.962 4.656 8.119m-12.425-.033c.157-.174.318-.347.5-.54l.256-.275a1.468 1.468 0 01-.436 1.2 1.262 1.262 0 00-.103 1.851 1.5 1.5 0 001.883.289 4.858 4.858 0 002.223-2.68c.085-.21.151-.422.227-.668l.086-.275.148.073a3.855 3.855 0 01.486.268 12.17 12.17 0 007.889 2.323 1.976 1.976 0 011.719.578 2.288 2.288 0 01.3 2.06 2.917 2.917 0 01-2.038 2.2c-.281.09-.572.159-.82.215a1.7 1.7 0 00-1.157.922 9.739 9.739 0 01-9.129 5.973h-.037c-4.092 0-7.252-2.061-9.14-5.962a1.637 1.637 0 00-1.146-.9 8.577 8.577 0 01-.919-.227 3.21 3.21 0 01-2.208-2.815 1.907 1.907 0 01.583-1.668 1.52 1.52 0 01.968-.312 2.5 2.5 0 01.7.106 13.16 13.16 0 004.132.538 6.66 6.66 0 005.042-2.276"/><path d="M19.193 27.58a4.7 4.7 0 01-6.2-.009.572.572 0 01.695-.895 4.329 4.329 0 004.777.009.573.573 0 01.677.051l.015.013a.569.569 0 01.038.831M22.207 21.771q0 1.485-.934 1.506c-.646.013-.952-.456-.955-1.463s.278-1.481.919-1.5.971.457.97 1.455M11.681 21.827a5.871 5.871 0 01-.03.6.86.86 0 01-.886.819.847.847 0 01-.929-.774 4.683 4.683 0 01.023-1.428.833.833 0 01.965-.721.867.867 0 01.818.777 6.122 6.122 0 01.039.722"/></g></svg><svg viewBox="0 0 20.264 20.722" id="search" xmlns="http://www.w3.org/2000/svg"><g clip-path="url(#clip-path)" fill="none" stroke="#353535" stroke-linecap="round" stroke-linejoin="round" stroke-width="1.5"><circle cx="8.989" cy="8.989" r="8.989" transform="translate(.75 .75)"/><path d="M15.99 16.457l3.524 3.515"/></g></svg><svg viewBox="0 0 271 48" id="second" xmlns="http://www.w3.org/2000/svg"><g clip-path="url(#clip-path)"><g clip-path="url(#clip-path-2)" transform="translate(16.131 7)"><path d="M8.121 9.791a7.677 7.677 0 001.3-.318 20.16 20.16 0 016.965-1.015c.627.03 1.252.083 1.878.084.584 0 1.383.323 1.605-.435.192-.652-.555-.917-1.02-1.265a1.163 1.163 0 00-.27-.139 15.744 15.744 0 00-8.685-.706A7.174 7.174 0 006.836 7.33a1.215 1.215 0 00-.5 1.648 1.538 1.538 0 001.787.813M7.574 14.545a18.72 18.72 0 007.282-2.708.634.634 0 00.313-.814c-.135-.363-.485-.427-.847-.405a17.419 17.419 0 00-7.424 1.945c-.613.335-1.166.854-.964 1.5.2.621 1.024.329 1.642.489M25.385 5.521a1.065 1.065 0 001.193.359.958.958 0 00.658-.868 6.776 6.776 0 00-.746-3.977A1.54 1.54 0 0024.815.029c-.784.161-.918.849-.921 1.5v.376a4.25 4.25 0 001.491 3.615M30.085 5.871c.521.017.761-.363.975-.728a4.966 4.966 0 00.481-4.124 1.12 1.12 0 00-.874-.839 1.253 1.253 0 00-1.233.532 2.7 2.7 0 00-.5 1.815 4.421 4.421 0 00.313 2.5c.174.355.28.829.837.847M6.449 17.723c-.349.673-.121 1.011.692 1.024 1.3.021 3.971-1.568 4.433-2.627.251-.574-.2-.638-.625-.681a5.861 5.861 0 00-4.5 2.284M26.323 17.442c.5.019.5.449.582.813.419 1.865 1.891 3.01 4.243 3.307.615.078 1.239.124 1.861.14a4.426 4.426 0 004.526-2.952A8.069 8.069 0 0032.56 8.337a9.806 9.806 0 00-8.777 1.08c-3.3 2.121-5.359 5.157-7.072 8.411-1.6 3.041-2.684 6.276-4.025 9.415A1226.012 1226.012 0 007.5 39.625l-.013-.007-.364.916c-.448 1.08-2.158 5.417-2.271 5.7A105.735 105.735 0 00.54 58.906a12.238 12.238 0 00.3 8.084 7.154 7.154 0 003.831 4.164 13.176 13.176 0 003.125.671c6.431 1.036 7.138-1.208 7.856-.8 6.949 3.94 13.166.922 13.456-2.938.012-.159-.51 3.573 1.917 3.653 4.308.142 5.484-2.436 5.7-3.587a28.5 28.5 0 00-.108-8.028c-.022-.226-.386-2.559-.391-2.6-.643-5.945-1.347-11.884-1.972-17.831-.407-3.875-.746-7.756-1.188-11.628a7.329 7.329 0 01.276-3.14c.344-1.04-.056-1.514-1.274-1.612a11.923 11.923 0 01-4.638-1.349c-1.4-.737-2.354-2.626-1.933-3.741.146-.388.327-.794.828-.775" fill="#f4d30e"/><path d="M29.102 68.111c-.043.33-.334 3.551 1.921 3.626 4.308.142 5.484-2.435 5.7-3.586a28.5 28.5 0 00-.108-8.028c-.011-.1-.092-.652-.179-1.218-.116 3.28-.174 4.974-.174 5.9 0 2.172.139 2.927-1.105 4.712-.868 1.245-6.63 3.214-5.478-2 .176-.8.805-4.941.805-4.941s.059-.754.053-1.395c-.011-1.24-.4-1.717-.531-1.78-.026-.013-.077-.026-.1-.007-.04.035.025.151.031.164a16.273 16.273 0 01-.467 5.362c-.3 1.3-1.319 4.74-3.671 6.03-2.735 1.5-7.98 1.265-9.965-1.86-.937-1.475-1.217-4.263-1.415-8.679a5.085 5.085 0 00-.165-1.116 22.2 22.2 0 00-.364 4.385c.076 2.237.567 5.007-.6 6.166-2.408 2.392-8.04.88-8.606.656a9.988 9.988 0 01-2.8-1.59 6.4 6.4 0 002.782 2.242 13.134 13.134 0 003.125.67c6.43 1.037 7.138-1.208 7.856-.8 6.934 3.93 13.135.936 13.453-2.912" fill="#e9b817"/></g></g></svg><svg viewBox="0 0 9.67 9" id="slider-arrow" xmlns="http://www.w3.org/2000/svg"><g clip-path="url(#clip-path)"><path d="M9.523 4.946l-.008.009a.8.8 0 01-.078.086L5.685 8.779A.75.75 0 014.554 7.8l.073-.084 2.478-2.467H.748a.75.75 0 01-.1-1.493l.1-.006H7.1L4.627 1.283a.752.752 0 01-.075-.977l.073-.085A.75.75 0 015.6.146l.084.073 3.765 3.748a.751.751 0 01.074.979" fill="#200e32"/></g></svg><svg viewBox="0 0 12 11.399" id="star" xmlns="http://www.w3.org/2000/svg"><g clip-path="url(#clip-path)"><path d="M9.55 7.091a.66.66 0 00-.191.582l.533 2.952a.648.648 0 01-.27.648.659.659 0 01-.7.048L6.263 9.935a.67.67 0 00-.3-.079H5.8a.483.483 0 00-.162.054L2.981 11.3a.7.7 0 01-.426.066.667.667 0 01-.534-.763l.534-2.952a.671.671 0 00-.191-.587L.2 4.968a.647.647 0 01-.164-.678.674.674 0 01.533-.45l2.982-.433a.667.667 0 00.529-.365L5.393.348a.635.635 0 01.12-.162l.054-.042a.418.418 0 01.1-.078l.062-.024L5.831 0h.253a.671.671 0 01.528.36l1.331 2.682a.666.666 0 00.5.365l2.982.433a.68.68 0 01.546.45.651.651 0 01-.174.678z" fill="#e1e1e3"/></g></svg><svg viewBox="0 0 76 11.399" id="star-1" xmlns="http://www.w3.org/2000/svg"><g transform="translate(16)" clip-path="url(#clip-path)"><path d="M9.55 7.091a.66.66 0 00-.191.582l.533 2.952a.648.648 0 01-.27.648.659.659 0 01-.7.048L6.263 9.935a.67.67 0 00-.3-.079H5.8a.483.483 0 00-.162.054L2.981 11.3a.7.7 0 01-.426.066.667.667 0 01-.534-.763l.534-2.952a.671.671 0 00-.191-.587L.2 4.968a.647.647 0 01-.164-.678.674.674 0 01.533-.45l2.982-.433a.667.667 0 00.529-.365L5.393.348a.635.635 0 01.12-.162l.054-.042a.418.418 0 01.1-.078l.062-.024L5.831 0h.253a.671.671 0 01.528.36l1.331 2.682a.666.666 0 00.5.365l2.982.433a.68.68 0 01.546.45.651.651 0 01-.174.678z" fill="#fac607"/></g><g transform="translate(32)" clip-path="url(#clip-path)"><path d="M9.55 7.091a.66.66 0 00-.191.582l.533 2.952a.648.648 0 01-.27.648.659.659 0 01-.7.048L6.263 9.935a.67.67 0 00-.3-.079H5.8a.483.483 0 00-.162.054L2.981 11.3a.7.7 0 01-.426.066.667.667 0 01-.534-.763l.534-2.952a.671.671 0 00-.191-.587L.2 4.968a.647.647 0 01-.164-.678.674.674 0 01.533-.45l2.982-.433a.667.667 0 00.529-.365L5.393.348a.635.635 0 01.12-.162l.054-.042a.418.418 0 01.1-.078l.062-.024L5.831 0h.253a.671.671 0 01.528.36l1.331 2.682a.666.666 0 00.5.365l2.982.433a.68.68 0 01.546.45.651.651 0 01-.174.678z" fill="#fac607"/></g><g transform="translate(48)" clip-path="url(#clip-path-3)"><path d="M9.55 7.091a.66.66 0 00-.191.582l.533 2.952a.648.648 0 01-.27.648.659.659 0 01-.7.048L6.263 9.935a.67.67 0 00-.3-.079H5.8a.483.483 0 00-.162.054L2.981 11.3a.7.7 0 01-.426.066.667.667 0 01-.534-.763l.534-2.952a.671.671 0 00-.191-.587L.2 4.968a.647.647 0 01-.164-.678.674.674 0 01.533-.45l2.982-.433a.667.667 0 00.529-.365L5.393.348a.635.635 0 01.12-.162l.054-.042a.418.418 0 01.1-.078l.062-.024L5.831 0h.253a.671.671 0 01.528.36l1.331 2.682a.666.666 0 00.5.365l2.982.433a.68.68 0 01.546.45.651.651 0 01-.174.678z" fill="#e1e1e3"/></g><g transform="translate(64)" clip-path="url(#clip-path-3)"><path d="M9.55 7.091a.66.66 0 00-.191.582l.533 2.952a.648.648 0 01-.27.648.659.659 0 01-.7.048L6.263 9.935a.67.67 0 00-.3-.079H5.8a.483.483 0 00-.162.054L2.981 11.3a.7.7 0 01-.426.066.667.667 0 01-.534-.763l.534-2.952a.671.671 0 00-.191-.587L.2 4.968a.647.647 0 01-.164-.678.674.674 0 01.533-.45l2.982-.433a.667.667 0 00.529-.365L5.393.348a.635.635 0 01.12-.162l.054-.042a.418.418 0 01.1-.078l.062-.024L5.831 0h.253a.671.671 0 01.528.36l1.331 2.682a.666.666 0 00.5.365l2.982.433a.68.68 0 01.546.45.651.651 0 01-.174.678z" fill="#e1e1e3"/></g><g clip-path="url(#clip-path)"><path d="M9.55 7.091a.66.66 0 00-.191.582l.533 2.952a.648.648 0 01-.27.648.659.659 0 01-.7.048L6.263 9.935a.67.67 0 00-.3-.079H5.8a.483.483 0 00-.162.054L2.981 11.3a.7.7 0 01-.426.066.667.667 0 01-.534-.763l.534-2.952a.671.671 0 00-.191-.587L.2 4.968a.647.647 0 01-.164-.678.674.674 0 01.533-.45l2.982-.433a.667.667 0 00.529-.365L5.393.348a.635.635 0 01.12-.162l.054-.042a.418.418 0 01.1-.078l.062-.024L5.831 0h.253a.671.671 0 01.528.36l1.331 2.682a.666.666 0 00.5.365l2.982.433a.68.68 0 01.546.45.651.651 0 01-.174.678z" fill="#fac607"/></g></svg><svg viewBox="0 0 76 11.399" id="star-2" xmlns="http://www.w3.org/2000/svg"><g transform="translate(16)" clip-path="url(#clip-path)"><path d="M9.55 7.091a.66.66 0 00-.191.582l.533 2.952a.648.648 0 01-.27.648.659.659 0 01-.7.048L6.263 9.935a.67.67 0 00-.3-.079H5.8a.483.483 0 00-.162.054L2.981 11.3a.7.7 0 01-.426.066.667.667 0 01-.534-.763l.534-2.952a.671.671 0 00-.191-.587L.2 4.968a.647.647 0 01-.164-.678.674.674 0 01.533-.45l2.982-.433a.667.667 0 00.529-.365L5.393.348a.635.635 0 01.12-.162l.054-.042a.418.418 0 01.1-.078l.062-.024L5.831 0h.253a.671.671 0 01.528.36l1.331 2.682a.666.666 0 00.5.365l2.982.433a.68.68 0 01.546.45.651.651 0 01-.174.678z" fill="#fac607"/></g><g transform="translate(32)" clip-path="url(#clip-path)"><path d="M9.55 7.091a.66.66 0 00-.191.582l.533 2.952a.648.648 0 01-.27.648.659.659 0 01-.7.048L6.263 9.935a.67.67 0 00-.3-.079H5.8a.483.483 0 00-.162.054L2.981 11.3a.7.7 0 01-.426.066.667.667 0 01-.534-.763l.534-2.952a.671.671 0 00-.191-.587L.2 4.968a.647.647 0 01-.164-.678.674.674 0 01.533-.45l2.982-.433a.667.667 0 00.529-.365L5.393.348a.635.635 0 01.12-.162l.054-.042a.418.418 0 01.1-.078l.062-.024L5.831 0h.253a.671.671 0 01.528.36l1.331 2.682a.666.666 0 00.5.365l2.982.433a.68.68 0 01.546.45.651.651 0 01-.174.678z" fill="#fac607"/></g><g transform="translate(48)" clip-path="url(#clip-path)"><path d="M9.55 7.091a.66.66 0 00-.191.582l.533 2.952a.648.648 0 01-.27.648.659.659 0 01-.7.048L6.263 9.935a.67.67 0 00-.3-.079H5.8a.483.483 0 00-.162.054L2.981 11.3a.7.7 0 01-.426.066.667.667 0 01-.534-.763l.534-2.952a.671.671 0 00-.191-.587L.2 4.968a.647.647 0 01-.164-.678.674.674 0 01.533-.45l2.982-.433a.667.667 0 00.529-.365L5.393.348a.635.635 0 01.12-.162l.054-.042a.418.418 0 01.1-.078l.062-.024L5.831 0h.253a.671.671 0 01.528.36l1.331 2.682a.666.666 0 00.5.365l2.982.433a.68.68 0 01.546.45.651.651 0 01-.174.678z" fill="#fac607"/></g><g transform="translate(64)" clip-path="url(#clip-path-4)"><path d="M9.55 7.091a.66.66 0 00-.191.582l.533 2.952a.648.648 0 01-.27.648.659.659 0 01-.7.048L6.263 9.935a.67.67 0 00-.3-.079H5.8a.483.483 0 00-.162.054L2.981 11.3a.7.7 0 01-.426.066.667.667 0 01-.534-.763l.534-2.952a.671.671 0 00-.191-.587L.2 4.968a.647.647 0 01-.164-.678.674.674 0 01.533-.45l2.982-.433a.667.667 0 00.529-.365L5.393.348a.635.635 0 01.12-.162l.054-.042a.418.418 0 01.1-.078l.062-.024L5.831 0h.253a.671.671 0 01.528.36l1.331 2.682a.666.666 0 00.5.365l2.982.433a.68.68 0 01.546.45.651.651 0 01-.174.678z" fill="#e1e1e3"/></g><g clip-path="url(#clip-path)"><path d="M9.55 7.091a.66.66 0 00-.191.582l.533 2.952a.648.648 0 01-.27.648.659.659 0 01-.7.048L6.263 9.935a.67.67 0 00-.3-.079H5.8a.483.483 0 00-.162.054L2.981 11.3a.7.7 0 01-.426.066.667.667 0 01-.534-.763l.534-2.952a.671.671 0 00-.191-.587L.2 4.968a.647.647 0 01-.164-.678.674.674 0 01.533-.45l2.982-.433a.667.667 0 00.529-.365L5.393.348a.635.635 0 01.12-.162l.054-.042a.418.418 0 01.1-.078l.062-.024L5.831 0h.253a.671.671 0 01.528.36l1.331 2.682a.666.666 0 00.5.365l2.982.433a.68.68 0 01.546.45.651.651 0 01-.174.678z" fill="#fac607"/></g></svg><svg viewBox="0 0 12 11.399" id="stars--star-active" xmlns="http://www.w3.org/2000/svg"><g clip-path="url(#clip-path)"><path d="M9.55 7.091a.66.66 0 00-.191.582l.533 2.952a.648.648 0 01-.27.648.659.659 0 01-.7.048L6.263 9.935a.67.67 0 00-.3-.079H5.8a.483.483 0 00-.162.054L2.981 11.3a.7.7 0 01-.426.066.667.667 0 01-.534-.763l.534-2.952a.671.671 0 00-.191-.587L.2 4.968a.647.647 0 01-.164-.678.674.674 0 01.533-.45l2.982-.433a.667.667 0 00.529-.365L5.393.348a.635.635 0 01.12-.162l.054-.042a.418.418 0 01.1-.078l.062-.024L5.831 0h.253a.671.671 0 01.528.36l1.331 2.682a.666.666 0 00.5.365l2.982.433a.68.68 0 01.546.45.651.651 0 01-.174.678z" fill="#fac607"/></g></svg><svg viewBox="0 0 11 8" id="status" xmlns="http://www.w3.org/2000/svg"><g clip-path="url(#clip-path)"><path d="M10.707.293a1 1 0 010 1.414l-6 6a1 1 0 01-1.414 0l-3-3a1 1 0 011.414-1.414L4 5.586 9.293.293a1 1 0 011.414 0" fill="#66c430" fill-rule="evenodd"/></g></svg><svg viewBox="0 0 71.978 33.331" id="style" xmlns="http://www.w3.org/2000/svg"><path d="M10.311 12.361c-.29 5.788-7.427 6.618-9.148 5.124-.958-.892-1.784-2.075-.519-6.099 0 0 3.195-.892 3.049.809s-2.24 4.315-1.7 4.688a3.921 3.921 0 004.979-3.651c0-3.278-4.834-2.9-4.605-7.074C2.574 1.574 7.345.246 9.648.308c1.639.083 2.593.975 1.784 3.049-.892 2.386-.6 2.821-.6 2.821s-2.014 1.038-2.969-.144c-1.037-1.265 1.784-4.024.6-4.688-1.058-.519-3.278.892-3.278 3.8.065 3.128 5.355 2.236 5.126 7.215zM17.773 4.706a7.24 7.24 0 002.531-1.556 1.229 1.229 0 01.975 1.556c-.29 1.12-1.639 1.784-4.087 2.012-.809 2.9-1.556 6.389-1.867 8.173a7.9 7.9 0 000 2.593 4.083 4.083 0 01-2.386.228c-.975-.456-.664-2.531-.083-5.269.373-1.784.809-3.568 1.182-5.643a3.542 3.542 0 01-1.784-.455 1.074 1.074 0 01.145-1.494 11.209 11.209 0 001.929.373c.145-1.037.29-2.157.456-3.423v-.082c2.989-.519 3.653.602 2.989 2.987z"/><path d="M25.083 20.573a9.465 9.465 0 013.8 1.182c2.012 1.265 3.278 3.34 3.132 4.979a4 4 0 01-2.759 3.278 7.384 7.384 0 00-1.556-5.124 6.353 6.353 0 00-3.485-1.867c-2.593 6.7-5.643 11.368-9.211 10.1-3.34-1.182-2.676-6.846 1.182-10.1a11.974 11.974 0 016.472-2.448c.456-1.494.809-3.132 1.182-4.833-1.411 2.531-3.049 3.859-4.751 3.8-1.867-.145-2.157-1.784-.892-6.016 1.12-3.651.456-4.834.456-4.834s1.639-.892 2.821-.228c1.265.747.747 2.966 0 5.062-.892 2.531-1.784 4.688-.975 4.688 1.037 0 2.9-2.386 4.087-5.808l.228-1.037a6.236 6.236 0 000-2.593.42.42 0 01.29-.083c2.157-.809 3.485.145 2.157 5.124-.685 2.298-1.348 4.601-2.178 6.758zm-3.112 2.365a8.44 8.44 0 00-4.917 1.929c-2.53 2.158-3.13 6.39-1.12 7.51 1.722.83 3.942-2.966 6.037-9.439z"/><path d="M31.306 14.896a7.9 7.9 0 000 2.593 4.083 4.083 0 01-2.386.228c-.975-.456-.664-2.531-.083-5.269A96.913 96.913 0 0031.22.329V.246c3.34-.145 3.941.892 2.9 3.941-1.092 3.485-2.44 8.609-2.814 10.709zM42.414 9.872c-.456 1.7-2.9 3.941-6.472 5.58 0 1.037.29 1.784.809 1.929.975.228 2.074-.6 3.195-1.867 0-.083.975-.228.456.373-1.265 1.411-2.821 2.821-4.917 2.531-1.784-.29-3.195-2.531-2.24-6.182 1.182-4.543 5.871-5.954 7.593-4.751a2.866 2.866 0 011.576 2.387zm-6.472 4.833a17.83 17.83 0 003.651-4.605c.664-1.265.747-1.929.519-2.012-.975-.456-2.821 1.411-3.568 4.17a16.717 16.717 0 00-.603 2.448z"/><path d="M45.98 1.656a6.837 6.837 0 00-2.676 3.34 1.424 1.424 0 01-1.182-2.074c.456-1.182 2.9-2.593 6.846-2.9 4.688-.29 6.991 3.132 6.016 6.472-.975 3.195-4.315 5.954-8.775 6.7-.145.747-.29 1.411-.373 1.929a7.683 7.683 0 000 2.593s-.29.083-.664.228c-1.867.456-2.676-.892-2.3-2.966.059-.689 1.986-8.655 3.108-13.322zm.373 10.7a8.941 8.941 0 005.125-5.573c.809-2.966.373-5.871-3.941-5.58a6.6 6.6 0 00-1.348.373l.747.083c1.348.29 1.929.975 1.348 3.195a106.2 106.2 0 00-1.926 7.506zM54.573 12.423c.456-1.7 1.411-4.979 1.411-4.979 2.3-.228 3.195.892 2.3 3.049a21.729 21.729 0 00-1.265 4.377 5.705 5.705 0 000 2.531 2.646 2.646 0 01-2.386.228c-1.18-.518-.887-2.447-.06-5.206zm3.195-5.5a1.754 1.754 0 01-1.265-2.157 1.774 1.774 0 012.3-1.037 1.825 1.825 0 011.348 2.157 1.97 1.97 0 01-2.383 1.04zM65.683 11.095c2.759-2.24 3.713-4.46 3.423-6.1a1.142 1.142 0 01-.083-.29.786.786 0 01.228-.145c1.182-.747 3.278-.456 2.593 1.867-.6 2.157-2.531 4.377-5.5 6.244a18.1 18.1 0 002.9 4.979l-.145.145c-1.12.975-2.9.456-4.087-1.556-.373-.6-.747-1.265-1.12-2.012a5.81 5.81 0 00-2.012 4.024.339.339 0 01-.228.083c-1.929.747-2.9.145-2.676-.892a5.722 5.722 0 013.132-3.8c.373-.228.809-.456 1.182-.664a33.962 33.962 0 00-2.383-5.12 3.338 3.338 0 00-.954-.747.339.339 0 01.228-.083c1.867-.809 3.34-.747 4.377 1.556a15.553 15.553 0 011.125 2.511zM40.727 29.245h-2.656l-.145 1.263h-1.535l.29-2.469h.539a4.824 4.824 0 00.415-1.2c.124-.581.27-1.431.415-2.531h4.19l-.456 3.734h.622l-.29 2.469h-1.535zm-.726-1.182l.311-2.531h-.768a19.637 19.637 0 01-.5 2.531zM43.05 24.473a1.915 1.915 0 011-.29.9.9 0 01.726.249 1.009 1.009 0 01.124.768l-.166 1.39h.041l1.784-2.282h1.556l-.456 3.713a2.371 2.371 0 00.041 1.058 1.915 1.915 0 01-1 .29.932.932 0 01-.726-.249.989.989 0 01-.1-.788l.166-1.473h-.041l-1.826 2.386h-1.517l.456-3.713a3 3 0 00-.062-1.059zM49.709 26.383h.809a.934.934 0 00.477-.083.418.418 0 00.207-.353.475.475 0 00-.062-.353c-.083-.1-.27-.145-.539-.166a1.532 1.532 0 00-.581.1.389.389 0 00-.207.415.887.887 0 01-.581.187.541.541 0 01-.456-.166.575.575 0 01-.124-.477 1.307 1.307 0 01.954-1.1 3.97 3.97 0 011.411-.207 3.181 3.181 0 011.411.249.858.858 0 01.56.934 1.494 1.494 0 01-.228.664.9.9 0 01-.539.415v.021a.77.77 0 01.539.394 1.421 1.421 0 01.124.747 1.68 1.68 0 01-.788 1.286 3.292 3.292 0 01-1.846.456 3.23 3.23 0 01-1.556-.311.773.773 0 01-.436-.622 1.25 1.25 0 01.124-.5.746.746 0 01.332-.373 2.681 2.681 0 00.6.394 2.446 2.446 0 00.954.187c.5.021.747-.145.809-.456a.356.356 0 00-.041-.27.529.529 0 00-.394-.1h-1.037zM58.048 24.307h.685l-.6 4.937h-.954c-.062 0-.124-.021-.207-.021a.331.331 0 01-.207-.1.452.452 0 01-.145-.187 1.849 1.849 0 01-.539.27 2.328 2.328 0 01-.975.145 1.618 1.618 0 01-1.431-.768 2.866 2.866 0 01-.228-1.888 3.307 3.307 0 01.664-1.7 2.157 2.157 0 011.618-.768 1.887 1.887 0 011.411.477 1.086 1.086 0 01.908-.397zm-2.718 2.116c-.021.187-.062.436-.1.788a1.227 1.227 0 00.062.726.558.558 0 00.519.207.942.942 0 00.539-.124.63.63 0 00.228-.5c.021-.166.042-.394.083-.705s.062-.539.083-.705c.021-.249 0-.394-.1-.5a.8.8 0 00-.5-.124.711.711 0 00-.581.207 1.25 1.25 0 00-.232.73zM59.314 24.473a1.915 1.915 0 011-.29.9.9 0 01.726.249.936.936 0 01.1.768l-.166 1.39h.042l1.784-2.282h1.556l-.456 3.713a2.8 2.8 0 00.021 1.058 1.915 1.915 0 01-1 .29.932.932 0 01-.726-.249 1.067 1.067 0 01-.124-.788l.187-1.473h-.041l-1.826 2.386h-1.513l.456-3.713a2.154 2.154 0 00-.02-1.059zm2.22-2.427a.773.773 0 00.954.664 1.139 1.139 0 00.85-.581l.664.29a2.387 2.387 0 01-.685 1 2.053 2.053 0 01-1.058.477 1.917 1.917 0 01-1.182-.166.846.846 0 01-.477-.747.884.884 0 01.249-.685.74.74 0 01.684-.252zM65.164 25.552a2.776 2.776 0 00-.021-1.058 1.915 1.915 0 011-.29.883.883 0 01.705.249 1.067 1.067 0 01.124.788c-.042.249-.083.6-.145 1.1h1.328l.249-2.012h1.763l-.477 3.713a2.323 2.323 0 00.041 1.058 1.808 1.808 0 01-1 .29.8.8 0 01-.705-.27 1.009 1.009 0 01-.124-.768c.021-.124.041-.249.062-.415a3.663 3.663 0 00.041-.394h-1.328l-.207 1.722h-1.762z"/></svg><svg viewBox="0 0 17.335 19.812" id="tiktok" xmlns="http://www.w3.org/2000/svg"><g clip-path="url(#clip-path)"><path d="M16.313 8.062a8.131 8.131 0 01-2.713-.836.7.7 0 00-1.017.621v5.675a6.3 6.3 0 01-7.613 6.155 6.758 6.758 0 01-4.836-4.839 6.3 6.3 0 016.16-7.609h.083a.788.788 0 01.778.787v1.832a.787.787 0 01-.812.786 2.889 2.889 0 102.834 2.888V.851A.851.851 0 0110.029 0h1.763a.854.854 0 01.843.732q.009.063.021.126a4.729 4.729 0 002.087 3.1 4.7 4.7 0 001.83.717.908.908 0 01.763.895v1.593a.908.908 0 01-1.022.9"/></g></svg><svg viewBox="0 0 15.997 19.956" id="user" xmlns="http://www.w3.org/2000/svg"><g clip-path="url(#clip-path)"><path d="M6.676 19.92H6.248a2.162 2.162 0 01-.4-.047 15.432 15.432 0 01-2.333-.338l-.256-.054a3.959 3.959 0 01-2.975-1.9A2.924 2.924 0 010 16.319a2.879 2.879 0 01.287-1.263 4.332 4.332 0 013.2-1.948 16.776 16.776 0 012.339-.331 24.928 24.928 0 014.34 0l.461.039a17.194 17.194 0 011.873.292c1.727.355 2.749.979 3.215 1.962a2.911 2.911 0 010 2.5c-.464.978-1.512 1.616-3.2 1.949l-.468.1a15.849 15.849 0 01-1.88.245 25.51 25.51 0 01-3.491.056m-.734-5.7a15.519 15.519 0 00-2.156.3 3.209 3.209 0 00-2.205 1.168 1.419 1.419 0 00-.14.624 1.445 1.445 0 00.139.627c.255.527 1.025.93 2.228 1.165l.353.075a15.555 15.555 0 001.874.249 1.741 1.741 0 00.287.033l.393.006a24.38 24.38 0 003.347-.052 14.335 14.335 0 002.162-.315l.225-.048a2.769 2.769 0 001.973-1.108 1.462 1.462 0 000-1.259c-.245-.516-1.008-.92-2.209-1.167a15.6 15.6 0 00-2.152-.3h-.013c-.675-.059-1.361-.089-2.038-.089s-1.382.022-2.067.086zm-3.25-8.929A5.313 5.313 0 118 10.626a5.313 5.313 0 01-5.308-5.335m1.442 0A3.871 3.871 0 108 1.4a3.871 3.871 0 00-3.866 3.891"/></g></svg><svg viewBox="0 0 18 18" id="value-1" xmlns="http://www.w3.org/2000/svg"><g clip-path="url(#clip-path)"><path d="M10 10V2a8 8 0 11-8 8z" fill="#fedc01"/><path d="M8 8H0a8 8 0 018-8z" fill="#3c966d"/></g></svg><svg viewBox="0 0 18 18" id="value-2" xmlns="http://www.w3.org/2000/svg"><g clip-path="url(#clip-path)"><path d="M3.017 16.574c-.074-.019-.149-.036-.223-.056a2.33 2.33 0 01-1.076-.63A2.806 2.806 0 01.9 13.97a3.115 3.115 0 01.089-.829 3.721 3.721 0 01.352-.91 4.706 4.706 0 01.959-1.216 5.653 5.653 0 01.944-.7 7.006 7.006 0 00.895-.644c.355-.3.687-.622 1.015-.949.29-.289.577-.581.88-.856a6.354 6.354 0 01.719-.579 2.972 2.972 0 011.04-.47 2.323 2.323 0 01.86-.027 3.712 3.712 0 01.944.272 2.8 2.8 0 011.141.921 5.111 5.111 0 01.512.9c.154.332.289.673.431 1.01a11.916 11.916 0 00.525 1.12 7.013 7.013 0 00.682 1.025 6.005 6.005 0 01.783 1.26 4.648 4.648 0 01.37 1.215 3.615 3.615 0 01.019.99 2.827 2.827 0 01-.537 1.373 2.756 2.756 0 01-1.069.858 2.8 2.8 0 01-.986.264 2.53 2.53 0 01-.368 0h-.05c-.017.006-.034 0-.05 0s-.028-.009-.042 0l-.309-.055c-.011-.011-.026-.007-.039-.011l-.035-.006-.03-.005a4.089 4.089 0 01-.753-.259c-.414-.177-.815-.385-1.225-.57a8.1 8.1 0 00-1.02-.388 5.045 5.045 0 00-.739-.154 3.944 3.944 0 00-.6-.031c-.4.005-.792.042-1.187.079a11.719 11.719 0 01-1.256.074 3.043 3.043 0 01-.51-.04c-.034-.006-.07-.008-.105-.014a.83.83 0 01-.131-.029M13.276 1.1a1.861 1.861 0 011.164 1.024 2.848 2.848 0 01.269 1.1 3.75 3.75 0 01-.079.978 4.264 4.264 0 01-.717 1.627 3.6 3.6 0 01-.88.874 2.588 2.588 0 01-1.009.432 1.855 1.855 0 01-.773-.014 1.772 1.772 0 01-1.058-.72 2.5 2.5 0 01-.421-1.048 3.418 3.418 0 01-.04-.8A3.865 3.865 0 019.8 4a4.308 4.308 0 01.447-1.2 3.94 3.94 0 01.853-1.065 2.942 2.942 0 01.982-.584 2.144 2.144 0 01.833-.118 1.492 1.492 0 01.364.064M.1 5.491a2.382 2.382 0 01.172-.486 2.118 2.118 0 01.6-.78 1.641 1.641 0 011.008-.37 1.793 1.793 0 01.864.209 2.466 2.466 0 01.792.657A3.345 3.345 0 014.2 6.152a3.521 3.521 0 01.076.839 3.271 3.271 0 01-.04.409 2.859 2.859 0 01-.217.742 2.154 2.154 0 01-.611.81 1.638 1.638 0 01-1.071.372A1.8 1.8 0 011.51 9.1a2.554 2.554 0 01-.86-.765 3.3 3.3 0 01-.5-1.015A3.5 3.5 0 010 6.221c0-.066.005-.133.008-.2 0-.031.006-.06 0-.091a.165.165 0 010-.037c0-.016.011-.031 0-.049l.042-.237c.019-.019.015-.044.021-.067s0-.036.016-.05M4.411 2.4a3.65 3.65 0 01.456-1.263 2.578 2.578 0 01.654-.749A1.819 1.819 0 016.5.005a1.747 1.747 0 011.02.24 2.34 2.34 0 01.7.632 3.412 3.412 0 01.6 1.366 4.08 4.08 0 01.087.959 4.389 4.389 0 01-.049.547 3.818 3.818 0 01-.168.672 3.015 3.015 0 01-.749 1.2 2.011 2.011 0 01-.756.467 1.684 1.684 0 01-.976.034 1.934 1.934 0 01-.788-.422 2.818 2.818 0 01-.7-.937 3.818 3.818 0 01-.352-1.343 4.268 4.268 0 01.008-.77 2.445 2.445 0 01.034-.25m13.22 6.469c0 .018-.006.036-.009.055a3.351 3.351 0 01-.565 1.228 3.483 3.483 0 01-.746.763 2.866 2.866 0 01-1.235.55 2.039 2.039 0 01-.819-.017 1.665 1.665 0 01-.977-.633 1.932 1.932 0 01-.364-.917 2.6 2.6 0 01.035-.9 3.47 3.47 0 01.9-1.694 3.269 3.269 0 01.505-.437A2.816 2.816 0 0115.6 6.36a2 2 0 01.773.039 1.661 1.661 0 01.945.633 1.967 1.967 0 01.366.983 2.36 2.36 0 01-.009.594c0 .018-.006.036-.009.055a3.497 3.497 0 00-.036.2" fill="#494949"/></g></svg><svg viewBox="0 0 22 18.818" id="youtube" xmlns="http://www.w3.org/2000/svg"><path d="M3.536 18.346a56.359 56.359 0 007.464.472 56.359 56.359 0 007.464-.471A4.069 4.069 0 0022 14.3V4.518A4.1 4.1 0 0018.464.472 56.793 56.793 0 0011 0a50.635 50.635 0 00-7.464.511A4.064 4.064 0 000 4.518V14.3a4.073 4.073 0 003.536 4.046zm4.95-10.725a1.363 1.363 0 012.082-1.139l3.064 1.964a1.138 1.138 0 010 1.925l-3.064 1.964A1.351 1.351 0 018.486 11.2V7.621z"/></svg><svg viewBox="0 0 21.104 15.833" id="youtube-icon" xmlns="http://www.w3.org/2000/svg"><g clip-path="url(#clip-path)"><path d="M20.893 3.417a5.075 5.075 0 00-.838-2.236A2.911 2.911 0 0017.94.229C14.987 0 10.557 0 10.557 0h-.01s-4.43 0-7.383.229a2.912 2.912 0 00-2.114.952 5.083 5.083 0 00-.839 2.236A36.263 36.263 0 000 7.06v1.707a36.25 36.25 0 00.211 3.644 5.064 5.064 0 00.838 2.234 3.451 3.451 0 002.327.963c1.688.173 7.176.226 7.176.226s4.435-.008 7.388-.234a2.924 2.924 0 002.114-.954 5.073 5.073 0 00.838-2.234 36.267 36.267 0 00.208-3.644V7.06a36.267 36.267 0 00-.211-3.644" fill="#e02f2f"/><path d="M7.917 3.958v7.917l6.6-3.958z" fill="#fff"/></g></svg><svg viewBox="0 0 22 22" id="zoom-minus" xmlns="http://www.w3.org/2000/svg"><g transform="translate(4197 12938)"><circle cx="8" cy="8" r="8" transform="translate(-4195 -12937)" fill="#fff"/><g clip-path="url(#clip-path)" transform="translate(-4197 -12938)"><path d="M6 9a1 1 0 011-1h4a1 1 0 010 2H7a1 1 0 01-1-1M0 9a9 9 0 1116.032 5.618l5.675 5.675a1 1 0 01-1.414 1.414l-5.675-5.675A9 9 0 010 9m9-7a7 7 0 107 7 7 7 0 00-7-7" fill="#f04137" fill-rule="evenodd"/></g></g></svg><svg viewBox="0 0 22 22" id="zoom-plus" xmlns="http://www.w3.org/2000/svg"><g transform="translate(-591 -54)"><circle cx="8" cy="8" r="8" transform="translate(592 55)" fill="#fff"/><g clip-path="url(#clip-path)" transform="translate(591 54)"><path d="M9 6a1 1 0 011 1v1h1a1 1 0 010 2h-1v1a1 1 0 01-2 0v-1H7a1 1 0 010-2h1V7a1 1 0 011-1M0 9a9 9 0 1116.032 5.618l5.675 5.675a1 1 0 01-1.414 1.414l-5.675-5.675A9 9 0 010 9m9-7a7 7 0 107 7 7 7 0 00-7-7" fill="#f04137" fill-rule="evenodd"/></g></g></svg></svg>