<svg id="age-1" xmlns="http://www.w3.org/2000/svg" width="32" height="32" viewBox="0 0 32 32">
  <g transform="translate(0.492 0.9)">
    <rect width="32" height="32" transform="translate(-0.492 -0.9)" fill="none"/>
    <path d="M0,3A1,1,0,0,1-1,2V0A1,1,0,0,1,0-1,1,1,0,0,1,1,0V2A1,1,0,0,1,0,3Z" transform="translate(15.508 8.1)" fill="#00B6CB"/>
    <path d="M109.243,15.763a1,1,0,0,1-.316-.051c-1.873-.624-2.952-1.624-3.206-2.971-.492-2.61,2.535-5.22,2.882-5.509a1,1,0,0,1,1.295.012A11.672,11.672,0,0,1,111.415,8.9a4.982,4.982,0,0,1,1.25,3.87c-.256,1.33-1.3,2.319-3.095,2.942A1,1,0,0,1,109.243,15.763Zm-.013-6.373c-.8.841-1.712,2.1-1.544,2.982.119.625.851,1.054,1.55,1.327.873-.353,1.365-.793,1.464-1.31C110.873,11.492,110,10.234,109.23,9.389Z" transform="translate(-93.939 -7.188)" fill="#00B6CB"/>
    <path d="M98.106,131.106A5.112,5.112,0,0,1,93,126a1,1,0,0,1,2,0,3.106,3.106,0,1,0,6.212,0,1,1,0,0,1,2,0A5.112,5.112,0,0,1,98.106,131.106Z" transform="translate(-82.802 -110.938)" fill="#00B6CB"/>
    <path d="M30.1,97.7a5.016,5.016,0,0,1-3.53-1.455A5.262,5.262,0,0,1,25,92.5V90.9A3.886,3.886,0,0,1,28.9,87H47.737a3.886,3.886,0,0,1,3.9,3.9v1.6a5.261,5.261,0,0,1-1.574,3.736,5.016,5.016,0,0,1-3.638,1.454,5.106,5.106,0,0,1-5-5.106,1,1,0,0,1,1-1h0a1,1,0,0,1,1,1A3.123,3.123,0,0,0,46.466,95.7a3.032,3.032,0,0,0,2.2-.884,3.25,3.25,0,0,0,.973-2.307V90.9A1.886,1.886,0,0,0,47.742,89H28.9A1.886,1.886,0,0,0,27,90.894V92.5a3.25,3.25,0,0,0,.973,2.307,3.032,3.032,0,0,0,2.2.884,3.123,3.123,0,0,0,3.043-3.106,1,1,0,0,1,2,0,5.106,5.106,0,0,1-5,5.106Z" transform="translate(-23.014 -77.527)" fill="#00B6CB"/>
    <path d="M60.288,161.872H40.966A1.968,1.968,0,0,1,39,159.906V153.3a1,1,0,0,1,2,0v6.572H60.255V153.3a1,1,0,0,1,2,0v6.606A1.968,1.968,0,0,1,60.288,161.872Z" transform="translate(-35.324 -134.941)" fill="#00B6CB"/>
  </g>
</svg>
