<svg width="178" height="104" viewBox="0 0 178 104" fill="none" xmlns="http://www.w3.org/2000/svg">
<path d="M84.8648 94.9286C83.7604 95.4815 82.7431 96.063 81.6945 96.5873C77.2932 98.7853 72.6303 100.158 67.8245 101.114C65.5558 101.565 63.2897 102.032 60.9842 102.261C58.4839 102.507 55.9755 102.538 53.4698 102.416C49.9482 102.243 46.432 102 42.9621 101.315C40.4795 100.825 38.061 100.12 35.7269 99.138C34.9642 98.8179 34.2153 98.4639 33.4717 98.1016C33.153 97.9464 32.8426 97.9587 32.5157 98.0131C29.6777 98.4829 26.837 98.5469 23.9963 98.0499C22.2954 97.7517 20.664 97.2124 19.1306 96.4253C17.0538 95.3576 15.5531 93.6989 14.5372 91.6167C14.2962 91.121 13.9217 90.9889 13.4818 90.8419C11.7046 90.2522 9.98061 89.5373 8.37504 88.5595C5.98916 87.1078 4.23108 85.0515 2.66636 82.7705C1.25281 80.7087 0.740774 78.3895 0.413942 75.99C-0.00277007 72.9314 0.543313 70.0744 2.31774 67.5196C3.84432 65.319 5.9987 63.9258 8.49216 63.0638C11.5167 62.0193 14.5045 62.0261 17.3575 63.6548C19.4152 64.8287 20.8315 66.6086 21.9549 68.6526C22.0503 68.8256 22.0639 69.1306 22.324 69.1116C22.5664 69.0952 22.5705 68.7943 22.6563 68.6172C24.0439 65.7602 25.5528 62.978 27.5342 60.4791C29.6314 57.8345 32.129 55.6147 34.8335 53.6156C37.0383 51.9855 39.3955 50.6074 41.8563 49.4022C44.7611 47.9805 47.8592 47.1552 50.994 46.4389C54.0281 45.7444 57.1017 45.3059 60.1998 45.0785C63.3306 44.8483 66.4668 44.7121 69.6071 44.9831C71.6226 45.1575 73.6558 45.118 75.6563 45.4666C78.2369 45.916 80.8284 46.3204 83.3927 46.8515C88.0283 47.8116 92.7006 48.1575 97.4165 47.8075C100.283 47.5937 103.014 46.7943 105.649 45.66C109.392 44.0476 112.895 42.009 116.196 39.6313C118.798 37.7574 121.335 35.791 123.924 33.8994C126.827 31.7777 129.812 29.7827 132.917 27.9606C135.032 26.72 137.226 25.6455 139.432 24.5861C142.349 23.1848 145.436 22.3255 148.59 21.6759C152.372 20.8969 156.199 20.6246 160.04 20.9637C163.824 21.2959 167.528 22.0245 170.904 23.9011C172.318 24.6882 173.665 25.5666 174.846 26.7009C176.441 28.233 177.169 30.1395 177.281 32.2721C177.417 34.8295 176.77 37.2236 175.208 39.2758C174.022 40.8351 172.524 42.0158 170.534 42.4733C168.629 42.9132 167.011 42.4638 165.579 41.151C164.858 40.4919 164.129 39.826 163.242 39.3752C162.97 39.2377 162.708 39.0838 162.395 39.0375C161.797 38.949 161.623 39.141 161.773 39.7456C161.918 40.3339 162.274 40.8296 162.498 41.3825C162.598 41.6236 162.783 41.8551 162.579 42.1356C162.35 42.4488 162.027 42.4025 161.733 42.3331C160.791 42.1097 159.915 41.6958 159.046 41.2845C157.457 40.53 155.768 40.1637 154.043 39.9445C152.382 39.7348 150.772 40.1678 149.19 40.5546C146.172 41.2899 143.409 42.679 140.723 44.2015C137.586 45.9813 134.591 47.9982 131.749 50.2111C127.9 53.2071 124.203 56.3937 120.912 60.0038C118.966 62.1378 117.231 64.4569 115.452 66.7339C114.363 68.1311 113.276 69.531 112.154 70.9023C111.819 71.3109 111.784 71.6214 112.061 72.0803C113.528 74.5016 114.669 77.0672 115.132 79.8753C115.979 85.0093 115.357 89.8968 112.459 94.3431C110.875 96.7725 108.695 98.325 105.774 98.7335C105.698 98.743 105.616 98.7703 105.545 98.7526C104.51 98.5102 103.935 99.1094 103.362 99.8461C101.55 102.178 99.0984 103.543 96.225 103.914C93.0874 104.318 90.3488 103.312 88.0923 100.985C86.4322 99.2714 85.3891 97.2791 84.8648 94.9286Z" fill="#A8DFF8"/>
<path d="M64.7042 21.2887C63.8844 20.7671 63.051 20.2619 62.2462 19.7145C61.4877 19.197 60.6869 18.7312 60.1095 17.9768C58.7831 16.2378 59.6778 13.8819 60.7959 12.6876C61.9207 11.4837 63.3533 10.939 64.9507 10.7756C67.5681 10.5087 69.973 11.2658 72.3194 12.3199C74.1565 13.1451 75.6518 14.4525 77.1307 15.7611C79.6391 17.9795 81.799 20.507 83.5911 23.3464C85.1258 25.7786 86.1485 28.3946 86.5271 31.2476C86.6756 32.3602 86.7409 33.4973 86.5013 34.5894C86.0709 36.5532 84.7649 37.5268 82.616 37.8128C79.8665 38.1778 77.3036 37.4601 74.8143 36.3611C72.9527 35.54 71.2041 34.5213 69.5917 33.2984C68.5037 32.4732 67.4333 30.9425 67.9998 29.2689C68.136 28.8631 68.0652 28.7677 67.6226 28.7037C66.4868 28.5403 65.3334 28.4137 64.2725 27.918C63.002 27.3242 62.2625 26.2961 62.0937 24.9411C61.8989 23.3723 62.6193 22.3278 64.1976 21.6033C64.3624 21.527 64.5858 21.5406 64.7042 21.2887Z" fill="#A8DFF8"/>
<path d="M87.321 25.6505C87.1766 22.3141 87.1984 19.7253 88.1735 17.2795C88.9116 15.4288 89.9915 13.8178 91.9565 12.9966C93.0705 12.5309 94.1804 12.5173 95.2766 12.9204C96.1741 13.2499 96.5962 14.0071 96.6697 14.9427C96.7801 16.3549 96.2408 17.5859 95.5204 18.7448C95.1473 19.3454 94.7292 19.9255 94.1776 20.3858C93.8889 20.6268 93.9312 20.8216 94.1667 21.1021C94.992 22.084 95.4945 23.1761 95.165 24.5066C94.9743 25.2719 94.5521 25.9134 94.0632 26.5057C93.7351 26.9034 93.6384 27.2901 93.829 27.779C94.1613 28.6274 94.2907 29.5303 94.416 30.425C94.6189 31.859 94.4051 33.2439 93.5948 34.4655C93.0188 35.3357 92.3556 35.4773 91.3887 35.0524C90.1304 34.4995 89.3841 33.4509 88.8462 32.258C87.7949 29.9252 87.404 27.4413 87.321 25.6505Z" fill="#A8DFF8"/>
<path d="M157.279 11.1121C157.313 12.0354 157.227 12.8184 157.029 13.5892C156.916 14.0277 156.728 14.4172 156.326 14.6773C155.438 15.2519 154.605 14.9551 154.294 13.9405C154.144 13.453 154.154 12.9505 154.163 12.448C154.208 10.2187 153.284 8.47833 151.662 6.96401C149.867 5.28763 147.738 4.27445 145.502 3.41651C145.106 3.26535 144.794 3.01342 144.51 2.74106C144.017 2.26851 144.093 1.50863 144.648 0.997951C145.664 0.0637545 146.914 -0.0492752 148.18 0.144101C152.803 0.852238 155.477 3.727 156.798 8.04937C157.116 9.08434 157.331 10.1438 157.279 11.1121Z" fill="#A8DFF8"/>
<path d="M144.81 12.771C143.356 12.726 142.05 13.1032 140.722 13.3102C139.898 13.4396 139.069 13.4478 138.252 13.3198C137.664 13.2272 137.058 13.0188 136.853 12.3597C136.61 11.5658 137.022 10.9189 137.51 10.3674C138.518 9.22619 139.896 8.77271 141.338 8.53167C143.793 8.12177 146.182 8.34238 148.38 9.59251C150.038 10.5362 151.355 11.8395 152.043 13.6657C152.362 14.5086 152.028 15.2004 151.167 15.6716C150.507 16.0311 149.853 15.8609 149.296 15.1718C149.031 14.8423 148.794 14.4896 148.523 14.1668C147.522 12.978 146.184 12.6906 144.81 12.771Z" fill="#A8DFF8"/>
<path d="M165.595 17.1135C165.559 17.8665 165.41 18.7095 164.919 19.4626C164.445 20.1911 163.725 20.3559 162.987 19.8915C162.517 19.596 162.137 19.1848 161.933 18.6904C161.311 17.1884 161.172 15.6196 161.942 14.157C162.832 12.4724 163.736 12.5746 164.677 13.9323C165.192 14.6717 165.589 15.975 165.595 17.1135Z" fill="#A8DFF8"/>
<path d="M170.355 17.1994C170.37 17.7182 170.377 18.2398 170.225 18.7409C170.048 19.3279 169.688 19.8263 169.072 19.9094C168.462 19.9911 167.978 19.6247 167.658 19.095C166.713 17.5303 166.983 15.6469 167.905 14.1816C168.303 13.5511 169.045 13.5606 169.565 14.1476C170.148 14.804 170.279 15.6197 170.351 16.449C170.373 16.6982 170.353 16.9488 170.355 17.1994Z" fill="#A8DFF8"/>
</svg>
