<svg xmlns="http://www.w3.org/2000/svg" xmlns:xlink="http://www.w3.org/1999/xlink" width="1089" height="241.779" viewBox="0 0 1089 241.779">
  <defs>
    <clipPath id="clip-path">
      <rect id="Rectangle_171" data-name="Rectangle 171" width="60.557" height="59.215" fill="#a8dff8"/>
    </clipPath>
    <linearGradient id="linear-gradient" x1="0.601" y1="0.703" x2="0.094" y2="2.19" gradientUnits="objectBoundingBox">
      <stop offset="0" stop-color="#bce6fa"/>
      <stop offset="1" stop-color="#ebf4ff"/>
    </linearGradient>
    <linearGradient id="linear-gradient-2" x1="0.601" y1="0.691" x2="0.094" y2="2.241" xlink:href="#linear-gradient"/>
    <linearGradient id="linear-gradient-3" x1="0.601" y1="0.704" x2="0.093" y2="2.168" xlink:href="#linear-gradient"/>
    <linearGradient id="linear-gradient-4" y1="0.5" x2="1" y2="0.5" gradientUnits="objectBoundingBox">
      <stop offset="0" stop-color="#ebf4ff"/>
      <stop offset="0.54" stop-color="#bce6fa"/>
      <stop offset="1" stop-color="#ebf4ff"/>
    </linearGradient>
    <linearGradient id="linear-gradient-5" y1="0.5" x2="1" y2="0.5" gradientUnits="objectBoundingBox">
      <stop offset="0" stop-color="#ebf4ff"/>
      <stop offset="0" stop-color="#bce6fa" stop-opacity="0.361"/>
      <stop offset="1" stop-color="#ebf4ff"/>
    </linearGradient>
    <clipPath id="clip-path-2">
      <rect id="Rectangle_172" data-name="Rectangle 172" width="34.147" height="42.056" fill="#a8dff8"/>
    </clipPath>
  </defs>
  <g id="Layer_1" data-name="Layer 1" transform="translate(7.301 39.881)" opacity="0.7">
    <g id="Group_384" data-name="Group 384" transform="translate(83.644 138.609)">
      <g id="Group_384-2" data-name="Group 384" clip-path="url(#clip-path)">
        <path id="Path_393" data-name="Path 393" d="M62.974,13.137a1.253,1.253,0,0,0-.145-1.765,8.126,8.126,0,0,0-9.717-.159,1.254,1.254,0,0,0,1.421,2.067,5.667,5.667,0,0,1,6.673,0,1.252,1.252,0,0,0,1.767-.144h0" transform="translate(-19.396 -3.573)" fill="#a8dff8"/>
        <path id="Path_394" data-name="Path 394" d="M66.662,7.078a1.251,1.251,0,0,0-.034-1.657C63.7,2.232,59.316,1,55.728,2.348A1.254,1.254,0,1,0,56.611,4.7c2.6-.979,5.96.016,8.17,2.422a1.255,1.255,0,0,0,1.772.074,1.158,1.158,0,0,0,.109-.114" transform="translate(-20.262 -0.667)" fill="#a8dff8"/>
        <path id="Path_395" data-name="Path 395" d="M61.106,18.95a1.284,1.284,0,0,0,.19-.3,1.255,1.255,0,0,0-.641-1.654,5.518,5.518,0,0,0-6.529,1.645,1.254,1.254,0,1,0,1.846,1.7,3.124,3.124,0,0,1,3.669-1.046,1.254,1.254,0,0,0,1.463-.336" transform="translate(-19.849 -6.094)" fill="#a8dff8"/>
        <path id="Path_396" data-name="Path 396" d="M53.606,6.035c-5.672.156-9.584,7.182-17.668,20.224C30.769,34.593,12.288,25.77,3.19,38.615-1.444,45.156-1.2,61.44,5.036,61.44a3.8,3.8,0,0,0,3.752-3.193c.772-2.3.365-4.99,3.254-4.913,2.171.059,2.948,2.149,3.253,3.97.369,2.2,1.284,4.136,3.758,4.136,5.567,0,3.444-8.648,6.7-8.648,5.452,0,.393,8.648,6.368,8.648,4.144,0,4.578-4.15,5.31-7.018.68-2.661,4.21-2.842,4.21.815,0,4.043-.016,6.2,3.312,6.2,5.2,0,5.547-11.665,5.378-16.158-.394-10.461-3.653-14.373,1.43-22.989,1.636-2.77,4.636-2.971,6.39-5.423,1.018-1.424-.367-2.6.44-3.632,1.025-1.32,1.759-.589,1.943-2.64.344-3.849-4.527-4.629-6.934-4.563" transform="translate(0 -2.225)" fill="#a8dff8"/>
        <path id="Path_397" data-name="Path 397" d="M81.247,2.851a1.426,1.426,0,1,0-1.426-1.426,1.426,1.426,0,0,0,1.426,1.426" transform="translate(-29.451 0)" fill="#a8dff8"/>
        <path id="Path_398" data-name="Path 398" d="M90.393,3.7A1.426,1.426,0,1,0,88.966,2.27,1.425,1.425,0,0,0,90.393,3.7" transform="translate(-32.825 -0.311)" fill="#a8dff8"/>
      </g>
    </g>
    <g id="Group_381" data-name="Group 381" transform="translate(-7.301 -17.33)">
      <path id="Path_332" data-name="Path 332" d="M628.692,130.654H284.37a19.6,19.6,0,0,1,6.285-3.277C362.93,103.347,380.441,55.27,450.8,55.27c26.148,0,59.555,8.553,91.248,21.526,35.121,14.385,68.091,34.214,86.643,53.858Z" transform="translate(199.74 88.22)" fill-rule="evenodd" opacity="0.7" fill="url(#linear-gradient)"/>
      <path id="Path_333" data-name="Path 333" d="M768.115,126.123H462.41c38.011-17.157,59.706-40.566,89.449-53.858,14.116-6.3,30.063-10.335,50.43-10.335,49.607,0,125.428,30.786,165.826,64.193Z" transform="translate(320.885 92.752)" fill-rule="evenodd" opacity="0.26" fill="url(#linear-gradient-2)"/>
      <path id="Path_334" data-name="Path 334" d="M348.018,131.457H0c1.529-2.151,4.2-3.949,8.167-5.26C80.443,102.167,97.953,54.09,168.313,54.09c56.11,0,145.728,39.389,179.723,77.367Z" transform="translate(6.244 87.418)" fill-rule="evenodd" opacity="0.22" fill="url(#linear-gradient-3)"/>
      <g id="Group_362" data-name="Group 362" transform="translate(658.59 165.857)" opacity="0.81">
        <g id="Group_359" data-name="Group 359">
          <path id="Path_335" data-name="Path 335" d="M391.393,77.537a3.494,3.494,0,0,0,.588-2.571,5.172,5.172,0,0,1-.067-.891,5.478,5.478,0,1,1,10.956,0,5.289,5.289,0,0,1-.067.891,3.5,3.5,0,0,0,.588,2.571,7.357,7.357,0,0,1,1.311,4.184c0,.185,0,.353-.017.538a8.231,8.231,0,0,0,.907,4.42,9.209,9.209,0,1,1-16.367,0,8.232,8.232,0,0,0,.907-4.42c0-.168-.017-.353-.017-.538a7.276,7.276,0,0,1,1.311-4.184Z" transform="translate(-388.2 -68.58)" fill="#a0ddf8" fill-rule="evenodd"/>
          <g id="Group_358" data-name="Group 358" transform="translate(4.873 3.932)">
            <path id="Path_336" data-name="Path 336" d="M394.1,109.049a.033.033,0,0,1-.034-.034l-.437-38.062a.034.034,0,0,1,.067,0l.437,38.062a.033.033,0,0,1-.034.034Z" transform="translate(-389.378 -70.92)" fill="#44b3e6"/>
            <path id="Path_337" data-name="Path 337" d="M393.757,80.706h-.017v-.034l4.571-4.772h.034v.034l-4.571,4.772Z" transform="translate(-389.304 -67.531)" fill="#44b3e6"/>
            <path id="Path_338" data-name="Path 338" d="M395.688,86.086h-.017L391.1,81.314V81.28h.034l4.571,4.772v.034h-.017Z" transform="translate(-391.1 -63.871)" fill="#44b3e6"/>
            <path id="Path_339" data-name="Path 339" d="M395.156,76.441h-.017l-3.579-3.7V72.71h.034l3.579,3.7v.034h-.017Z" transform="translate(-390.787 -69.702)" fill="#44b3e6"/>
          </g>
        </g>
        <g id="Group_361" data-name="Group 361" transform="translate(10.049 10.99)">
          <path id="Path_340" data-name="Path 340" d="M396.8,82.783a3.474,3.474,0,0,0,.555-2.4,3.759,3.759,0,0,1-.034-.622,4.6,4.6,0,1,1,9.209,0,3.862,3.862,0,0,1-.034.622,3.473,3.473,0,0,0,.555,2.4,6.089,6.089,0,0,1,1.025,3.411v.286a8.19,8.19,0,0,0,.84,4.033,7.764,7.764,0,1,1-13.948,0,8.581,8.581,0,0,0,.84-4.033v-.286a6.089,6.089,0,0,1,1.025-3.411Z" transform="translate(-394.18 -75.12)" fill="#bce6fa" fill-rule="evenodd"/>
          <g id="Group_360" data-name="Group 360" transform="translate(4.1 3.31)">
            <path id="Path_341" data-name="Path 341" d="M399.113,104.817a.033.033,0,0,1-.034-.034l-.319-27.66a.034.034,0,1,1,.067,0l.319,27.66a.033.033,0,0,1-.034.034Z" transform="translate(-395.164 -77.09)" fill="#44b3e6"/>
            <path id="Path_342" data-name="Path 342" d="M398.857,85.347h-.017v-.034l3.848-4.033h.034v.034l-3.848,4.033h-.017Z" transform="translate(-395.109 -74.239)" fill="#44b3e6"/>
            <path id="Path_343" data-name="Path 343" d="M400.485,89.877h-.017l-3.848-4.033V85.81h.034l3.848,4.033v.034Z" transform="translate(-396.62 -71.157)" fill="#44b3e6"/>
            <path id="Path_344" data-name="Path 344" d="M400.045,81.752h-.017l-3.008-3.109V78.61h.034l3.008,3.109v.034h-.017Z" transform="translate(-396.348 -76.056)" fill="#44b3e6"/>
          </g>
        </g>
      </g>
      <g id="Group_365" data-name="Group 365" transform="translate(469.574 173.285)" opacity="0.23">
        <g id="Group_364" data-name="Group 364">
          <path id="Path_345" data-name="Path 345" d="M278.913,81.957a3.5,3.5,0,0,0,.588-2.571,5.166,5.166,0,0,1-.067-.891,5.478,5.478,0,1,1,10.957,0,5.3,5.3,0,0,1-.067.891,3.5,3.5,0,0,0,.588,2.571,7.357,7.357,0,0,1,1.311,4.184c0,.185,0,.353-.017.538a8.23,8.23,0,0,0,.907,4.42,9.209,9.209,0,1,1-16.368,0,8.231,8.231,0,0,0,.907-4.42c0-.168-.017-.353-.017-.538a7.277,7.277,0,0,1,1.311-4.184Z" transform="translate(-275.72 -73)" fill="#a0ddf8" fill-rule="evenodd"/>
          <g id="Group_363" data-name="Group 363" transform="translate(4.856 3.915)">
            <path id="Path_346" data-name="Path 346" d="M281.62,113.459a.033.033,0,0,1-.034-.034l-.437-38.062a.034.034,0,1,1,.067,0l.437,38.062a.033.033,0,0,1-.034.034Z" transform="translate(-276.882 -75.33)" fill="#44b3e6"/>
            <path id="Path_347" data-name="Path 347" d="M281.267,85.116h-.017v-.034l4.571-4.772h.034v.034l-4.571,4.772h-.017Z" transform="translate(-276.814 -71.941)" fill="#44b3e6"/>
            <path id="Path_348" data-name="Path 348" d="M283.2,90.5h-.017l-4.571-4.772V85.69h.034l4.571,4.772V90.5H283.2Z" transform="translate(-278.61 -68.281)" fill="#44b3e6"/>
            <path id="Path_349" data-name="Path 349" d="M282.666,80.861h-.017l-3.579-3.7V77.13h.034l3.579,3.7v.034Z" transform="translate(-278.297 -74.105)" fill="#44b3e6"/>
          </g>
        </g>
      </g>
      <g id="Group_370" data-name="Group 370" transform="translate(289.743 141.507)" opacity="0.45">
        <g id="Group_367" data-name="Group 367" transform="translate(12.074)">
          <path id="Path_350" data-name="Path 350" d="M235.615,59.932a5.941,5.941,0,0,1-.986-4.315,9.428,9.428,0,0,0,.115-1.485,9.18,9.18,0,1,0-18.361,0,9.548,9.548,0,0,0,.115,1.485,5.927,5.927,0,0,1-.986,4.315,12.3,12.3,0,0,0-2.189,7.029c0,.294,0,.6.026.9a14.059,14.059,0,0,1-1.524,7.413,15.473,15.473,0,1,0,27.49,0,14.06,14.06,0,0,1-1.524-7.413c.026-.294.038-.589.038-.9a12.3,12.3,0,0,0-2.189-7.029Z" transform="translate(-210.11 -44.9)" fill="#a0ddf8" fill-rule="evenodd"/>
          <g id="Group_366" data-name="Group 366" transform="translate(7.493 6.62)">
            <path id="Path_351" data-name="Path 351" d="M221.638,114.038a.508.508,0,0,0,.051-.038l.717-63.878s-.026-.051-.038-.051a.057.057,0,0,0-.051.038l-.717,63.878s.026.051.038.051Z" transform="translate(-214.382 -50.07)" fill="#44b3e6"/>
            <path id="Path_352" data-name="Path 352" d="M223.693,69.08h.026a.058.058,0,0,0,0-.064L216.036,61s-.051-.013-.064,0a.058.058,0,0,0,0,.064l7.682,8.015a.129.129,0,0,0,.038.013Z" transform="translate(-215.962 -47.007)" fill="#44b3e6"/>
            <path id="Path_353" data-name="Path 353" d="M221.827,80.934a.063.063,0,0,0,.038-.013l7.682-8.015s.013-.051,0-.064a.058.058,0,0,0-.064,0L221.8,80.857s-.013.051,0,.064h.026Z" transform="translate(-214.327 -43.688)" fill="#44b3e6"/>
            <path id="Path_354" data-name="Path 354" d="M222.107,60.269a.063.063,0,0,0,.038-.013l6-6.21s.013-.051,0-.064a.058.058,0,0,0-.064,0l-6,6.21s-.013.051,0,.064h.026Z" transform="translate(-214.249 -48.976)" fill="#44b3e6"/>
          </g>
        </g>
        <g id="Group_369" data-name="Group 369" transform="translate(0 18.437)">
          <path id="Path_355" data-name="Path 355" d="M222.357,72.168a5.936,5.936,0,0,1-.935-4.046,9.022,9.022,0,0,0,.064-1.037,7.746,7.746,0,1,0-15.493,0,9.392,9.392,0,0,0,.064,1.037,5.9,5.9,0,0,1-.935,4.046,10.336,10.336,0,0,0-1.729,5.736v.487a14.108,14.108,0,0,1-1.4,6.773,13.034,13.034,0,1,0,23.431,0,13.93,13.93,0,0,1-1.4-6.773V77.9a10.326,10.326,0,0,0-1.716-5.736Z" transform="translate(-200.68 -59.3)" fill="#bce6fa" fill-rule="evenodd"/>
          <g id="Group_368" data-name="Group 368" transform="translate(6.354 5.582)">
            <path id="Path_356" data-name="Path 356" d="M210.508,110.189a.507.507,0,0,0,.051-.038l.525-46.439s-.026-.051-.038-.051a.057.057,0,0,0-.051.038l-.525,46.439s.026.051.038.051Z" transform="translate(-204.289 -63.66)" fill="#44b3e6"/>
            <path id="Path_357" data-name="Path 357" d="M212.169,79.686h.026a.058.058,0,0,0,0-.064l-6.479-6.76s-.051-.013-.064,0a.058.058,0,0,0,0,.064l6.479,6.76a.129.129,0,0,0,.038.013Z" transform="translate(-205.642 -61.082)" fill="#44b3e6"/>
            <path id="Path_358" data-name="Path 358" d="M210.6,89.689a.063.063,0,0,0,.038-.013l6.479-6.76s.013-.051,0-.064a.058.058,0,0,0-.064,0l-6.479,6.76s-.013.051,0,.064h.026Z" transform="translate(-204.262 -58.282)" fill="#44b3e6"/>
            <path id="Path_359" data-name="Path 359" d="M210.837,72.263a.063.063,0,0,0,.038-.013l5.057-5.224s.013-.051,0-.064a.058.058,0,0,0-.064,0l-5.057,5.224s-.013.051,0,.064h.026Z" transform="translate(-204.195 -62.737)" fill="#44b3e6"/>
          </g>
        </g>
      </g>
      <g id="Group_375" data-name="Group 375" transform="translate(771.098 120.284)" opacity="0.72">
        <g id="Group_372" data-name="Group 372" transform="translate(0 3.63)" opacity="0.4">
          <path id="Path_360" data-name="Path 360" d="M463.565,57.719a5.49,5.49,0,0,0,.924-4.05,9.557,9.557,0,0,1-.1-1.395,8.6,8.6,0,1,1,17.208,0,7.69,7.69,0,0,1-.118,1.395,5.6,5.6,0,0,0,.924,4.05,11.51,11.51,0,0,1,2.05,6.587,7.027,7.027,0,0,1-.034.84,13.068,13.068,0,0,0,1.428,6.94,14.485,14.485,0,1,1-25.744,0,13.1,13.1,0,0,0,1.428-6.94c-.017-.269-.034-.555-.034-.84a11.51,11.51,0,0,1,2.05-6.587Z" transform="translate(-458.49 -43.62)" fill="#a0ddf8" fill-rule="evenodd"/>
          <g id="Group_371" data-name="Group 371" transform="translate(7.68 6.218)">
            <path id="Path_361" data-name="Path 361" d="M467.793,107.228a.244.244,0,0,1-.05-.034L467.07,47.37s.017-.05.034-.05.05.017.05.034l.672,59.824s-.017.05-.034.05Z" transform="translate(-460.331 -47.32)" fill="#44b3e6"/>
            <path id="Path_362" data-name="Path 362" d="M467.257,62.692h-.034s-.017-.05,0-.067l7.192-7.512s.05-.017.067,0c0,0,.017.05,0,.067l-7.192,7.512h-.034Z" transform="translate(-460.232 -42.022)" fill="#44b3e6"/>
            <path id="Path_363" data-name="Path 363" d="M470.286,71.149h-.034l-7.192-7.512V63.57h.067l7.192,7.512v.067h-.034Z" transform="translate(-463.06 -36.263)" fill="#44b3e6"/>
            <path id="Path_364" data-name="Path 364" d="M469.453,55.992h-.034l-5.629-5.814V50.11h.067l5.629,5.814v.067Z" transform="translate(-462.563 -45.422)" fill="#44b3e6"/>
          </g>
        </g>
        <g id="Group_374" data-name="Group 374" transform="translate(28.971)">
          <path id="Path_365" data-name="Path 365" d="M479.929,64.885a10.777,10.777,0,0,0,1.7-7.36,13.988,13.988,0,0,1-.118-1.882,14.1,14.1,0,1,1,28.2,0,17.375,17.375,0,0,1-.118,1.882,10.822,10.822,0,0,0,1.7,7.377,18.862,18.862,0,0,1,3.142,10.452c0,.3,0,.6-.017.891a25.321,25.321,0,0,0,2.554,12.334A23.785,23.785,0,1,1,471.88,99.065a24.082,24.082,0,0,1,2.4-10.486,25.706,25.706,0,0,0,2.554-12.334c0-.3-.017-.588-.017-.891A18.862,18.862,0,0,1,479.963,64.9Z" transform="translate(-471.88 -41.46)" fill="#bce6fa" fill-rule="evenodd"/>
          <g id="Group_373" data-name="Group 373" transform="translate(12.538 10.15)">
            <path id="Path_366" data-name="Path 366" d="M486.972,132.295s-.084-.034-.084-.084l-.958-84.627s.034-.084.084-.084a.079.079,0,0,1,.084.084l.958,84.627s-.034.084-.084.084Z" transform="translate(-474.858 -47.5)" fill="#44b3e6"/>
            <path id="Path_367" data-name="Path 367" d="M486.231,72.738a.083.083,0,0,1-.05-.017.081.081,0,0,1,0-.118l11.8-12.318s.084-.034.118,0a.081.081,0,0,1,0,.118L486.3,72.721a.117.117,0,0,1-.067.034Z" transform="translate(-474.705 -38.81)" fill="#44b3e6"/>
            <path id="Path_368" data-name="Path 368" d="M491.22,86.619s-.05,0-.067-.034l-11.8-12.318s-.034-.084,0-.118a.081.081,0,0,1,.118,0l11.8,12.318s.034.084,0,.118a.169.169,0,0,1-.05.017Z" transform="translate(-479.341 -29.383)" fill="#44b3e6"/>
            <path id="Path_369" data-name="Path 369" d="M489.849,61.753s-.05,0-.067-.017l-9.226-9.528s-.034-.084,0-.118a.081.081,0,0,1,.118,0l9.226,9.528s.034.084,0,.118a.17.17,0,0,1-.05.017Z" transform="translate(-478.525 -44.394)" fill="#44b3e6"/>
          </g>
        </g>
      </g>
      <path id="Path_399" data-name="Path 399" d="M175.913,81.1a13.006,13.006,0,0,1,5.982,1.328,23.049,23.049,0,0,1,4.73,3.26,27.722,27.722,0,0,0,4.344,3.344,6.174,6.174,0,0,0,2.378.832c2.7.244,5.268-.907,7.587-1.857a29.559,29.559,0,0,1,4.865-1.638,12.2,12.2,0,0,1,4.487-.109,12.51,12.51,0,0,1,5.73,2.579,32.194,32.194,0,0,0,4.882,3.588,10.6,10.6,0,0,0,4.982,1.042,21.37,21.37,0,0,0,5.125-.655c2.059-.521,3.932-1.437,5.991-1.958a12.682,12.682,0,0,1,4.84-.294,11.3,11.3,0,0,1,2.815.807,16.194,16.194,0,0,1,3.831,2.395,20.16,20.16,0,0,1,3.3,3.369l-75.652.134h-.37l-75.652-.134a20.16,20.16,0,0,1,3.3-3.369,16.126,16.126,0,0,1,3.831-2.395,11.3,11.3,0,0,1,2.815-.807,12.681,12.681,0,0,1,4.84.294c2.067.521,3.932,1.437,5.991,1.958a21.745,21.745,0,0,0,5.125.655A10.73,10.73,0,0,0,131,92.425a32.618,32.618,0,0,0,4.882-3.588,12.151,12.151,0,0,1,10.217-2.47,30.652,30.652,0,0,1,4.865,1.638c2.319.949,4.89,2.1,7.587,1.857a6.087,6.087,0,0,0,2.369-.832,28.118,28.118,0,0,0,4.344-3.344,23.726,23.726,0,0,1,4.73-3.26,12.982,12.982,0,0,1,5.982-1.328Z" transform="translate(-100.11 121.963)" fill-rule="evenodd" opacity="0.51" fill="url(#linear-gradient-4)"/>
      <path id="Path_371" data-name="Path 371" d="M405.049,81.1a32.6,32.6,0,0,1,11.965,2.046,48.407,48.407,0,0,1,9.461,5.025,56.229,56.229,0,0,0,8.688,5.154,14.908,14.908,0,0,0,4.756,1.282c5.394.376,10.536-1.4,15.174-2.862a71.951,71.951,0,0,1,9.73-2.525,31.545,31.545,0,0,1,8.974-.168,29.01,29.01,0,0,1,11.461,3.976c3.21,1.878,6,4.066,9.763,5.53a26.659,26.659,0,0,0,9.965,1.606,54.835,54.835,0,0,0,10.251-1.01c4.117-.8,7.864-2.215,11.982-3.017a32.714,32.714,0,0,1,9.679-.453,27.935,27.935,0,0,1,5.629,1.243,34.986,34.986,0,0,1,7.663,3.691,36.906,36.906,0,0,1,6.6,5.193l-151.306.207h-.739l-151.307-.207a36.909,36.909,0,0,1,6.6-5.193,34.834,34.834,0,0,1,7.663-3.691,27.934,27.934,0,0,1,5.629-1.243,32.713,32.713,0,0,1,9.679.453c4.134.8,7.864,2.215,11.982,3.017a55.8,55.8,0,0,0,10.251,1.01,26.98,26.98,0,0,0,9.965-1.606c3.747-1.463,6.554-3.652,9.763-5.53a29.01,29.01,0,0,1,11.461-3.976,32.532,32.532,0,0,1,8.974.168,74.608,74.608,0,0,1,9.73,2.525c4.638,1.463,9.78,3.238,15.174,2.862a14.688,14.688,0,0,0,4.739-1.282,57.031,57.031,0,0,0,8.688-5.154,49.838,49.838,0,0,1,9.461-5.025A32.542,32.542,0,0,1,405.167,81.1Z" transform="translate(113.836 113.21)" fill-rule="evenodd" fill="url(#linear-gradient-5)"/>
      <g id="Group_380" data-name="Group 380" transform="translate(176.943 90.069)" opacity="0.7">
        <g id="Group_377" data-name="Group 377" transform="translate(21.913)">
          <path id="Path_372" data-name="Path 372" d="M161.118,50.888a10.8,10.8,0,0,1-1.8-7.864,17.815,17.815,0,0,0,.218-2.706,16.737,16.737,0,1,0-33.474,0,15.894,15.894,0,0,0,.218,2.706,10.8,10.8,0,0,1-1.8,7.864,22.4,22.4,0,0,0-4,12.822c0,.538.017,1.092.05,1.63a25.463,25.463,0,0,1-2.773,13.511,28.181,28.181,0,1,0,50.077,0,25.463,25.463,0,0,1-2.773-13.511c.034-.538.067-1.075.067-1.63a22.48,22.48,0,0,0-4-12.822Z" transform="translate(-114.62 -23.48)" fill="#a0ddf8" fill-rule="evenodd"/>
          <g id="Group_376" data-name="Group 376" transform="translate(13.687 12.066)">
            <path id="Path_373" data-name="Path 373" d="M130.664,147.232s.084-.034.084-.084l1.311-116.4s-.034-.084-.084-.084a.079.079,0,0,0-.084.084l-1.311,116.4s.034.084.084.084Z" transform="translate(-117.447 -30.66)" fill="#44b3e6"/>
            <path id="Path_374" data-name="Path 374" d="M136.855,60.58a.083.083,0,0,0,.05-.017.081.081,0,0,0,0-.118l-14-14.62s-.084-.034-.118,0a.081.081,0,0,0,0,.118l14,14.62a.117.117,0,0,0,.067.034Z" transform="translate(-122.765 -20.351)" fill="#44b3e6"/>
            <path id="Path_375" data-name="Path 375" d="M130.926,77.051s.05,0,.067-.034l14-14.62s.034-.084,0-.118a.081.081,0,0,0-.118,0l-14,14.62s-.034.084,0,.118a.17.17,0,0,0,.05.017Z" transform="translate(-117.256 -9.162)" fill="#44b3e6"/>
            <path id="Path_376" data-name="Path 376" d="M131.316,47.554s.05,0,.067-.017l10.94-11.309s.034-.084,0-.118a.081.081,0,0,0-.118,0L131.266,47.42s-.034.084,0,.118a.17.17,0,0,0,.05.017Z" transform="translate(-116.991 -26.969)" fill="#44b3e6"/>
          </g>
        </g>
        <g id="Group_379" data-name="Group 379" transform="translate(0 33.626)">
          <path id="Path_377" data-name="Path 377" d="M141.02,66.915a10.777,10.777,0,0,1-1.7-7.36,13.975,13.975,0,0,0,.118-1.882,14.1,14.1,0,1,0-28.2,0,17.414,17.414,0,0,0,.118,1.882,10.822,10.822,0,0,1-1.7,7.377,18.862,18.862,0,0,0-3.142,10.452c0,.3,0,.6.017.891a25.318,25.318,0,0,1-2.554,12.334A23.785,23.785,0,1,0,149.069,101.1a24.082,24.082,0,0,0-2.4-10.486,25.7,25.7,0,0,1-2.554-12.334c0-.3.017-.588.017-.891a18.862,18.862,0,0,0-3.142-10.452Z" transform="translate(-101.58 -43.49)" fill="#bce6fa" fill-rule="evenodd"/>
          <g id="Group_378" data-name="Group 378" transform="translate(11.536 10.15)">
            <path id="Path_378" data-name="Path 378" d="M115.214,134.325s.084-.034.084-.084l.958-84.627s-.034-.084-.084-.084a.079.079,0,0,0-.084.084l-.958,84.627s.034.084.084.084Z" transform="translate(-103.896 -49.53)" fill="#44b3e6"/>
            <path id="Path_379" data-name="Path 379" d="M120.334,74.758a.083.083,0,0,0,.05-.017.081.081,0,0,0,0-.118l-11.8-12.318s-.084-.034-.118,0a.081.081,0,0,0,0,.118l11.8,12.318a.117.117,0,0,0,.067.034Z" transform="translate(-108.445 -40.847)" fill="#44b3e6"/>
            <path id="Path_380" data-name="Path 380" d="M115.336,88.639s.05,0,.067-.034l11.8-12.318s.034-.084,0-.118a.081.081,0,0,0-.118,0l-11.8,12.318s-.034.084,0,.118a.169.169,0,0,0,.05.017Z" transform="translate(-103.8 -31.42)" fill="#44b3e6"/>
            <path id="Path_381" data-name="Path 381" d="M115.666,63.783s.05,0,.067-.017l9.226-9.528s.034-.084,0-.118a.081.081,0,0,0-.118,0l-9.226,9.528s-.034.084,0,.118a.169.169,0,0,0,.05.017Z" transform="translate(-103.576 -46.424)" fill="#44b3e6"/>
          </g>
        </g>
      </g>
      <path id="Path_382" data-name="Path 382" d="M240.972,11.746a16.845,16.845,0,0,1-8.52-3.109C225.025,3.462,211.581,0,196.222,0c-23.375,0-42.33,8.016-42.33,17.913,0,.185,0,.353.017.538a18.266,18.266,0,0,1-4.47,13.46A9.51,9.51,0,0,0,146.75,38.2c0,9.9,18.955,17.913,42.33,17.913,13.46,0,25.442-2.655,33.205-6.789a17.067,17.067,0,0,1,8.6-2.033q1.664.05,3.378.05c23.375,0,42.33-8.016,42.33-17.913,0-8.923-15.426-16.334-35.625-17.678Z" transform="translate(-140.506 8.251)" fill="#fff" fill-rule="evenodd"/>
      <path id="Path_383" data-name="Path 383" d="M486.042,10.056a74.965,74.965,0,0,1-14.469-1.7c-12.6-2.84-35.474-4.739-61.588-4.739-39.742,0-71.973,4.4-71.973,9.831a.929.929,0,0,0,.034.3c.588,2.706-2.017,5.361-7.612,7.394-2.941,1.075-4.554,2.235-4.554,3.445,0,5.428,32.214,9.831,71.973,9.831,22.871,0,43.254-1.462,56.429-3.731a82.765,82.765,0,0,1,14.62-1.109c1.9.017,3.8.034,5.73.034,39.742,0,71.973-4.4,71.973-9.831,0-4.89-26.232-8.957-60.563-9.7Z" transform="translate(272.985 1.883)" fill="#fff" fill-rule="evenodd"/>
      <path id="Path_392" data-name="Path 392" d="M486.042,10.056a74.965,74.965,0,0,1-14.469-1.7c-12.6-2.84-35.474-4.739-61.588-4.739-39.742,0-71.973,4.4-71.973,9.831a.929.929,0,0,0,.034.3c.588,2.706-2.017,5.361-7.612,7.394-2.941,1.075-4.554,2.235-4.554,3.445,0,5.428,32.214,9.831,71.973,9.831,22.871,0,43.254-1.462,56.429-3.731a82.765,82.765,0,0,1,14.62-1.109c1.9.017,3.8.034,5.73.034,39.742,0,71.973-4.4,71.973-9.831,0-4.89-26.232-8.957-60.563-9.7Z" transform="translate(-81.963 -26.172)" fill="#fff" fill-rule="evenodd"/>
      <path id="Path_384" data-name="Path 384" d="M508.791,52.025A184.584,184.584,0,0,1,537.443,60.7c7.6,3.058,17.846,4.924,29.156,4.924,23.375,0,42.33-8.016,42.33-17.913,0-.2,0-.4-.017-.6a17.071,17.071,0,0,1,4.235-13.124,9.63,9.63,0,0,0,2.924-6.554c0-9.9-18.955-17.913-42.33-17.913-12.435,0-23.61,2.269-31.357,5.882a29.834,29.834,0,0,1-12.889,2.89h-.924c-23.375,0-42.33,8.016-42.33,17.913,0,6.873,9.142,12.839,22.568,15.847Z" transform="translate(442.296 21.292)" fill="#fff" fill-rule="evenodd"/>
    </g>
    <g id="Group_385" data-name="Group 385" transform="translate(965.633 120.649)">
      <g id="Group_385-2" data-name="Group 385" transform="translate(0 0)" clip-path="url(#clip-path-2)">
        <path id="Path_400" data-name="Path 400" d="M21.9,15.377l.082-.233c.251-.726.5-1.454.754-2.177.153-.426.337-.841.463-1.276a9.02,9.02,0,0,0,.371-2.1,9.645,9.645,0,0,0-.052-1.58,4.344,4.344,0,0,0-.985-2.282,3.908,3.908,0,0,0-1.479-1.052A10.249,10.249,0,0,0,19.879,4.3c-.636-.195-1.28-.357-1.929-.5a19.2,19.2,0,0,0-2.614-.387c-.734-.058-1.468-.093-2.2-.1-.531,0-1.061.024-1.59.059-.6.039-1.2.074-1.792.162a4.593,4.593,0,0,0-1.628.51,2.242,2.242,0,0,0-.9,1.07,3.5,3.5,0,0,0-.188,1.957,3.456,3.456,0,0,0,1.04,2.066A4.7,4.7,0,0,0,10.242,10.4a6.287,6.287,0,0,0,1.183.227,4.643,4.643,0,0,0,1.849-.269,9.771,9.771,0,0,0,1.857-.883c.071-.043.094-.027.1.048a.9.9,0,0,1-.144.531,4.051,4.051,0,0,1-2.649,2.02,4.722,4.722,0,0,1-2.137-.03,6.751,6.751,0,0,1-1.97-.753c-.129-.07-.264-.128-.393-.2-.074-.039-.114.006-.161.046a.493.493,0,0,0-.121.4c-.011.239.012.48-.009.717-.079.919-.027,1.846-.165,2.762-.054.356-.056.719-.126,1.074-.008.041-.017.082-.026.122-.037.164-.042.163-.187.067a5.938,5.938,0,0,1-1.42-1.412,8.044,8.044,0,0,0-.708-.856,3.492,3.492,0,0,0-1.18-.811,1.869,1.869,0,0,0-1.4.031,3.82,3.82,0,0,0-.9.514,3.364,3.364,0,0,0-.773.837,4.209,4.209,0,0,0-.651,1.637A7.456,7.456,0,0,0,0,17.616a5.249,5.249,0,0,0,.09,1.02,6.388,6.388,0,0,0,.353,1.142,7.586,7.586,0,0,0,.6,1.177,7.137,7.137,0,0,0,.835,1.112,7.353,7.353,0,0,0,.934.81c.217.161.437.316.665.46.2.123.411.214.619.319a3.369,3.369,0,0,0,.832.294c.057.012.1.046.163.054s.028.065.018.1c-.071.261-.159.516-.246.772-.24.706-.446,1.421-.664,2.134-.322,1.054-.647,2.107-1.01,3.149-.356,1.023-.681,2.056-1.023,3.084-.292.877-.615,1.742-.938,2.608a9.994,9.994,0,0,0-.69,3.135,3.528,3.528,0,0,0,1.794,3.283,5.615,5.615,0,0,0,2.208.815,8.873,8.873,0,0,0,1.992.053,5.436,5.436,0,0,0,1.483-.3A3.371,3.371,0,0,0,9.88,41.324a7.219,7.219,0,0,0,.559-1.417c.158-.516.258-1.045.377-1.571.048.012.043.05.052.08a8.735,8.735,0,0,0,.88,2.144,6.158,6.158,0,0,0,3.014,2.632,6.269,6.269,0,0,0,2.131.4,11.3,11.3,0,0,0,1.913-.047,5.881,5.881,0,0,0,2.348-.7A3.011,3.011,0,0,0,22.6,40.888c.054-.225.1-.453.135-.68.019-.117.065-.146.18-.127a6.921,6.921,0,0,0,1.226.088,11.883,11.883,0,0,0,3.688-.641,10.474,10.474,0,0,0,3.744-2.162,8.861,8.861,0,0,0,1.691-2.1,5.836,5.836,0,0,0,.708-1.675,5.763,5.763,0,0,0,.178-1.375,2.831,2.831,0,0,0-.342-1.345,1.727,1.727,0,0,0-1.725-.786,1.6,1.6,0,0,0-.958.572,8.559,8.559,0,0,1-1.046,1.033,4.793,4.793,0,0,1-2.808,1.127,5.176,5.176,0,0,1-3.534-1.072,6.424,6.424,0,0,1-1.575-1.779,5.6,5.6,0,0,1-.47-1.124c-.182-.525-.326-1.06-.458-1.6-.016-.065-.035-.122.071-.138a4.193,4.193,0,0,0,2.147-.983,8.055,8.055,0,0,0,1.612-1.946,11.365,11.365,0,0,0,1.187-2.4,7.489,7.489,0,0,0,.365-1.748,7.3,7.3,0,0,0-.114-2.244,3.428,3.428,0,0,0-2.219-2.531,2.761,2.761,0,0,0-1.444-.195,2.423,2.423,0,0,0-.765.259l-.14.075Z" transform="translate(0 -1.555)" fill="#a8dff8"/>
        <path id="Path_401" data-name="Path 401" d="M21.545,2.447a.739.739,0,0,0-.628-.766.792.792,0,0,0-.8.28,2.609,2.609,0,0,0-.522.724,2.8,2.8,0,0,0-.281.713.349.349,0,0,0,.2.429,1.1,1.1,0,0,0,.936.05,1.728,1.728,0,0,0,.98-.931,1.11,1.11,0,0,0,.113-.5" transform="translate(2.37 -0.776)" fill="#a8dff8"/>
        <path id="Path_402" data-name="Path 402" d="M24.945.782a.811.811,0,0,0-.039-.3.6.6,0,0,0-.537-.461.731.731,0,0,0-.587.091A1.461,1.461,0,0,0,23.317.7a1.16,1.16,0,0,0,.031,1.035,2.485,2.485,0,0,0,.416.686.271.271,0,0,0,.447-.011,4.4,4.4,0,0,0,.534-.9,2.169,2.169,0,0,0,.19-.56c.008-.057,0-.112.009-.167" transform="translate(-3.103 0)" fill="#a8dff8"/>
      </g>
    </g>
  </g>
</svg>
