<svg xmlns="http://www.w3.org/2000/svg" xmlns:xlink="http://www.w3.org/1999/xlink" width="114.01" height="78.235" viewBox="0 0 114.01 78.235">
  <defs>
    <clipPath id="clip-path">
      <rect id="Прямоугольник_173" data-name="Прямоугольник 173" width="76.049" height="78.235" fill="#c1ecff"/>
    </clipPath>
    <clipPath id="clip-path-2">
      <rect id="Прямоугольник_173-2" data-name="Прямоугольник 173" width="30.808" height="31.693" fill="#c1ecff"/>
    </clipPath>
  </defs>
  <g id="Сгруппировать_6441" data-name="Сгруппировать 6441" transform="translate(-290.181 -5010.266)">
    <g id="Сгруппировать_6438" data-name="Сгруппировать 6438">
      <g id="Сгруппировать_389" data-name="Сгруппировать 389" transform="translate(328.142 5010.266)">
        <g id="Сгруппировать_388" data-name="Сгруппировать 388" clip-path="url(#clip-path)">
          <path id="Контур_403" data-name="Контур 403" d="M5.885,27.962c-.917-.584-1.85-1.149-2.751-1.762A9.518,9.518,0,0,1,.742,24.255c-1.486-1.945-.484-4.582.767-5.92A7.076,7.076,0,0,1,6.161,16.2a15.956,15.956,0,0,1,8.247,1.729,21.869,21.869,0,0,1,5.386,3.851,39.27,39.27,0,0,1,7.231,8.491,21.815,21.815,0,0,1,3.286,8.843,10.835,10.835,0,0,1-.03,3.74c-.482,2.2-1.943,3.287-4.348,3.607A16.112,16.112,0,0,1,17.2,44.832,29.079,29.079,0,0,1,11.354,41.4c-1.217-.923-2.416-2.637-1.782-4.511.153-.453.073-.56-.423-.631a13.042,13.042,0,0,1-3.748-.88,4.073,4.073,0,0,1-2.439-3.332c-.219-1.755.589-2.925,2.354-3.735.185-.085.435-.069.568-.352" transform="translate(0 -14.035)" fill="#c1ecff"/>
          <path id="Контур_404" data-name="Контур 404" d="M261.307,14.571c-.162-3.735-.138-6.632.954-9.37A7.946,7.946,0,0,1,266.494.408a4.928,4.928,0,0,1,3.717-.086,2.415,2.415,0,0,1,1.559,2.264,6.96,6.96,0,0,1-1.286,4.255,7.445,7.445,0,0,1-1.5,1.836c-.324.271-.277.488-.012.8a4.141,4.141,0,0,1,1.116,3.81,5.7,5.7,0,0,1-1.232,2.238,1.3,1.3,0,0,0-.262,1.424,13.108,13.108,0,0,1,.657,2.962,6.35,6.35,0,0,1-.919,4.523,1.723,1.723,0,0,1-2.47.657,5.731,5.731,0,0,1-2.845-3.128,20.883,20.883,0,0,1-1.708-7.4" transform="translate(-227.235 0)" fill="#c1ecff"/>
          <path id="Контур_405" data-name="Контур 405" d="M152.007,211.379a282.609,282.609,0,0,0-35.1,9.075c-5.581,1.93-9.187,7.367-7.708,13.085l5.327,20.6c1.479,5.718,7.214,8.344,13.085,7.708,9.152-.991,26.865-6.08,35.1-9.075,5.551-2.019,9.187-7.367,7.708-13.085l-5.327-20.6c-1.479-5.718-7.263-8.7-13.085-7.708m-21.733,37.829-4.369,7.417a2.6,2.6,0,1,1-4.486-2.642l4.37-7.419a2.6,2.6,0,0,1,4.485,2.643m11.334-7.505-.15.04a11.053,11.053,0,0,1-8.373-1.151L115.3,230.273a2.6,2.6,0,0,1,2.612-4.5L135.7,236.089a5.933,5.933,0,0,0,8.148-2.224l9.793-17.423a2.6,2.6,0,0,1,4.539,2.551l-9.794,17.422a11.052,11.052,0,0,1-6.775,5.287m24.046,4.644a2.6,2.6,0,0,1-3.565.922l-7.417-4.369a2.6,2.6,0,0,1,2.642-4.486l7.419,4.37a2.6,2.6,0,0,1,.921,3.563" transform="translate(-94.7 -183.704)" fill="#c1ecff"/>
        </g>
      </g>
    </g>
    <g id="Сгруппировать_6439" data-name="Сгруппировать 6439">
      <g id="Сгруппировать_390" data-name="Сгруппировать 390" transform="matrix(0.966, 0.259, -0.259, 0.966, 298.384, 5049.383)">
        <g id="Сгруппировать_388-2" data-name="Сгруппировать 388" clip-path="url(#clip-path-2)">
          <path id="Контур_403-2" data-name="Контур 403" d="M2.384,20.926c-.371-.237-.75-.465-1.114-.714A3.856,3.856,0,0,1,.3,19.424a1.934,1.934,0,0,1,.311-2.4A2.866,2.866,0,0,1,2.5,16.159a6.464,6.464,0,0,1,3.341.7,8.859,8.859,0,0,1,2.182,1.56,15.908,15.908,0,0,1,2.929,3.44,8.837,8.837,0,0,1,1.331,3.582,4.389,4.389,0,0,1-.012,1.515,1.814,1.814,0,0,1-1.762,1.461,6.527,6.527,0,0,1-3.538-.658A11.78,11.78,0,0,1,4.6,26.371a1.689,1.689,0,0,1-.722-1.827c.062-.184.03-.227-.171-.256a5.283,5.283,0,0,1-1.518-.357,1.65,1.65,0,0,1-.988-1.35,1.37,1.37,0,0,1,.954-1.513c.075-.034.176-.028.23-.143" transform="translate(0 -15.284)" fill="#c1ecff"/>
          <path id="Контур_404-2" data-name="Контур 404" d="M261.263,5.9a8.943,8.943,0,0,1,.386-3.8A3.219,3.219,0,0,1,263.365.165,2,2,0,0,1,264.87.131a.978.978,0,0,1,.632.917,2.819,2.819,0,0,1-.521,1.724,3.015,3.015,0,0,1-.609.744c-.131.11-.112.2,0,.325a1.678,1.678,0,0,1,.452,1.543,2.311,2.311,0,0,1-.5.907.525.525,0,0,0-.106.577,5.309,5.309,0,0,1,.266,1.2,2.573,2.573,0,0,1-.372,1.832.7.7,0,0,1-1,.266A2.322,2.322,0,0,1,261.955,8.9a8.459,8.459,0,0,1-.692-3" transform="translate(-247.461 0)" fill="#c1ecff"/>
          <path id="Контур_405-2" data-name="Контур 405" d="M126.344,211.267a114.487,114.487,0,0,0-14.218,3.676,4.5,4.5,0,0,0-3.123,5.3l2.158,8.345c.6,2.316,2.922,3.38,5.3,3.123a81.9,81.9,0,0,0,14.218-3.676,4.527,4.527,0,0,0,3.123-5.3l-2.158-8.345a4.5,4.5,0,0,0-5.3-3.123m-8.8,15.325-1.77,3a1.054,1.054,0,1,1-1.817-1.07l1.77-3.005a1.054,1.054,0,0,1,1.817,1.071m4.591-3.04-.061.016a4.477,4.477,0,0,1-3.392-.466l-7.2-4.18a1.054,1.054,0,0,1,1.058-1.824l7.2,4.18a2.4,2.4,0,0,0,3.3-.9L127,213.318a1.055,1.055,0,0,1,1.839,1.034l-3.968,7.058a4.477,4.477,0,0,1-2.745,2.142m9.741,1.881a1.054,1.054,0,0,1-1.444.373l-3-1.77a1.054,1.054,0,0,1,1.07-1.817l3.005,1.77a1.054,1.054,0,0,1,.373,1.444" transform="translate(-103.129 -200.056)" fill="#c1ecff"/>
        </g>
      </g>
    </g>
  </g>
</svg>
