<svg id="delete" xmlns="http://www.w3.org/2000/svg" xmlns:xlink="http://www.w3.org/1999/xlink" width="24" height="24" viewBox="0 0 24 24">
  <defs>
    <clipPath id="clip-path">
      <rect id="Rectangle_737" data-name="Rectangle 737" width="18.458" height="19.999" transform="translate(0 0)" fill="#a5a5a5"/>
    </clipPath>
  </defs>
  <g id="Rectangle_738" data-name="Rectangle 738" fill="#969ba4" stroke="#707070" stroke-width="1" opacity="0">
    <rect width="24" height="24" stroke="none"/>
    <rect x="0.5" y="0.5" width="23" height="23" fill="none"/>
  </g>
  <g id="Group_2825" data-name="Group 2825" transform="translate(3 2.002)">
    <g id="Group_2824" data-name="Group 2824" clip-path="url(#clip-path)">
      <path id="Контур_848" data-name="Контур 848" d="M9.235,20c-1.352,0-2.672-.013-3.951-.04A2.963,2.963,0,0,1,2.243,17.1c-.315-2.855-.851-9.508-.856-9.575a.75.75,0,0,1,1.5-.12c.005.067.543,6.739.855,9.557q0,.026,0,.053v.025a1.463,1.463,0,0,0,1.513,1.417H5.3c2.468.052,5.093.054,7.8,0h.094a1.49,1.49,0,0,0,1.528-1.447q0-.031,0-.062c.31-2.793.85-9.482.856-9.55a.75.75,0,0,1,1.5.121c-.005.067-.544,6.733-.857,9.566a2.991,2.991,0,0,1-3.059,2.872l-.059,0C11.789,19.987,10.5,20,9.235,20Z" fill="#a5a5a5"/>
      <path id="Линия_168" data-name="Линия 168" d="M16.958.75H0A.75.75,0,0,1-.75,0,.75.75,0,0,1,0-.75H16.958a.75.75,0,0,1,.75.75A.75.75,0,0,1,16.958.75Z" transform="translate(0.75 4.239)" fill="#a5a5a5"/>
      <path id="Контур_849" data-name="Контур 849" d="M14.441,4.989a2.4,2.4,0,0,1-2.35-1.927l-.237-1.187a.531.531,0,0,0-.507-.375H7.118a.53.53,0,0,0-.512.374L6.368,3.062a2.4,2.4,0,0,1-2.35,1.927.75.75,0,0,1,0-1.5.9.9,0,0,0,.88-.721l.243-1.216q0-.023.011-.046A2.029,2.029,0,0,1,7.122,0h4.224a2.033,2.033,0,0,1,1.961,1.5q.006.023.011.047l.243,1.216a.9.9,0,0,0,.88.721.75.75,0,1,1,0,1.5Z" fill="#a5a5a5"/>
    </g>
  </g>
</svg>
