<svg id="Group_2840" data-name="Group 2840" xmlns="http://www.w3.org/2000/svg" xmlns:xlink="http://www.w3.org/1999/xlink" width="48.728" height="50.129" viewBox="0 0 48.728 50.129">
  <defs>
    <clipPath id="clip-path">
      <rect id="Rectangle_743" data-name="Rectangle 743" width="48.728" height="50.129" fill="none"/>
    </clipPath>
  </defs>
  <g id="Group_2839" data-name="Group 2839" clip-path="url(#clip-path)">
    <path id="Path_848" data-name="Path 848" d="M3.771,23.713c-.587-.375-1.186-.736-1.762-1.129A6.1,6.1,0,0,1,.476,21.337c-.952-1.246-.31-2.936.491-3.793a4.534,4.534,0,0,1,2.98-1.371,10.224,10.224,0,0,1,5.284,1.108,14.012,14.012,0,0,1,3.451,2.468,25.162,25.162,0,0,1,4.633,5.44,13.978,13.978,0,0,1,2.106,5.666,6.942,6.942,0,0,1-.019,2.4,2.868,2.868,0,0,1-2.786,2.311,10.324,10.324,0,0,1-5.6-1.041,18.632,18.632,0,0,1-3.745-2.2,2.672,2.672,0,0,1-1.142-2.89c.1-.29.047-.359-.271-.4a8.356,8.356,0,0,1-2.4-.564A2.61,2.61,0,0,1,1.9,26.332a2.167,2.167,0,0,1,1.508-2.393c.119-.054.279-.044.364-.225" transform="translate(0 -14.789)" fill="#44b3e7"/>
    <path id="Path_849" data-name="Path 849" d="M261.28,9.336a14.145,14.145,0,0,1,.611-6A5.092,5.092,0,0,1,264.6.262a3.157,3.157,0,0,1,2.381-.055,1.547,1.547,0,0,1,1,1.451,4.46,4.46,0,0,1-.824,2.727,4.768,4.768,0,0,1-.963,1.177c-.208.173-.177.312-.008.514a2.653,2.653,0,0,1,.715,2.441,3.654,3.654,0,0,1-.79,1.434.83.83,0,0,0-.168.912,8.4,8.4,0,0,1,.421,1.9,4.069,4.069,0,0,1-.589,2.9,1.1,1.1,0,0,1-1.583.421,3.672,3.672,0,0,1-1.823-2,13.38,13.38,0,0,1-1.094-4.739" transform="translate(-239.449 0)" fill="#44b3e7"/>
    <path id="Path_850" data-name="Path 850" d="M136.509,211.311a181.07,181.07,0,0,0-22.488,5.815c-3.576,1.237-5.886,4.72-4.939,8.384l3.413,13.2c.947,3.664,4.622,5.347,8.384,4.939,5.864-.635,17.213-3.9,22.488-5.815,3.557-1.294,5.886-4.72,4.939-8.384l-3.413-13.2c-.947-3.664-4.654-5.576-8.384-4.939M122.584,235.55l-2.8,4.752a1.668,1.668,0,1,1-2.874-1.693l2.8-4.753a1.668,1.668,0,1,1,2.874,1.694m7.262-4.809-.1.026a7.082,7.082,0,0,1-5.365-.738l-11.4-6.612a1.668,1.668,0,1,1,1.673-2.885l11.4,6.612a3.8,3.8,0,0,0,5.221-1.425l6.274-11.163a1.668,1.668,0,0,1,2.908,1.635l-6.275,11.163a7.081,7.081,0,0,1-4.341,3.388m15.407,2.976a1.668,1.668,0,0,1-2.284.591l-4.752-2.8a1.668,1.668,0,0,1,1.693-2.874l4.753,2.8a1.667,1.667,0,0,1,.59,2.283" transform="translate(-99.79 -193.579)" fill="#44b3e7"/>
  </g>
</svg>
