<svg id="arrow_filter" data-name="arrow filter" xmlns="http://www.w3.org/2000/svg" width="23.74" height="23.87" viewBox="0 0 23.74 23.87">
  <rect id="Rectangle_86" data-name="Rectangle 86" width="23.74" height="23.87" fill="#fff"/>
  <path id="Объединение_1" data-name="Объединение 1" d="M-3282-1a1,1,0,0,1,.707.293l3.163,3.163,3.163-3.163a1,1,0,0,1,1.414,0,1,1,0,0,1,.293.707,1,1,0,0,1-.293.707l-3.867,3.867,0,0a1,1,0,0,1-1.414,0l-3.87-3.87A1,1,0,0,1-3283,0a1,1,0,0,1,.293-.707A1,1,0,0,1-3282-1Z" transform="translate(3290 10)" fill="#4b4da8" opacity="0.5"/>
</svg>
