<svg xmlns="http://www.w3.org/2000/svg" xmlns:xlink="http://www.w3.org/1999/xlink" width="32" height="32" viewBox="0 0 32 32"><defs><clipPath id="a"><rect width="28" height="26.599" fill="#f14a72"/></clipPath></defs><g transform="translate(-186 -1553)"><g transform="translate(186 1553)" fill="#fff" stroke="#707070" stroke-width="1" opacity="0"><rect width="32" height="32" stroke="none"/><rect x="0.5" y="0.5" width="31" height="31" fill="none"/></g><g transform="translate(188 1555.701)"><g clip-path="url(#a)"><path d="M8.137,26.6A8.24,8.24,0,0,1,0,18.277V8.321A8.24,8.24,0,0,1,8.137,0H19.861A8.24,8.24,0,0,1,28,8.321v9.958a8.24,8.24,0,0,1-8.136,8.32ZM2.036,8.321v9.958a6.179,6.179,0,0,0,6.1,6.239H19.862a6.179,6.179,0,0,0,6.1-6.239v-.388h-4.48a4.778,4.778,0,0,1-.255-9.542l.256-.007h4.48V8.321a6.179,6.179,0,0,0-6.1-6.239H8.137a6.179,6.179,0,0,0-6.1,6.239m16.82,4.795A2.671,2.671,0,0,0,21.279,15.8l.206.007h4.48V10.424h-4.48a2.66,2.66,0,0,0-2.629,2.691h0m2.832.956A1.043,1.043,0,0,1,21.548,12l.14-.008h.42a1.042,1.042,0,0,1,.14,2.072l-.14.01ZM7.171,8.377a1.042,1.042,0,0,1-.14-2.072l.14-.01h7.324a1.042,1.042,0,0,1,.14,2.072l-.14.01Z" transform="translate(0)" fill="#f14a72"/></g></g></g></svg>