<svg xmlns="http://www.w3.org/2000/svg" xmlns:xlink="http://www.w3.org/1999/xlink" width="32" height="32" viewBox="0 0 32 32"><defs><clipPath id="a"><rect width="29.539" height="29.533" fill="#4b4da8"/></clipPath></defs><g transform="translate(-689 -2062)"><g transform="translate(689 2062)" fill="#4b4da8" stroke="#707070" stroke-width="1" opacity="0"><rect width="32" height="32" stroke="none"/><rect x="0.5" y="0.5" width="31" height="31" fill="none"/></g><g transform="translate(690.23 2063.233)"><g clip-path="url(#a)"><path d="M11.357,15.9h-.834c-1.978,0-3.956,0-5.933,0A1.134,1.134,0,0,1,3.474,14.39a1.146,1.146,0,0,1,1.15-.757q3.52,0,7.041,0H27.24c.006-.11.014-.2.014-.292q0-2.087,0-4.173A2.262,2.262,0,0,0,24.912,6.82q-10.149,0-20.3,0A2.262,2.262,0,0,0,2.272,9.169q0,7.821,0,15.642A2.273,2.273,0,0,0,4.714,27.26H24.785a2.278,2.278,0,0,0,2.469-2.478c0-2.186,0-4.372,0-6.558A1.131,1.131,0,0,1,28.739,17.1a1.1,1.1,0,0,1,.782,1.042c.006,2.366.045,4.733-.013,7.1a4.483,4.483,0,0,1-4.532,4.292q-6.955.015-13.911,0c-2.158,0-4.315,0-6.473,0a4.518,4.518,0,0,1-4.5-3.664,4.638,4.638,0,0,1-.087-.93Q0,17.044,0,9.151a4.529,4.529,0,0,1,4.609-4.6c1.1,0,2.195,0,3.339,0,0-.385,0-.759,0-1.133a3.325,3.325,0,0,1,.934-2.339,3.237,3.237,0,0,1,2.4-1.065C13.6,0,15.918-.007,18.237.012A3.389,3.389,0,0,1,21.575,3.35c.007.386,0,.773,0,1.2H21.9c.994,0,1.987,0,2.981,0A4.535,4.535,0,0,1,29.526,9.2q0,2.711,0,5.422A1.152,1.152,0,0,1,28.248,15.9H18.17c0,.124,0,.225,0,.326,0,.994,0,1.987,0,2.981a1.138,1.138,0,0,1-1.238,1.235q-2.172,0-4.344,0a1.14,1.14,0,0,1-1.23-1.245q0-1.476,0-2.952V15.9M19.3,4.536c0-.419.014-.807,0-1.194a1.106,1.106,0,0,0-1.092-1.061q-3.448-.014-6.9,0a1.056,1.056,0,0,0-1.056.9,11.166,11.166,0,0,0-.011,1.356ZM15.875,15.924H13.65v2.245h2.225Z" transform="translate(0 0)" fill="#4b4da8"/></g></g></g></svg>