<svg xmlns="http://www.w3.org/2000/svg" xmlns:xlink="http://www.w3.org/1999/xlink" width="32" height="32" viewBox="0 0 32 32"><defs><clipPath id="a"><rect width="31.465" height="32" fill="#494949"/></clipPath></defs><g transform="translate(-912 -847)"><g transform="translate(912 847)" fill="#fff" stroke="#707070" stroke-width="1" opacity="0"><rect width="32" height="32" stroke="none"/><rect x="0.5" y="0.5" width="31" height="31" fill="none"/></g><g transform="translate(912 847)"><g transform="translate(0 0)" clip-path="url(#a)"><path d="M5.364,29.465c-.132-.033-.264-.064-.4-.1a4.143,4.143,0,0,1-1.913-1.119A4.988,4.988,0,0,1,1.6,24.835a5.537,5.537,0,0,1,.159-1.474,6.616,6.616,0,0,1,.626-1.619,8.365,8.365,0,0,1,1.7-2.16,10.05,10.05,0,0,1,1.678-1.246,12.455,12.455,0,0,0,1.591-1.145c.631-.53,1.221-1.105,1.805-1.687.516-.513,1.025-1.033,1.564-1.522a11.3,11.3,0,0,1,1.278-1.029,5.283,5.283,0,0,1,1.848-.836,4.13,4.13,0,0,1,1.53-.048,6.6,6.6,0,0,1,1.678.484,4.981,4.981,0,0,1,2.028,1.638A9.086,9.086,0,0,1,20,15.785c.273.591.513,1.2.766,1.8a21.184,21.184,0,0,0,.934,1.991,12.468,12.468,0,0,0,1.212,1.822,10.676,10.676,0,0,1,1.391,2.24,8.263,8.263,0,0,1,.658,2.16A6.426,6.426,0,0,1,25,27.553a5.026,5.026,0,0,1-.954,2.441,4.9,4.9,0,0,1-1.9,1.525,4.977,4.977,0,0,1-1.753.47,4.5,4.5,0,0,1-.654,0c-.03,0-.061,0-.09,0s-.06-.006-.089-.008-.05-.017-.075-.005l-.549-.1c-.019-.019-.046-.013-.069-.019l-.062-.011-.053-.009a7.27,7.27,0,0,1-1.338-.461c-.737-.315-1.448-.685-2.178-1.014a14.4,14.4,0,0,0-1.814-.69A8.969,8.969,0,0,0,12.1,29.4a7.012,7.012,0,0,0-1.071-.055c-.705.009-1.408.075-2.11.14a20.834,20.834,0,0,1-2.232.131,5.409,5.409,0,0,1-.906-.071c-.061-.011-.125-.014-.187-.025a1.475,1.475,0,0,1-.234-.051M23.6,1.951a3.308,3.308,0,0,1,2.068,1.824,5.064,5.064,0,0,1,.479,1.948,6.667,6.667,0,0,1-.14,1.739,7.58,7.58,0,0,1-1.274,2.893,6.4,6.4,0,0,1-1.565,1.554,4.6,4.6,0,0,1-1.794.767A3.3,3.3,0,0,1,20,12.652a3.15,3.15,0,0,1-1.882-1.279,4.435,4.435,0,0,1-.748-1.864A6.077,6.077,0,0,1,17.3,8.085a6.87,6.87,0,0,1,.13-.968,7.658,7.658,0,0,1,.794-2.139,7,7,0,0,1,1.5-1.893,5.23,5.23,0,0,1,1.746-1.038,3.812,3.812,0,0,1,1.481-.21,2.652,2.652,0,0,1,.648.114M.18,9.762A4.235,4.235,0,0,1,.486,8.9,3.766,3.766,0,0,1,1.551,7.511a2.917,2.917,0,0,1,1.79-.657,3.188,3.188,0,0,1,1.536.372A4.383,4.383,0,0,1,6.285,8.394,5.947,5.947,0,0,1,7.47,10.936,6.26,6.26,0,0,1,7.6,12.427a5.815,5.815,0,0,1-.071.727,5.083,5.083,0,0,1-.386,1.32,3.83,3.83,0,0,1-1.086,1.441,2.912,2.912,0,0,1-1.9.661,3.206,3.206,0,0,1-1.474-.4,4.54,4.54,0,0,1-1.53-1.359,5.865,5.865,0,0,1-.886-1.8A6.225,6.225,0,0,1,0,11.059c0-.118.009-.236.014-.353,0-.055.011-.107.008-.161a.293.293,0,0,1,.008-.066c0-.028.019-.056.006-.086.025-.14.05-.281.075-.422.033-.033.027-.079.038-.119s.005-.064.029-.089m7.661-5.5a6.49,6.49,0,0,1,.811-2.246A4.582,4.582,0,0,1,9.814.69,3.235,3.235,0,0,1,11.552.009a3.1,3.1,0,0,1,1.813.427A4.16,4.16,0,0,1,14.609,1.56a6.065,6.065,0,0,1,1.072,2.428,7.254,7.254,0,0,1,.155,1.7,7.8,7.8,0,0,1-.088.972,6.788,6.788,0,0,1-.3,1.194A5.361,5.361,0,0,1,14.118,10a3.575,3.575,0,0,1-1.344.83,2.993,2.993,0,0,1-1.735.061,3.439,3.439,0,0,1-1.4-.751A5.01,5.01,0,0,1,8.4,8.471,6.787,6.787,0,0,1,7.767,6.08a7.588,7.588,0,0,1,.014-1.37,4.346,4.346,0,0,1,.06-.451m23.5,11.5c-.006.032-.011.065-.017.1a5.957,5.957,0,0,1-1,2.183A6.193,6.193,0,0,1,29,19.4a5.094,5.094,0,0,1-2.2.978,3.626,3.626,0,0,1-1.456-.03,2.961,2.961,0,0,1-1.737-1.126,3.435,3.435,0,0,1-.647-1.63A4.623,4.623,0,0,1,23.024,16a6.168,6.168,0,0,1,1.6-3.011,5.812,5.812,0,0,1,.9-.778,5.006,5.006,0,0,1,2.209-.9,3.546,3.546,0,0,1,1.373.069A2.953,2.953,0,0,1,30.788,12.5a3.5,3.5,0,0,1,.65,1.748,4.2,4.2,0,0,1-.015,1.056c-.005.032-.011.065-.017.1-.025.118-.046.238-.064.357" transform="translate(0 0)" fill="#494949"/></g></g></g></svg>