<svg xmlns="http://www.w3.org/2000/svg" width="11.429" height="16" viewBox="0 0 11.429 16">
  <g id="Group_2292" data-name="Group 2292" transform="translate(-347.973 -2740.854)">
    <path id="Path_744" data-name="Path 744" d="M10.573,41.894a1.237,1.237,0,0,1-.627-.172,7.2,7.2,0,0,0-3.627-.99,7.1,7.1,0,0,0-3.565.954,1.279,1.279,0,0,1-1.8-.616A1.527,1.527,0,0,1,1.519,39.1a9.6,9.6,0,0,1,9.683.048,1.529,1.529,0,0,1,.547,1.972,1.32,1.32,0,0,1-1.176.771" transform="translate(347.332 2703.037)" fill="#e82727"/>
    <path id="Path_745" data-name="Path 745" d="M11.6,62.713a5.613,5.613,0,0,0-5.715-5.506,5.51,5.51,0,1,0,0,11.012v0h0a1.659,1.659,0,1,0,0-3.316h0v0a2.188,2.188,0,1,1,0-4.374,2.23,2.23,0,0,1,2.27,2.187h0v3.847h0a1.722,1.722,0,0,0,3.441,0h0Z" transform="translate(347.802 2688.635)" fill="#e82727"/>
  </g>
</svg>
