<svg id="do_not_recommend" xmlns="http://www.w3.org/2000/svg" xmlns:xlink="http://www.w3.org/1999/xlink" width="42" height="42" viewBox="0 0 42 42">
  <defs>
    <clipPath id="clip-path">
      <rect id="Прямоугольник_351" data-name="Прямоугольник 351" width="42" height="42" fill="none"/>
    </clipPath>
    <clipPath id="clip-path-3">
      <rect id="Прямоугольник_349" data-name="Прямоугольник 349" width="9.101" height="2.636" fill="none"/>
    </clipPath>
  </defs>
  <g id="Сгруппировать_858" data-name="Сгруппировать 858" clip-path="url(#clip-path)">
    <g id="Сгруппировать_857" data-name="Сгруппировать 857">
      <g id="Сгруппировать_856" data-name="Сгруппировать 856" clip-path="url(#clip-path)">
        <path id="Контур_694" data-name="Контур 694" d="M42,21A21,21,0,1,1,21,0,21,21,0,0,1,42,21" fill="#eaf4ff"/>
        <path id="Контур_695" data-name="Контур 695" d="M133.739,250.37a19.493,19.493,0,0,1,8.967,2.049,14.115,14.115,0,0,1,1.579,1.03,1.849,1.849,0,0,1,.521.549.5.5,0,0,1-.023.474.439.439,0,0,1-.43.151c-.737-.284-1.453-.622-2.188-.913a22.181,22.181,0,0,0-17.891.408,9.479,9.479,0,0,1-1.149.476.415.415,0,0,1-.127.015.443.443,0,0,1-.408-.582.293.293,0,0,1,.07-.117,8.566,8.566,0,0,1,1.333-1.086,14.794,14.794,0,0,1,5.351-2.008,42.518,42.518,0,0,1,4.394-.446" transform="translate(-112.705 -230.224)" fill="#6c83ad"/>
        <path id="Контур_696" data-name="Контур 696" d="M337.353,184.482a3.9,3.9,0,0,1-4.1-3.115c0-.013,0-.026-.006-.04-.019-.333-.1-.712.31-.861.392-.142.617.136.811.43a10.4,10.4,0,0,0,.609.9,2.626,2.626,0,0,0,4.177,0c.219-.268.384-.579.588-.861a1.557,1.557,0,0,1,.373-.41.461.461,0,0,1,.759.36,2.519,2.519,0,0,1-.357,1.58,3.769,3.769,0,0,1-3.168,2.02" transform="translate(-306.423 -165.902)" fill="#6c83ad"/>
        <path id="Контур_697" data-name="Контур 697" d="M97.383,184.487a3.9,3.9,0,0,1-4.108-3.117,1.141,1.141,0,0,1-.016-.119c-.01-.3-.05-.625.288-.766.365-.151.609.066.8.356s.367.593.579.868a2.64,2.64,0,0,0,4.305.026c.2-.251.348-.54.535-.8a1.526,1.526,0,0,1,.375-.408.461.461,0,0,1,.756.366,2.562,2.562,0,0,1-.38,1.614,3.771,3.771,0,0,1-3.134,1.979" transform="translate(-85.75 -165.909)" fill="#6c83ad"/>
        <path id="Контур_698" data-name="Контур 698" d="M140.734,275.6a21,21,0,0,1-33.325,15.807A29.419,29.419,0,0,0,140.734,275.6" transform="translate(-98.768 -253.431)" fill="#d5e5f7"/>
        <g id="Сгруппировать_855" data-name="Сгруппировать 855" transform="translate(16.192 23.553)" opacity="0.5">
          <g id="Сгруппировать_854" data-name="Сгруппировать 854">
            <g id="Сгруппировать_853" data-name="Сгруппировать 853" clip-path="url(#clip-path-3)">
              <path id="Контур_699" data-name="Контур 699" d="M201.987,295.4a.724.724,0,0,1-.385-1.338,7.478,7.478,0,0,1,8.424,0,.724.724,0,1,1-.772,1.225,6.039,6.039,0,0,0-6.882,0,.72.72,0,0,1-.384.111" transform="translate(-201.262 -292.761)" fill="#6c83ad"/>
            </g>
          </g>
        </g>
      </g>
    </g>
  </g>
</svg>
