<svg xmlns="http://www.w3.org/2000/svg" xmlns:xlink="http://www.w3.org/1999/xlink" width="882" height="60" viewBox="0 0 882 60">
  <defs>
    <clipPath id="clip-path">
      <rect id="Rectangle_361" data-name="Rectangle 361" width="882" height="60" rx="20" transform="translate(51 2182)" fill="#bcd1fa"/>
    </clipPath>
    <clipPath id="clip-path-2">
      <rect id="Rectangle_360" data-name="Rectangle 360" width="60.547" height="115.963" fill="#fff"/>
    </clipPath>
  </defs>
  <g id="Mask_Group_4" data-name="Mask Group 4" transform="translate(-51 -2182)" clip-path="url(#clip-path)">
    <g id="Group_2073" data-name="Group 2073" transform="translate(121.227 2191.037)">
      <g id="Group_2072" data-name="Group 2072" clip-path="url(#clip-path-2)">
        <path id="Path_704" data-name="Path 704" d="M10.11,13.474a12.217,12.217,0,0,0,2.076-.505,32.081,32.081,0,0,1,11.084-1.615c1,.048,1.993.132,2.989.134.93,0,2.2.514,2.555-.693.305-1.038-.884-1.459-1.623-2.012a1.852,1.852,0,0,0-.43-.221,25.054,25.054,0,0,0-13.82-1.124,11.417,11.417,0,0,0-4.874,2.12,1.934,1.934,0,0,0-.8,2.623,2.448,2.448,0,0,0,2.843,1.293" transform="translate(2.814 2.107)" fill="#fff"/>
        <path id="Path_705" data-name="Path 705" d="M9.372,19.227a29.791,29.791,0,0,0,11.588-4.31,1.008,1.008,0,0,0,.5-1.295c-.214-.577-.772-.68-1.347-.645A27.72,27.72,0,0,0,8.293,16.069c-.976.533-1.856,1.358-1.534,2.38.314.989,1.629.524,2.612.778" transform="translate(2.681 3.924)" fill="#fff"/>
        <path id="Path_706" data-name="Path 706" d="M29.529,8.787a1.7,1.7,0,0,0,1.9.572,1.525,1.525,0,0,0,1.048-1.382,10.783,10.783,0,0,0-1.188-6.329,2.451,2.451,0,0,0-2.665-1.6C27.373.3,27.16,1.4,27.156,2.436c0,.246,0,.491,0,.6a6.763,6.763,0,0,0,2.373,5.753" transform="translate(10.868 0)" fill="#fff"/>
        <path id="Path_707" data-name="Path 707" d="M34.723,9.285c.829.027,1.212-.577,1.552-1.159a7.9,7.9,0,0,0,.765-6.563A1.782,1.782,0,0,0,35.651.229a1.993,1.993,0,0,0-1.962.847,4.3,4.3,0,0,0-.8,2.889,7.035,7.035,0,0,0,.5,3.973c.277.565.445,1.319,1.332,1.348" transform="translate(13.152 0.058)" fill="#fff"/>
        <path id="Path_708" data-name="Path 708" d="M7.4,22.5c-.556,1.071-.192,1.609,1.1,1.629,2.074.034,6.32-2.5,7.055-4.181.4-.913-.318-1.016-.994-1.084-2.244-.228-6.211,1.8-7.162,3.635" transform="translate(2.864 5.702)" fill="#fff"/>
        <path id="Path_709" data-name="Path 709" d="M41.889,24.888c.793.03.8.715.926,1.293.667,2.968,3.009,4.789,6.753,5.263.979.124,1.972.2,2.961.223a7.043,7.043,0,0,0,7.2-4.7A12.841,12.841,0,0,0,51.815,10.4a15.6,15.6,0,0,0-13.968,1.718C32.59,15.492,29.32,20.325,26.593,25.5c-2.549,4.839-4.271,9.987-6.405,14.982-2.8,6.55-5.527,13.126-8.253,19.7l-.021-.01s-.23.576-.58,1.457c-.713,1.718-3.434,8.621-3.614,9.074A168.261,168.261,0,0,0,.859,90.872c-1.13,4.38-1.311,8.635.473,12.865,1.2,2.842,2.916,5.283,6.1,6.626A20.967,20.967,0,0,0,12.4,111.43c10.233,1.649,11.359-1.922,12.5-1.275,11.058,6.27,20.951,1.468,21.413-4.676.02-.253-.811,5.685,3.051,5.813,6.856.227,8.726-3.876,9.068-5.707.794-4.258.24-8.525-.172-12.776-.035-.359-.613-4.072-.622-4.144C56.62,79.2,55.5,69.752,54.5,60.288c-.647-6.166-1.186-12.342-1.891-18.5a11.662,11.662,0,0,1,.44-5c.548-1.655-.09-2.41-2.027-2.565a18.973,18.973,0,0,1-7.38-2.146C41.412,30.9,39.9,27.9,40.571,26.122c.233-.617.521-1.263,1.318-1.233" transform="translate(0 2.869)" fill="#fff"/>
        <path id="Path_710" data-name="Path 710" d="M45.453,86.62c-.069.525-.531,5.651,3.058,5.77,6.856.227,8.726-3.875,9.068-5.706.794-4.259.24-8.525-.172-12.776-.017-.165-.147-1.038-.284-1.938-.185,5.22-.277,7.915-.277,9.391,0,3.457.221,4.658-1.759,7.5-1.381,1.981-10.551,5.115-8.718-3.183.28-1.271,1.282-7.863,1.282-7.863s.094-1.2.084-2.219c-.017-1.973-.642-2.733-.845-2.833-.042-.021-.122-.042-.158-.01-.063.056.039.241.049.26a25.9,25.9,0,0,1-.744,8.532c-.472,2.074-2.1,7.543-5.842,9.6-4.352,2.389-12.7,2.014-15.858-2.959-1.49-2.347-1.937-6.785-2.252-13.811a8.092,8.092,0,0,0-.262-1.775,35.327,35.327,0,0,0-.578,6.977c.12,3.56.9,7.967-.955,9.812-3.832,3.807-12.794,1.4-13.694,1.043a15.894,15.894,0,0,1-4.449-2.531,10.183,10.183,0,0,0,4.428,3.567,20.9,20.9,0,0,0,4.972,1.067c10.232,1.65,11.359-1.922,12.5-1.274,11.035,6.254,20.9,1.489,21.408-4.634" transform="translate(0.859 21.769)" fill="#fff"/>
      </g>
    </g>
  </g>
</svg>
