<svg id="Recommend" xmlns="http://www.w3.org/2000/svg" xmlns:xlink="http://www.w3.org/1999/xlink" width="42" height="42" viewBox="0 0 42 42">
  <defs>
    <clipPath id="clip-path">
      <rect id="Прямоугольник_348" data-name="Прямоугольник 348" width="42" height="42" fill="none"/>
    </clipPath>
    <clipPath id="clip-path-3">
      <rect id="Прямоугольник_345" data-name="Прямоугольник 345" width="6.616" height="3.364" fill="none"/>
    </clipPath>
    <clipPath id="clip-path-4">
      <rect id="Прямоугольник_346" data-name="Прямоугольник 346" width="6.013" height="4.425" fill="none"/>
    </clipPath>
  </defs>
  <g id="Сгруппировать_852" data-name="Сгруппировать 852" clip-path="url(#clip-path)">
    <g id="Сгруппировать_851" data-name="Сгруппировать 851">
      <g id="Сгруппировать_850" data-name="Сгруппировать 850" clip-path="url(#clip-path)">
        <path id="Контур_687" data-name="Контур 687" d="M42,21A21,21,0,1,1,21,0,21,21,0,0,1,42,21" fill="#eaf4ff"/>
        <path id="Контур_688" data-name="Контур 688" d="M140.734,275.6a21,21,0,0,1-33.325,15.807A29.419,29.419,0,0,0,140.734,275.6" transform="translate(-98.768 -253.431)" fill="#d5e5f7"/>
        <path id="Контур_689" data-name="Контур 689" d="M332.94,183.616a3.227,3.227,0,1,1-3.247,3.2,3.22,3.22,0,0,1,3.247-3.2" transform="translate(-303.168 -168.844)" fill="#6c83ad"/>
        <path id="Контур_690" data-name="Контур 690" d="M114.575,183.616a3.227,3.227,0,1,1-3.247,3.2,3.22,3.22,0,0,1,3.247-3.2" transform="translate(-102.371 -168.844)" fill="#6c83ad"/>
        <path id="Контур_691" data-name="Контур 691" d="M190.472,317.738a7.128,7.128,0,0,1-4.818-1.57,3.685,3.685,0,0,1-1.158-1.66c-.08-.251-.191-.543.1-.73s.54-.025.764.163c.461.387.887.824,1.381,1.161a6.5,6.5,0,0,0,3.875.971,6.212,6.212,0,0,0,3.282-.788,15.831,15.831,0,0,0,1.512-1.184c.279-.225.559-.582.938-.315s.145.669,0,.983a4.79,4.79,0,0,1-2.691,2.4,8.11,8.11,0,0,1-3.184.567" transform="translate(-169.571 -288.455)" fill="#6c83ad"/>
        <g id="Сгруппировать_846" data-name="Сгруппировать 846" transform="translate(7.638 11.484)" opacity="0.5">
          <g id="Сгруппировать_845" data-name="Сгруппировать 845">
            <g id="Сгруппировать_844" data-name="Сгруппировать 844" clip-path="url(#clip-path-3)">
              <path id="Контур_692" data-name="Контур 692" d="M101.531,144.017a.63.63,0,0,1-.675.778,2.068,2.068,0,0,1-.383-.118A3.694,3.694,0,0,0,96.2,145.71c-.21.226-.4.477-.777.377-.355-.094-.57-.324-.463-.67a3.646,3.646,0,0,1,.553-1.179,4.449,4.449,0,0,1,4.87-1.206,1.939,1.939,0,0,1,1.147.985" transform="translate(-94.932 -142.746)" fill="#6c83ad"/>
            </g>
          </g>
        </g>
        <g id="Сгруппировать_849" data-name="Сгруппировать 849" transform="translate(28.669 11.38)" opacity="0.5">
          <g id="Сгруппировать_848" data-name="Сгруппировать 848">
            <g id="Сгруппировать_847" data-name="Сгруппировать 847" clip-path="url(#clip-path-4)">
              <path id="Контур_693" data-name="Контур 693" d="M362.249,145.57a.63.63,0,0,1-1.027.072,2.06,2.06,0,0,1-.187-.354A3.694,3.694,0,0,0,357.282,143c-.308.011-.621.054-.816-.282-.185-.318-.174-.632.147-.8a3.647,3.647,0,0,1,1.224-.442,4.449,4.449,0,0,1,4.3,2.591,1.939,1.939,0,0,1,.115,1.508" transform="translate(-356.345 -141.449)" fill="#6c83ad"/>
            </g>
          </g>
        </g>
      </g>
    </g>
  </g>
</svg>
