<svg id="neutral" xmlns="http://www.w3.org/2000/svg" xmlns:xlink="http://www.w3.org/1999/xlink" width="42" height="42" viewBox="0 0 42 42">
  <defs>
    <clipPath id="clip-path">
      <rect id="Rectangle_366" data-name="Rectangle 366" width="42" height="42" fill="none"/>
    </clipPath>
    <clipPath id="clip-path-3">
      <rect id="Rectangle_362" data-name="Rectangle 362" width="6.616" height="3.364" fill="none"/>
    </clipPath>
    <clipPath id="clip-path-4">
      <rect id="Rectangle_363" data-name="Rectangle 363" width="6.013" height="4.425" fill="none"/>
    </clipPath>
    <clipPath id="clip-path-5">
      <rect id="Rectangle_364" data-name="Rectangle 364" width="2.6" height="0.753" fill="none"/>
    </clipPath>
  </defs>
  <g id="Group_2097" data-name="Group 2097" clip-path="url(#clip-path)">
    <g id="Group_2096" data-name="Group 2096">
      <g id="Group_2095" data-name="Group 2095" clip-path="url(#clip-path)">
        <path id="Path_711" data-name="Path 711" d="M42,21A21,21,0,1,1,21,0,21,21,0,0,1,42,21" fill="#eaf4ff"/>
        <path id="Path_712" data-name="Path 712" d="M140.734,275.6a21,21,0,0,1-33.325,15.807A29.419,29.419,0,0,0,140.734,275.6" transform="translate(-98.768 -253.431)" fill="#d5e5f7"/>
        <path id="Path_713" data-name="Path 713" d="M332.94,183.616a3.227,3.227,0,1,1-3.247,3.2,3.22,3.22,0,0,1,3.247-3.2" transform="translate(-303.168 -168.844)" fill="#6c83ad"/>
        <path id="Path_714" data-name="Path 714" d="M114.575,183.616a3.227,3.227,0,1,1-3.247,3.2,3.22,3.22,0,0,1,3.247-3.2" transform="translate(-102.371 -168.844)" fill="#6c83ad"/>
        <g id="Group_2088" data-name="Group 2088" transform="translate(7.638 11.484)" opacity="0.5">
          <g id="Group_2087" data-name="Group 2087">
            <g id="Group_2086" data-name="Group 2086" clip-path="url(#clip-path-3)">
              <path id="Path_715" data-name="Path 715" d="M101.531,144.017a.63.63,0,0,1-.675.778,2.068,2.068,0,0,1-.383-.118A3.694,3.694,0,0,0,96.2,145.71c-.21.226-.4.477-.777.377-.355-.094-.57-.324-.463-.67a3.646,3.646,0,0,1,.553-1.179,4.449,4.449,0,0,1,4.87-1.206,1.939,1.939,0,0,1,1.147.985" transform="translate(-94.932 -142.746)" fill="#6c83ad"/>
            </g>
          </g>
        </g>
        <g id="Group_2091" data-name="Group 2091" transform="translate(28.669 11.38)" opacity="0.5">
          <g id="Group_2090" data-name="Group 2090">
            <g id="Group_2089" data-name="Group 2089" clip-path="url(#clip-path-4)">
              <path id="Path_716" data-name="Path 716" d="M362.249,145.57a.63.63,0,0,1-1.027.072,2.06,2.06,0,0,1-.187-.354A3.694,3.694,0,0,0,357.282,143c-.308.011-.621.054-.816-.282-.185-.318-.174-.632.147-.8a3.647,3.647,0,0,1,1.224-.442,4.449,4.449,0,0,1,4.3,2.591,1.939,1.939,0,0,1,.115,1.508" transform="translate(-356.345 -141.449)" fill="#6c83ad"/>
            </g>
          </g>
        </g>
        <path id="Линия_83" data-name="Линия 83" d="M-2.2-5.035H-5.517A.483.483,0,0,1-6-5.517.483.483,0,0,1-5.517-6H-2.2a.483.483,0,0,1,.483.483A.483.483,0,0,1-2.2-5.035Z" transform="translate(24.861 33.402)" fill="#6c83ad"/>
        <g id="Group_2094" data-name="Group 2094" transform="translate(19.675 29.668)" opacity="0.5">
          <g id="Group_2093" data-name="Group 2093">
            <g id="Group_2092" data-name="Group 2092" clip-path="url(#clip-path-5)">
              <path id="Path_717" data-name="Path 717" d="M246.949,368.756a.207.207,0,0,1,.11.382,2.137,2.137,0,0,1-2.407,0,.207.207,0,0,1,.221-.35,1.726,1.726,0,0,0,1.966,0,.206.206,0,0,1,.11-.032" transform="translate(-244.556 -368.756)" fill="#6c83ad"/>
            </g>
          </g>
        </g>
      </g>
    </g>
  </g>
</svg>
