<svg xmlns="http://www.w3.org/2000/svg" xmlns:xlink="http://www.w3.org/1999/xlink" width="19.984" height="20" viewBox="0 0 19.984 20">
  <defs>
    <clipPath id="clip-path">
      <rect id="Прямоугольник_355" data-name="Прямоугольник 355" width="19.984" height="20" transform="translate(0 0)" fill="#969ba4"/>
    </clipPath>
  </defs>
  <g id="Сгруппировать_2055" data-name="Сгруппировать 2055" transform="translate(0 0)">
    <g id="Сгруппировать_2054" data-name="Сгруппировать 2054" clip-path="url(#clip-path)">
      <path id="Контур_702" data-name="Контур 702" d="M5.324,18.848l-.046-.016a.017.017,0,0,1-.01-.012l-.682-.387a.761.761,0,0,0-.275-.054.423.423,0,0,0-.112.012,17.822,17.822,0,0,1-2.171.627l-.135.016H1.852a1.118,1.118,0,0,1-.883-.355,1.374,1.374,0,0,1-.3-.92l.02-.164a18.567,18.567,0,0,1,.677-2.2.53.53,0,0,0-.043-.4l-.184-.358A10.005,10.005,0,0,1,10.026,0h.039a10,10,0,1,1-4.74,18.848ZM5.153,17.16c.092.044.209.107.37.2l.422.243h.006l.287.146a8.631,8.631,0,0,0,9.226-1.1l.22-.187A8.606,8.606,0,0,0,10.054,1.4H9.773a8.6,8.6,0,0,0-7.39,12.59l.181.353a1.943,1.943,0,0,1,.126,1.5,17.777,17.777,0,0,0-.64,2.08l.094-.368.4-.1c.285-.079.553-.16.82-.248l.418-.144a2.057,2.057,0,0,1,.541-.073,2.174,2.174,0,0,1,.83.171Zm8.2-7.16a1.141,1.141,0,1,1,1.141,1.141A1.141,1.141,0,0,1,13.353,10ZM8.918,10a1.141,1.141,0,1,1,1.141,1.141A1.141,1.141,0,0,1,8.918,10M4.481,10a1.141,1.141,0,1,1,1.141,1.141A1.141,1.141,0,0,1,4.481,10" fill="#969ba4"/>
    </g>
  </g>
</svg>
