<svg xmlns="http://www.w3.org/2000/svg" xmlns:xlink="http://www.w3.org/1999/xlink" width="272" height="48" viewBox="0 0 272 48">
  <g transform="translate(-1066 -1074)" clip-path="url(#clip-path)">
    <g transform="translate(1261.627 1081.568)">
      <g transform="translate(0 0)" clip-path="url(#clip-path-2)">
        <path d="M49.844,41.216c-.035,1.4-.063,2.806-.107,4.209-.039,1.257-.069,2.515-.15,3.77q-.12,1.851-.06,3.7a49.83,49.83,0,0,0,.625,6.613,27.867,27.867,0,0,0,1.707,5.675,35.593,35.593,0,0,1,1.688,5.06,8.163,8.163,0,0,1,.2,3.622,4.734,4.734,0,0,1-1.565,2.644,6.624,6.624,0,0,1-1.868,1.2,5.556,5.556,0,0,1-1.767.391,11.228,11.228,0,0,1-3.2-.252,4.5,4.5,0,0,1-1.85-.987,3.277,3.277,0,0,1-.535-.5c-.117-.153-.171-.1-.223.048a7.1,7.1,0,0,1-.588,1.348,5.694,5.694,0,0,1-2.453,2.193,12.4,12.4,0,0,1-3.438,1.148,10.611,10.611,0,0,1-3.457-.077,11.123,11.123,0,0,1-4.74-1.906c-.219-.155-.428-.327-.633-.5a.242.242,0,0,0-.306-.048,8.342,8.342,0,0,1-4.442.707,12.83,12.83,0,0,1-3.54-.777,7.979,7.979,0,0,1-1.677-.9.7.7,0,0,0-.686-.09,18.651,18.651,0,0,1-2.5.632,11.582,11.582,0,0,1-6.535-.576A10.086,10.086,0,0,1,5,75.891a12.99,12.99,0,0,1-3.28-4.018A16.353,16.353,0,0,1,.05,66.259a12.41,12.41,0,0,1,.291-3.814,14.9,14.9,0,0,1,1.438-3.8,35.482,35.482,0,0,1,4.534-6.555c.531-.644,1.108-1.25,1.674-1.866,1.039-1.129,2.084-2.252,3.181-3.325,1.547-1.513,3.127-2.992,4.629-4.55,1.326-1.375,2.689-2.715,3.933-4.166,1.157-1.35,2.4-2.636,3.441-4.079a15.787,15.787,0,0,0,2.343-4.259,9.386,9.386,0,0,0,.493-2.615,3.47,3.47,0,0,0-.628-2.15c-.29-.416-.633-.789-.958-1.178a1.742,1.742,0,0,1-.184-.264.358.358,0,0,1,0-.393A.364.364,0,0,1,24.6,23.1a7.774,7.774,0,0,0,3.911-.589,10.2,10.2,0,0,0,3.831-3.088,7.544,7.544,0,0,0,1.088-2.145,2.822,2.822,0,0,0,.14-.674c.011-.129.01-.276-.121-.349a.365.365,0,0,0-.372.043.823.823,0,0,0-.2.157,11.833,11.833,0,0,1-3.72,2.851,9.33,9.33,0,0,1-4.84.963,5.542,5.542,0,0,1-2.972-1,2.552,2.552,0,0,1-.857-1.119A4.766,4.766,0,0,1,20,15.933a6.737,6.737,0,0,1,.764-2.565,12.212,12.212,0,0,1,2.2-2.991A10.824,10.824,0,0,1,28.049,7.6a15.88,15.88,0,0,1,2.8-.36c.566-.042,1.13-.08,1.7-.1a11.449,11.449,0,0,1,7.464,2.494,15.617,15.617,0,0,1,3.31,3.583,21.764,21.764,0,0,1,1.607,2.763,49.469,49.469,0,0,1,2.783,6.488,33.112,33.112,0,0,1,.933,3.583,50.118,50.118,0,0,1,.788,5.694q.269,2.761.322,5.533c.024,1.311.061,2.623.092,3.934" transform="translate(0 -0.34)" fill="#fff"/>
        <path d="M35.06,3.213a7.366,7.366,0,0,1,.313-1.9A2.149,2.149,0,0,1,36.154.23a1.2,1.2,0,0,1,1.541.114,3.277,3.277,0,0,1,1,2.138A5.049,5.049,0,0,1,38.554,4.6,2.139,2.139,0,0,1,37.448,6,1.432,1.432,0,0,1,35.6,5.463a4.479,4.479,0,0,1-.541-2.25" transform="translate(-1.673 0)" fill="#fff"/>
        <path d="M33.754,3.012a6.765,6.765,0,0,1-.194,1.78,2.982,2.982,0,0,1-.33.806,1.133,1.133,0,0,1-1.7.193,3.439,3.439,0,0,1-.807-1.82,5.12,5.12,0,0,1-.019-2.1A2.764,2.764,0,0,1,31.433.435a1.076,1.076,0,0,1,1.8.279,4.118,4.118,0,0,1,.52,2.3" transform="translate(-1.46 -0.003)" fill="#fff"/>
      </g>
    </g>
  </g>
</svg>
