<svg xmlns="http://www.w3.org/2000/svg" xmlns:xlink="http://www.w3.org/1999/xlink" width="20.001" height="19.6" viewBox="0 0 20.001 19.6">
  <g>
    <path d="M15.16,18.086A1.515,1.515,0,1,1,16.676,19.6h0a1.516,1.516,0,0,1-1.515-1.514m-11.251,0A1.514,1.514,0,1,1,5.423,19.6a1.514,1.514,0,0,1-1.514-1.514m1.681-3.1A2.568,2.568,0,0,1,3.065,12.81l-.019-.164-.914-10.9L.622,1.49A.752.752,0,0,1,0,.724l.01-.1A.749.749,0,0,1,.75,0H.777l.1.01,2.08.36a.75.75,0,0,1,.6.566l.018.111.235,2.8h14.1a2.07,2.07,0,0,1,1.531.666A2.1,2.1,0,0,1,20,6.086l-.016.151L19.03,12.8a2.564,2.564,0,0,1-2.363,2.182l-.164.005ZM4.541,12.521a1.055,1.055,0,0,0,.933.959l.116.006H16.5a1.054,1.054,0,0,0,1.019-.787l.023-.117.95-6.558a.592.592,0,0,0-.5-.669L17.9,5.348H3.938Zm7.585-3.476a.75.75,0,0,1-.1-1.493l.1-.007H14.9A.751.751,0,0,1,15,9.039l-.1.006Z" fill="#f04137"/>
  </g>
</svg>
