<svg xmlns="http://www.w3.org/2000/svg" xmlns:xlink="http://www.w3.org/1999/xlink" width="32" height="32" viewBox="0 0 32 32">
  <rect width="32" height="32" rx="4" fill="#fff"/>
  <g transform="translate(4 4)">
    <path d="M2,9A7,7,0,0,1,9,2h8a1,1,0,0,1,0,2H9A5,5,0,0,0,4,9v8a1,1,0,0,1-2,0Z" fill="#4b4da8" fill-rule="evenodd"/>
    <path d="M6,11a5,5,0,0,1,5-5h6a5,5,0,0,1,5,5v6a5,5,0,0,1-5,5H11a5,5,0,0,1-5-5Zm5-3a3,3,0,0,0-3,3v6a3,3,0,0,0,3,3h6a3,3,0,0,0,3-3V11a3,3,0,0,0-3-3Z" fill="#4b4da8" fill-rule="evenodd"/>
  </g>
</svg>
