<svg id="gift" xmlns="http://www.w3.org/2000/svg" xmlns:xlink="http://www.w3.org/1999/xlink" width="32" height="32" viewBox="0 0 32 32">
  <g clip-path="url(#clip-path)">
    <path d="M13.17,23.576c0-.074-.008-.147-.012-.232a.573.573,0,0,1-.573-.478c-.09-.28-.207-.551-.3-.83-.044-.137-.107-.16-.24-.12-.386.116-.775.22-1.164.327a.48.48,0,0,1-.55-.169.473.473,0,0,1-.014-.558c.067-.119.137-.237.2-.355l1.1-1.891c-.341.106-.634.218-.937.288a3.41,3.41,0,0,1-3.4-.824.368.368,0,0,0-.241-.072c-1.217-.005-2.435,0-3.652-.008-.193,0-.255.048-.255.25q.01,4.515,0,9.029a.624.624,0,0,0,.713.717q4.545,0,9.089.005c.188,0,.226-.063.226-.236-.006-1.614,0-3.229,0-4.843" fill="#fff"/>
    <path d="M28.435,18.655c-1.217.009-2.435,0-3.652.008a.446.446,0,0,0-.279.083,3.371,3.371,0,0,1-3.171.777c-.4-.085-.792-.24-1.207-.369.032.058.06.112.09.164q.629,1.081,1.258,2.163a.491.491,0,0,1,.008.592.5.5,0,0,1-.589.16c-.341-.1-.684-.192-1.026-.289-.278-.078-.278-.079-.374.187s-.188.542-.3.808a.613.613,0,0,1-.2.3.312.312,0,0,0-.152.323q0,2.412,0,4.823c0,.269,0,.271.265.271h8.516c.157,0,.315.005.471,0a.593.593,0,0,0,.567-.589c.007-.172,0-.342,0-.514q0-4.321,0-8.64c0-.18-.036-.249-.234-.248" fill="#fff"/>
    <path d="M3.356,12.988q1.6-.008,3.2,0c.147,0,.2-.052.228-.191.113-.5.222-1,.367-1.491A2.235,2.235,0,0,1,8.9,9.589a3.116,3.116,0,0,1,3.078,1.068c.363.4.69.831,1.034,1.247.037.045.078.086.145.16.009-.1.018-.157.018-.215q0-4.247,0-8.494c0-.174-.038-.234-.225-.234q-4.565.009-9.128,0a.608.608,0,0,0-.675.671q0,4.492-.005,8.986c0,.17.061.206.214.2" fill="#fff"/>
    <path d="M19.724,10.806A3.2,3.2,0,0,1,21.51,9.571a2.445,2.445,0,0,1,3.263,1.811c.12.462.234.927.33,1.4.033.161.09.213.252.212,1.026-.006,2.052-.008,3.078,0,.2,0,.236-.066.236-.247q-.008-4.453,0-8.909c0-.487-.226-.709-.72-.709H19.081c-.073,0-.145.009-.224.013v8.751l.047.016c.274-.367.553-.728.82-1.1" fill="#fff"/>
    <path d="M14.122,12.651V12.9a3.248,3.248,0,0,1,3.755-.014c.007-.09.017-.149.017-.207q0-4.966,0-9.933c0-.188-.053-.244-.243-.243q-1.641.014-3.283,0c-.2,0-.254.053-.254.251q.009,4.947,0,9.892" fill="#fff"/>
    <path d="M10.179,10.587a1.517,1.517,0,0,0-2.158,1.16c-.182.82-.367,1.64-.5,2.469a8.436,8.436,0,0,0-.056,2.635,2.039,2.039,0,0,0,1.7,1.848,3.064,3.064,0,0,0,1.88-.269c.76-.371,1.486-.812,2.225-1.224.009,0,.011-.024.013-.029l-.357-.779c-.079.061-.149.113-.218.167-.413.327-.824.655-1.239.979a.484.484,0,1,1-.587-.758c.423-.336.848-.67,1.271-1,.116-.092.229-.188.358-.294-.077-.064-.133-.112-.191-.158-.493-.39-.989-.778-1.48-1.171a.479.479,0,1,1,.589-.755c.083.061.162.127.242.19l1.254.989c.106-.23.186-.433.292-.622a.237.237,0,0,0-.027-.32q-.953-1.142-1.891-2.3a2.3,2.3,0,0,0-1.123-.757" fill="#fff"/>
    <path d="M17.783,22.217c-.57-1-1.149-1.988-1.726-2.981-.044-.075-.091-.147-.145-.235a1.4,1.4,0,0,0-.086.118q-.82,1.41-1.635,2.821a.564.564,0,0,0-.067.271c0,2.23,0,4.459-.007,6.689,0,.2.069.237.25.236q1.641-.01,3.282,0c.2,0,.249-.068.249-.259-.006-2.093,0-4.186-.009-6.279a.811.811,0,0,0-.106-.383" fill="#fff"/>
    <path d="M21.208,17.567a.465.465,0,0,1-.621.008c-.429-.329-.849-.668-1.273-1-.073-.057-.148-.113-.229-.174l-.378.827c.743.4,1.473.814,2.227,1.18a3.056,3.056,0,0,0,1.521.259,2,2,0,0,0,1.882-1.552A6.434,6.434,0,0,0,24.473,16a10.782,10.782,0,0,0-.235-2.609c-.133-.669-.281-1.338-.474-1.992a1.293,1.293,0,0,0-1.288-.988,2.184,2.184,0,0,0-1.847.814c-.639.8-1.238,1.635-1.851,2.457a.2.2,0,0,0-.04.16c.107.242.226.477.351.733.062-.045.122-.086.179-.131.43-.339.854-.685,1.293-1.012a.681.681,0,0,1,.393-.124.414.414,0,0,1,.394.334.461.461,0,0,1-.167.513c-.416.334-.836.662-1.254.993-.137.109-.273.22-.422.34.063.057.105.1.152.136.482.382.967.761,1.447,1.146a.854.854,0,0,1,.217.24.466.466,0,0,1-.113.561" fill="#fff"/>
    <path d="M16.022,17.717a2.227,2.227,0,1,0-2.239-2.22,2.227,2.227,0,0,0,2.239,2.22" fill="#fff"/>
    <path d="M29.314,14.244c0-.269-.04-.308-.308-.309q-1.733,0-3.464,0c-.071,0-.142.011-.23.018a8.8,8.8,0,0,1-.15,3.735.942.942,0,0,0,.112.019q1.9,0,3.792,0c.2,0,.251-.1.251-.287,0-1.059,0-2.119,0-3.178" fill="#fff"/>
    <path d="M6.7,17.694a9.244,9.244,0,0,1-.123-3.74c-.067-.008-.107-.018-.147-.018q-1.731,0-3.464,0c-.193,0-.263.084-.262.275.005,1.053,0,2.105,0,3.158,0,.312.026.341.337.341H6.461c.072,0,.144-.009.234-.015" fill="#fff"/>
    <path d="M14.013,17.977c-.026-.016-.074-.031-.093-.018-.248.169-.563.232-.73.53-.432.767-.884,1.523-1.328,2.283-.036.062-.067.126-.124.232.218-.059.386-.108.555-.151a.52.52,0,0,1,.718.377c.057.15.115.3.19.494l1.826-3.143c-.35-.209-.681-.408-1.014-.6" fill="#fff"/>
    <path d="M19.55,20.862l.534.141-.522-.9q-.536-.92-1.072-1.84c-.106-.182-.385-.343-.491-.284-.385.214-.767.432-1.175.662q.863,1.484,1.79,3.082c.072-.188.127-.326.178-.466a.533.533,0,0,1,.758-.4" fill="#fff"/>
    <path d="M30.865,14.064a1.293,1.293,0,0,0-.591-1.115c-.063-.042-.078-.063-.078-.173q.006-4.6,0-9.2a2.452,2.452,0,0,0-.084-.685,1.814,1.814,0,0,0-1.823-1.3q-4.619,0-9.238,0h0c-.087,0-.09,0-.114-.045A1.2,1.2,0,0,0,17.859.959Q16,.951,14.153.958a1.2,1.2,0,0,0-1.046.551c-.043.067-.062.081-.165.081h0q-4.132-.006-8.265,0H3.6a1.85,1.85,0,0,0-1.988,2v.89q0,4.229,0,8.456a.218.218,0,0,1-.071.19,1.315,1.315,0,0,0-.393.979q0,1.727,0,3.454a1.456,1.456,0,0,0,.377.968A.35.35,0,0,1,1.6,18.7q.009,1.922,0,3.841v2.081q0,1.838,0,3.675a1.834,1.834,0,0,0,.5,1.3,1.878,1.878,0,0,0,1.427.586h0q4.744,0,9.491,0h0c.109,0,.131.016.167.06a1.207,1.207,0,0,0,.973.44q.891,0,1.781,0,.953,0,1.9,0a1.088,1.088,0,0,0,.9-.369c.091-.114.184-.142.393-.132,2.742,0,5.931.007,9.092,0A2.229,2.229,0,0,0,29.139,30a1.768,1.768,0,0,0,1.06-1.723v-.9q0-4.257,0-8.513c0-.12.016-.135.075-.173a1.29,1.29,0,0,0,.594-1.115c.008-1.126.008-2.276,0-3.518m-5.066.048h3.538c.041,0,.07,0,.09,0,0,.02,0,.049,0,.09v1.022q0,1.119,0,2.238a.465.465,0,0,1,0,.068H25.686a9.294,9.294,0,0,0,.113-3.42M28.764,28c0,.12,0,.24,0,.36a.383.383,0,0,1-.373.389c-.114.008-.229.006-.343.005H19.14v-.981q0-2.01,0-4.019c0-.111,0-.114.046-.138a.821.821,0,0,0,.3-.411c.084-.2.158-.414.229-.617l.079-.222c.009-.024.019-.051.027-.074l.085.024.382.107c.223.062.445.124.667.189a.726.726,0,0,0,.852-1.1q-.5-.852-.992-1.706l-.1-.171a6.531,6.531,0,0,0,.709.2,3.689,3.689,0,0,0,3.448-.849.308.308,0,0,1,.136-.028c1.249-.005,2.5,0,3.746-.008h.014v.03q-.006,3.5,0,7Zm-9.5-11.232.414.327c.3.236.594.472.894.7a.71.71,0,0,0,1.086-.867,1.058,1.058,0,0,0-.278-.314c-.334-.268-.671-.533-1.007-.8l-.425-.335.223-.179.432-.342c.286-.225.572-.45.856-.678a.693.693,0,0,0,.246-.76.648.648,0,0,0-.614-.506.887.887,0,0,0-.543.171c-.324.241-.645.5-.954.743l-.339.269c-.075-.153-.147-.3-.214-.452l.476-.643c.455-.617.926-1.254,1.41-1.862a2.016,2.016,0,0,1,1.713-.75,1.106,1.106,0,0,1,1.112.853c.214.727.37,1.463.481,2.023a10.915,10.915,0,0,1,.238,2.621,6.219,6.219,0,0,1-.135,1.1,1.837,1.837,0,0,1-1.723,1.418,2.892,2.892,0,0,1-1.451-.243c-.539-.262-1.077-.555-1.6-.839l-.492-.268.184-.4.008.007m9.508-4.074h-.015c-.483,0-.988-.006-1.539-.006-.5,0-1.033,0-1.621.005a.246.246,0,0,0-.028,0c0-.009-.006-.022-.01-.038-.086-.42-.192-.865-.341-1.442a2.819,2.819,0,0,0-1.275-1.8,3.051,3.051,0,0,0-2.347-.213,3.5,3.5,0,0,0-1.954,1.352c-.158.219-.32.436-.483.651V3.026h9.1c.383,0,.513.127.513.5V5.922q0,3.37,0,6.743v.028M17.285,18.724c.285-.162.561-.318.838-.473a.525.525,0,0,1,.237.189q.4.691.806,1.384l.556.956-.024-.007a.762.762,0,0,0-1.045.548l-.014.037L17.153,18.8ZM16,13.421h0a2.06,2.06,0,0,1,.014,4.12h0a2.073,2.073,0,0,1-1.466-.6A2.061,2.061,0,0,1,16,13.421M17.718,9.99v2.447a3.477,3.477,0,0,0-3.42,0V10.8q0-4.185,0-8.369a.322.322,0,0,1,0-.033h.034c1.1.009,2.238.009,3.369,0h.023v.024q0,3.788,0,7.574M3.038,18.982a.282.282,0,0,1,0-.031h.035c1.248.008,2.5,0,3.746.008a.725.725,0,0,1,.089.009,3.7,3.7,0,0,0,3.7.9c.142-.033.28-.074.421-.118l-.862,1.478c-.062.107-.124.213-.185.32a.721.721,0,0,0,.834,1.071l.241-.066c.312-.085.625-.171.935-.264.045.134.094.266.144.4s.106.281.151.423a.844.844,0,0,0,.589.622c0,.013,0,.025,0,.038v1.406c0,1.187,0,2.374,0,3.561v.017h-.007q-3.018-.006-6.034,0H3.55c-.374,0-.507-.134-.507-.511V26.1q0-3.562,0-7.123m-.454-4.814a.307.307,0,0,1,0-.055.176.176,0,0,1,.041,0q1.133,0,2.266,0H6.083a9.689,9.689,0,0,0,.088,3.42q-1.731,0-3.462,0-.077,0-.12,0c0-.029,0-.07,0-.122v-.842c0-.8,0-1.6,0-2.4m9.844,3.255c-.521.3-1.059.606-1.6.871a2.9,2.9,0,0,1-1.792.257,1.862,1.862,0,0,1-1.564-1.708,8.466,8.466,0,0,1,.057-2.633c.13-.8.309-1.6.482-2.381l.03-.138a1.4,1.4,0,0,1,.621-.972,1.29,1.29,0,0,1,.65-.161,2.222,2.222,0,0,1,.656.109,2.147,2.147,0,0,1,1.045.7c.531.651,1.231,1.507,1.941,2.357a.394.394,0,0,1,.025.032.241.241,0,0,1-.02.043c-.072.127-.131.257-.192.394l-1.135-.9c-.059-.048-.118-.1-.18-.14a.715.715,0,1,0-.876,1.13q.512.409,1.026.813l.476.375-.154.125-.569.45-.735.582a.717.717,0,0,0-.181,1.045.693.693,0,0,0,.46.27.816.816,0,0,0,.6-.186q.429-.334.853-.673l.418-.33.171.373-.508.289m.448-8.013v1.97l-.1-.13c-.234-.291-.476-.592-.733-.876A3.409,3.409,0,0,0,8.67,9.21a2.5,2.5,0,0,0-1.959,1.918c-.137.463-.244.939-.348,1.4l-.032.143,0,.021h-.01c-.554,0-1.115,0-1.69,0l-1.587,0q0-3.13,0-6.26V3.49c0-.316.149-.464.469-.464h2.52q3.42,0,6.84-.005h.007v.016q-.006,3.186,0,6.373m-.437,11.313a1.154,1.154,0,0,0-.3.041l-.058.014.272-.464c.316-.538.643-1.094.955-1.648a.853.853,0,0,1,.4-.312c.061-.031.123-.062.184-.1l.767.457.029.017L13.17,21.356l-.026-.068a.731.731,0,0,0-.7-.565M14.3,25.2q0-1.414,0-2.829a.371.371,0,0,1,.039-.167q.711-1.236,1.43-2.468L15.9,19.5l.317.546c.473.812.946,1.625,1.412,2.441a.6.6,0,0,1,.08.282q0,1.644,0,3.286,0,1.577,0,3.153c0,.016,0,.029,0,.04h-.028c-.537,0-1.089-.007-1.68-.007-.527,0-1.085,0-1.689.006h-.031v-.016q.006-2.016.005-4.031" fill=""/>
  </g>
</svg>
