<svg id="instruction" xmlns="http://www.w3.org/2000/svg" xmlns:xlink="http://www.w3.org/1999/xlink" width="24" height="24" viewBox="0 0 24 24">
  <g transform="translate(-217 -2740)">
    <g transform="translate(217 2740)" fill="#fff" stroke="#707070" stroke-width="1" opacity="0">
      <rect width="24" height="24" stroke="none"/>
      <rect x="0.5" y="0.5" width="23" height="23" fill="none"/>
    </g>
    <g transform="translate(219.996 2742)">
      <g clip-path="url(#clip-path)">
        <path d="M5.142,20a6.959,6.959,0,0,1-1.17-.094l-.218-.041A4.454,4.454,0,0,1,.99,18.179,5.549,5.549,0,0,1,0,14.791V5.209a7,7,0,0,1,.06-.96C.415,1.549,2.267,0,5.142,0h7.726C16.055,0,17.975,1.919,18,5.132v9.659C18,18.052,16.083,20,12.868,20ZM1.442,5.209V14.79c0,2.489,1.245,3.752,3.7,3.752h7.717c2.449,0,3.691-1.263,3.691-3.752V5.209c0-2.489-1.242-3.752-3.691-3.752H5.142c-2.455,0-3.7,1.263-3.7,3.752m3.944,9.749a.724.724,0,1,1,0-1.448H12.6a.724.724,0,1,1,0,1.448ZM12.6,10.729H5.386a.735.735,0,0,1,0-1.458H12.6a.722.722,0,0,1,.691.339.739.739,0,0,1,0,.779.721.721,0,0,1-.691.339ZM5.4,6.5a.734.734,0,0,1,0-1.457H8.139a.734.734,0,0,1,0,1.457Z" fill="#f04137"/>
      </g>
    </g>
  </g>
</svg>
