<svg id="more-link" xmlns="http://www.w3.org/2000/svg" xmlns:xlink="http://www.w3.org/1999/xlink" width="149.96" height="77.476" viewBox="0 0 149.96 77.476">
  <g clip-path="url(#clip-path)">
    <path d="M130.229,0a.174.174,0,0,0,.166.109,4.94,4.94,0,0,1,1.072.177,6.833,6.833,0,0,1,1.869.883,8.7,8.7,0,0,1,2.212,1.862,17.258,17.258,0,0,1,1.23,1.569,23.292,23.292,0,0,1,1.552,2.591,13.038,13.038,0,0,1,.611,1.607,11.645,11.645,0,0,1,.672,4.092c-.011.409.017.82.035,1.23a4.717,4.717,0,0,1-.7,2.787.8.8,0,0,1-1.373-.186,5.925,5.925,0,0,1-.3-1.117c-.262-1.068-.494-2.143-.825-3.2-.172-.549-.381-1.086-.58-1.62a11.578,11.578,0,0,0-.908-1.626,9.734,9.734,0,0,0-2.23-2.514,20.152,20.152,0,0,0-3.119-2.138,7.049,7.049,0,0,1-2.485-2.142,1.316,1.316,0,0,1,.652-1.952,4.552,4.552,0,0,1,1.889-.359A.657.657,0,0,0,130.016,0Z" transform="translate(0 -0.001)" fill="#f3534a"/>
    <path d="M55.5,15.115a45.329,45.329,0,0,1,4.6-.2,42.059,42.059,0,0,1,4.349.008c1.735.163,3.47.329,5.207.474,1.69.141,3.369.365,5.051.57.666.082,1.335.118,2,.237,1.088.195,2.194.256,3.289.431,1.079.172,2.177.255,3.264.4.654.086,1.3.2,1.957.3,1.222.177,2.452.309,3.665.535.929.173,1.866.276,2.8.413,1.211.177,2.414.421,3.639.512.407.03.8.222,1.207.268,1.229.137,2.432.43,3.658.591,1.074.141,2.147.317,3.218.472,1.215.176,2.4.462,3.611.67,1.764.3,3.536.549,5.3.8a26.339,26.339,0,0,0,3.183.4c.694.014,1.4.217,2.1.265.793.055,1.555.283,2.34.339,1.058.075,2.095.329,3.159.333a26.591,26.591,0,0,1,3.333.347c1.333.173,2.679.195,4,.4a19.127,19.127,0,0,1,2.3.384,10.123,10.123,0,0,1,2.179.575c.828.445,1.679.84,2.465,1.368a10.555,10.555,0,0,1,1.532,1.217,11.243,11.243,0,0,1,1.548,1.81c.391.591.672,1.232,1.025,1.837a10.983,10.983,0,0,1,.6,1.845,9.464,9.464,0,0,1,.311,2.868,11.284,11.284,0,0,1-.256,3.193,9.352,9.352,0,0,1-.528,1.788c-.236.52-.4,1.079-.627,1.609a5.036,5.036,0,0,1-.53.908c-.437.614-.757,1.3-1.232,1.894-.256.322-.5.684-.777.98s-.562.622-.836.925c-.4.444-.833.855-1.265,1.265a11.525,11.525,0,0,1-2.715,1.941c-.618.314-1.252.6-1.877.9a4.057,4.057,0,0,1-2.715.285,4.591,4.591,0,0,1-1.711-.873,9.911,9.911,0,0,1-1.731-1.531,7.7,7.7,0,0,1-1.418-2.469,15.981,15.981,0,0,1-.9-3.6,14.743,14.743,0,0,1,.084-2.7,6.492,6.492,0,0,1,.548-1.984,7.712,7.712,0,0,1,1.237-1.994,8.852,8.852,0,0,1,2.409-1.8c.057-.032.177-.05.141-.164a.141.141,0,0,0-.108-.074,4.462,4.462,0,0,0-1.609.006,6.426,6.426,0,0,0-2.936,1.828,10.389,10.389,0,0,0-1.255,1.718,7.736,7.736,0,0,0-.624,1.4,20.759,20.759,0,0,0-.617,2.275,1.438,1.438,0,0,0-.072.451c.017.166-.027.341-.182.38a.487.487,0,0,1-.547-.113,3.991,3.991,0,0,0-1.271-.833c-.73-.36-1.458-.73-2.166-1.131-.5-.283-1.05-.452-1.552-.719-.558-.3-1.155-.5-1.711-.806-.449-.244-.947-.4-1.419-.6-.983-.421-1.984-.8-2.971-1.209a13.966,13.966,0,0,0-1.707-.651,7.883,7.883,0,0,1-1.017-.393c-.577-.245-1.179-.4-1.767-.606-1.07-.37-2.131-.773-3.215-1.1C99.82,33.648,98.7,33.3,97.561,33c-.85-.229-1.7-.449-2.549-.7-.575-.169-1.181-.131-1.764-.268a13.2,13.2,0,0,0-2.339-.242c-1.007-.054-2.01-.148-3.023-.116-1.035.034-2.064.134-3.1.182a21.59,21.59,0,0,0-3.859.578,16.939,16.939,0,0,0-8.242,4.152,13.225,13.225,0,0,0-1.8,2.055,16.7,16.7,0,0,0-1.2,1.94,13.265,13.265,0,0,0-1.177,2.706q-.408,1.371-.766,2.752a15.966,15.966,0,0,0-.447,3.326A20.878,20.878,0,0,0,67.34,52.5c.129,1.22.335,2.424.538,3.632A45.142,45.142,0,0,0,68.915,60.6c.283,1.033.582,2.064.845,3.1.227.888.609,1.7.887,2.564a9.743,9.743,0,0,0,.814,1.6q.788,1.437,1.448,2.937a6.073,6.073,0,0,1,.581,2.02,3.241,3.241,0,0,1-.212,1.611A3.974,3.974,0,0,1,71.5,76.19a4.467,4.467,0,0,1-1.965.613,4.616,4.616,0,0,1-1.795-.255,8.666,8.666,0,0,1-1.145-.4,6.541,6.541,0,0,1-2.3-1.987,3.52,3.52,0,0,0-3.126-1.432,4.137,4.137,0,0,0-1.649.686,6.883,6.883,0,0,0-1.43,1.192,4.012,4.012,0,0,1-1.976,1.034,3.36,3.36,0,0,1-1.886-.044,10.364,10.364,0,0,1-1.363-.461,6.289,6.289,0,0,1-1.522-1.178c-.382-.377-.8-.71-1.191-1.07a4.358,4.358,0,0,0-1.384-.814,2.46,2.46,0,0,0-2.436.1,2.243,2.243,0,0,0-.548.592,22.893,22.893,0,0,1-2.869,2.9,4.736,4.736,0,0,1-2.077,1.094,5.438,5.438,0,0,1-3.28-.278,14.337,14.337,0,0,1-2.471-1.481,4.756,4.756,0,0,0-2.614-.906,5.429,5.429,0,0,0-1.688.457,4.783,4.783,0,0,0-1.9,1.235,3.1,3.1,0,0,1-1.132.638,8.227,8.227,0,0,1-3.284.5,5.036,5.036,0,0,1-1.689-.556c-.065-.024-.119-.079-.184-.1a4,4,0,0,1-1.549-1.386c-.615-.759-1.218-1.529-1.866-2.259a2.116,2.116,0,0,0-2.152-.291,10.4,10.4,0,0,0-2.177,1.665,15.805,15.805,0,0,1-3.2,2.05c-.889.425-1.822.705-2.73,1.058a8.929,8.929,0,0,1-2.652.371,4.94,4.94,0,0,1-2.477-.425,5.793,5.793,0,0,1-2.648-1.99A6.373,6.373,0,0,1,.012,71.18a22.83,22.83,0,0,1,.372-2.763c.18-.93.573-1.786.837-2.685C1.7,64.1,2.555,62.618,3.1,61.012c.257-.76.661-1.464.9-2.227.282-.913.72-1.761,1.044-2.657.2-.545.455-1.085.675-1.626a17.473,17.473,0,0,0,.69-1.66,8.48,8.48,0,0,1,.474-1.216c.506-1.076.917-2.193,1.4-3.277.558-1.246,1.129-2.487,1.756-3.7.433-.837.936-1.63,1.378-2.457.312-.584.7-1.109,1.043-1.665.761-1.226,1.607-2.388,2.422-3.575.36-.523.735-1.042,1.129-1.531.556-.688,1.17-1.341,1.731-2.024.44-.536.946-1.005,1.389-1.536A21.227,21.227,0,0,1,20.857,30.1c.74-.7,1.467-1.428,2.267-2.058.783-.617,1.536-1.272,2.345-1.861.615-.448,1.228-.905,1.849-1.348.536-.383,1.081-.754,1.641-1.1.811-.5,1.626-1,2.461-1.456.7-.385,1.423-.736,2.123-1.118.621-.338,1.3-.562,1.89-.952.27-.177.635-.2.911-.375a10.567,10.567,0,0,1,2.277-.922,27.765,27.765,0,0,1,3.608-1.227c.284-.054.539-.243.821-.321.76-.21,1.54-.353,2.289-.6,1.273-.414,2.6-.586,3.9-.872a30.387,30.387,0,0,1,5.213-.727,3.87,3.87,0,0,1,1.05-.054" transform="translate(0 -0.001)" fill="#f3534a"/>
    <path d="M135.953,15.495a18.822,18.822,0,0,1,.033,2.461,1.226,1.226,0,0,1-.487.9.853.853,0,0,1-1.3-.5,31.151,31.151,0,0,0-1.414-3.127,11.436,11.436,0,0,0-1.124-1.78,7.267,7.267,0,0,0-1.917-1.69c-.459-.279-.907-.583-1.389-.814a15.011,15.011,0,0,0-1.5-.573c-.739-.263-1.471-.55-2.225-.761a9.312,9.312,0,0,1-2.167-1.108,2.167,2.167,0,0,1-.813-2.566,2.791,2.791,0,0,1,1.218-1.038,3.291,3.291,0,0,1,2.075-.3,14.392,14.392,0,0,1,3.392.959c.477.2.966.379,1.42.616a6.961,6.961,0,0,1,1.56,1.129c.3.281.641.5.922.806.538.592,1.04,1.207,1.54,1.831a8.163,8.163,0,0,1,1.082,1.863,6.837,6.837,0,0,1,.926,2.989c-.009.238.282.4.169.691" transform="translate(0 -0.001)" fill="#f3534a"/>
    <path d="M123.392,11.2a9.367,9.367,0,0,1,2.092.279,6.8,6.8,0,0,1,2.492.988,7.768,7.768,0,0,1,2.3,1.983,6.868,6.868,0,0,1,.591.859,1.021,1.021,0,0,1,.007,1.118c-.28.413-.734.374-1.157.33a4.884,4.884,0,0,1-1.376-.512,11.965,11.965,0,0,0-2.005-.5,23.865,23.865,0,0,0-3.558-.3c-.634-.055-1.278-.109-1.92-.118a1.942,1.942,0,0,1-1.816-1.5,1.827,1.827,0,0,1,1.413-2.18,12.154,12.154,0,0,1,2.941-.457" transform="translate(0 -0.001)" fill="#f3534a"/>
    <path d="M142.389,29.667a1.46,1.46,0,0,1-1.243-1.478,4.87,4.87,0,0,1,.836-2.562,13.861,13.861,0,0,1,1.245-1.872,6.427,6.427,0,0,1,1.792-1.445,8.117,8.117,0,0,1,1.45-.531,1.5,1.5,0,0,1,1.914.913,2.746,2.746,0,0,1-.136,2.259,7.572,7.572,0,0,1-1.11,1.485,11.5,11.5,0,0,1-1.691,1.624,13.939,13.939,0,0,1-1.948,1.379,2.32,2.32,0,0,1-1.109.228" transform="translate(0 -0.001)" fill="#f3534a"/>
    <path d="M143.468,33.1a1.064,1.064,0,0,1,.184-.641,18.651,18.651,0,0,1,1.146-1.947,6.9,6.9,0,0,1,1.611-1.632,4.6,4.6,0,0,1,2.362-.958c.8-.035,1.212.464,1.187,1.261a4.225,4.225,0,0,1-1.459,2.69,7.229,7.229,0,0,1-1.748,1.392,12.052,12.052,0,0,1-2.019.963c-.649.236-1.265-.31-1.264-1.128" transform="translate(0 -0.001)" fill="#f3534a"/>
  </g>
</svg>
