<svg id="more-hover" xmlns="http://www.w3.org/2000/svg" xmlns:xlink="http://www.w3.org/1999/xlink" width="77.199" height="142.543" viewBox="0 0 77.199 142.543">
  <g clip-path="url(#clip-path)">
    <path d="M.011,135.235a13.622,13.622,0,0,1,.177-2.327A31.51,31.51,0,0,1,4.4,121.357a38.6,38.6,0,0,1,7.141-9.031,43.349,43.349,0,0,1,9.221-6.714c1.8-.974,3.46-2.183,5.212-3.236a42.81,42.81,0,0,0,8.567-7A32.157,32.157,0,0,0,37.4,91.75a28.319,28.319,0,0,0,3.388-5.724,57.887,57.887,0,0,0,1.924-5.664,72,72,0,0,0,1.869-8.039c.483-2.747.876-5.51,1.129-8.29.13-1.433.327-2.859.464-4.291.16-1.671.3-3.344.429-5.017.159-2.051.353-4.1.43-6.155.076-2.005.17-4.01.218-6.017.059-2.489-.052-4.974-.024-7.461.029-2.549-.033-5.1,0-7.649a23.411,23.411,0,0,1,2.04-9.6,14.126,14.126,0,0,1,6.03-6.886,15.613,15.613,0,0,1,5.051-1.649,10.68,10.68,0,0,1,6.124.663,15.578,15.578,0,0,1,3.582,2.248,24.426,24.426,0,0,1,4.129,4.463A21.317,21.317,0,0,1,76.7,21.071a6.4,6.4,0,0,1,.464,3.042,3.6,3.6,0,0,1-1.1,2.076,7.831,7.831,0,0,1-4.787,2.465,9.88,9.88,0,0,1-6.366-.99A8.748,8.748,0,0,1,60.7,22.843c-.022-.059-.037-.121-.061-.179-.032-.079-.046-.193-.16-.181-.135.015-.129.142-.129.238a4.046,4.046,0,0,0,.025.643,9.006,9.006,0,0,0,3.069,5.546,11.488,11.488,0,0,0,3.5,2.069c.628.24.723.654.227,1.064a11.143,11.143,0,0,0-3.624,5.906,36.258,36.258,0,0,0-1.319,9.574c.019,4.612.294,9.208.751,13.8.373,3.744.73,7.489,1.38,11.2.782,4.465,1.71,8.9,2.75,13.314,1.187,5.04,2.617,10.015,3.96,15.013.665,2.475,1.51,4.9,2.207,7.366a128.133,128.133,0,0,1,3.143,14.27c.2,1.208.473,2.408.583,3.624a24.251,24.251,0,0,1-.308,8.136,14.385,14.385,0,0,1-2.7,5.608,5.8,5.8,0,0,1-2.468,1.832,4.744,4.744,0,0,1-5.282-1.435A10.216,10.216,0,0,0,65,138.926a4.123,4.123,0,0,0-4.559-.673,11.1,11.1,0,0,0-3.5,2.346,6.283,6.283,0,0,1-3.248,1.838,5.243,5.243,0,0,1-4.751-1.508,5.746,5.746,0,0,1-1.306-1.706,2.127,2.127,0,0,0-3.346-.6,12.054,12.054,0,0,0-1.23,1.336,6.394,6.394,0,0,1-1.919,1.52,4.514,4.514,0,0,1-5.094-.637,13.769,13.769,0,0,1-1.157-1.2,4.98,4.98,0,0,0-3.038-1.777,4.333,4.333,0,0,0-2.247.393,10.875,10.875,0,0,0-3.589,2.413,5.7,5.7,0,0,1-4.292,1.852,5.925,5.925,0,0,1-3.8-1.6,16.416,16.416,0,0,1-1.389-1.5,6.269,6.269,0,0,0-1.7-1.317,2.28,2.28,0,0,0-1.907-.1,10.334,10.334,0,0,0-4.127,2.531,6.365,6.365,0,0,1-3.6,1.947A3.552,3.552,0,0,1,1.371,140.8a9.71,9.71,0,0,1-1.288-4.121,7.888,7.888,0,0,1-.072-1.446" fill="#f3534a"/>
    <path d="M43.911,10.414a15.478,15.478,0,0,1,3.044.293,1.916,1.916,0,0,1,.894.468A.746.746,0,0,1,48.1,12c-.1.3-.377.35-.653.351a11.02,11.02,0,0,0-4.4.975,10.631,10.631,0,0,0-4.773,4.053,23.148,23.148,0,0,0-1.52,2.918,2.831,2.831,0,0,1-.744.938,1.452,1.452,0,0,1-2.125-.405,3.668,3.668,0,0,1-.254-2.754A9.953,9.953,0,0,1,36,13.815a10.082,10.082,0,0,1,5.99-3.277,8.533,8.533,0,0,1,1.924-.124" fill="#f3534a"/>
    <path d="M45.187,8.534a17.477,17.477,0,0,0-4.1.4A12.576,12.576,0,0,0,36.282,11.5c-.86.686-1.65,1.449-2.441,2.211a3.906,3.906,0,0,1-1.28.862,1.094,1.094,0,0,1-1.616-1.219,4.415,4.415,0,0,1,.6-1.9A10.81,10.81,0,0,1,40.15,5.937a15.048,15.048,0,0,1,6.2.715,3.874,3.874,0,0,1,1.207.62.653.653,0,0,1,.335.635.686.686,0,0,1-.589.525,7.342,7.342,0,0,1-1.016.1c-.365.016-.732,0-1.1,0" fill="#f3534a"/>
    <path d="M39.246,21.762a8.129,8.129,0,0,1,1.96-5.178,6.674,6.674,0,0,1,3.432-2.036c.29-.072.638-.182.877.133a.817.817,0,0,1-.044.958,1.574,1.574,0,0,1-.215.308,10.335,10.335,0,0,0-2.332,4.2,7.949,7.949,0,0,0-.341,3.876,2.433,2.433,0,0,1-.034.979,1.123,1.123,0,0,1-1.318.847,1.807,1.807,0,0,1-1.253-.951,7.154,7.154,0,0,1-.732-3.133" fill="#f3534a"/>
    <path d="M61.049,4.128a5.906,5.906,0,0,1-1.088,3.587,2.67,2.67,0,0,1-.442.466,1.112,1.112,0,0,1-1.4.118,2.545,2.545,0,0,1-1.067-1.2,6.953,6.953,0,0,1-.411-5.3,3.543,3.543,0,0,1,1-1.491A1.242,1.242,0,0,1,58.921.079,2.5,2.5,0,0,1,60.372,1.39a5.828,5.828,0,0,1,.677,2.738" fill="#f3534a"/>
    <path d="M65.8,4.44a7.439,7.439,0,0,1-.47,2.8,2.6,2.6,0,0,1-.316.6.886.886,0,0,1-1.519.1,2.21,2.21,0,0,1-.484-.933,8.706,8.706,0,0,1-.058-5,3.448,3.448,0,0,1,.134-.394,1.02,1.02,0,0,1,.855-.758,1.189,1.189,0,0,1,1.188.58,3.926,3.926,0,0,1,.59,1.7c.056.513.064,1.032.08,1.3" fill="#f3534a"/>
  </g>
</svg>
