<svg id="report-sending" xmlns="http://www.w3.org/2000/svg" xmlns:xlink="http://www.w3.org/1999/xlink" width="20.008" height="20.006" viewBox="0 0 20.008 20.006">
  <g transform="translate(0 0)" clip-path="url(#clip-path)">
    <path d="M5.669,20A5.5,5.5,0,0,1,1.56,18.352,6.045,6.045,0,0,1,0,14.087V5.919A6.042,6.042,0,0,1,1.562,1.654,5.5,5.5,0,0,1,5.669,0h8.67a5.5,5.5,0,0,1,4.109,1.651A6.045,6.045,0,0,1,20,5.919v8.168a6.042,6.042,0,0,1-1.557,4.265A5.5,5.5,0,0,1,14.337,20ZM1.5,5.919v8.168C1.5,16.77,3.138,18.5,5.668,18.5h8.669c2.532,0,4.167-1.733,4.167-4.416V5.919A4.58,4.58,0,0,0,17.378,2.7a4.039,4.039,0,0,0-3.039-1.2H5.669C3.139,1.5,1.5,3.237,1.5,5.919M8.371,12.98,8.288,12.9l-2.375-2.37A.75.75,0,0,1,6.89,9.4l.084.073,1.843,1.842L13.033,7.1a.75.75,0,0,1,1.133.976l-.073.085L9.348,12.9a.75.75,0,0,1-.977.073Z" fill="#64b64b"/>
  </g>
</svg>
