<svg id="report-send" xmlns="http://www.w3.org/2000/svg" xmlns:xlink="http://www.w3.org/1999/xlink" width="20.001" height="18.001" viewBox="0 0 20.001 18.001">
  <g transform="translate(0 0)">
    <g clip-path="url(#clip-path)">
      <path d="M5.457,18a5.249,5.249,0,0,1-3.916-1.693A6.11,6.11,0,0,1,0,12.141V5.859a6.11,6.11,0,0,1,1.54-4.166A5.249,5.249,0,0,1,5.457,0h9.069A5.556,5.556,0,0,1,20,5.637c0,.074,0,.148-.008.222V12.1a5.621,5.621,0,0,1-1.476,4.131,5.557,5.557,0,0,1-4,1.773ZM1.518,5.859v6.282A4.013,4.013,0,0,0,5.2,16.46q.129.01.258.012h9.052A4.026,4.026,0,0,0,17.4,15.185a4.091,4.091,0,0,0,1.071-3.044V5.814a4.08,4.08,0,0,0-1.072-3,4.021,4.021,0,0,0-2.894-1.287H5.457A4.011,4.011,0,0,0,1.506,5.6c0,.087,0,.173.012.26m6.865,4.279-.161-.118L4.087,6.72a.769.769,0,0,1-.122-1.074.755.755,0,0,1,.973-.187l.094.063,4.129,3.3a1.378,1.378,0,0,0,1.58.088l.118-.082,4.1-3.3a.753.753,0,0,1,1.06.112l.006.007a.769.769,0,0,1-.035,1l-.083.076-4.106,3.3a2.891,2.891,0,0,1-3.416.114Z" fill="#4b4da8"/>
    </g>
  </g>
</svg>
