<svg id="school-mom" xmlns="http://www.w3.org/2000/svg" xmlns:xlink="http://www.w3.org/1999/xlink" width="32" height="32" viewBox="0 0 32 32">
  <g clip-path="url(#clip-path)">
    <path d="M30.843,20.254a4.4,4.4,0,0,1-2.432,4.128,7.056,7.056,0,0,1-1.155.472,1.583,1.583,0,0,0-.87.74,11.57,11.57,0,0,1-20.579.029,1.5,1.5,0,0,0-.96-.746l-.168-.043a4.732,4.732,0,0,1-3.522-4.427,3.121,3.121,0,0,1,2.466-3.3c.175-.049.341-.13.55-.213a12.322,12.322,0,0,1,5.738-9.43,6.491,6.491,0,0,1,2.274-5.9A5.964,5.964,0,0,1,16.221.115,6.252,6.252,0,0,1,21.04,2.407a7.2,7.2,0,0,1,1.483,5.08A12.338,12.338,0,0,1,28.207,17a3.2,3.2,0,0,1,2.636,3.259" fill="#fff"/>
    <path d="M28.312,16.907a12.48,12.48,0,0,0-5.675-9.479,7.208,7.208,0,0,0-1.511-5.093A6.348,6.348,0,0,0,16.224,0a6.032,6.032,0,0,0-4.11,1.482A6.584,6.584,0,0,0,9.793,7.411a12.5,12.5,0,0,0-5.724,9.408l-.122.051A3.067,3.067,0,0,1,3.592,17a3.224,3.224,0,0,0-2.547,3.4,4.822,4.822,0,0,0,3.608,4.535l.168.043a1.4,1.4,0,0,1,.887.69A11.718,11.718,0,0,0,16.087,32h.028a11.7,11.7,0,0,0,10.371-6.353,1.458,1.458,0,0,1,.807-.687,7.307,7.307,0,0,0,1.173-.479,4.525,4.525,0,0,0,2.489-4.229,3.311,3.311,0,0,0-2.643-3.345M19.544,6.1c-1.152-.2-2.241-.382-3.354-.475a11.832,11.832,0,0,0-4.682.886l-.088.029a4.557,4.557,0,0,1,2.288-4.248A4.868,4.868,0,0,1,16.2,1.556a4.767,4.767,0,0,1,2.674.871,4.581,4.581,0,0,1,2.113,3.908c-.49-.077-.971-.158-1.445-.239m6.97,10.85a9.432,9.432,0,0,1-4.569-1.118,31.974,31.974,0,0,1-2.811-1.879q-.441-.32-.886-.635a.688.688,0,0,0-1.077.479,2.971,2.971,0,0,0,0,.525l0,.032a4.279,4.279,0,0,1-.591,2.517,1.521,1.521,0,0,1-.163.208c0-.053.005-.105.006-.157a4.849,4.849,0,0,0-.643-3.3.563.563,0,0,0-.383-.231.576.576,0,0,0-.435.116,3.731,3.731,0,0,0-.546.484c-.344.389-.7.839-1.119,1.417-1.238,1.7-3.005,2.419-5.553,2.251a7.477,7.477,0,0,1-1.31-.249c-.176-.044-.35-.087-.52-.125-.505-2.484,1.408-6.2,4.212-8.167a10.548,10.548,0,0,1,11.728-.286c3,1.846,5.034,5.962,4.656,8.119m-12.425-.033c.157-.174.318-.347.5-.54l.256-.275a1.468,1.468,0,0,1-.436,1.2A1.262,1.262,0,0,0,14.3,19.15a1.5,1.5,0,0,0,1.883.289,4.858,4.858,0,0,0,2.223-2.68c.085-.21.151-.422.227-.668.027-.088.055-.179.086-.275l.148.073a3.855,3.855,0,0,1,.486.268,12.17,12.17,0,0,0,7.889,2.323,1.976,1.976,0,0,1,1.719.578,2.288,2.288,0,0,1,.3,2.06,2.917,2.917,0,0,1-2.038,2.2c-.281.09-.572.159-.82.215a1.7,1.7,0,0,0-1.157.922,9.739,9.739,0,0,1-9.129,5.973H16.08c-4.092,0-7.252-2.061-9.14-5.962a1.637,1.637,0,0,0-1.146-.9,8.577,8.577,0,0,1-.919-.227,3.21,3.21,0,0,1-2.208-2.815,1.907,1.907,0,0,1,.583-1.668,1.52,1.52,0,0,1,.968-.312,2.5,2.5,0,0,1,.7.106,13.16,13.16,0,0,0,4.132.538,6.66,6.66,0,0,0,5.042-2.276" fill=""/>
    <path d="M19.193,27.58a4.7,4.7,0,0,1-6.2-.009.572.572,0,0,1,.695-.895,4.329,4.329,0,0,0,4.777.009.573.573,0,0,1,.677.051l.015.013a.569.569,0,0,1,.038.831" fill=""/>
    <path d="M22.207,21.771q0,1.485-.934,1.506c-.646.013-.952-.456-.955-1.463s.278-1.481.919-1.5.971.457.97,1.455" fill=""/>
    <path d="M11.681,21.827a5.871,5.871,0,0,1-.03.6.86.86,0,0,1-.886.819.847.847,0,0,1-.929-.774,4.683,4.683,0,0,1,.023-1.428.833.833,0,0,1,.965-.721.867.867,0,0,1,.818.777,6.122,6.122,0,0,1,.039.722" fill=""/>
  </g>
</svg>
