<svg xmlns="http://www.w3.org/2000/svg" xmlns:xlink="http://www.w3.org/1999/xlink" width="271" height="48" viewBox="0 0 271 48">
  <g clip-path="url(#clip-path)">
    <g transform="translate(16.131 7)">
      <g clip-path="url(#clip-path-2)">
        <path d="M8.963,11.055a7.677,7.677,0,0,0,1.3-.318,20.16,20.16,0,0,1,6.965-1.015c.627.03,1.252.083,1.878.084.584,0,1.383.323,1.605-.435.192-.652-.555-.917-1.02-1.265a1.163,1.163,0,0,0-.27-.139,15.744,15.744,0,0,0-8.685-.706A7.174,7.174,0,0,0,7.678,8.594a1.215,1.215,0,0,0-.5,1.648,1.538,1.538,0,0,0,1.787.813" transform="translate(-0.842 -1.264)" fill="#f4d30e"/>
        <path d="M8.376,16.9a18.72,18.72,0,0,0,7.282-2.708.634.634,0,0,0,.313-.814c-.135-.363-.485-.427-.847-.405A17.419,17.419,0,0,0,7.7,14.918c-.613.335-1.166.854-.964,1.5.2.621,1.024.329,1.642.489" transform="translate(-0.802 -2.355)" fill="#f4d30e"/>
        <path d="M28.635,5.521a1.065,1.065,0,0,0,1.193.359.958.958,0,0,0,.658-.868,6.776,6.776,0,0,0-.746-3.977A1.54,1.54,0,0,0,28.065.029c-.784.161-.918.849-.921,1.5,0,.155,0,.309,0,.376a4.25,4.25,0,0,0,1.491,3.615" transform="translate(-3.25 0)" fill="#f4d30e"/>
        <path d="M34.018,5.906c.521.017.761-.363.975-.728a4.966,4.966,0,0,0,.481-4.124A1.12,1.12,0,0,0,34.6.215a1.253,1.253,0,0,0-1.233.532,2.7,2.7,0,0,0-.5,1.815,4.421,4.421,0,0,0,.313,2.5c.174.355.28.829.837.847" transform="translate(-3.933 -0.035)" fill="#f4d30e"/>
        <path d="M7.306,21.145c-.349.673-.121,1.011.692,1.024,1.3.021,3.971-1.568,4.433-2.627.251-.574-.2-.638-.625-.681a5.861,5.861,0,0,0-4.5,2.284" transform="translate(-0.857 -3.422)" fill="#f4d30e"/>
        <path d="M26.323,19.164c.5.019.5.449.582.813.419,1.865,1.891,3.01,4.243,3.307.615.078,1.239.124,1.861.14a4.426,4.426,0,0,0,4.526-2.952A8.069,8.069,0,0,0,32.56,10.059a9.806,9.806,0,0,0-8.777,1.08c-3.3,2.121-5.359,5.157-7.072,8.411-1.6,3.041-2.684,6.276-4.025,9.415C10.927,33.081,9.213,37.214,7.5,41.347l-.013-.007s-.144.362-.364.916c-.448,1.08-2.158,5.417-2.271,5.7A105.735,105.735,0,0,0,.54,60.628a12.238,12.238,0,0,0,.3,8.084,7.154,7.154,0,0,0,3.831,4.164,13.176,13.176,0,0,0,3.125.671c6.431,1.036,7.138-1.208,7.856-.8,6.949,3.94,13.166.922,13.456-2.938.012-.159-.51,3.573,1.917,3.653,4.308.142,5.484-2.436,5.7-3.587a28.5,28.5,0,0,0-.108-8.028c-.022-.226-.386-2.559-.391-2.6-.643-5.945-1.347-11.884-1.972-17.831-.407-3.875-.746-7.756-1.188-11.628a7.329,7.329,0,0,1,.276-3.14c.344-1.04-.056-1.514-1.274-1.612a11.923,11.923,0,0,1-4.638-1.349c-1.4-.737-2.354-2.626-1.933-3.741.146-.388.327-.794.828-.775" transform="translate(0 -1.722)" fill="#f4d30e"/>
        <path d="M29.359,81.176c-.043.33-.334,3.551,1.921,3.626,4.308.142,5.484-2.435,5.7-3.586a28.5,28.5,0,0,0-.108-8.028c-.011-.1-.092-.652-.179-1.218-.116,3.28-.174,4.974-.174,5.9,0,2.172.139,2.927-1.105,4.712-.868,1.245-6.63,3.214-5.478-2,.176-.8.805-4.941.805-4.941s.059-.754.053-1.395c-.011-1.24-.4-1.717-.531-1.78-.026-.013-.077-.026-.1-.007-.04.035.025.151.031.164a16.273,16.273,0,0,1-.467,5.362c-.3,1.3-1.319,4.74-3.671,6.03-2.735,1.5-7.98,1.265-9.965-1.86-.937-1.475-1.217-4.263-1.415-8.679a5.085,5.085,0,0,0-.165-1.116,22.2,22.2,0,0,0-.364,4.385c.076,2.237.567,5.007-.6,6.166-2.408,2.392-8.04.88-8.606.656a9.988,9.988,0,0,1-2.8-1.59,6.4,6.4,0,0,0,2.782,2.242,13.134,13.134,0,0,0,3.125.67c6.43,1.037,7.138-1.208,7.856-.8,6.934,3.93,13.135.936,13.453-2.912" transform="translate(-0.257 -13.065)" fill="#e9b817"/>
      </g>
    </g>
  </g>
</svg>
