<svg id="user" xmlns="http://www.w3.org/2000/svg" xmlns:xlink="http://www.w3.org/1999/xlink" width="15.997" height="19.956" viewBox="0 0 15.997 19.956">
  <g transform="translate(0 0)" clip-path="url(#clip-path)">
    <path d="M6.676,19.92H6.392l-.144,0a2.162,2.162,0,0,1-.4-.047,15.432,15.432,0,0,1-2.333-.338l-.256-.054a3.959,3.959,0,0,1-2.975-1.9A2.924,2.924,0,0,1,0,16.319a2.879,2.879,0,0,1,.287-1.263,4.332,4.332,0,0,1,3.2-1.948,16.776,16.776,0,0,1,2.339-.331c.718-.063,1.448-.094,2.17-.094s1.452.031,2.17.094l.461.039a17.194,17.194,0,0,1,1.873.292c1.727.355,2.749.979,3.215,1.962a2.911,2.911,0,0,1,0,2.5c-.464.978-1.512,1.616-3.2,1.949l-.468.1a15.849,15.849,0,0,1-1.88.245c-.715.061-1.442.092-2.158.092-.446,0-.895-.012-1.333-.036m-.734-5.7a15.519,15.519,0,0,0-2.156.3,3.209,3.209,0,0,0-2.205,1.168,1.419,1.419,0,0,0-.14.624,1.445,1.445,0,0,0,.139.627c.255.527,1.025.93,2.228,1.165l.353.075a15.555,15.555,0,0,0,1.874.249,1.741,1.741,0,0,0,.287.033l.393.006c.429.023.866.035,1.3.035.678,0,1.366-.029,2.047-.087a14.335,14.335,0,0,0,2.162-.315l.225-.048a2.769,2.769,0,0,0,1.973-1.108,1.462,1.462,0,0,0,0-1.259c-.245-.516-1.008-.92-2.209-1.167a15.6,15.6,0,0,0-2.152-.3h-.013c-.675-.059-1.361-.089-2.038-.089s-1.382.022-2.067.086ZM2.692,5.291A5.313,5.313,0,1,1,8,10.626,5.313,5.313,0,0,1,2.692,5.291m1.442,0A3.871,3.871,0,1,0,8,1.4,3.871,3.871,0,0,0,4.134,5.291"/>
  </g>
</svg>
