<svg xmlns="http://www.w3.org/2000/svg" xmlns:xlink="http://www.w3.org/1999/xlink" width="18" height="18" viewBox="0 0 18 18">
  <g transform="translate(-912 -847)">
    <g transform="translate(912 847)" fill="#fff" stroke="#707070" stroke-width="1" opacity="0">
      <rect width="18" height="18" stroke="none"/>
      <rect x="0.5" y="0.5" width="17" height="17" fill="none"/>
    </g>
    <g transform="translate(912 847)">
      <g transform="translate(0 0)" clip-path="url(#clip-path)">
        <path d="M3.017,16.574c-.074-.019-.149-.036-.223-.056a2.33,2.33,0,0,1-1.076-.63A2.806,2.806,0,0,1,.9,13.97a3.115,3.115,0,0,1,.089-.829,3.721,3.721,0,0,1,.352-.91A4.706,4.706,0,0,1,2.3,11.015a5.653,5.653,0,0,1,.944-.7,7.006,7.006,0,0,0,.895-.644c.355-.3.687-.622,1.015-.949.29-.289.577-.581.88-.856a6.354,6.354,0,0,1,.719-.579,2.972,2.972,0,0,1,1.04-.47,2.323,2.323,0,0,1,.86-.027,3.712,3.712,0,0,1,.944.272,2.8,2.8,0,0,1,1.141.921,5.111,5.111,0,0,1,.512.9c.154.332.289.673.431,1.01a11.916,11.916,0,0,0,.525,1.12,7.013,7.013,0,0,0,.682,1.025,6.005,6.005,0,0,1,.783,1.26,4.648,4.648,0,0,1,.37,1.215,3.615,3.615,0,0,1,.019.99,2.827,2.827,0,0,1-.537,1.373,2.756,2.756,0,0,1-1.069.858,2.8,2.8,0,0,1-.986.264,2.53,2.53,0,0,1-.368,0H11.05c-.017.006-.034,0-.05,0s-.028-.009-.042,0l-.309-.055c-.011-.011-.026-.007-.039-.011l-.035-.006-.03-.005a4.089,4.089,0,0,1-.753-.259c-.414-.177-.815-.385-1.225-.57a8.1,8.1,0,0,0-1.02-.388,5.045,5.045,0,0,0-.739-.154,3.944,3.944,0,0,0-.6-.031c-.4.005-.792.042-1.187.079a11.719,11.719,0,0,1-1.256.074,3.043,3.043,0,0,1-.51-.04c-.034-.006-.07-.008-.105-.014a.83.83,0,0,1-.131-.029M13.276,1.1A1.861,1.861,0,0,1,14.44,2.124a2.848,2.848,0,0,1,.269,1.1,3.75,3.75,0,0,1-.079.978,4.264,4.264,0,0,1-.717,1.627,3.6,3.6,0,0,1-.88.874,2.588,2.588,0,0,1-1.009.432,1.855,1.855,0,0,1-.773-.014,1.772,1.772,0,0,1-1.058-.72,2.5,2.5,0,0,1-.421-1.048,3.418,3.418,0,0,1-.04-.8A3.865,3.865,0,0,1,9.8,4a4.308,4.308,0,0,1,.447-1.2A3.94,3.94,0,0,1,11.1,1.735a2.942,2.942,0,0,1,.982-.584,2.144,2.144,0,0,1,.833-.118,1.492,1.492,0,0,1,.364.064M.1,5.491a2.382,2.382,0,0,1,.172-.486,2.118,2.118,0,0,1,.6-.78A1.641,1.641,0,0,1,1.88,3.855a1.793,1.793,0,0,1,.864.209,2.466,2.466,0,0,1,.792.657A3.345,3.345,0,0,1,4.2,6.152a3.521,3.521,0,0,1,.076.839,3.271,3.271,0,0,1-.04.409,2.859,2.859,0,0,1-.217.742,2.154,2.154,0,0,1-.611.81,1.638,1.638,0,0,1-1.071.372A1.8,1.8,0,0,1,1.51,9.1a2.554,2.554,0,0,1-.86-.765,3.3,3.3,0,0,1-.5-1.015A3.5,3.5,0,0,1,0,6.221c0-.066.005-.133.008-.2,0-.031.006-.06,0-.091a.165.165,0,0,1,0-.037c0-.016.011-.031,0-.049.014-.079.028-.158.042-.237.019-.019.015-.044.021-.067s0-.036.016-.05M4.411,2.4a3.65,3.65,0,0,1,.456-1.263A2.578,2.578,0,0,1,5.521.388,1.819,1.819,0,0,1,6.5.005a1.747,1.747,0,0,1,1.02.24,2.34,2.34,0,0,1,.7.632,3.412,3.412,0,0,1,.6,1.366,4.08,4.08,0,0,1,.087.959,4.389,4.389,0,0,1-.049.547,3.818,3.818,0,0,1-.168.672,3.015,3.015,0,0,1-.749,1.2,2.011,2.011,0,0,1-.756.467,1.684,1.684,0,0,1-.976.034A1.934,1.934,0,0,1,5.421,5.7a2.818,2.818,0,0,1-.7-.937A3.818,3.818,0,0,1,4.369,3.42a4.268,4.268,0,0,1,.008-.77A2.445,2.445,0,0,1,4.411,2.4m13.22,6.469c0,.018-.006.036-.009.055a3.351,3.351,0,0,1-.565,1.228,3.483,3.483,0,0,1-.746.763,2.866,2.866,0,0,1-1.235.55,2.039,2.039,0,0,1-.819-.017,1.665,1.665,0,0,1-.977-.633,1.932,1.932,0,0,1-.364-.917,2.6,2.6,0,0,1,.035-.9,3.47,3.47,0,0,1,.9-1.694,3.269,3.269,0,0,1,.505-.437A2.816,2.816,0,0,1,15.6,6.36a2,2,0,0,1,.773.039,1.661,1.661,0,0,1,.945.633,1.967,1.967,0,0,1,.366.983,2.36,2.36,0,0,1-.009.594c0,.018-.006.036-.009.055-.014.066-.026.134-.036.2" transform="translate(0 0)" fill="#494949"/>
      </g>
    </g>
  </g>
</svg>
