<svg id="youtube-icon" xmlns="http://www.w3.org/2000/svg" xmlns:xlink="http://www.w3.org/1999/xlink" width="21.104" height="15.833" viewBox="0 0 21.104 15.833">
  <g clip-path="url(#clip-path)">
    <path d="M20.893,3.417a5.075,5.075,0,0,0-.838-2.236A2.911,2.911,0,0,0,17.94.229C14.987,0,10.557,0,10.557,0h-.01S6.117,0,3.164.229a2.912,2.912,0,0,0-2.114.952A5.083,5.083,0,0,0,.211,3.417,36.263,36.263,0,0,0,0,7.06V8.767a36.25,36.25,0,0,0,.211,3.644,5.064,5.064,0,0,0,.838,2.234,3.451,3.451,0,0,0,2.327.963c1.688.173,7.176.226,7.176.226s4.435-.008,7.388-.234a2.924,2.924,0,0,0,2.114-.954,5.073,5.073,0,0,0,.838-2.234A36.267,36.267,0,0,0,21.1,8.768V7.06a36.267,36.267,0,0,0-.211-3.644" fill="#e02f2f"/>
    <path d="M12,6v7.917l6.6-3.958Z" transform="translate(-4.083 -2.042)" fill="#fff"/>
  </g>
</svg>
