<svg xmlns="http://www.w3.org/2000/svg" xmlns:xlink="http://www.w3.org/1999/xlink" width="24" height="24" viewBox="0 0 24 24"><defs><clipPath id="a"><rect width="22" height="17.81" transform="translate(0 0)" fill="#200e32"/></clipPath></defs><g transform="translate(-708 -939)"><g transform="translate(708 939)" fill="#200e32" stroke="#707070" stroke-width="1" opacity="0"><rect width="24" height="24" stroke="none"/><rect x="0.5" y="0.5" width="23" height="23" fill="none"/></g><g transform="translate(708.911 942.422)"><g transform="translate(0.089 -0.422)" clip-path="url(#a)"><path d="M2.79,10h7.9a.79.79,0,1,1,0,1.579H2.79A.79.79,0,1,1,2.79,10" transform="translate(-0.529 -1.665)" fill="#200e32"/><path d="M.79,5H7.106a.79.79,0,0,1,0,1.579H.79A.79.79,0,1,1,.79,5" transform="translate(-0.108 -0.612)" fill="#200e32"/><path d="M22.67,8.375,20.3,2.847a.789.789,0,0,0-.726-.478H17.207V.79a.79.79,0,0,0-.79-.79H4.575a.79.79,0,0,0,0,1.579H15.628v9.913a3.154,3.154,0,0,0-1.467,1.93H9.2A3.158,3.158,0,1,0,9.2,15h4.961a3.143,3.143,0,0,0,6.092,0h1.691a.79.79,0,0,0,.79-.79V8.685a.773.773,0,0,0-.064-.309M6.154,15.791a1.579,1.579,0,1,1,1.579-1.579,1.579,1.579,0,0,1-1.579,1.579M17.207,3.948h1.848L20.747,7.9h-3.54Zm0,11.843a1.579,1.579,0,1,1,1.579-1.579,1.579,1.579,0,0,1-1.579,1.579m3.948-2.369h-.9a3.154,3.154,0,0,0-3.046-2.369V9.474h3.948Z" transform="translate(-0.735 0.44)" fill="#200e32"/></g></g></g></svg>