<svg xmlns="http://www.w3.org/2000/svg" xmlns:xlink="http://www.w3.org/1999/xlink" width="24" height="24" viewBox="0 0 24 24"><defs><clipPath id="a"><rect width="19.029" height="20.01" transform="translate(0 0)" fill="#200e32"/></clipPath></defs><g transform="translate(-646 -472)"><g transform="translate(646 472)" fill="#200e32" stroke="#707070" stroke-width="1" opacity="0"><rect width="24" height="24" stroke="none"/><rect x="0.5" y="0.5" width="23" height="23" fill="none"/></g><g transform="translate(648 474)"><g clip-path="url(#a)"><path d="M5.448,20C3.379,20,1.88,19.473.992,18.441S-.19,15.852.118,13.809L.879,7.94A4.714,4.714,0,0,1,2.218,5.312a3.394,3.394,0,0,1,2.359-.933,4.931,4.931,0,0,1,9.8,0h.072c1.8,0,3.216,1.38,3.7,3.6l.786,6.066a5.39,5.39,0,0,1-1.085,4.329A5.571,5.571,0,0,1,13.545,20ZM2.316,8.164,1.56,14.009c-.247,1.635-.068,2.777.546,3.492S3.784,18.55,5.448,18.55h8.1a4.091,4.091,0,0,0,3.239-1.158,4.125,4.125,0,0,0,.683-3.4l-.743-5.767c-.333-1.5-1.183-2.4-2.273-2.4H4.577c-1.142,0-1.988.872-2.261,2.339m10.6-3.785a3.475,3.475,0,0,0-6.868,0Zm-.593,5.582a.724.724,0,0,1-.1-1.441l.1-.006h.044a.724.724,0,0,1,.1,1.441l-.1.006Zm-5.656,0a.724.724,0,0,1-.1-1.441l.1-.006h.042a.724.724,0,0,1,.1,1.441l-.1.006Z" fill="#200e32"/></g></g></g></svg>