<svg id="star-active" xmlns="http://www.w3.org/2000/svg" xmlns:xlink="http://www.w3.org/1999/xlink" width="12" height="11.399" viewBox="0 0 12 11.399">
  <g transform="translate(0 0)">
    <g transform="translate(0 0)" clip-path="url(#clip-path)">
      <path d="M9.55,7.091a.66.66,0,0,0-.191.582l.533,2.952a.648.648,0,0,1-.27.648.659.659,0,0,1-.7.048L6.263,9.935a.67.67,0,0,0-.3-.079H5.8a.483.483,0,0,0-.162.054L2.981,11.3a.7.7,0,0,1-.426.066.667.667,0,0,1-.534-.763l.534-2.952a.671.671,0,0,0-.191-.587L.2,4.968A.647.647,0,0,1,.036,4.29a.674.674,0,0,1,.533-.45l2.982-.433a.667.667,0,0,0,.529-.365L5.393.348a.635.635,0,0,1,.12-.162L5.567.144a.418.418,0,0,1,.1-.078L5.729.042,5.831,0h.253a.671.671,0,0,1,.528.36L7.943,3.042a.666.666,0,0,0,.5.365l2.982.433a.68.68,0,0,1,.546.45.651.651,0,0,1-.174.678Z" transform="translate(0 0)" fill="#fac607"/>
    </g>
  </g>
</svg>
