<svg xmlns="http://www.w3.org/2000/svg" xmlns:xlink="http://www.w3.org/1999/xlink" width="47" height="22" viewBox="0 0 47 22">
  <defs>
    <clipPath id="clip-path">
      <rect id="Rectangle_2514" data-name="Rectangle 2514" width="33.268" height="21.047" fill="none"/>
    </clipPath>
  </defs>
  <g id="mc_card" transform="translate(-362 -8163)">
    <g id="Rectangle_2516" data-name="Rectangle 2516" transform="translate(362 8163)" fill="#fff" stroke="#707070" stroke-width="1" opacity="0">
      <rect width="47" height="22" stroke="none"/>
      <rect x="0.5" y="0.5" width="46" height="21" fill="none"/>
    </g>
    <g id="mc" transform="translate(368.867 8163.738)">
      <g id="Group_2865" data-name="Group 2865" transform="translate(0 -0.262)" clip-path="url(#clip-path)">
        <path id="Path_26503" data-name="Path 26503" d="M10.435,0A10.435,10.435,0,1,1,0,10.435,10.434,10.434,0,0,1,10.435,0" transform="translate(0 0.178)" fill="#f93232"/>
        <path id="Path_26504" data-name="Path 26504" d="M22.435,0a10.368,10.368,0,0,0-6.24,2.087h-.021V2.1A10.5,10.5,0,0,0,15.019,3.13h2.31a10.123,10.123,0,0,1,.892,1.043h-4.1a10.363,10.363,0,0,0-.7,1.043h5.493a10.716,10.716,0,0,1,.541,1.043H12.891A10.26,10.26,0,0,0,12.5,7.3h7.35c.109.34.194.69.269,1.043H12.225a10.349,10.349,0,0,0-.164,1.043h8.223a8.825,8.825,0,0,1,.063,1.043H12a10.433,10.433,0,0,0,.063,1.043h8.225c-.04.354-.1.7-.169,1.043H12.226a10.2,10.2,0,0,0,.272,1.043h7.35a10.259,10.259,0,0,1-.393,1.043H12.891a10.2,10.2,0,0,0,.531,1.043h5.493a10.208,10.208,0,0,1-.7,1.043h-4.1a10.458,10.458,0,0,0,.9,1.043h2.311a10.486,10.486,0,0,1-1.155,1.029A10.43,10.43,0,1,0,22.435,0" transform="translate(0.521 0.178)" fill="#fed049"/>
      </g>
    </g>
  </g>
</svg>
