<svg xmlns="http://www.w3.org/2000/svg" xmlns:xlink="http://www.w3.org/1999/xlink" width="125.969" height="186.674" viewBox="0 0 125.969 186.674">
  <defs>
    <clipPath id="clip-path">
      <rect id="Rectangle_321" data-name="Rectangle 321" width="125.969" height="186.674" fill="none"/>
    </clipPath>
  </defs>
  <g id="Group_818" data-name="Group 818" transform="translate(0 -0.002)">
    <g id="Group_817" data-name="Group 817" transform="translate(0 0.002)" clip-path="url(#clip-path)">
      <path id="Path_654" data-name="Path 654" d="M100.813,461.383a17.915,17.915,0,0,1-3.821.043H0c.009-.262.013-.524.027-.786A164.467,164.467,0,0,1,4.02,431.555c.344-1.447.656-2.9,1.046-4.337.605-2.224,1.273-4.43,1.9-6.648.854-3.017,1.679-6.042,2.545-9.056,1-3.494,2-6.992,3.073-10.463.885-2.851,1.845-5.681,2.847-8.493.855-2.4,1.805-4.763,2.735-7.135,1.16-2.958,2.313-5.918,3.521-8.856s2.438-5.84,3.722-8.732c1.523-3.432,3.062-6.859,4.687-10.244,1.923-4,3.938-7.964,5.927-11.936.84-1.677,1.711-3.338,2.573-5,1.044-2.018,2.016-4.078,3.16-6.038,1.456-2.494,3.044-4.911,4.593-7.349a97.487,97.487,0,0,1,6.651-9.2,65.909,65.909,0,0,1,7.271-7.87,71.441,71.441,0,0,1,6.072-5,35.233,35.233,0,0,1,10.9-5.216,43.913,43.913,0,0,1,5.076-1.022,37.222,37.222,0,0,1,9.786-.264,25.394,25.394,0,0,1,10.163,3.421c6.259,3.658,11.558,9.871,13.1,17.08a30.769,30.769,0,0,1,.531,6.539c-.006,1.919.2,4.02-1.143,5.585a7.875,7.875,0,0,1-2.692,1.787l-3.076,1.477a4.745,4.745,0,0,0-1.561,1.023,3.063,3.063,0,0,0,.122,3.8,6.117,6.117,0,0,0,3.542,1.953,1.766,1.766,0,0,1,.966.423,1.265,1.265,0,0,1,.257.91,5.783,5.783,0,0,1-.96,2.484,44.426,44.426,0,0,0-3.2,7.5c-.3.883-.473,1.81-.731,2.708-.149.519-.141.576.4.6a16.514,16.514,0,0,1,4.323.71,17.831,17.831,0,0,1,5.03,2.8,18.443,18.443,0,0,1,5.785,6.861,23.389,23.389,0,0,1,2.238,5.82,44.164,44.164,0,0,1,.649,4.822,38.3,38.3,0,0,1,.082,4.821c-.424,8.449-5.117,16.907-10.62,23.135A45.358,45.358,0,0,1,111.8,408.5,45.973,45.973,0,0,1,101.1,415.73,62.755,62.755,0,0,1,88.9,419.8c-.583.15-1.192.211-1.786.315-1.855.326-2.5.164-2.159,2.163.312,1.839.693,3.668,1.128,5.483A88.36,88.36,0,0,0,90.575,441.5c1.908,4.525,4.329,8.795,6.649,13.116a33.909,33.909,0,0,0,1.756,3.271,19.236,19.236,0,0,1,1.832,3.5" transform="translate(0 -274.841)" fill="#f9ce46"/>
      <path id="Path_655" data-name="Path 655" d="M417.181,139.853a9.973,9.973,0,0,1,3.909.776,23.159,23.159,0,0,1,6.143,3.053,27.028,27.028,0,0,1,4.565,4.31,18.155,18.155,0,0,1,3.377,5.04,19.081,19.081,0,0,1,1.046,3.8A3.112,3.112,0,0,1,434.936,160a2.777,2.777,0,0,1-2.452.417A6.444,6.444,0,0,1,428.868,158c-.776-1.017-1.517-2.06-2.3-3.075A21.689,21.689,0,0,0,417.88,148c-1.174-.505-2.324-1.069-3.475-1.627a3.443,3.443,0,0,1-2.124-3.717,3.053,3.053,0,0,1,1.6-2.247,6.163,6.163,0,0,1,3.3-.557" transform="translate(-379.593 -128.76)" fill="#f9ce46"/>
      <path id="Path_656" data-name="Path 656" d="M394.925,306.444a10.431,10.431,0,0,1,5.341,1.645,35.635,35.635,0,0,1,6.076,4.791,11.535,11.535,0,0,1,2.364,3.247,11.03,11.03,0,0,1,.735,1.659,2.534,2.534,0,0,1-2.149,3.28c-.438.09-.886.136-1.331.189a2.229,2.229,0,0,1-1.885-.816,14.289,14.289,0,0,0-5.882-3.656c-1.964-.61-3.914-1.266-5.863-1.923a4.192,4.192,0,0,1-2.556-5.34,4.652,4.652,0,0,1,4.438-3.076c.237,0,.475,0,.712,0" transform="translate(-358.702 -282.172)" fill="#f9ce46"/>
      <path id="Path_657" data-name="Path 657" d="M914.48,16.512c.047,2.331-.221,4.826-1.735,6.426a3.014,3.014,0,0,1-3.818.635,6.94,6.94,0,0,1-3.356-4.114,9.792,9.792,0,0,1-.535-3.731,34.239,34.239,0,0,1,.9-7.605,16.46,16.46,0,0,1,1.037-2.69A2.976,2.976,0,0,1,908.237,4a2.112,2.112,0,0,1,2.978.546c2.235,2.658,2.869,5.961,3.119,9.332.06.807.128,1.706.146,2.63" transform="translate(-833.356 -3.33)" fill="#f9ce46"/>
      <path id="Path_658" data-name="Path 658" d="M1094.386,7.893a13.2,13.2,0,0,1,.587-5.079,8.723,8.723,0,0,1,.91-1.87,2.051,2.051,0,0,1,3.17-.352,8.949,8.949,0,0,1,2.555,4.377,40.289,40.289,0,0,1,1.381,5.734,15.908,15.908,0,0,1,.24,4.2c-.249,2.411-2.172,6.828-5.222,4.615a6.078,6.078,0,0,1-2.519-3.567,44.428,44.428,0,0,1-1.1-8.059" transform="translate(-1007.685 -0.003)" fill="#f9ce46"/>
      <path id="Path_659" data-name="Path 659" d="M431.7,475.378a9.378,9.378,0,0,1,8.016,3.908,1.7,1.7,0,0,1-.761,2.81,10.889,10.889,0,0,1-2.633.65,32.153,32.153,0,0,1-3.514.2,5.007,5.007,0,0,1-3.528-1.168,4.307,4.307,0,0,1-1.614-3.021,3.217,3.217,0,0,1,2.686-3.238c.517-.1,1.048-.111,1.348-.141" transform="translate(-393.785 -437.727)" fill="#f9ce46"/>
      <path id="Path_660" data-name="Path 660" d="M557.725,1554.805a13.168,13.168,0,0,1,1.168,2.725,22.906,22.906,0,0,1,.982,5.9,31.625,31.625,0,0,1-1,8.962c-.17.678-.361,1.413-.494,2.093a23.653,23.653,0,0,0-.085,9c1.642,8.846,8.867,17.127,18,18.377,5.773.713,10.466-2.226,13.44-7.065,2.533-4.092,3.782-8.844,4.609-13.552.167-.964.308-1.934.45-2.908.221,6.921-.741,14.36-4.878,20.126-5.429,7.464-14.537,8.128-22.164,3.663a24.852,24.852,0,0,1-11.334-28.894c.121-.437.331-.985.469-1.417.308-.9.578-1.822.814-2.744,1.148-4.523,1.553-9.777.027-14.257" transform="translate(-511.312 -1431.661)" fill="#faad0a"/>
      <path id="Path_661" data-name="Path 661" d="M1047.351,1081.543a5.91,5.91,0,0,1-.171-3.961,10.882,10.882,0,0,1,4.808-5.789c.455-.3.985-.6,1.458-.883a20.067,20.067,0,0,0,2.156-1.508c2.673-2.2,4.574-4.695,4.339-8.315a8.467,8.467,0,0,0-.418-2.06c-.193-.575-.469-1.146-.693-1.71-2.286-5.694-3.784-11.932-2.985-18.115a16.952,16.952,0,0,1,10.935-14.186,22.669,22.669,0,0,1,4.345-1.211,25.049,25.049,0,0,0-7.4,4.6c-7.2,6.63-5.616,17.364-2.728,25.727.35,1.024.734,2.034,1.141,3.038.073.207.272.7.323.914a10.819,10.819,0,0,1-.846,8.406l-.328.548c-.1.175-.251.361-.359.527-.169.26-.4.5-.592.748a17.791,17.791,0,0,1-5.415,4.123c-.8.4-1.7.762-2.49,1.182a9.708,9.708,0,0,0-4.726,4.726,5.94,5.94,0,0,0-.35,3.2" transform="translate(-964.003 -942.718)" fill="#faad0a"/>
    </g>
  </g>
</svg>
