<svg xmlns="http://www.w3.org/2000/svg" xmlns:xlink="http://www.w3.org/1999/xlink" width="166.926" height="48.315" viewBox="0 0 166.926 48.315">
  <g clip-path="url(#clip-path)">
    <path d="M19.8,45.062a2.579,2.579,0,0,1-1.218-.306A15.013,15.013,0,0,0,11.527,43a14.812,14.812,0,0,0-6.931,1.7,2.59,2.59,0,1,1-2.4-4.591,20.2,20.2,0,0,1,18.825.085A2.59,2.59,0,0,1,19.8,45.062" transform="translate(-0.436 -20.53)" fill="#e82727"/>
    <path d="M22.336,68.289A11.082,11.082,0,1,0,11.253,79.372v0h0a3.337,3.337,0,0,0,0-6.674h0v0a4.4,4.4,0,1,1,4.4-4.4h-.008v7.742h.007a3.337,3.337,0,0,0,6.674,0h.007Z" transform="translate(-0.093 -31.056)" fill="#e82727"/>
    <path d="M121.373,57.207h-15a3.337,3.337,0,0,0,0,6.674h3.978V76.03h.007a3.337,3.337,0,0,0,6.675,0h.006V63.881h4.333a3.337,3.337,0,1,0,0-6.674" transform="translate(-55.936 -31.056)" fill="#e82727"/>
    <path d="M230.4,70.948H230.4v-10.4h-.007a3.337,3.337,0,0,0-6.675,0h-.006v10.4h.007c0,.008,0,.015,0,.023a1.7,1.7,0,1,1-3.4,0c0-.008,0-.016,0-.023h-.013v-10.4H220.3a3.337,3.337,0,0,0-6.674,0h-.006v10.4h0v.023a1.7,1.7,0,1,1-3.4,0v-.023h-.006v-10.4h-.006a3.337,3.337,0,0,0-6.675,0h-.006v10.4a8.387,8.387,0,0,0,7.805,8.366,3.164,3.164,0,0,0,1.168,0,8.344,8.344,0,0,0,4.465-1.667,8.344,8.344,0,0,0,4.465,1.667,3.162,3.162,0,0,0,1.168,0,8.388,8.388,0,0,0,7.806-8.366" transform="translate(-110.49 -31.056)" fill="#e82727"/>
    <path d="M288.81,73.671l.009-.009-5.374-5.373,5.383-5.383,0,0a3.338,3.338,0,0,0-4.72-4.72l-.006-.006-5.383,5.383-2.681,2.681v-5.7h-.007a3.337,3.337,0,0,0-6.675,0h-.006V76.03h.006a3.337,3.337,0,0,0,6.675,0h.007V70.337l2.681,2.681,5.374,5.373h0a3.337,3.337,0,1,0,4.719-4.719" transform="translate(-146.223 -31.056)" fill="#e82727"/>
    <path d="M75.953,60.549h0a3.337,3.337,0,0,0-6.674,0h-.007v4.406H62.72V60.549h-.007a3.337,3.337,0,0,0-6.674,0h-.006V76.035h.006a3.337,3.337,0,0,0,6.674,0h.007V71.628h6.552v4.408h.007a3.337,3.337,0,0,0,6.674,0h.006V60.549Z" transform="translate(-30.418 -31.059)" fill="#e82727"/>
    <path d="M161.025,57.208A11.082,11.082,0,1,0,172.107,68.29a11.082,11.082,0,0,0-11.082-11.082m0,15.484a4.4,4.4,0,1,1,4.4-4.4,4.4,4.4,0,0,1-4.4,4.4" transform="translate(-81.401 -31.057)" fill="#e82727"/>
    <path d="M171.7,30.134a2.59,2.59,0,0,1-2.591-2.585c-.012-6.992,5.338-13.525,12.72-15.534a2.59,2.59,0,0,1,1.36,5c-5.082,1.383-8.908,5.907-8.9,10.525a2.59,2.59,0,0,1-2.586,2.595Z" transform="translate(-91.808 -6.473)" fill="#e82727"/>
    <path d="M156.584,24.688a2.592,2.592,0,0,1-2.567-2.267c-1.117-8.877,2.783-17.432,9.7-21.288a2.59,2.59,0,0,1,2.521,4.526c-5.015,2.793-7.928,9.421-7.085,16.115a2.591,2.591,0,0,1-2.247,2.894,2.719,2.719,0,0,1-.326.02" transform="translate(-83.509 -0.437)" fill="#e82727"/>
    <path d="M186.978,39.871a2.619,2.619,0,0,1-.734-.107,2.59,2.59,0,0,1-1.752-3.218c1.448-4.914,5.57-7.866,11.307-8.1a2.59,2.59,0,1,1,.21,5.176c-2.426.1-5.531.941-6.548,4.389a2.591,2.591,0,0,1-2.484,1.859" transform="translate(-100.099 -15.442)" fill="#e82727"/>
    <path d="M338.844,68.289a11.083,11.083,0,1,0-11.082,11.083v0a3.337,3.337,0,1,0,0-6.674v0a4.4,4.4,0,1,1,4.4-4.4h-.008v7.742h.007a3.337,3.337,0,1,0,6.674,0h.007Z" transform="translate(-171.918 -31.056)" fill="#e82727"/>
    <path d="M324.812,44.3a3.028,3.028,0,1,1-3.027-3.028,3.027,3.027,0,0,1,3.027,3.028" transform="translate(-173.046 -22.405)" fill="#e82727"/>
    <path d="M341.725,40.856a3.028,3.028,0,1,1-3.028-3.028,3.027,3.027,0,0,1,3.028,3.028" transform="translate(-182.227 -20.536)" fill="#e82727"/>
    <path d="M357.693,44.117a3.028,3.028,0,1,1-3.028-3.028,3.028,3.028,0,0,1,3.028,3.028" transform="translate(-190.896 -22.306)" fill="#e82727"/>
  </g>
</svg>
